G04 #@! TF.GenerationSoftware,KiCad,Pcbnew,(5.0.0)*
G04 #@! TF.CreationDate,2019-03-08T13:39:37-05:00*
G04 #@! TF.ProjectId,Dongle,446F6E676C652E6B696361645F706362,rev?*
G04 #@! TF.SameCoordinates,Original*
G04 #@! TF.FileFunction,Soldermask,Bot*
G04 #@! TF.FilePolarity,Negative*
%FSLAX46Y46*%
G04 Gerber Fmt 4.6, Leading zero omitted, Abs format (unit mm)*
G04 Created by KiCad (PCBNEW (5.0.0)) date 03/08/19 13:39:37*
%MOMM*%
%LPD*%
G01*
G04 APERTURE LIST*
%ADD10C,6.400000*%
%ADD11C,1.200000*%
%ADD12O,3.500000X1.200000*%
%ADD13R,1.200000X0.750000*%
%ADD14R,0.750000X1.200000*%
%ADD15R,2.000000X0.600000*%
%ADD16R,2.000000X1.500000*%
%ADD17R,2.000000X3.800000*%
%ADD18C,1.500000*%
%ADD19C,2.000000*%
%ADD20C,2.200000*%
G04 APERTURE END LIST*
D10*
G04 #@! TO.C,REF\002A\002A*
X57150000Y-6350000D03*
G04 #@! TD*
D11*
G04 #@! TO.C,J1*
X25256000Y-21955000D03*
X25256000Y-26955000D03*
D12*
X25856000Y-18055000D03*
X25856000Y-30855000D03*
G04 #@! TD*
D13*
G04 #@! TO.C,C5*
X37526000Y-3048000D03*
X35626000Y-3048000D03*
G04 #@! TD*
G04 #@! TO.C,C6*
X52832000Y-3048000D03*
X50932000Y-3048000D03*
G04 #@! TD*
D14*
G04 #@! TO.C,C7*
X56388000Y-25334000D03*
X56388000Y-23434000D03*
G04 #@! TD*
G04 #@! TO.C,C9*
X56388000Y-29840000D03*
X56388000Y-27940000D03*
G04 #@! TD*
G04 #@! TO.C,C10*
X35560000Y-26350000D03*
X35560000Y-24450000D03*
G04 #@! TD*
D15*
G04 #@! TO.C,U1*
X39115000Y-13970000D03*
X39115000Y-15240000D03*
X39115000Y-16510000D03*
X39115000Y-17780000D03*
X39115000Y-19050000D03*
X39115000Y-20320000D03*
X39115000Y-21590000D03*
X39115000Y-22860000D03*
X39115000Y-24130000D03*
X39115000Y-25400000D03*
X39115000Y-26670000D03*
X39115000Y-27940000D03*
X39115000Y-29210000D03*
X39115000Y-30480000D03*
X48515000Y-30480000D03*
X48515000Y-29210000D03*
X48515000Y-27940000D03*
X48515000Y-26670000D03*
X48515000Y-25400000D03*
X48515000Y-24130000D03*
X48515000Y-22860000D03*
X48515000Y-21590000D03*
X48515000Y-20320000D03*
X48515000Y-19050000D03*
X48515000Y-17780000D03*
X48515000Y-16510000D03*
X48515000Y-15240000D03*
X48515000Y-13970000D03*
G04 #@! TD*
D16*
G04 #@! TO.C,U3*
X41325000Y-8015000D03*
X41325000Y-3415000D03*
X41325000Y-5715000D03*
D17*
X47625000Y-5715000D03*
G04 #@! TD*
D18*
G04 #@! TO.C,Y1*
X52832000Y-29264000D03*
X52832000Y-24384000D03*
G04 #@! TD*
D19*
G04 #@! TO.C,J2*
X28575000Y-5715000D03*
D20*
X26025000Y-3165000D03*
X31125000Y-3165000D03*
X26025000Y-8265000D03*
X31125000Y-8265000D03*
G04 #@! TD*
D10*
G04 #@! TO.C,REF\002A\002A*
X24130000Y-13462000D03*
G04 #@! TD*
M02*
