G04 #@! TF.GenerationSoftware,KiCad,Pcbnew,(5.0.0)*
G04 #@! TF.CreationDate,2019-03-08T13:39:37-05:00*
G04 #@! TF.ProjectId,Dongle,446F6E676C652E6B696361645F706362,rev?*
G04 #@! TF.SameCoordinates,Original*
G04 #@! TF.FileFunction,Soldermask,Top*
G04 #@! TF.FilePolarity,Negative*
%FSLAX46Y46*%
G04 Gerber Fmt 4.6, Leading zero omitted, Abs format (unit mm)*
G04 Created by KiCad (PCBNEW (5.0.0)) date 03/08/19 13:39:37*
%MOMM*%
%LPD*%
G01*
G04 APERTURE LIST*
%ADD10R,1.200000X0.900000*%
%ADD11C,6.400000*%
%ADD12R,3.200000X1.200000*%
%ADD13C,1.200000*%
%ADD14O,3.500000X1.200000*%
%ADD15R,1.200000X0.400000*%
%ADD16R,2.000000X1.000000*%
%ADD17R,0.750000X1.200000*%
%ADD18R,1.200000X0.750000*%
%ADD19C,1.500000*%
%ADD20C,2.000000*%
%ADD21C,2.200000*%
%ADD22R,0.600000X0.800000*%
G04 APERTURE END LIST*
D10*
G04 #@! TO.C,R3*
X57551500Y-17272000D03*
X55351500Y-17272000D03*
G04 #@! TD*
D11*
G04 #@! TO.C,REF\002A\002A*
X57150000Y-6350000D03*
G04 #@! TD*
D12*
G04 #@! TO.C,J1*
X28956000Y-20955000D03*
X28956000Y-23455000D03*
X28956000Y-25455000D03*
X28956000Y-27955000D03*
D13*
X25256000Y-21955000D03*
X25256000Y-26955000D03*
D14*
X25856000Y-18055000D03*
X25856000Y-30855000D03*
G04 #@! TD*
D15*
G04 #@! TO.C,U2*
X41088000Y-23558500D03*
X41088000Y-24193500D03*
X41088000Y-24828500D03*
X41088000Y-25463500D03*
X41088000Y-26098500D03*
X41088000Y-26733500D03*
X41088000Y-27368500D03*
X41088000Y-28003500D03*
X41088000Y-28638500D03*
X41088000Y-29273500D03*
X46288000Y-29273500D03*
X46288000Y-28638500D03*
X46288000Y-28003500D03*
X46288000Y-27368500D03*
X46288000Y-26733500D03*
X46288000Y-26098500D03*
X46288000Y-25463500D03*
X46288000Y-24828500D03*
X46288000Y-24193500D03*
X46288000Y-23558500D03*
G04 #@! TD*
D16*
G04 #@! TO.C,U5*
X35815000Y-19700000D03*
X35815000Y-17700000D03*
X35815000Y-15700000D03*
X35815000Y-13700000D03*
X35815000Y-11700000D03*
X35815000Y-9700000D03*
X35815000Y-7700000D03*
X35815000Y-5700000D03*
X51815000Y-5700000D03*
X51815000Y-7700000D03*
X51815000Y-9700000D03*
X51815000Y-11700000D03*
X51815000Y-13700000D03*
X51815000Y-15700000D03*
X51815000Y-17700000D03*
X51815000Y-19700000D03*
G04 #@! TD*
D17*
G04 #@! TO.C,C1*
X29845000Y-17140000D03*
X29845000Y-15240000D03*
G04 #@! TD*
G04 #@! TO.C,C2*
X29845000Y-11430000D03*
X29845000Y-13330000D03*
G04 #@! TD*
G04 #@! TO.C,C3*
X32004000Y-15240000D03*
X32004000Y-17140000D03*
G04 #@! TD*
D18*
G04 #@! TO.C,C4*
X34290000Y-30988000D03*
X36190000Y-30988000D03*
G04 #@! TD*
D17*
G04 #@! TO.C,C8*
X32004000Y-13208000D03*
X32004000Y-11308000D03*
G04 #@! TD*
D16*
G04 #@! TO.C,J4*
X56388000Y-20828000D03*
X56388000Y-23368000D03*
X56388000Y-25908000D03*
X56388000Y-28448000D03*
X56388000Y-30988000D03*
G04 #@! TD*
D10*
G04 #@! TO.C,R1*
X34036000Y-26162000D03*
X36236000Y-26162000D03*
G04 #@! TD*
G04 #@! TO.C,R2*
X36236000Y-27686000D03*
X34036000Y-27686000D03*
G04 #@! TD*
G04 #@! TO.C,R4*
X57551500Y-13208000D03*
X55351500Y-13208000D03*
G04 #@! TD*
G04 #@! TO.C,R5*
X55351500Y-15240000D03*
X57551500Y-15240000D03*
G04 #@! TD*
D19*
G04 #@! TO.C,Y1*
X52832000Y-29264000D03*
X52832000Y-24384000D03*
G04 #@! TD*
D20*
G04 #@! TO.C,J2*
X28575000Y-5715000D03*
D21*
X26025000Y-3165000D03*
X31125000Y-3165000D03*
X26025000Y-8265000D03*
X31125000Y-8265000D03*
G04 #@! TD*
D22*
G04 #@! TO.C,D1*
X33616000Y-20955000D03*
X31916000Y-20955000D03*
G04 #@! TD*
D11*
G04 #@! TO.C,REF\002A\002A*
X24130000Y-13462000D03*
G04 #@! TD*
M02*
