M48
INCH,TZ
T1C0.0157
T2C0.0276
T3C0.0315
T4C0.0551
T5C0.0591
T6C0.1260
%
G90
G05
T1
X8250Y-750
X8250Y-1500
X8250Y-2250
X8250Y-3000
X8250Y-3750
X8250Y-6500
X8250Y-7250
X8250Y-8000
X8250Y-8750
X8250Y-9500
X8250Y-10250
X8250Y-11000
X8250Y-11750
X8250Y-12500
X8500Y-13500
X9000Y-7250
X9000Y-8000
X9000Y-8750
X9000Y-9500
X9000Y-11000
X9000Y-12500
X9150Y-3250
X9250Y-750
X9250Y-1550
X9250Y-2250
X9250Y-13500
X10000Y-9750
X10000Y-13500
X10750Y-13500
X11000Y-4250
X11250Y-750
X11500Y-12000
X11500Y-12750
X11500Y-13500
X11800Y-7600
X12200Y-12600
X12250Y-13500
X12565Y-7600
X12600Y-12600
X13000Y-13500
X13002Y-12598
X13200Y-5000
X13200Y-5800
X13250Y-750
X13250Y-3500
X13250Y-4250
X13250Y-6800
X13300Y-1700
X13300Y-2800
X13500Y-11500
X13750Y-13500
X14000Y-750
X14000Y-11500
X14100Y-1700
X14500Y-8750
X14500Y-11500
X14500Y-13500
X14750Y-750
X14800Y-2000
X14800Y-2500
X15250Y-13500
X15400Y-5000
X15500Y-750
X15800Y-5000
X16000Y-13500
X16250Y-750
X16400Y-5715
X16649Y-10800
X16715Y-5000
X16750Y-13500
X16800Y-4600
X17000Y-750
X17000Y-9400
X17196Y-10796
X17200Y-8400
X17400Y-4600
X17400Y-6000
X17400Y-6600
X17400Y-7200
X17442Y-9426
X17500Y-3250
X17500Y-3750
X17500Y-13500
X17600Y-8400
X17600Y-10250
X17750Y-750
X18000Y-3250
X18000Y-3750
X18000Y-4250
X18000Y-8400
X18250Y-13500
X18500Y-750
X18500Y-3750
X18500Y-4250
X19000Y-12500
X19000Y-13500
X19250Y-750
X19400Y-5000
X19500Y-12500
X19750Y-13500
X19800Y-4200
X20000Y-750
X20500Y-13500
X20750Y-750
X21250Y-13500
X21293Y-6607
X21350Y-7900
X21500Y-750
X21591Y-4609
X21750Y-7213
X22000Y-4600
X22000Y-13500
X22200Y-7500
X22250Y-750
X22650Y-10700
X22700Y-8700
X22750Y-4250
X22750Y-13500
X23000Y-750
X23500Y-13500
X23750Y-750
X23750Y-3750
X23750Y-4500
X23750Y-5500
X23750Y-6250
X23750Y-7000
X23750Y-7750
X23750Y-8500
X23750Y-9250
X23750Y-10000
X23750Y-10750
X23750Y-11500
X23750Y-12250
X23750Y-13000
T3
X20800Y-9600
X20800Y-11521
T4
X11250Y-2250
T5
X10246Y-1246
X10246Y-3254
X12254Y-1246
X12254Y-3254
T6
X22500Y-2500
X9500Y-5300
T2
X10632Y-7108G85X9727Y-7108
G05
X10632Y-12148G85X9727Y-12148
G05
T0
M30
