G04 #@! TF.GenerationSoftware,KiCad,Pcbnew,(5.0.0)*
G04 #@! TF.CreationDate,2019-03-08T13:39:37-05:00*
G04 #@! TF.ProjectId,Dongle,446F6E676C652E6B696361645F706362,rev?*
G04 #@! TF.SameCoordinates,Original*
G04 #@! TF.FileFunction,Legend,Top*
G04 #@! TF.FilePolarity,Positive*
%FSLAX46Y46*%
G04 Gerber Fmt 4.6, Leading zero omitted, Abs format (unit mm)*
G04 Created by KiCad (PCBNEW (5.0.0)) date 03/08/19 13:39:37*
%MOMM*%
%LPD*%
G01*
G04 APERTURE LIST*
%ADD10C,0.120000*%
%ADD11C,0.150000*%
%ADD12C,0.100000*%
G04 APERTURE END LIST*
D10*
G04 #@! TO.C,R3*
X55951500Y-16592000D02*
X56951500Y-16592000D01*
X56951500Y-17952000D02*
X55951500Y-17952000D01*
D11*
G04 #@! TO.C,U2*
X41613000Y-23051000D02*
X41613000Y-21941000D01*
X45763000Y-21941000D02*
X45763000Y-23051000D01*
X45763000Y-30891000D02*
X45763000Y-29781000D01*
X41613000Y-30891000D02*
X41613000Y-29781000D01*
X41613000Y-21941000D02*
X45763000Y-21941000D01*
X41613000Y-30891000D02*
X45763000Y-30891000D01*
X41613000Y-23051000D02*
X40488000Y-23051000D01*
D12*
G04 #@! TO.C,U5*
X35695000Y-20820000D02*
X35695000Y-20650000D01*
X37815000Y-20820000D02*
X35695000Y-20820000D01*
X51935000Y-4580000D02*
X51935000Y-4750000D01*
X51935000Y-4580000D02*
X49815000Y-4580000D01*
X35695000Y-4580000D02*
X35695000Y-4750000D01*
X37815000Y-4580000D02*
X35695000Y-4580000D01*
X51935000Y-20820000D02*
X43815000Y-20820000D01*
D10*
G04 #@! TO.C,C1*
X29245000Y-16540000D02*
X29245000Y-15840000D01*
X30445000Y-15840000D02*
X30445000Y-16540000D01*
G04 #@! TO.C,C2*
X30445000Y-12030000D02*
X30445000Y-12730000D01*
X29245000Y-12730000D02*
X29245000Y-12030000D01*
G04 #@! TO.C,C3*
X32604000Y-15840000D02*
X32604000Y-16540000D01*
X31404000Y-16540000D02*
X31404000Y-15840000D01*
G04 #@! TO.C,C4*
X34890000Y-30388000D02*
X35590000Y-30388000D01*
X35590000Y-31588000D02*
X34890000Y-31588000D01*
G04 #@! TO.C,C8*
X31404000Y-12608000D02*
X31404000Y-11908000D01*
X32604000Y-11908000D02*
X32604000Y-12608000D01*
D11*
G04 #@! TO.C,J4*
X58788000Y-19558000D02*
X58788000Y-32258000D01*
X67288000Y-19558000D02*
X67288000Y-32258000D01*
X58788000Y-19558000D02*
X67288000Y-19558000D01*
X58788000Y-32258000D02*
X67288000Y-32258000D01*
X58788000Y-29718000D02*
X67288000Y-29718000D01*
X58788000Y-24638000D02*
X67288000Y-24638000D01*
X58788000Y-27178000D02*
X67288000Y-27178000D01*
X58788000Y-22098000D02*
X67288000Y-22098000D01*
G36*
X67233800Y-19608800D02*
X67233800Y-22047200D01*
X58851800Y-22047200D01*
X58851800Y-19608800D01*
X67233800Y-19608800D01*
G37*
X67233800Y-19608800D02*
X67233800Y-22047200D01*
X58851800Y-22047200D01*
X58851800Y-19608800D01*
X67233800Y-19608800D01*
D10*
G04 #@! TO.C,R1*
X35636000Y-26842000D02*
X34636000Y-26842000D01*
X34636000Y-25482000D02*
X35636000Y-25482000D01*
G04 #@! TO.C,R2*
X34636000Y-27006000D02*
X35636000Y-27006000D01*
X35636000Y-28366000D02*
X34636000Y-28366000D01*
G04 #@! TO.C,R4*
X55951500Y-12528000D02*
X56951500Y-12528000D01*
X56951500Y-13888000D02*
X55951500Y-13888000D01*
G04 #@! TO.C,R5*
X56951500Y-15920000D02*
X55951500Y-15920000D01*
X55951500Y-14560000D02*
X56951500Y-14560000D01*
G04 #@! TO.C,D1*
X31466000Y-20385000D02*
X33566000Y-20385000D01*
X31466000Y-21525000D02*
X33566000Y-21525000D01*
X31466000Y-20385000D02*
X31466000Y-21525000D01*
G04 #@! TO.C,R3*
D11*
X59634380Y-18200666D02*
X59158190Y-18534000D01*
X59634380Y-18772095D02*
X58634380Y-18772095D01*
X58634380Y-18391142D01*
X58682000Y-18295904D01*
X58729619Y-18248285D01*
X58824857Y-18200666D01*
X58967714Y-18200666D01*
X59062952Y-18248285D01*
X59110571Y-18295904D01*
X59158190Y-18391142D01*
X59158190Y-18772095D01*
X58634380Y-17867333D02*
X58634380Y-17248285D01*
X59015333Y-17581619D01*
X59015333Y-17438761D01*
X59062952Y-17343523D01*
X59110571Y-17295904D01*
X59205809Y-17248285D01*
X59443904Y-17248285D01*
X59539142Y-17295904D01*
X59586761Y-17343523D01*
X59634380Y-17438761D01*
X59634380Y-17724476D01*
X59586761Y-17819714D01*
X59539142Y-17867333D01*
G04 #@! TO.C,J1*
X27860666Y-31964380D02*
X27860666Y-32678666D01*
X27813047Y-32821523D01*
X27717809Y-32916761D01*
X27574952Y-32964380D01*
X27479714Y-32964380D01*
X28860666Y-32964380D02*
X28289238Y-32964380D01*
X28574952Y-32964380D02*
X28574952Y-31964380D01*
X28479714Y-32107238D01*
X28384476Y-32202476D01*
X28289238Y-32250095D01*
G04 #@! TO.C,U2*
X42926095Y-31202380D02*
X42926095Y-32011904D01*
X42973714Y-32107142D01*
X43021333Y-32154761D01*
X43116571Y-32202380D01*
X43307047Y-32202380D01*
X43402285Y-32154761D01*
X43449904Y-32107142D01*
X43497523Y-32011904D01*
X43497523Y-31202380D01*
X43926095Y-31297619D02*
X43973714Y-31250000D01*
X44068952Y-31202380D01*
X44307047Y-31202380D01*
X44402285Y-31250000D01*
X44449904Y-31297619D01*
X44497523Y-31392857D01*
X44497523Y-31488095D01*
X44449904Y-31630952D01*
X43878476Y-32202380D01*
X44497523Y-32202380D01*
G04 #@! TO.C,U5*
X43180095Y-3262380D02*
X43180095Y-4071904D01*
X43227714Y-4167142D01*
X43275333Y-4214761D01*
X43370571Y-4262380D01*
X43561047Y-4262380D01*
X43656285Y-4214761D01*
X43703904Y-4167142D01*
X43751523Y-4071904D01*
X43751523Y-3262380D01*
X44703904Y-3262380D02*
X44227714Y-3262380D01*
X44180095Y-3738571D01*
X44227714Y-3690952D01*
X44322952Y-3643333D01*
X44561047Y-3643333D01*
X44656285Y-3690952D01*
X44703904Y-3738571D01*
X44751523Y-3833809D01*
X44751523Y-4071904D01*
X44703904Y-4167142D01*
X44656285Y-4214761D01*
X44561047Y-4262380D01*
X44322952Y-4262380D01*
X44227714Y-4214761D01*
X44180095Y-4167142D01*
G04 #@! TO.C,C1*
X27900333Y-16547142D02*
X27852714Y-16594761D01*
X27709857Y-16642380D01*
X27614619Y-16642380D01*
X27471761Y-16594761D01*
X27376523Y-16499523D01*
X27328904Y-16404285D01*
X27281285Y-16213809D01*
X27281285Y-16070952D01*
X27328904Y-15880476D01*
X27376523Y-15785238D01*
X27471761Y-15690000D01*
X27614619Y-15642380D01*
X27709857Y-15642380D01*
X27852714Y-15690000D01*
X27900333Y-15737619D01*
X28852714Y-16642380D02*
X28281285Y-16642380D01*
X28567000Y-16642380D02*
X28567000Y-15642380D01*
X28471761Y-15785238D01*
X28376523Y-15880476D01*
X28281285Y-15928095D01*
G04 #@! TO.C,C2*
X27900333Y-12803142D02*
X27852714Y-12850761D01*
X27709857Y-12898380D01*
X27614619Y-12898380D01*
X27471761Y-12850761D01*
X27376523Y-12755523D01*
X27328904Y-12660285D01*
X27281285Y-12469809D01*
X27281285Y-12326952D01*
X27328904Y-12136476D01*
X27376523Y-12041238D01*
X27471761Y-11946000D01*
X27614619Y-11898380D01*
X27709857Y-11898380D01*
X27852714Y-11946000D01*
X27900333Y-11993619D01*
X28281285Y-11993619D02*
X28328904Y-11946000D01*
X28424142Y-11898380D01*
X28662238Y-11898380D01*
X28757476Y-11946000D01*
X28805095Y-11993619D01*
X28852714Y-12088857D01*
X28852714Y-12184095D01*
X28805095Y-12326952D01*
X28233666Y-12898380D01*
X28852714Y-12898380D01*
G04 #@! TO.C,C3*
X33107333Y-19153142D02*
X33059714Y-19200761D01*
X32916857Y-19248380D01*
X32821619Y-19248380D01*
X32678761Y-19200761D01*
X32583523Y-19105523D01*
X32535904Y-19010285D01*
X32488285Y-18819809D01*
X32488285Y-18676952D01*
X32535904Y-18486476D01*
X32583523Y-18391238D01*
X32678761Y-18296000D01*
X32821619Y-18248380D01*
X32916857Y-18248380D01*
X33059714Y-18296000D01*
X33107333Y-18343619D01*
X33440666Y-18248380D02*
X34059714Y-18248380D01*
X33726380Y-18629333D01*
X33869238Y-18629333D01*
X33964476Y-18676952D01*
X34012095Y-18724571D01*
X34059714Y-18819809D01*
X34059714Y-19057904D01*
X34012095Y-19153142D01*
X33964476Y-19200761D01*
X33869238Y-19248380D01*
X33583523Y-19248380D01*
X33488285Y-19200761D01*
X33440666Y-19153142D01*
G04 #@! TO.C,C4*
X35007333Y-32869142D02*
X34959714Y-32916761D01*
X34816857Y-32964380D01*
X34721619Y-32964380D01*
X34578761Y-32916761D01*
X34483523Y-32821523D01*
X34435904Y-32726285D01*
X34388285Y-32535809D01*
X34388285Y-32392952D01*
X34435904Y-32202476D01*
X34483523Y-32107238D01*
X34578761Y-32012000D01*
X34721619Y-31964380D01*
X34816857Y-31964380D01*
X34959714Y-32012000D01*
X35007333Y-32059619D01*
X35864476Y-32297714D02*
X35864476Y-32964380D01*
X35626380Y-31916761D02*
X35388285Y-32631047D01*
X36007333Y-32631047D01*
G04 #@! TO.C,C8*
X33107333Y-10009142D02*
X33059714Y-10056761D01*
X32916857Y-10104380D01*
X32821619Y-10104380D01*
X32678761Y-10056761D01*
X32583523Y-9961523D01*
X32535904Y-9866285D01*
X32488285Y-9675809D01*
X32488285Y-9532952D01*
X32535904Y-9342476D01*
X32583523Y-9247238D01*
X32678761Y-9152000D01*
X32821619Y-9104380D01*
X32916857Y-9104380D01*
X33059714Y-9152000D01*
X33107333Y-9199619D01*
X33678761Y-9532952D02*
X33583523Y-9485333D01*
X33535904Y-9437714D01*
X33488285Y-9342476D01*
X33488285Y-9294857D01*
X33535904Y-9199619D01*
X33583523Y-9152000D01*
X33678761Y-9104380D01*
X33869238Y-9104380D01*
X33964476Y-9152000D01*
X34012095Y-9199619D01*
X34059714Y-9294857D01*
X34059714Y-9342476D01*
X34012095Y-9437714D01*
X33964476Y-9485333D01*
X33869238Y-9532952D01*
X33678761Y-9532952D01*
X33583523Y-9580571D01*
X33535904Y-9628190D01*
X33488285Y-9723428D01*
X33488285Y-9913904D01*
X33535904Y-10009142D01*
X33583523Y-10056761D01*
X33678761Y-10104380D01*
X33869238Y-10104380D01*
X33964476Y-10056761D01*
X34012095Y-10009142D01*
X34059714Y-9913904D01*
X34059714Y-9723428D01*
X34012095Y-9628190D01*
X33964476Y-9580571D01*
X33869238Y-9532952D01*
G04 #@! TO.C,J4*
X55038666Y-18756380D02*
X55038666Y-19470666D01*
X54991047Y-19613523D01*
X54895809Y-19708761D01*
X54752952Y-19756380D01*
X54657714Y-19756380D01*
X55943428Y-19089714D02*
X55943428Y-19756380D01*
X55705333Y-18708761D02*
X55467238Y-19423047D01*
X56086285Y-19423047D01*
G04 #@! TO.C,R1*
X37171333Y-25090380D02*
X36838000Y-24614190D01*
X36599904Y-25090380D02*
X36599904Y-24090380D01*
X36980857Y-24090380D01*
X37076095Y-24138000D01*
X37123714Y-24185619D01*
X37171333Y-24280857D01*
X37171333Y-24423714D01*
X37123714Y-24518952D01*
X37076095Y-24566571D01*
X36980857Y-24614190D01*
X36599904Y-24614190D01*
X38123714Y-25090380D02*
X37552285Y-25090380D01*
X37838000Y-25090380D02*
X37838000Y-24090380D01*
X37742761Y-24233238D01*
X37647523Y-24328476D01*
X37552285Y-24376095D01*
G04 #@! TO.C,R2*
X32599333Y-29662380D02*
X32266000Y-29186190D01*
X32027904Y-29662380D02*
X32027904Y-28662380D01*
X32408857Y-28662380D01*
X32504095Y-28710000D01*
X32551714Y-28757619D01*
X32599333Y-28852857D01*
X32599333Y-28995714D01*
X32551714Y-29090952D01*
X32504095Y-29138571D01*
X32408857Y-29186190D01*
X32027904Y-29186190D01*
X32980285Y-28757619D02*
X33027904Y-28710000D01*
X33123142Y-28662380D01*
X33361238Y-28662380D01*
X33456476Y-28710000D01*
X33504095Y-28757619D01*
X33551714Y-28852857D01*
X33551714Y-28948095D01*
X33504095Y-29090952D01*
X32932666Y-29662380D01*
X33551714Y-29662380D01*
G04 #@! TO.C,R4*
X59570880Y-12803166D02*
X59094690Y-13136500D01*
X59570880Y-13374595D02*
X58570880Y-13374595D01*
X58570880Y-12993642D01*
X58618500Y-12898404D01*
X58666119Y-12850785D01*
X58761357Y-12803166D01*
X58904214Y-12803166D01*
X58999452Y-12850785D01*
X59047071Y-12898404D01*
X59094690Y-12993642D01*
X59094690Y-13374595D01*
X58904214Y-11946023D02*
X59570880Y-11946023D01*
X58523261Y-12184119D02*
X59237547Y-12422214D01*
X59237547Y-11803166D01*
G04 #@! TO.C,R5*
X59634380Y-15406666D02*
X59158190Y-15740000D01*
X59634380Y-15978095D02*
X58634380Y-15978095D01*
X58634380Y-15597142D01*
X58682000Y-15501904D01*
X58729619Y-15454285D01*
X58824857Y-15406666D01*
X58967714Y-15406666D01*
X59062952Y-15454285D01*
X59110571Y-15501904D01*
X59158190Y-15597142D01*
X59158190Y-15978095D01*
X58634380Y-14501904D02*
X58634380Y-14978095D01*
X59110571Y-15025714D01*
X59062952Y-14978095D01*
X59015333Y-14882857D01*
X59015333Y-14644761D01*
X59062952Y-14549523D01*
X59110571Y-14501904D01*
X59205809Y-14454285D01*
X59443904Y-14454285D01*
X59539142Y-14501904D01*
X59586761Y-14549523D01*
X59634380Y-14644761D01*
X59634380Y-14882857D01*
X59586761Y-14978095D01*
X59539142Y-15025714D01*
G04 #@! TO.C,D1*
X32027904Y-22804380D02*
X32027904Y-21804380D01*
X32266000Y-21804380D01*
X32408857Y-21852000D01*
X32504095Y-21947238D01*
X32551714Y-22042476D01*
X32599333Y-22232952D01*
X32599333Y-22375809D01*
X32551714Y-22566285D01*
X32504095Y-22661523D01*
X32408857Y-22756761D01*
X32266000Y-22804380D01*
X32027904Y-22804380D01*
X33551714Y-22804380D02*
X32980285Y-22804380D01*
X33266000Y-22804380D02*
X33266000Y-21804380D01*
X33170761Y-21947238D01*
X33075523Y-22042476D01*
X32980285Y-22090095D01*
G04 #@! TD*
M02*
