G04 #@! TF.GenerationSoftware,KiCad,Pcbnew,(5.0.0)*
G04 #@! TF.CreationDate,2019-03-08T13:39:37-05:00*
G04 #@! TF.ProjectId,Dongle,446F6E676C652E6B696361645F706362,rev?*
G04 #@! TF.SameCoordinates,Original*
G04 #@! TF.FileFunction,Legend,Bot*
G04 #@! TF.FilePolarity,Positive*
%FSLAX46Y46*%
G04 Gerber Fmt 4.6, Leading zero omitted, Abs format (unit mm)*
G04 Created by KiCad (PCBNEW (5.0.0)) date 03/08/19 13:39:37*
%MOMM*%
%LPD*%
G01*
G04 APERTURE LIST*
%ADD10C,0.200000*%
%ADD11C,0.120000*%
%ADD12C,0.150000*%
%ADD13C,0.010000*%
G04 APERTURE END LIST*
D10*
X33027642Y-26979571D02*
X32884785Y-27027190D01*
X32837166Y-27074809D01*
X32789547Y-27170047D01*
X32789547Y-27312904D01*
X32837166Y-27408142D01*
X32884785Y-27455761D01*
X32980023Y-27503380D01*
X33360976Y-27503380D01*
X33360976Y-26503380D01*
X33027642Y-26503380D01*
X32932404Y-26551000D01*
X32884785Y-26598619D01*
X32837166Y-26693857D01*
X32837166Y-26789095D01*
X32884785Y-26884333D01*
X32932404Y-26931952D01*
X33027642Y-26979571D01*
X33360976Y-26979571D01*
X32218119Y-27503380D02*
X32313357Y-27455761D01*
X32360976Y-27408142D01*
X32408595Y-27312904D01*
X32408595Y-27027190D01*
X32360976Y-26931952D01*
X32313357Y-26884333D01*
X32218119Y-26836714D01*
X32075261Y-26836714D01*
X31980023Y-26884333D01*
X31932404Y-26931952D01*
X31884785Y-27027190D01*
X31884785Y-27312904D01*
X31932404Y-27408142D01*
X31980023Y-27455761D01*
X32075261Y-27503380D01*
X32218119Y-27503380D01*
X31599071Y-26836714D02*
X31218119Y-26836714D01*
X31456214Y-26503380D02*
X31456214Y-27360523D01*
X31408595Y-27455761D01*
X31313357Y-27503380D01*
X31218119Y-27503380D01*
X30408595Y-27503380D02*
X30884785Y-27503380D01*
X30884785Y-26503380D01*
X29456214Y-26503380D02*
X29122880Y-27503380D01*
X28789547Y-26503380D01*
X27932404Y-27503380D02*
X28503833Y-27503380D01*
X28218119Y-27503380D02*
X28218119Y-26503380D01*
X28313357Y-26646238D01*
X28408595Y-26741476D01*
X28503833Y-26789095D01*
D11*
G04 #@! TO.C,C5*
X36926000Y-2448000D02*
X36226000Y-2448000D01*
X36226000Y-3648000D02*
X36926000Y-3648000D01*
G04 #@! TO.C,C6*
X52232000Y-2448000D02*
X51532000Y-2448000D01*
X51532000Y-3648000D02*
X52232000Y-3648000D01*
G04 #@! TO.C,C7*
X56988000Y-24734000D02*
X56988000Y-24034000D01*
X55788000Y-24034000D02*
X55788000Y-24734000D01*
G04 #@! TO.C,C9*
X56988000Y-29240000D02*
X56988000Y-28540000D01*
X55788000Y-28540000D02*
X55788000Y-29240000D01*
G04 #@! TO.C,C10*
X36160000Y-25750000D02*
X36160000Y-25050000D01*
X34960000Y-25050000D02*
X34960000Y-25750000D01*
D12*
G04 #@! TO.C,U1*
X47690000Y-13350000D02*
X49515000Y-13350000D01*
X47690000Y-31750000D02*
X39940000Y-31750000D01*
X47690000Y-12700000D02*
X39940000Y-12700000D01*
X47690000Y-31750000D02*
X47690000Y-31005000D01*
X39940000Y-31750000D02*
X39940000Y-31005000D01*
X39940000Y-12700000D02*
X39940000Y-13445000D01*
X47690000Y-12700000D02*
X47690000Y-13350000D01*
D11*
G04 #@! TO.C,U3*
X40375000Y-9125000D02*
X46385000Y-9125000D01*
X42625000Y-2305000D02*
X46385000Y-2305000D01*
X46385000Y-9125000D02*
X46385000Y-7865000D01*
X46385000Y-2305000D02*
X46385000Y-3565000D01*
G04 #@! TO.C,Y1*
X55357000Y-29949000D02*
G75*
G02X50307000Y-29949000I-2525000J0D01*
G01*
X55357000Y-23699000D02*
G75*
G03X50307000Y-23699000I-2525000J0D01*
G01*
X55357000Y-23699000D02*
X55357000Y-29949000D01*
X50307000Y-23699000D02*
X50307000Y-29949000D01*
D13*
G04 #@! TO.C,G\002A\002A\002A*
G36*
X30921542Y-20177023D02*
X30914008Y-20189664D01*
X30902210Y-20210012D01*
X30886477Y-20237481D01*
X30867144Y-20271483D01*
X30844541Y-20311429D01*
X30819002Y-20356733D01*
X30790857Y-20406805D01*
X30760440Y-20461060D01*
X30728082Y-20518907D01*
X30694115Y-20579761D01*
X30667606Y-20627339D01*
X30632639Y-20690076D01*
X30599021Y-20750250D01*
X30567086Y-20807274D01*
X30537166Y-20860560D01*
X30509593Y-20909521D01*
X30484702Y-20953567D01*
X30462823Y-20992111D01*
X30444291Y-21024566D01*
X30429438Y-21050343D01*
X30418596Y-21068855D01*
X30412099Y-21079513D01*
X30410274Y-21081999D01*
X30404932Y-21080029D01*
X30391168Y-21074373D01*
X30369874Y-21065410D01*
X30341937Y-21053521D01*
X30308248Y-21039087D01*
X30269696Y-21022488D01*
X30227171Y-21004103D01*
X30181562Y-20984315D01*
X30166633Y-20977822D01*
X30120337Y-20957726D01*
X30076922Y-20938972D01*
X30037266Y-20921932D01*
X30002245Y-20906980D01*
X29972737Y-20894487D01*
X29949619Y-20884826D01*
X29933768Y-20878370D01*
X29926062Y-20875492D01*
X29925457Y-20875390D01*
X29925720Y-20880564D01*
X29926906Y-20895256D01*
X29928961Y-20918871D01*
X29931827Y-20950815D01*
X29935450Y-20990493D01*
X29939775Y-21037309D01*
X29944745Y-21090670D01*
X29950306Y-21149979D01*
X29956402Y-21214644D01*
X29962978Y-21284068D01*
X29969978Y-21357657D01*
X29977346Y-21434816D01*
X29985028Y-21514951D01*
X29987125Y-21536775D01*
X29994879Y-21617609D01*
X30002330Y-21695631D01*
X30009424Y-21770244D01*
X30016105Y-21840854D01*
X30022318Y-21906866D01*
X30028008Y-21967685D01*
X30033119Y-22022715D01*
X30037596Y-22071362D01*
X30041385Y-22113030D01*
X30044429Y-22147125D01*
X30046674Y-22173051D01*
X30048065Y-22190213D01*
X30048546Y-22198016D01*
X30048513Y-22198440D01*
X30044496Y-22195462D01*
X30033456Y-22186224D01*
X30015960Y-22171221D01*
X29992573Y-22150948D01*
X29963862Y-22125900D01*
X29930392Y-22096574D01*
X29892730Y-22063464D01*
X29851441Y-22027066D01*
X29807091Y-21987876D01*
X29760247Y-21946389D01*
X29735507Y-21924442D01*
X29687555Y-21881899D01*
X29641787Y-21841330D01*
X29598773Y-21803237D01*
X29559082Y-21768122D01*
X29523283Y-21736489D01*
X29491946Y-21708840D01*
X29465640Y-21685676D01*
X29444933Y-21667502D01*
X29430396Y-21654818D01*
X29422598Y-21648129D01*
X29421403Y-21647188D01*
X29419077Y-21651517D01*
X29413711Y-21664288D01*
X29405725Y-21684389D01*
X29395536Y-21710710D01*
X29383565Y-21742139D01*
X29370231Y-21777566D01*
X29355954Y-21815880D01*
X29341152Y-21855969D01*
X29326246Y-21896723D01*
X29311654Y-21937030D01*
X29304959Y-21955685D01*
X29307495Y-21961022D01*
X29315565Y-21972157D01*
X29327859Y-21987379D01*
X29340739Y-22002355D01*
X29403251Y-22074782D01*
X29468693Y-22153622D01*
X29536440Y-22237976D01*
X29605862Y-22326945D01*
X29676334Y-22419630D01*
X29747228Y-22515131D01*
X29817916Y-22612551D01*
X29887772Y-22710989D01*
X29956168Y-22809547D01*
X30022478Y-22907326D01*
X30086073Y-23003426D01*
X30146327Y-23096950D01*
X30202612Y-23186997D01*
X30254301Y-23272670D01*
X30300768Y-23353068D01*
X30341384Y-23427293D01*
X30360124Y-23463429D01*
X30367398Y-23475492D01*
X30373621Y-23481969D01*
X30375889Y-23482282D01*
X30380106Y-23477135D01*
X30388560Y-23464913D01*
X30400193Y-23447213D01*
X30413944Y-23425630D01*
X30420716Y-23414793D01*
X30478531Y-23316895D01*
X30533034Y-23214522D01*
X30584423Y-23107106D01*
X30632892Y-22994079D01*
X30678639Y-22874876D01*
X30721859Y-22748927D01*
X30762749Y-22615667D01*
X30801505Y-22474528D01*
X30838323Y-22324942D01*
X30873400Y-22166343D01*
X30902176Y-22023070D01*
X30908229Y-21992238D01*
X30913790Y-21965099D01*
X30918540Y-21943126D01*
X30922157Y-21927791D01*
X30924320Y-21920568D01*
X30924616Y-21920200D01*
X30926427Y-21924911D01*
X30929654Y-21937892D01*
X30933911Y-21957414D01*
X30938812Y-21981748D01*
X30941373Y-21995130D01*
X30975703Y-22167829D01*
X31011943Y-22331008D01*
X31050260Y-22485153D01*
X31090820Y-22630752D01*
X31133793Y-22768294D01*
X31179345Y-22898266D01*
X31227643Y-23021157D01*
X31278855Y-23137455D01*
X31333149Y-23247646D01*
X31390691Y-23352221D01*
X31428285Y-23414793D01*
X31442656Y-23437631D01*
X31455399Y-23457322D01*
X31465453Y-23472273D01*
X31471759Y-23480886D01*
X31473112Y-23482282D01*
X31477899Y-23479923D01*
X31484836Y-23470661D01*
X31488877Y-23463429D01*
X31525935Y-23393256D01*
X31569159Y-23316428D01*
X31617923Y-23233845D01*
X31671598Y-23146406D01*
X31729556Y-23055010D01*
X31791172Y-22960556D01*
X31855816Y-22863945D01*
X31922862Y-22766076D01*
X31991682Y-22667847D01*
X32061648Y-22570159D01*
X32132134Y-22473911D01*
X32202511Y-22380002D01*
X32272152Y-22289332D01*
X32340430Y-22202799D01*
X32406716Y-22121305D01*
X32470385Y-22045747D01*
X32508201Y-22002355D01*
X32523088Y-21984996D01*
X32534870Y-21970256D01*
X32542237Y-21959843D01*
X32544042Y-21955659D01*
X32531636Y-21921059D01*
X32518243Y-21884201D01*
X32504315Y-21846278D01*
X32490300Y-21808477D01*
X32476649Y-21771991D01*
X32463809Y-21738008D01*
X32452231Y-21707718D01*
X32442365Y-21682313D01*
X32434659Y-21662981D01*
X32429563Y-21650912D01*
X32427567Y-21647248D01*
X32423369Y-21650723D01*
X32412146Y-21660444D01*
X32394468Y-21675910D01*
X32370903Y-21696618D01*
X32342021Y-21722065D01*
X32308392Y-21751749D01*
X32270584Y-21785168D01*
X32229168Y-21821820D01*
X32184713Y-21861201D01*
X32137787Y-21902810D01*
X32113437Y-21924416D01*
X32065535Y-21966884D01*
X32019840Y-22007309D01*
X31976916Y-22045196D01*
X31937330Y-22080048D01*
X31901648Y-22111371D01*
X31870435Y-22138669D01*
X31844258Y-22161446D01*
X31823682Y-22179208D01*
X31809274Y-22191458D01*
X31801599Y-22197701D01*
X31800460Y-22198412D01*
X31800691Y-22193206D01*
X31801847Y-22178482D01*
X31803872Y-22154836D01*
X31806711Y-22122863D01*
X31810308Y-22083157D01*
X31814608Y-22036313D01*
X31819557Y-21982928D01*
X31825098Y-21923595D01*
X31831177Y-21858910D01*
X31837738Y-21789468D01*
X31844727Y-21715864D01*
X31851385Y-21646059D01*
X31186629Y-21646059D01*
X31183833Y-21643995D01*
X31175267Y-21636226D01*
X31162439Y-21624137D01*
X31153521Y-21615579D01*
X31133542Y-21597731D01*
X31111293Y-21580066D01*
X31090877Y-21565800D01*
X31086585Y-21563167D01*
X31051503Y-21544742D01*
X31017493Y-21532235D01*
X30981390Y-21524846D01*
X30940034Y-21521775D01*
X30921960Y-21521576D01*
X30893859Y-21521941D01*
X30872806Y-21523157D01*
X30855702Y-21525654D01*
X30839445Y-21529860D01*
X30823741Y-21535186D01*
X30778922Y-21554446D01*
X30739409Y-21578592D01*
X30701545Y-21609915D01*
X30695570Y-21615579D01*
X30680909Y-21629551D01*
X30669630Y-21640023D01*
X30663239Y-21645612D01*
X30662372Y-21646059D01*
X30664040Y-21640909D01*
X30668503Y-21626764D01*
X30675539Y-21604333D01*
X30684928Y-21574325D01*
X30696448Y-21537447D01*
X30709879Y-21494407D01*
X30725000Y-21445915D01*
X30741589Y-21392677D01*
X30759425Y-21335403D01*
X30778289Y-21274799D01*
X30792808Y-21228131D01*
X30812293Y-21165582D01*
X30830944Y-21105893D01*
X30848537Y-21049765D01*
X30864851Y-20997901D01*
X30879662Y-20951002D01*
X30892749Y-20909773D01*
X30903887Y-20874914D01*
X30912854Y-20847128D01*
X30919427Y-20827118D01*
X30923385Y-20815585D01*
X30924500Y-20812922D01*
X30926356Y-20817657D01*
X30930995Y-20831396D01*
X30938193Y-20853435D01*
X30947729Y-20883072D01*
X30959380Y-20919605D01*
X30972923Y-20962332D01*
X30988134Y-21010549D01*
X31004792Y-21063556D01*
X31022674Y-21120649D01*
X31041556Y-21181126D01*
X31056193Y-21228131D01*
X31075675Y-21290745D01*
X31094294Y-21350556D01*
X31111829Y-21406855D01*
X31128059Y-21458933D01*
X31142764Y-21506084D01*
X31155723Y-21547599D01*
X31166713Y-21582769D01*
X31175515Y-21610886D01*
X31181908Y-21631243D01*
X31185669Y-21643130D01*
X31186629Y-21646059D01*
X31851385Y-21646059D01*
X31852088Y-21638694D01*
X31859765Y-21558551D01*
X31861859Y-21536758D01*
X31869612Y-21455927D01*
X31877067Y-21377912D01*
X31884167Y-21303308D01*
X31890857Y-21232709D01*
X31897082Y-21166711D01*
X31902786Y-21105908D01*
X31907913Y-21050895D01*
X31912410Y-21002267D01*
X31916219Y-20960618D01*
X31919286Y-20926544D01*
X31921555Y-20900640D01*
X31922971Y-20883499D01*
X31923479Y-20875718D01*
X31923454Y-20875299D01*
X31918588Y-20876916D01*
X31905291Y-20882230D01*
X31884438Y-20890871D01*
X31856908Y-20902467D01*
X31823577Y-20916646D01*
X31785323Y-20933035D01*
X31743021Y-20951263D01*
X31697550Y-20970958D01*
X31681925Y-20977747D01*
X31635506Y-20997902D01*
X31591899Y-21016774D01*
X31551992Y-21033983D01*
X31516673Y-21049149D01*
X31486829Y-21061893D01*
X31463348Y-21071834D01*
X31447117Y-21078593D01*
X31439024Y-21081791D01*
X31438296Y-21081999D01*
X31435339Y-21077655D01*
X31427786Y-21065014D01*
X31415969Y-21044665D01*
X31400220Y-21017194D01*
X31380872Y-20983190D01*
X31358257Y-20943241D01*
X31332706Y-20897935D01*
X31304553Y-20847859D01*
X31274130Y-20793602D01*
X31241769Y-20735751D01*
X31207802Y-20674895D01*
X31181310Y-20627339D01*
X31146353Y-20564605D01*
X31112754Y-20504432D01*
X31080845Y-20447409D01*
X31050958Y-20394125D01*
X31023425Y-20345165D01*
X30998578Y-20301120D01*
X30976749Y-20262575D01*
X30958270Y-20230120D01*
X30943473Y-20204342D01*
X30932691Y-20185829D01*
X30926255Y-20175168D01*
X30924477Y-20172680D01*
X30921542Y-20177023D01*
X30921542Y-20177023D01*
G37*
X30921542Y-20177023D02*
X30914008Y-20189664D01*
X30902210Y-20210012D01*
X30886477Y-20237481D01*
X30867144Y-20271483D01*
X30844541Y-20311429D01*
X30819002Y-20356733D01*
X30790857Y-20406805D01*
X30760440Y-20461060D01*
X30728082Y-20518907D01*
X30694115Y-20579761D01*
X30667606Y-20627339D01*
X30632639Y-20690076D01*
X30599021Y-20750250D01*
X30567086Y-20807274D01*
X30537166Y-20860560D01*
X30509593Y-20909521D01*
X30484702Y-20953567D01*
X30462823Y-20992111D01*
X30444291Y-21024566D01*
X30429438Y-21050343D01*
X30418596Y-21068855D01*
X30412099Y-21079513D01*
X30410274Y-21081999D01*
X30404932Y-21080029D01*
X30391168Y-21074373D01*
X30369874Y-21065410D01*
X30341937Y-21053521D01*
X30308248Y-21039087D01*
X30269696Y-21022488D01*
X30227171Y-21004103D01*
X30181562Y-20984315D01*
X30166633Y-20977822D01*
X30120337Y-20957726D01*
X30076922Y-20938972D01*
X30037266Y-20921932D01*
X30002245Y-20906980D01*
X29972737Y-20894487D01*
X29949619Y-20884826D01*
X29933768Y-20878370D01*
X29926062Y-20875492D01*
X29925457Y-20875390D01*
X29925720Y-20880564D01*
X29926906Y-20895256D01*
X29928961Y-20918871D01*
X29931827Y-20950815D01*
X29935450Y-20990493D01*
X29939775Y-21037309D01*
X29944745Y-21090670D01*
X29950306Y-21149979D01*
X29956402Y-21214644D01*
X29962978Y-21284068D01*
X29969978Y-21357657D01*
X29977346Y-21434816D01*
X29985028Y-21514951D01*
X29987125Y-21536775D01*
X29994879Y-21617609D01*
X30002330Y-21695631D01*
X30009424Y-21770244D01*
X30016105Y-21840854D01*
X30022318Y-21906866D01*
X30028008Y-21967685D01*
X30033119Y-22022715D01*
X30037596Y-22071362D01*
X30041385Y-22113030D01*
X30044429Y-22147125D01*
X30046674Y-22173051D01*
X30048065Y-22190213D01*
X30048546Y-22198016D01*
X30048513Y-22198440D01*
X30044496Y-22195462D01*
X30033456Y-22186224D01*
X30015960Y-22171221D01*
X29992573Y-22150948D01*
X29963862Y-22125900D01*
X29930392Y-22096574D01*
X29892730Y-22063464D01*
X29851441Y-22027066D01*
X29807091Y-21987876D01*
X29760247Y-21946389D01*
X29735507Y-21924442D01*
X29687555Y-21881899D01*
X29641787Y-21841330D01*
X29598773Y-21803237D01*
X29559082Y-21768122D01*
X29523283Y-21736489D01*
X29491946Y-21708840D01*
X29465640Y-21685676D01*
X29444933Y-21667502D01*
X29430396Y-21654818D01*
X29422598Y-21648129D01*
X29421403Y-21647188D01*
X29419077Y-21651517D01*
X29413711Y-21664288D01*
X29405725Y-21684389D01*
X29395536Y-21710710D01*
X29383565Y-21742139D01*
X29370231Y-21777566D01*
X29355954Y-21815880D01*
X29341152Y-21855969D01*
X29326246Y-21896723D01*
X29311654Y-21937030D01*
X29304959Y-21955685D01*
X29307495Y-21961022D01*
X29315565Y-21972157D01*
X29327859Y-21987379D01*
X29340739Y-22002355D01*
X29403251Y-22074782D01*
X29468693Y-22153622D01*
X29536440Y-22237976D01*
X29605862Y-22326945D01*
X29676334Y-22419630D01*
X29747228Y-22515131D01*
X29817916Y-22612551D01*
X29887772Y-22710989D01*
X29956168Y-22809547D01*
X30022478Y-22907326D01*
X30086073Y-23003426D01*
X30146327Y-23096950D01*
X30202612Y-23186997D01*
X30254301Y-23272670D01*
X30300768Y-23353068D01*
X30341384Y-23427293D01*
X30360124Y-23463429D01*
X30367398Y-23475492D01*
X30373621Y-23481969D01*
X30375889Y-23482282D01*
X30380106Y-23477135D01*
X30388560Y-23464913D01*
X30400193Y-23447213D01*
X30413944Y-23425630D01*
X30420716Y-23414793D01*
X30478531Y-23316895D01*
X30533034Y-23214522D01*
X30584423Y-23107106D01*
X30632892Y-22994079D01*
X30678639Y-22874876D01*
X30721859Y-22748927D01*
X30762749Y-22615667D01*
X30801505Y-22474528D01*
X30838323Y-22324942D01*
X30873400Y-22166343D01*
X30902176Y-22023070D01*
X30908229Y-21992238D01*
X30913790Y-21965099D01*
X30918540Y-21943126D01*
X30922157Y-21927791D01*
X30924320Y-21920568D01*
X30924616Y-21920200D01*
X30926427Y-21924911D01*
X30929654Y-21937892D01*
X30933911Y-21957414D01*
X30938812Y-21981748D01*
X30941373Y-21995130D01*
X30975703Y-22167829D01*
X31011943Y-22331008D01*
X31050260Y-22485153D01*
X31090820Y-22630752D01*
X31133793Y-22768294D01*
X31179345Y-22898266D01*
X31227643Y-23021157D01*
X31278855Y-23137455D01*
X31333149Y-23247646D01*
X31390691Y-23352221D01*
X31428285Y-23414793D01*
X31442656Y-23437631D01*
X31455399Y-23457322D01*
X31465453Y-23472273D01*
X31471759Y-23480886D01*
X31473112Y-23482282D01*
X31477899Y-23479923D01*
X31484836Y-23470661D01*
X31488877Y-23463429D01*
X31525935Y-23393256D01*
X31569159Y-23316428D01*
X31617923Y-23233845D01*
X31671598Y-23146406D01*
X31729556Y-23055010D01*
X31791172Y-22960556D01*
X31855816Y-22863945D01*
X31922862Y-22766076D01*
X31991682Y-22667847D01*
X32061648Y-22570159D01*
X32132134Y-22473911D01*
X32202511Y-22380002D01*
X32272152Y-22289332D01*
X32340430Y-22202799D01*
X32406716Y-22121305D01*
X32470385Y-22045747D01*
X32508201Y-22002355D01*
X32523088Y-21984996D01*
X32534870Y-21970256D01*
X32542237Y-21959843D01*
X32544042Y-21955659D01*
X32531636Y-21921059D01*
X32518243Y-21884201D01*
X32504315Y-21846278D01*
X32490300Y-21808477D01*
X32476649Y-21771991D01*
X32463809Y-21738008D01*
X32452231Y-21707718D01*
X32442365Y-21682313D01*
X32434659Y-21662981D01*
X32429563Y-21650912D01*
X32427567Y-21647248D01*
X32423369Y-21650723D01*
X32412146Y-21660444D01*
X32394468Y-21675910D01*
X32370903Y-21696618D01*
X32342021Y-21722065D01*
X32308392Y-21751749D01*
X32270584Y-21785168D01*
X32229168Y-21821820D01*
X32184713Y-21861201D01*
X32137787Y-21902810D01*
X32113437Y-21924416D01*
X32065535Y-21966884D01*
X32019840Y-22007309D01*
X31976916Y-22045196D01*
X31937330Y-22080048D01*
X31901648Y-22111371D01*
X31870435Y-22138669D01*
X31844258Y-22161446D01*
X31823682Y-22179208D01*
X31809274Y-22191458D01*
X31801599Y-22197701D01*
X31800460Y-22198412D01*
X31800691Y-22193206D01*
X31801847Y-22178482D01*
X31803872Y-22154836D01*
X31806711Y-22122863D01*
X31810308Y-22083157D01*
X31814608Y-22036313D01*
X31819557Y-21982928D01*
X31825098Y-21923595D01*
X31831177Y-21858910D01*
X31837738Y-21789468D01*
X31844727Y-21715864D01*
X31851385Y-21646059D01*
X31186629Y-21646059D01*
X31183833Y-21643995D01*
X31175267Y-21636226D01*
X31162439Y-21624137D01*
X31153521Y-21615579D01*
X31133542Y-21597731D01*
X31111293Y-21580066D01*
X31090877Y-21565800D01*
X31086585Y-21563167D01*
X31051503Y-21544742D01*
X31017493Y-21532235D01*
X30981390Y-21524846D01*
X30940034Y-21521775D01*
X30921960Y-21521576D01*
X30893859Y-21521941D01*
X30872806Y-21523157D01*
X30855702Y-21525654D01*
X30839445Y-21529860D01*
X30823741Y-21535186D01*
X30778922Y-21554446D01*
X30739409Y-21578592D01*
X30701545Y-21609915D01*
X30695570Y-21615579D01*
X30680909Y-21629551D01*
X30669630Y-21640023D01*
X30663239Y-21645612D01*
X30662372Y-21646059D01*
X30664040Y-21640909D01*
X30668503Y-21626764D01*
X30675539Y-21604333D01*
X30684928Y-21574325D01*
X30696448Y-21537447D01*
X30709879Y-21494407D01*
X30725000Y-21445915D01*
X30741589Y-21392677D01*
X30759425Y-21335403D01*
X30778289Y-21274799D01*
X30792808Y-21228131D01*
X30812293Y-21165582D01*
X30830944Y-21105893D01*
X30848537Y-21049765D01*
X30864851Y-20997901D01*
X30879662Y-20951002D01*
X30892749Y-20909773D01*
X30903887Y-20874914D01*
X30912854Y-20847128D01*
X30919427Y-20827118D01*
X30923385Y-20815585D01*
X30924500Y-20812922D01*
X30926356Y-20817657D01*
X30930995Y-20831396D01*
X30938193Y-20853435D01*
X30947729Y-20883072D01*
X30959380Y-20919605D01*
X30972923Y-20962332D01*
X30988134Y-21010549D01*
X31004792Y-21063556D01*
X31022674Y-21120649D01*
X31041556Y-21181126D01*
X31056193Y-21228131D01*
X31075675Y-21290745D01*
X31094294Y-21350556D01*
X31111829Y-21406855D01*
X31128059Y-21458933D01*
X31142764Y-21506084D01*
X31155723Y-21547599D01*
X31166713Y-21582769D01*
X31175515Y-21610886D01*
X31181908Y-21631243D01*
X31185669Y-21643130D01*
X31186629Y-21646059D01*
X31851385Y-21646059D01*
X31852088Y-21638694D01*
X31859765Y-21558551D01*
X31861859Y-21536758D01*
X31869612Y-21455927D01*
X31877067Y-21377912D01*
X31884167Y-21303308D01*
X31890857Y-21232709D01*
X31897082Y-21166711D01*
X31902786Y-21105908D01*
X31907913Y-21050895D01*
X31912410Y-21002267D01*
X31916219Y-20960618D01*
X31919286Y-20926544D01*
X31921555Y-20900640D01*
X31922971Y-20883499D01*
X31923479Y-20875718D01*
X31923454Y-20875299D01*
X31918588Y-20876916D01*
X31905291Y-20882230D01*
X31884438Y-20890871D01*
X31856908Y-20902467D01*
X31823577Y-20916646D01*
X31785323Y-20933035D01*
X31743021Y-20951263D01*
X31697550Y-20970958D01*
X31681925Y-20977747D01*
X31635506Y-20997902D01*
X31591899Y-21016774D01*
X31551992Y-21033983D01*
X31516673Y-21049149D01*
X31486829Y-21061893D01*
X31463348Y-21071834D01*
X31447117Y-21078593D01*
X31439024Y-21081791D01*
X31438296Y-21081999D01*
X31435339Y-21077655D01*
X31427786Y-21065014D01*
X31415969Y-21044665D01*
X31400220Y-21017194D01*
X31380872Y-20983190D01*
X31358257Y-20943241D01*
X31332706Y-20897935D01*
X31304553Y-20847859D01*
X31274130Y-20793602D01*
X31241769Y-20735751D01*
X31207802Y-20674895D01*
X31181310Y-20627339D01*
X31146353Y-20564605D01*
X31112754Y-20504432D01*
X31080845Y-20447409D01*
X31050958Y-20394125D01*
X31023425Y-20345165D01*
X30998578Y-20301120D01*
X30976749Y-20262575D01*
X30958270Y-20230120D01*
X30943473Y-20204342D01*
X30932691Y-20185829D01*
X30926255Y-20175168D01*
X30924477Y-20172680D01*
X30921542Y-20177023D01*
G36*
X33376688Y-21912667D02*
X33362490Y-21914992D01*
X33340330Y-21918910D01*
X33311211Y-21924227D01*
X33276134Y-21930749D01*
X33236101Y-21938281D01*
X33192115Y-21946630D01*
X33145176Y-21955601D01*
X33096288Y-21965001D01*
X33046450Y-21974635D01*
X32996667Y-21984310D01*
X32947938Y-21993831D01*
X32901267Y-22003005D01*
X32857655Y-22011637D01*
X32818103Y-22019533D01*
X32783615Y-22026500D01*
X32755191Y-22032343D01*
X32733833Y-22036868D01*
X32720544Y-22039881D01*
X32716560Y-22040995D01*
X32710174Y-22046437D01*
X32698645Y-22059140D01*
X32682749Y-22078107D01*
X32663263Y-22102341D01*
X32640961Y-22130844D01*
X32616623Y-22162622D01*
X32591022Y-22196676D01*
X32564937Y-22232010D01*
X32539143Y-22267628D01*
X32529686Y-22280880D01*
X32451427Y-22393504D01*
X32373847Y-22510011D01*
X32297341Y-22629633D01*
X32222306Y-22751599D01*
X32149140Y-22875143D01*
X32078237Y-22999494D01*
X32009994Y-23123885D01*
X31944809Y-23247547D01*
X31883077Y-23369711D01*
X31825194Y-23489609D01*
X31771558Y-23606471D01*
X31722564Y-23719531D01*
X31678609Y-23828017D01*
X31640089Y-23931163D01*
X31607401Y-24028200D01*
X31580941Y-24118358D01*
X31579767Y-24122753D01*
X31563466Y-24184087D01*
X31517033Y-24135413D01*
X31416285Y-24026101D01*
X31323917Y-23917886D01*
X31238584Y-23808924D01*
X31158942Y-23697372D01*
X31083645Y-23581386D01*
X31011349Y-23459122D01*
X30972948Y-23389590D01*
X30958654Y-23363481D01*
X30945838Y-23340771D01*
X30935321Y-23322859D01*
X30927927Y-23311149D01*
X30924500Y-23307040D01*
X30920974Y-23311296D01*
X30913516Y-23323130D01*
X30902951Y-23341139D01*
X30890101Y-23363923D01*
X30876053Y-23389590D01*
X30804836Y-23516000D01*
X30731350Y-23635136D01*
X30654248Y-23748839D01*
X30572188Y-23858954D01*
X30483824Y-23967324D01*
X30387811Y-24075791D01*
X30331948Y-24135433D01*
X30285496Y-24184127D01*
X30274086Y-24140553D01*
X30246931Y-24045918D01*
X30213354Y-23944447D01*
X30173716Y-23836869D01*
X30128377Y-23723913D01*
X30077698Y-23606307D01*
X30022040Y-23484781D01*
X29961763Y-23360063D01*
X29897228Y-23232883D01*
X29828796Y-23103968D01*
X29756826Y-22974049D01*
X29681680Y-22843853D01*
X29603718Y-22714109D01*
X29523302Y-22585547D01*
X29445746Y-22466356D01*
X29410300Y-22413431D01*
X29374785Y-22361353D01*
X29339716Y-22310814D01*
X29305605Y-22262506D01*
X29272967Y-22217120D01*
X29242315Y-22175349D01*
X29214163Y-22137884D01*
X29189024Y-22105417D01*
X29167413Y-22078640D01*
X29149842Y-22058246D01*
X29136826Y-22044925D01*
X29128878Y-22039371D01*
X29128720Y-22039331D01*
X29115567Y-22036463D01*
X29094334Y-22032080D01*
X29066024Y-22026375D01*
X29031637Y-22019539D01*
X28992172Y-22011765D01*
X28948633Y-22003246D01*
X28902018Y-21994174D01*
X28853329Y-21984740D01*
X28803566Y-21975138D01*
X28753731Y-21965560D01*
X28704823Y-21956198D01*
X28657845Y-21947244D01*
X28613795Y-21938891D01*
X28573676Y-21931330D01*
X28538488Y-21924756D01*
X28509231Y-21919358D01*
X28486907Y-21915331D01*
X28472516Y-21912866D01*
X28467058Y-21912156D01*
X28467041Y-21912166D01*
X28467898Y-21917349D01*
X28471116Y-21931671D01*
X28476518Y-21954432D01*
X28483932Y-21984933D01*
X28493184Y-22022472D01*
X28504098Y-22066350D01*
X28516501Y-22115868D01*
X28530220Y-22170324D01*
X28545079Y-22229020D01*
X28560905Y-22291255D01*
X28577523Y-22356329D01*
X28577680Y-22356940D01*
X28594307Y-22422013D01*
X28610153Y-22484234D01*
X28625044Y-22542904D01*
X28638805Y-22597326D01*
X28651262Y-22646803D01*
X28662239Y-22690635D01*
X28671561Y-22728125D01*
X28679054Y-22758576D01*
X28684544Y-22781288D01*
X28687855Y-22795564D01*
X28688812Y-22800707D01*
X28688808Y-22800710D01*
X28684057Y-22803480D01*
X28671486Y-22810655D01*
X28652128Y-22821649D01*
X28627013Y-22835879D01*
X28597173Y-22852760D01*
X28563640Y-22871707D01*
X28535419Y-22887637D01*
X28499847Y-22907861D01*
X28467338Y-22926640D01*
X28438896Y-22943371D01*
X28415524Y-22957449D01*
X28398228Y-22968273D01*
X28388011Y-22975238D01*
X28385607Y-22977618D01*
X28389957Y-22980845D01*
X28402380Y-22989328D01*
X28422434Y-23002778D01*
X28449680Y-23020905D01*
X28483676Y-23043418D01*
X28523982Y-23070030D01*
X28570158Y-23100448D01*
X28621763Y-23134385D01*
X28678357Y-23171551D01*
X28739498Y-23211655D01*
X28804746Y-23254407D01*
X28873662Y-23299519D01*
X28945803Y-23346701D01*
X29020731Y-23395662D01*
X29098003Y-23446114D01*
X29103368Y-23449615D01*
X29180792Y-23500172D01*
X29255900Y-23549278D01*
X29328249Y-23596640D01*
X29397401Y-23641969D01*
X29462914Y-23684973D01*
X29524348Y-23725362D01*
X29581262Y-23762844D01*
X29633215Y-23797130D01*
X29679767Y-23827928D01*
X29720477Y-23854947D01*
X29754905Y-23877897D01*
X29782610Y-23896487D01*
X29803152Y-23910426D01*
X29816089Y-23919424D01*
X29820981Y-23923188D01*
X29821011Y-23923246D01*
X29819772Y-23929117D01*
X29815699Y-23943771D01*
X29809067Y-23966317D01*
X29800147Y-23995865D01*
X29789212Y-24031525D01*
X29776534Y-24072406D01*
X29762386Y-24117617D01*
X29747040Y-24166268D01*
X29735957Y-24201184D01*
X29719916Y-24251714D01*
X29704838Y-24299434D01*
X29691003Y-24343452D01*
X29678687Y-24382874D01*
X29668168Y-24416804D01*
X29659724Y-24444350D01*
X29653631Y-24464617D01*
X29650168Y-24476712D01*
X29649457Y-24479815D01*
X29652566Y-24484312D01*
X29663060Y-24484311D01*
X29665930Y-24483852D01*
X29672990Y-24482892D01*
X29689507Y-24480803D01*
X29714850Y-24477661D01*
X29748390Y-24473543D01*
X29789495Y-24468525D01*
X29837535Y-24462684D01*
X29891880Y-24456096D01*
X29951897Y-24448837D01*
X30016958Y-24440985D01*
X30086431Y-24432615D01*
X30159685Y-24423804D01*
X30236090Y-24414629D01*
X30302902Y-24406617D01*
X30923363Y-24332261D01*
X31542422Y-24406444D01*
X31620971Y-24415861D01*
X31696941Y-24424980D01*
X31769696Y-24433723D01*
X31838603Y-24442014D01*
X31903025Y-24449775D01*
X31962329Y-24456930D01*
X32015879Y-24463403D01*
X32063040Y-24469116D01*
X32103179Y-24473993D01*
X32135659Y-24477958D01*
X32159846Y-24480932D01*
X32175105Y-24482841D01*
X32180530Y-24483559D01*
X32194179Y-24484428D01*
X32199443Y-24481312D01*
X32199580Y-24480222D01*
X32198082Y-24474343D01*
X32193769Y-24459673D01*
X32186919Y-24437102D01*
X32177808Y-24407517D01*
X32166710Y-24371807D01*
X32153901Y-24330862D01*
X32139659Y-24285568D01*
X32124258Y-24236815D01*
X32112749Y-24200519D01*
X32096732Y-24149901D01*
X32081732Y-24102146D01*
X32068020Y-24058136D01*
X32055864Y-24018756D01*
X32045534Y-23984887D01*
X32037301Y-23957412D01*
X32031434Y-23937215D01*
X32028203Y-23925178D01*
X32027659Y-23922062D01*
X32032033Y-23918786D01*
X32044478Y-23910255D01*
X32064555Y-23896758D01*
X32091823Y-23878585D01*
X32125840Y-23856025D01*
X32166166Y-23829370D01*
X32212361Y-23798909D01*
X32263984Y-23764932D01*
X32320594Y-23727729D01*
X32381751Y-23687591D01*
X32447013Y-23644807D01*
X32515940Y-23599667D01*
X32588091Y-23552461D01*
X32663026Y-23503480D01*
X32740304Y-23453013D01*
X32745669Y-23449511D01*
X32823085Y-23398959D01*
X32898186Y-23349879D01*
X32970531Y-23302561D01*
X33039679Y-23257293D01*
X33105192Y-23214365D01*
X33166627Y-23174068D01*
X33223545Y-23136691D01*
X33275505Y-23102523D01*
X33322066Y-23071854D01*
X33362789Y-23044974D01*
X33397232Y-23022173D01*
X33424956Y-23003739D01*
X33445519Y-22989964D01*
X33458481Y-22981135D01*
X33463403Y-22977544D01*
X33463435Y-22977497D01*
X33459525Y-22974039D01*
X33447739Y-22966249D01*
X33429082Y-22954728D01*
X33404559Y-22940079D01*
X33375174Y-22922903D01*
X33341933Y-22903803D01*
X33313586Y-22887737D01*
X33277870Y-22867601D01*
X33245039Y-22849064D01*
X33216126Y-22832713D01*
X33192163Y-22819131D01*
X33174182Y-22808904D01*
X33163215Y-22802617D01*
X33160193Y-22800822D01*
X33161122Y-22795772D01*
X33164407Y-22781580D01*
X33169872Y-22758945D01*
X33177344Y-22728565D01*
X33186647Y-22691137D01*
X33197606Y-22647361D01*
X33210047Y-22597934D01*
X33223795Y-22543555D01*
X33238675Y-22484921D01*
X33254512Y-22422731D01*
X33271131Y-22357684D01*
X33271321Y-22356940D01*
X33287946Y-22291843D01*
X33303779Y-22229577D01*
X33318646Y-22170843D01*
X33332373Y-22116342D01*
X33344786Y-22066772D01*
X33355712Y-22022835D01*
X33364975Y-21985230D01*
X33372402Y-21954657D01*
X33377819Y-21931816D01*
X33381052Y-21917408D01*
X33381926Y-21912133D01*
X33381923Y-21912129D01*
X33376688Y-21912667D01*
X33376688Y-21912667D01*
G37*
X33376688Y-21912667D02*
X33362490Y-21914992D01*
X33340330Y-21918910D01*
X33311211Y-21924227D01*
X33276134Y-21930749D01*
X33236101Y-21938281D01*
X33192115Y-21946630D01*
X33145176Y-21955601D01*
X33096288Y-21965001D01*
X33046450Y-21974635D01*
X32996667Y-21984310D01*
X32947938Y-21993831D01*
X32901267Y-22003005D01*
X32857655Y-22011637D01*
X32818103Y-22019533D01*
X32783615Y-22026500D01*
X32755191Y-22032343D01*
X32733833Y-22036868D01*
X32720544Y-22039881D01*
X32716560Y-22040995D01*
X32710174Y-22046437D01*
X32698645Y-22059140D01*
X32682749Y-22078107D01*
X32663263Y-22102341D01*
X32640961Y-22130844D01*
X32616623Y-22162622D01*
X32591022Y-22196676D01*
X32564937Y-22232010D01*
X32539143Y-22267628D01*
X32529686Y-22280880D01*
X32451427Y-22393504D01*
X32373847Y-22510011D01*
X32297341Y-22629633D01*
X32222306Y-22751599D01*
X32149140Y-22875143D01*
X32078237Y-22999494D01*
X32009994Y-23123885D01*
X31944809Y-23247547D01*
X31883077Y-23369711D01*
X31825194Y-23489609D01*
X31771558Y-23606471D01*
X31722564Y-23719531D01*
X31678609Y-23828017D01*
X31640089Y-23931163D01*
X31607401Y-24028200D01*
X31580941Y-24118358D01*
X31579767Y-24122753D01*
X31563466Y-24184087D01*
X31517033Y-24135413D01*
X31416285Y-24026101D01*
X31323917Y-23917886D01*
X31238584Y-23808924D01*
X31158942Y-23697372D01*
X31083645Y-23581386D01*
X31011349Y-23459122D01*
X30972948Y-23389590D01*
X30958654Y-23363481D01*
X30945838Y-23340771D01*
X30935321Y-23322859D01*
X30927927Y-23311149D01*
X30924500Y-23307040D01*
X30920974Y-23311296D01*
X30913516Y-23323130D01*
X30902951Y-23341139D01*
X30890101Y-23363923D01*
X30876053Y-23389590D01*
X30804836Y-23516000D01*
X30731350Y-23635136D01*
X30654248Y-23748839D01*
X30572188Y-23858954D01*
X30483824Y-23967324D01*
X30387811Y-24075791D01*
X30331948Y-24135433D01*
X30285496Y-24184127D01*
X30274086Y-24140553D01*
X30246931Y-24045918D01*
X30213354Y-23944447D01*
X30173716Y-23836869D01*
X30128377Y-23723913D01*
X30077698Y-23606307D01*
X30022040Y-23484781D01*
X29961763Y-23360063D01*
X29897228Y-23232883D01*
X29828796Y-23103968D01*
X29756826Y-22974049D01*
X29681680Y-22843853D01*
X29603718Y-22714109D01*
X29523302Y-22585547D01*
X29445746Y-22466356D01*
X29410300Y-22413431D01*
X29374785Y-22361353D01*
X29339716Y-22310814D01*
X29305605Y-22262506D01*
X29272967Y-22217120D01*
X29242315Y-22175349D01*
X29214163Y-22137884D01*
X29189024Y-22105417D01*
X29167413Y-22078640D01*
X29149842Y-22058246D01*
X29136826Y-22044925D01*
X29128878Y-22039371D01*
X29128720Y-22039331D01*
X29115567Y-22036463D01*
X29094334Y-22032080D01*
X29066024Y-22026375D01*
X29031637Y-22019539D01*
X28992172Y-22011765D01*
X28948633Y-22003246D01*
X28902018Y-21994174D01*
X28853329Y-21984740D01*
X28803566Y-21975138D01*
X28753731Y-21965560D01*
X28704823Y-21956198D01*
X28657845Y-21947244D01*
X28613795Y-21938891D01*
X28573676Y-21931330D01*
X28538488Y-21924756D01*
X28509231Y-21919358D01*
X28486907Y-21915331D01*
X28472516Y-21912866D01*
X28467058Y-21912156D01*
X28467041Y-21912166D01*
X28467898Y-21917349D01*
X28471116Y-21931671D01*
X28476518Y-21954432D01*
X28483932Y-21984933D01*
X28493184Y-22022472D01*
X28504098Y-22066350D01*
X28516501Y-22115868D01*
X28530220Y-22170324D01*
X28545079Y-22229020D01*
X28560905Y-22291255D01*
X28577523Y-22356329D01*
X28577680Y-22356940D01*
X28594307Y-22422013D01*
X28610153Y-22484234D01*
X28625044Y-22542904D01*
X28638805Y-22597326D01*
X28651262Y-22646803D01*
X28662239Y-22690635D01*
X28671561Y-22728125D01*
X28679054Y-22758576D01*
X28684544Y-22781288D01*
X28687855Y-22795564D01*
X28688812Y-22800707D01*
X28688808Y-22800710D01*
X28684057Y-22803480D01*
X28671486Y-22810655D01*
X28652128Y-22821649D01*
X28627013Y-22835879D01*
X28597173Y-22852760D01*
X28563640Y-22871707D01*
X28535419Y-22887637D01*
X28499847Y-22907861D01*
X28467338Y-22926640D01*
X28438896Y-22943371D01*
X28415524Y-22957449D01*
X28398228Y-22968273D01*
X28388011Y-22975238D01*
X28385607Y-22977618D01*
X28389957Y-22980845D01*
X28402380Y-22989328D01*
X28422434Y-23002778D01*
X28449680Y-23020905D01*
X28483676Y-23043418D01*
X28523982Y-23070030D01*
X28570158Y-23100448D01*
X28621763Y-23134385D01*
X28678357Y-23171551D01*
X28739498Y-23211655D01*
X28804746Y-23254407D01*
X28873662Y-23299519D01*
X28945803Y-23346701D01*
X29020731Y-23395662D01*
X29098003Y-23446114D01*
X29103368Y-23449615D01*
X29180792Y-23500172D01*
X29255900Y-23549278D01*
X29328249Y-23596640D01*
X29397401Y-23641969D01*
X29462914Y-23684973D01*
X29524348Y-23725362D01*
X29581262Y-23762844D01*
X29633215Y-23797130D01*
X29679767Y-23827928D01*
X29720477Y-23854947D01*
X29754905Y-23877897D01*
X29782610Y-23896487D01*
X29803152Y-23910426D01*
X29816089Y-23919424D01*
X29820981Y-23923188D01*
X29821011Y-23923246D01*
X29819772Y-23929117D01*
X29815699Y-23943771D01*
X29809067Y-23966317D01*
X29800147Y-23995865D01*
X29789212Y-24031525D01*
X29776534Y-24072406D01*
X29762386Y-24117617D01*
X29747040Y-24166268D01*
X29735957Y-24201184D01*
X29719916Y-24251714D01*
X29704838Y-24299434D01*
X29691003Y-24343452D01*
X29678687Y-24382874D01*
X29668168Y-24416804D01*
X29659724Y-24444350D01*
X29653631Y-24464617D01*
X29650168Y-24476712D01*
X29649457Y-24479815D01*
X29652566Y-24484312D01*
X29663060Y-24484311D01*
X29665930Y-24483852D01*
X29672990Y-24482892D01*
X29689507Y-24480803D01*
X29714850Y-24477661D01*
X29748390Y-24473543D01*
X29789495Y-24468525D01*
X29837535Y-24462684D01*
X29891880Y-24456096D01*
X29951897Y-24448837D01*
X30016958Y-24440985D01*
X30086431Y-24432615D01*
X30159685Y-24423804D01*
X30236090Y-24414629D01*
X30302902Y-24406617D01*
X30923363Y-24332261D01*
X31542422Y-24406444D01*
X31620971Y-24415861D01*
X31696941Y-24424980D01*
X31769696Y-24433723D01*
X31838603Y-24442014D01*
X31903025Y-24449775D01*
X31962329Y-24456930D01*
X32015879Y-24463403D01*
X32063040Y-24469116D01*
X32103179Y-24473993D01*
X32135659Y-24477958D01*
X32159846Y-24480932D01*
X32175105Y-24482841D01*
X32180530Y-24483559D01*
X32194179Y-24484428D01*
X32199443Y-24481312D01*
X32199580Y-24480222D01*
X32198082Y-24474343D01*
X32193769Y-24459673D01*
X32186919Y-24437102D01*
X32177808Y-24407517D01*
X32166710Y-24371807D01*
X32153901Y-24330862D01*
X32139659Y-24285568D01*
X32124258Y-24236815D01*
X32112749Y-24200519D01*
X32096732Y-24149901D01*
X32081732Y-24102146D01*
X32068020Y-24058136D01*
X32055864Y-24018756D01*
X32045534Y-23984887D01*
X32037301Y-23957412D01*
X32031434Y-23937215D01*
X32028203Y-23925178D01*
X32027659Y-23922062D01*
X32032033Y-23918786D01*
X32044478Y-23910255D01*
X32064555Y-23896758D01*
X32091823Y-23878585D01*
X32125840Y-23856025D01*
X32166166Y-23829370D01*
X32212361Y-23798909D01*
X32263984Y-23764932D01*
X32320594Y-23727729D01*
X32381751Y-23687591D01*
X32447013Y-23644807D01*
X32515940Y-23599667D01*
X32588091Y-23552461D01*
X32663026Y-23503480D01*
X32740304Y-23453013D01*
X32745669Y-23449511D01*
X32823085Y-23398959D01*
X32898186Y-23349879D01*
X32970531Y-23302561D01*
X33039679Y-23257293D01*
X33105192Y-23214365D01*
X33166627Y-23174068D01*
X33223545Y-23136691D01*
X33275505Y-23102523D01*
X33322066Y-23071854D01*
X33362789Y-23044974D01*
X33397232Y-23022173D01*
X33424956Y-23003739D01*
X33445519Y-22989964D01*
X33458481Y-22981135D01*
X33463403Y-22977544D01*
X33463435Y-22977497D01*
X33459525Y-22974039D01*
X33447739Y-22966249D01*
X33429082Y-22954728D01*
X33404559Y-22940079D01*
X33375174Y-22922903D01*
X33341933Y-22903803D01*
X33313586Y-22887737D01*
X33277870Y-22867601D01*
X33245039Y-22849064D01*
X33216126Y-22832713D01*
X33192163Y-22819131D01*
X33174182Y-22808904D01*
X33163215Y-22802617D01*
X33160193Y-22800822D01*
X33161122Y-22795772D01*
X33164407Y-22781580D01*
X33169872Y-22758945D01*
X33177344Y-22728565D01*
X33186647Y-22691137D01*
X33197606Y-22647361D01*
X33210047Y-22597934D01*
X33223795Y-22543555D01*
X33238675Y-22484921D01*
X33254512Y-22422731D01*
X33271131Y-22357684D01*
X33271321Y-22356940D01*
X33287946Y-22291843D01*
X33303779Y-22229577D01*
X33318646Y-22170843D01*
X33332373Y-22116342D01*
X33344786Y-22066772D01*
X33355712Y-22022835D01*
X33364975Y-21985230D01*
X33372402Y-21954657D01*
X33377819Y-21931816D01*
X33381052Y-21917408D01*
X33381926Y-21912133D01*
X33381923Y-21912129D01*
X33376688Y-21912667D01*
G36*
X30233620Y-25074880D02*
X29994493Y-25074880D01*
X29995947Y-25124410D01*
X29997400Y-25173940D01*
X30168850Y-25175277D01*
X30340300Y-25176615D01*
X30340300Y-24693880D01*
X30233620Y-24693880D01*
X30233620Y-25074880D01*
X30233620Y-25074880D01*
G37*
X30233620Y-25074880D02*
X29994493Y-25074880D01*
X29995947Y-25124410D01*
X29997400Y-25173940D01*
X30168850Y-25175277D01*
X30340300Y-25176615D01*
X30340300Y-24693880D01*
X30233620Y-24693880D01*
X30233620Y-25074880D01*
G36*
X30665532Y-24693951D02*
X30633147Y-24694225D01*
X30607960Y-24694796D01*
X30588490Y-24695753D01*
X30573257Y-24697190D01*
X30560779Y-24699197D01*
X30549575Y-24701868D01*
X30541987Y-24704092D01*
X30508175Y-24719147D01*
X30478938Y-24741252D01*
X30456333Y-24768637D01*
X30447301Y-24785701D01*
X30439622Y-24812037D01*
X30435929Y-24843592D01*
X30436428Y-24876156D01*
X30441328Y-24905517D01*
X30441393Y-24905756D01*
X30453668Y-24933596D01*
X30473734Y-24959741D01*
X30499289Y-24981362D01*
X30506697Y-24985980D01*
X30520324Y-24994989D01*
X30529023Y-25002951D01*
X30530894Y-25007361D01*
X30527432Y-25013365D01*
X30519146Y-25026251D01*
X30507007Y-25044556D01*
X30491985Y-25066816D01*
X30477062Y-25088641D01*
X30460274Y-25113200D01*
X30445487Y-25135117D01*
X30433674Y-25152923D01*
X30425814Y-25165149D01*
X30422939Y-25170130D01*
X30424264Y-25172929D01*
X30431584Y-25174826D01*
X30446110Y-25175951D01*
X30469052Y-25176436D01*
X30481827Y-25176480D01*
X30543161Y-25176480D01*
X30595401Y-25099010D01*
X30647640Y-25021540D01*
X30686877Y-25020058D01*
X30726114Y-25018577D01*
X30727517Y-25096258D01*
X30728920Y-25173940D01*
X30779977Y-25175376D01*
X30801838Y-25175648D01*
X30819779Y-25175230D01*
X30831456Y-25174211D01*
X30834587Y-25173259D01*
X30835306Y-25167610D01*
X30835977Y-25152814D01*
X30836584Y-25129886D01*
X30837112Y-25099838D01*
X30837546Y-25063686D01*
X30837873Y-25022442D01*
X30838076Y-24977120D01*
X30838140Y-24931793D01*
X30838140Y-24923229D01*
X30726380Y-24923229D01*
X30652804Y-24921584D01*
X30579227Y-24919940D01*
X30563349Y-24904047D01*
X30549666Y-24883717D01*
X30544043Y-24859939D01*
X30546985Y-24835851D01*
X30550892Y-24826402D01*
X30560448Y-24812816D01*
X30573959Y-24802891D01*
X30592834Y-24796179D01*
X30618481Y-24792235D01*
X30652310Y-24790612D01*
X30664150Y-24790511D01*
X30726380Y-24790400D01*
X30726380Y-24923229D01*
X30838140Y-24923229D01*
X30838140Y-24693880D01*
X30706596Y-24693880D01*
X30665532Y-24693951D01*
X30665532Y-24693951D01*
G37*
X30665532Y-24693951D02*
X30633147Y-24694225D01*
X30607960Y-24694796D01*
X30588490Y-24695753D01*
X30573257Y-24697190D01*
X30560779Y-24699197D01*
X30549575Y-24701868D01*
X30541987Y-24704092D01*
X30508175Y-24719147D01*
X30478938Y-24741252D01*
X30456333Y-24768637D01*
X30447301Y-24785701D01*
X30439622Y-24812037D01*
X30435929Y-24843592D01*
X30436428Y-24876156D01*
X30441328Y-24905517D01*
X30441393Y-24905756D01*
X30453668Y-24933596D01*
X30473734Y-24959741D01*
X30499289Y-24981362D01*
X30506697Y-24985980D01*
X30520324Y-24994989D01*
X30529023Y-25002951D01*
X30530894Y-25007361D01*
X30527432Y-25013365D01*
X30519146Y-25026251D01*
X30507007Y-25044556D01*
X30491985Y-25066816D01*
X30477062Y-25088641D01*
X30460274Y-25113200D01*
X30445487Y-25135117D01*
X30433674Y-25152923D01*
X30425814Y-25165149D01*
X30422939Y-25170130D01*
X30424264Y-25172929D01*
X30431584Y-25174826D01*
X30446110Y-25175951D01*
X30469052Y-25176436D01*
X30481827Y-25176480D01*
X30543161Y-25176480D01*
X30595401Y-25099010D01*
X30647640Y-25021540D01*
X30686877Y-25020058D01*
X30726114Y-25018577D01*
X30727517Y-25096258D01*
X30728920Y-25173940D01*
X30779977Y-25175376D01*
X30801838Y-25175648D01*
X30819779Y-25175230D01*
X30831456Y-25174211D01*
X30834587Y-25173259D01*
X30835306Y-25167610D01*
X30835977Y-25152814D01*
X30836584Y-25129886D01*
X30837112Y-25099838D01*
X30837546Y-25063686D01*
X30837873Y-25022442D01*
X30838076Y-24977120D01*
X30838140Y-24931793D01*
X30838140Y-24923229D01*
X30726380Y-24923229D01*
X30652804Y-24921584D01*
X30579227Y-24919940D01*
X30563349Y-24904047D01*
X30549666Y-24883717D01*
X30544043Y-24859939D01*
X30546985Y-24835851D01*
X30550892Y-24826402D01*
X30560448Y-24812816D01*
X30573959Y-24802891D01*
X30592834Y-24796179D01*
X30618481Y-24792235D01*
X30652310Y-24790612D01*
X30664150Y-24790511D01*
X30726380Y-24790400D01*
X30726380Y-24923229D01*
X30838140Y-24923229D01*
X30838140Y-24693880D01*
X30706596Y-24693880D01*
X30665532Y-24693951D01*
G36*
X30929580Y-24790400D02*
X31188660Y-24790400D01*
X31188660Y-24881645D01*
X31075630Y-24883012D01*
X30962600Y-24884380D01*
X30961140Y-24931370D01*
X30959679Y-24978360D01*
X31188660Y-24978360D01*
X31188660Y-25074880D01*
X30929580Y-25074880D01*
X30929580Y-25176480D01*
X31109074Y-25176480D01*
X31150813Y-25176387D01*
X31189304Y-25176123D01*
X31223374Y-25175711D01*
X31251850Y-25175171D01*
X31273558Y-25174526D01*
X31287327Y-25173797D01*
X31291954Y-25173093D01*
X31292639Y-25167478D01*
X31293278Y-25152716D01*
X31293856Y-25129819D01*
X31294360Y-25099800D01*
X31294774Y-25063673D01*
X31295085Y-25022450D01*
X31295279Y-24977143D01*
X31295340Y-24931793D01*
X31295340Y-24693880D01*
X30929580Y-24693880D01*
X30929580Y-24790400D01*
X30929580Y-24790400D01*
G37*
X30929580Y-24790400D02*
X31188660Y-24790400D01*
X31188660Y-24881645D01*
X31075630Y-24883012D01*
X30962600Y-24884380D01*
X30961140Y-24931370D01*
X30959679Y-24978360D01*
X31188660Y-24978360D01*
X31188660Y-25074880D01*
X30929580Y-25074880D01*
X30929580Y-25176480D01*
X31109074Y-25176480D01*
X31150813Y-25176387D01*
X31189304Y-25176123D01*
X31223374Y-25175711D01*
X31251850Y-25175171D01*
X31273558Y-25174526D01*
X31287327Y-25173797D01*
X31291954Y-25173093D01*
X31292639Y-25167478D01*
X31293278Y-25152716D01*
X31293856Y-25129819D01*
X31294360Y-25099800D01*
X31294774Y-25063673D01*
X31295085Y-25022450D01*
X31295279Y-24977143D01*
X31295340Y-24931793D01*
X31295340Y-24693880D01*
X30929580Y-24693880D01*
X30929580Y-24790400D01*
G36*
X31371540Y-24790400D02*
X31518860Y-24790400D01*
X31518860Y-25176480D01*
X31625540Y-25176480D01*
X31625540Y-24790400D01*
X31772860Y-24790400D01*
X31772860Y-24693880D01*
X31371540Y-24693880D01*
X31371540Y-24790400D01*
X31371540Y-24790400D01*
G37*
X31371540Y-24790400D02*
X31518860Y-24790400D01*
X31518860Y-25176480D01*
X31625540Y-25176480D01*
X31625540Y-24790400D01*
X31772860Y-24790400D01*
X31772860Y-24693880D01*
X31371540Y-24693880D01*
X31371540Y-24790400D01*
G36*
X31876711Y-24923750D02*
X31857019Y-24969966D01*
X31838514Y-25013520D01*
X31821586Y-25053483D01*
X31806625Y-25088930D01*
X31794021Y-25118934D01*
X31784165Y-25142569D01*
X31777446Y-25158907D01*
X31774254Y-25167023D01*
X31774070Y-25167590D01*
X31773879Y-25171552D01*
X31776984Y-25174131D01*
X31785065Y-25175618D01*
X31799801Y-25176303D01*
X31822870Y-25176479D01*
X31825308Y-25176480D01*
X31853036Y-25175975D01*
X31871419Y-25174403D01*
X31881223Y-25171681D01*
X31882997Y-25170130D01*
X31886607Y-25162977D01*
X31893099Y-25148765D01*
X31901434Y-25129807D01*
X31907566Y-25115520D01*
X31928079Y-25067260D01*
X32027553Y-25065885D01*
X32127026Y-25064510D01*
X32171698Y-25173940D01*
X32226891Y-25175388D01*
X32251095Y-25175905D01*
X32266786Y-25175775D01*
X32275605Y-25174755D01*
X32279191Y-25172606D01*
X32279185Y-25169087D01*
X32278742Y-25167768D01*
X32276146Y-25161424D01*
X32269964Y-25146660D01*
X32260589Y-25124406D01*
X32248413Y-25095588D01*
X32233831Y-25061137D01*
X32217233Y-25021981D01*
X32199014Y-24979048D01*
X32194406Y-24968200D01*
X32087957Y-24968200D01*
X31967013Y-24968200D01*
X31994830Y-24900890D01*
X32005028Y-24876543D01*
X32014072Y-24855569D01*
X32021168Y-24839762D01*
X32025522Y-24830916D01*
X32026275Y-24829772D01*
X32029462Y-24832649D01*
X32035435Y-24843308D01*
X32043332Y-24860048D01*
X32052047Y-24880572D01*
X32061608Y-24904109D01*
X32070439Y-24925778D01*
X32077448Y-24942904D01*
X32081074Y-24951690D01*
X32087957Y-24968200D01*
X32194406Y-24968200D01*
X32179566Y-24933267D01*
X32175521Y-24923750D01*
X32075641Y-24688800D01*
X31976958Y-24688800D01*
X31876711Y-24923750D01*
X31876711Y-24923750D01*
G37*
X31876711Y-24923750D02*
X31857019Y-24969966D01*
X31838514Y-25013520D01*
X31821586Y-25053483D01*
X31806625Y-25088930D01*
X31794021Y-25118934D01*
X31784165Y-25142569D01*
X31777446Y-25158907D01*
X31774254Y-25167023D01*
X31774070Y-25167590D01*
X31773879Y-25171552D01*
X31776984Y-25174131D01*
X31785065Y-25175618D01*
X31799801Y-25176303D01*
X31822870Y-25176479D01*
X31825308Y-25176480D01*
X31853036Y-25175975D01*
X31871419Y-25174403D01*
X31881223Y-25171681D01*
X31882997Y-25170130D01*
X31886607Y-25162977D01*
X31893099Y-25148765D01*
X31901434Y-25129807D01*
X31907566Y-25115520D01*
X31928079Y-25067260D01*
X32027553Y-25065885D01*
X32127026Y-25064510D01*
X32171698Y-25173940D01*
X32226891Y-25175388D01*
X32251095Y-25175905D01*
X32266786Y-25175775D01*
X32275605Y-25174755D01*
X32279191Y-25172606D01*
X32279185Y-25169087D01*
X32278742Y-25167768D01*
X32276146Y-25161424D01*
X32269964Y-25146660D01*
X32260589Y-25124406D01*
X32248413Y-25095588D01*
X32233831Y-25061137D01*
X32217233Y-25021981D01*
X32199014Y-24979048D01*
X32194406Y-24968200D01*
X32087957Y-24968200D01*
X31967013Y-24968200D01*
X31994830Y-24900890D01*
X32005028Y-24876543D01*
X32014072Y-24855569D01*
X32021168Y-24839762D01*
X32025522Y-24830916D01*
X32026275Y-24829772D01*
X32029462Y-24832649D01*
X32035435Y-24843308D01*
X32043332Y-24860048D01*
X32052047Y-24880572D01*
X32061608Y-24904109D01*
X32070439Y-24925778D01*
X32077448Y-24942904D01*
X32081074Y-24951690D01*
X32087957Y-24968200D01*
X32194406Y-24968200D01*
X32179566Y-24933267D01*
X32175521Y-24923750D01*
X32075641Y-24688800D01*
X31976958Y-24688800D01*
X31876711Y-24923750D01*
G36*
X32605342Y-24689885D02*
X32559893Y-24691340D01*
X32508137Y-24847550D01*
X32495543Y-24885288D01*
X32483870Y-24919744D01*
X32473518Y-24949781D01*
X32464884Y-24974262D01*
X32458368Y-24992052D01*
X32454369Y-25002013D01*
X32453336Y-25003760D01*
X32451167Y-24999088D01*
X32446444Y-24985841D01*
X32439540Y-24965174D01*
X32430833Y-24938241D01*
X32420696Y-24906194D01*
X32409505Y-24870189D01*
X32402946Y-24848820D01*
X32355601Y-24693880D01*
X32300451Y-24693880D01*
X32278144Y-24694207D01*
X32260147Y-24695093D01*
X32248528Y-24696397D01*
X32245210Y-24697690D01*
X32246768Y-24703117D01*
X32251273Y-24717231D01*
X32258414Y-24739097D01*
X32267880Y-24767776D01*
X32279362Y-24802334D01*
X32292549Y-24841833D01*
X32307131Y-24885336D01*
X32322796Y-24931908D01*
X32325220Y-24939098D01*
X32405320Y-25176697D01*
X32453346Y-25175318D01*
X32501372Y-25173940D01*
X32553395Y-25024080D01*
X32566217Y-24987112D01*
X32577926Y-24953297D01*
X32588116Y-24923810D01*
X32596381Y-24899828D01*
X32602316Y-24882526D01*
X32605516Y-24873079D01*
X32605961Y-24871680D01*
X32607852Y-24875129D01*
X32612913Y-24888066D01*
X32621092Y-24910341D01*
X32632335Y-24941805D01*
X32646590Y-24982312D01*
X32663802Y-25031711D01*
X32679188Y-25076150D01*
X32713846Y-25176480D01*
X32808280Y-25176480D01*
X32825908Y-25124410D01*
X32846746Y-25062881D01*
X32866786Y-25003756D01*
X32885774Y-24947780D01*
X32903457Y-24895696D01*
X32919583Y-24848248D01*
X32933898Y-24806179D01*
X32946149Y-24770235D01*
X32956083Y-24741159D01*
X32963447Y-24719695D01*
X32967988Y-24706586D01*
X32969356Y-24702770D01*
X32970063Y-24698950D01*
X32967578Y-24696410D01*
X32960309Y-24694892D01*
X32946668Y-24694138D01*
X32925065Y-24693893D01*
X32914376Y-24693880D01*
X32855924Y-24693880D01*
X32845381Y-24728170D01*
X32840891Y-24742818D01*
X32834006Y-24765337D01*
X32825291Y-24793876D01*
X32815310Y-24826588D01*
X32804629Y-24861621D01*
X32798081Y-24883110D01*
X32787885Y-24916220D01*
X32778552Y-24945859D01*
X32770509Y-24970719D01*
X32764187Y-24989490D01*
X32760013Y-25000864D01*
X32758521Y-25003760D01*
X32756304Y-24999122D01*
X32751309Y-24985963D01*
X32743934Y-24965414D01*
X32734574Y-24938603D01*
X32723625Y-24906662D01*
X32711484Y-24870722D01*
X32703255Y-24846095D01*
X32650792Y-24688430D01*
X32605342Y-24689885D01*
X32605342Y-24689885D01*
G37*
X32605342Y-24689885D02*
X32559893Y-24691340D01*
X32508137Y-24847550D01*
X32495543Y-24885288D01*
X32483870Y-24919744D01*
X32473518Y-24949781D01*
X32464884Y-24974262D01*
X32458368Y-24992052D01*
X32454369Y-25002013D01*
X32453336Y-25003760D01*
X32451167Y-24999088D01*
X32446444Y-24985841D01*
X32439540Y-24965174D01*
X32430833Y-24938241D01*
X32420696Y-24906194D01*
X32409505Y-24870189D01*
X32402946Y-24848820D01*
X32355601Y-24693880D01*
X32300451Y-24693880D01*
X32278144Y-24694207D01*
X32260147Y-24695093D01*
X32248528Y-24696397D01*
X32245210Y-24697690D01*
X32246768Y-24703117D01*
X32251273Y-24717231D01*
X32258414Y-24739097D01*
X32267880Y-24767776D01*
X32279362Y-24802334D01*
X32292549Y-24841833D01*
X32307131Y-24885336D01*
X32322796Y-24931908D01*
X32325220Y-24939098D01*
X32405320Y-25176697D01*
X32453346Y-25175318D01*
X32501372Y-25173940D01*
X32553395Y-25024080D01*
X32566217Y-24987112D01*
X32577926Y-24953297D01*
X32588116Y-24923810D01*
X32596381Y-24899828D01*
X32602316Y-24882526D01*
X32605516Y-24873079D01*
X32605961Y-24871680D01*
X32607852Y-24875129D01*
X32612913Y-24888066D01*
X32621092Y-24910341D01*
X32632335Y-24941805D01*
X32646590Y-24982312D01*
X32663802Y-25031711D01*
X32679188Y-25076150D01*
X32713846Y-25176480D01*
X32808280Y-25176480D01*
X32825908Y-25124410D01*
X32846746Y-25062881D01*
X32866786Y-25003756D01*
X32885774Y-24947780D01*
X32903457Y-24895696D01*
X32919583Y-24848248D01*
X32933898Y-24806179D01*
X32946149Y-24770235D01*
X32956083Y-24741159D01*
X32963447Y-24719695D01*
X32967988Y-24706586D01*
X32969356Y-24702770D01*
X32970063Y-24698950D01*
X32967578Y-24696410D01*
X32960309Y-24694892D01*
X32946668Y-24694138D01*
X32925065Y-24693893D01*
X32914376Y-24693880D01*
X32855924Y-24693880D01*
X32845381Y-24728170D01*
X32840891Y-24742818D01*
X32834006Y-24765337D01*
X32825291Y-24793876D01*
X32815310Y-24826588D01*
X32804629Y-24861621D01*
X32798081Y-24883110D01*
X32787885Y-24916220D01*
X32778552Y-24945859D01*
X32770509Y-24970719D01*
X32764187Y-24989490D01*
X32760013Y-25000864D01*
X32758521Y-25003760D01*
X32756304Y-24999122D01*
X32751309Y-24985963D01*
X32743934Y-24965414D01*
X32734574Y-24938603D01*
X32723625Y-24906662D01*
X32711484Y-24870722D01*
X32703255Y-24846095D01*
X32650792Y-24688430D01*
X32605342Y-24689885D01*
G36*
X29055995Y-24688338D02*
X29008966Y-24701648D01*
X28965943Y-24722834D01*
X28927977Y-24751079D01*
X28896117Y-24785569D01*
X28871414Y-24825486D01*
X28854917Y-24870015D01*
X28852394Y-24880820D01*
X28847006Y-24930058D01*
X28851111Y-24977786D01*
X28864051Y-25022962D01*
X28885169Y-25064543D01*
X28913810Y-25101489D01*
X28949316Y-25132756D01*
X28991031Y-25157303D01*
X29037078Y-25173779D01*
X29068315Y-25179052D01*
X29104348Y-25180850D01*
X29140418Y-25179153D01*
X29170197Y-25174333D01*
X29215848Y-25158313D01*
X29256531Y-25134241D01*
X29291475Y-25103266D01*
X29319908Y-25066535D01*
X29341057Y-25025197D01*
X29354153Y-24980400D01*
X29356686Y-24952441D01*
X29242269Y-24952441D01*
X29237193Y-24982753D01*
X29235752Y-24987461D01*
X29220295Y-25018635D01*
X29196882Y-25045556D01*
X29167520Y-25065944D01*
X29165811Y-25066811D01*
X29133750Y-25077557D01*
X29098626Y-25080505D01*
X29063924Y-25075627D01*
X29042360Y-25067832D01*
X29010518Y-25047543D01*
X28986291Y-25020796D01*
X28970135Y-24988344D01*
X28962505Y-24950937D01*
X28961939Y-24935180D01*
X28966243Y-24894341D01*
X28978556Y-24859696D01*
X28999008Y-24831023D01*
X29027728Y-24808102D01*
X29040819Y-24800863D01*
X29075813Y-24788503D01*
X29111195Y-24785357D01*
X29145400Y-24790932D01*
X29176864Y-24804737D01*
X29204024Y-24826280D01*
X29225315Y-24855071D01*
X29227710Y-24859595D01*
X29237271Y-24886794D01*
X29242210Y-24919099D01*
X29242269Y-24952441D01*
X29356686Y-24952441D01*
X29358422Y-24933290D01*
X29355585Y-24898504D01*
X29343520Y-24852224D01*
X29322745Y-24808559D01*
X29294481Y-24769341D01*
X29259946Y-24736402D01*
X29237105Y-24720643D01*
X29212387Y-24708578D01*
X29181868Y-24697762D01*
X29149628Y-24689343D01*
X29119749Y-24684471D01*
X29105981Y-24683720D01*
X29055995Y-24688338D01*
X29055995Y-24688338D01*
G37*
X29055995Y-24688338D02*
X29008966Y-24701648D01*
X28965943Y-24722834D01*
X28927977Y-24751079D01*
X28896117Y-24785569D01*
X28871414Y-24825486D01*
X28854917Y-24870015D01*
X28852394Y-24880820D01*
X28847006Y-24930058D01*
X28851111Y-24977786D01*
X28864051Y-25022962D01*
X28885169Y-25064543D01*
X28913810Y-25101489D01*
X28949316Y-25132756D01*
X28991031Y-25157303D01*
X29037078Y-25173779D01*
X29068315Y-25179052D01*
X29104348Y-25180850D01*
X29140418Y-25179153D01*
X29170197Y-25174333D01*
X29215848Y-25158313D01*
X29256531Y-25134241D01*
X29291475Y-25103266D01*
X29319908Y-25066535D01*
X29341057Y-25025197D01*
X29354153Y-24980400D01*
X29356686Y-24952441D01*
X29242269Y-24952441D01*
X29237193Y-24982753D01*
X29235752Y-24987461D01*
X29220295Y-25018635D01*
X29196882Y-25045556D01*
X29167520Y-25065944D01*
X29165811Y-25066811D01*
X29133750Y-25077557D01*
X29098626Y-25080505D01*
X29063924Y-25075627D01*
X29042360Y-25067832D01*
X29010518Y-25047543D01*
X28986291Y-25020796D01*
X28970135Y-24988344D01*
X28962505Y-24950937D01*
X28961939Y-24935180D01*
X28966243Y-24894341D01*
X28978556Y-24859696D01*
X28999008Y-24831023D01*
X29027728Y-24808102D01*
X29040819Y-24800863D01*
X29075813Y-24788503D01*
X29111195Y-24785357D01*
X29145400Y-24790932D01*
X29176864Y-24804737D01*
X29204024Y-24826280D01*
X29225315Y-24855071D01*
X29227710Y-24859595D01*
X29237271Y-24886794D01*
X29242210Y-24919099D01*
X29242269Y-24952441D01*
X29356686Y-24952441D01*
X29358422Y-24933290D01*
X29355585Y-24898504D01*
X29343520Y-24852224D01*
X29322745Y-24808559D01*
X29294481Y-24769341D01*
X29259946Y-24736402D01*
X29237105Y-24720643D01*
X29212387Y-24708578D01*
X29181868Y-24697762D01*
X29149628Y-24689343D01*
X29119749Y-24684471D01*
X29105981Y-24683720D01*
X29055995Y-24688338D01*
G36*
X29618546Y-24692711D02*
X29590977Y-24701324D01*
X29545272Y-24723578D01*
X29506278Y-24752920D01*
X29474557Y-24788405D01*
X29450672Y-24829087D01*
X29435186Y-24874023D01*
X29428663Y-24922267D01*
X29431161Y-24969473D01*
X29442702Y-25015844D01*
X29463098Y-25058725D01*
X29491323Y-25096985D01*
X29526349Y-25129493D01*
X29567150Y-25155118D01*
X29612699Y-25172728D01*
X29616612Y-25173781D01*
X29646023Y-25178879D01*
X29680367Y-25180901D01*
X29715247Y-25179849D01*
X29746264Y-25175724D01*
X29754757Y-25173728D01*
X29797694Y-25157308D01*
X29838296Y-25132566D01*
X29874207Y-25101278D01*
X29903069Y-25065222D01*
X29907015Y-25058897D01*
X29925818Y-25018012D01*
X29936433Y-24973145D01*
X29938530Y-24932640D01*
X29824058Y-24932640D01*
X29822447Y-24963929D01*
X29817231Y-24988597D01*
X29807264Y-25009878D01*
X29791399Y-25031009D01*
X29787735Y-25035150D01*
X29760631Y-25057975D01*
X29728552Y-25073167D01*
X29693672Y-25080314D01*
X29658161Y-25079006D01*
X29624191Y-25068832D01*
X29620057Y-25066865D01*
X29589343Y-25046295D01*
X29566303Y-25019154D01*
X29551116Y-24985725D01*
X29543960Y-24946293D01*
X29543851Y-24944725D01*
X29545070Y-24905231D01*
X29554523Y-24871032D01*
X29572574Y-24840997D01*
X29580039Y-24832281D01*
X29601585Y-24811603D01*
X29622644Y-24798224D01*
X29646339Y-24790826D01*
X29675791Y-24788091D01*
X29684980Y-24787981D01*
X29717035Y-24789818D01*
X29742360Y-24796075D01*
X29763832Y-24807872D01*
X29784331Y-24826327D01*
X29784763Y-24826784D01*
X29804389Y-24851205D01*
X29816692Y-24876248D01*
X29822823Y-24905013D01*
X29824058Y-24932640D01*
X29938530Y-24932640D01*
X29938857Y-24926333D01*
X29933088Y-24879612D01*
X29919123Y-24835019D01*
X29907306Y-24811000D01*
X29879648Y-24772248D01*
X29845174Y-24739988D01*
X29805255Y-24714695D01*
X29761262Y-24696846D01*
X29714566Y-24686916D01*
X29666537Y-24685379D01*
X29618546Y-24692711D01*
X29618546Y-24692711D01*
G37*
X29618546Y-24692711D02*
X29590977Y-24701324D01*
X29545272Y-24723578D01*
X29506278Y-24752920D01*
X29474557Y-24788405D01*
X29450672Y-24829087D01*
X29435186Y-24874023D01*
X29428663Y-24922267D01*
X29431161Y-24969473D01*
X29442702Y-25015844D01*
X29463098Y-25058725D01*
X29491323Y-25096985D01*
X29526349Y-25129493D01*
X29567150Y-25155118D01*
X29612699Y-25172728D01*
X29616612Y-25173781D01*
X29646023Y-25178879D01*
X29680367Y-25180901D01*
X29715247Y-25179849D01*
X29746264Y-25175724D01*
X29754757Y-25173728D01*
X29797694Y-25157308D01*
X29838296Y-25132566D01*
X29874207Y-25101278D01*
X29903069Y-25065222D01*
X29907015Y-25058897D01*
X29925818Y-25018012D01*
X29936433Y-24973145D01*
X29938530Y-24932640D01*
X29824058Y-24932640D01*
X29822447Y-24963929D01*
X29817231Y-24988597D01*
X29807264Y-25009878D01*
X29791399Y-25031009D01*
X29787735Y-25035150D01*
X29760631Y-25057975D01*
X29728552Y-25073167D01*
X29693672Y-25080314D01*
X29658161Y-25079006D01*
X29624191Y-25068832D01*
X29620057Y-25066865D01*
X29589343Y-25046295D01*
X29566303Y-25019154D01*
X29551116Y-24985725D01*
X29543960Y-24946293D01*
X29543851Y-24944725D01*
X29545070Y-24905231D01*
X29554523Y-24871032D01*
X29572574Y-24840997D01*
X29580039Y-24832281D01*
X29601585Y-24811603D01*
X29622644Y-24798224D01*
X29646339Y-24790826D01*
X29675791Y-24788091D01*
X29684980Y-24787981D01*
X29717035Y-24789818D01*
X29742360Y-24796075D01*
X29763832Y-24807872D01*
X29784331Y-24826327D01*
X29784763Y-24826784D01*
X29804389Y-24851205D01*
X29816692Y-24876248D01*
X29822823Y-24905013D01*
X29824058Y-24932640D01*
X29938530Y-24932640D01*
X29938857Y-24926333D01*
X29933088Y-24879612D01*
X29919123Y-24835019D01*
X29907306Y-24811000D01*
X29879648Y-24772248D01*
X29845174Y-24739988D01*
X29805255Y-24714695D01*
X29761262Y-24696846D01*
X29714566Y-24686916D01*
X29666537Y-24685379D01*
X29618546Y-24692711D01*
G36*
X28976594Y-25327610D02*
X28981677Y-25335180D01*
X28991751Y-25349963D01*
X29006032Y-25370813D01*
X29023733Y-25396584D01*
X29044068Y-25426132D01*
X29066252Y-25458313D01*
X29076239Y-25472783D01*
X29166820Y-25603987D01*
X29166820Y-25796240D01*
X29222700Y-25796240D01*
X29222700Y-25605639D01*
X29321760Y-25461997D01*
X29345043Y-25428163D01*
X29366379Y-25397018D01*
X29385107Y-25369539D01*
X29400565Y-25346702D01*
X29412091Y-25329483D01*
X29419025Y-25318859D01*
X29420820Y-25315765D01*
X29416188Y-25314667D01*
X29404043Y-25314276D01*
X29387013Y-25314677D01*
X29386994Y-25314677D01*
X29353167Y-25316180D01*
X29194391Y-25550858D01*
X29113550Y-25432249D01*
X29032708Y-25313640D01*
X28967532Y-25313640D01*
X28976594Y-25327610D01*
X28976594Y-25327610D01*
G37*
X28976594Y-25327610D02*
X28981677Y-25335180D01*
X28991751Y-25349963D01*
X29006032Y-25370813D01*
X29023733Y-25396584D01*
X29044068Y-25426132D01*
X29066252Y-25458313D01*
X29076239Y-25472783D01*
X29166820Y-25603987D01*
X29166820Y-25796240D01*
X29222700Y-25796240D01*
X29222700Y-25605639D01*
X29321760Y-25461997D01*
X29345043Y-25428163D01*
X29366379Y-25397018D01*
X29385107Y-25369539D01*
X29400565Y-25346702D01*
X29412091Y-25329483D01*
X29419025Y-25318859D01*
X29420820Y-25315765D01*
X29416188Y-25314667D01*
X29404043Y-25314276D01*
X29387013Y-25314677D01*
X29386994Y-25314677D01*
X29353167Y-25316180D01*
X29194391Y-25550858D01*
X29113550Y-25432249D01*
X29032708Y-25313640D01*
X28967532Y-25313640D01*
X28976594Y-25327610D01*
G36*
X29681388Y-25313906D02*
X29642881Y-25314877D01*
X29611824Y-25316811D01*
X29586868Y-25319966D01*
X29566661Y-25324599D01*
X29549854Y-25330970D01*
X29535097Y-25339337D01*
X29521040Y-25349957D01*
X29515971Y-25354311D01*
X29492543Y-25379578D01*
X29477948Y-25407266D01*
X29471182Y-25439619D01*
X29470425Y-25456133D01*
X29474831Y-25493948D01*
X29488118Y-25527353D01*
X29509643Y-25555477D01*
X29538765Y-25577449D01*
X29569888Y-25590918D01*
X29596850Y-25599417D01*
X29524075Y-25695988D01*
X29503686Y-25723118D01*
X29485501Y-25747457D01*
X29470364Y-25767864D01*
X29459116Y-25783201D01*
X29452600Y-25792329D01*
X29451300Y-25794399D01*
X29455943Y-25795291D01*
X29468128Y-25795873D01*
X29485236Y-25796022D01*
X29485590Y-25796019D01*
X29519880Y-25795799D01*
X29589777Y-25702039D01*
X29659674Y-25608280D01*
X29791431Y-25608280D01*
X29792816Y-25700990D01*
X29794200Y-25793700D01*
X29819796Y-25795198D01*
X29835190Y-25795397D01*
X29846135Y-25794246D01*
X29849006Y-25793081D01*
X29849737Y-25787419D01*
X29850419Y-25772610D01*
X29851037Y-25749670D01*
X29851574Y-25719612D01*
X29852016Y-25683451D01*
X29852348Y-25642199D01*
X29852554Y-25596872D01*
X29852610Y-25558286D01*
X29791660Y-25558286D01*
X29698950Y-25556612D01*
X29665039Y-25555881D01*
X29639522Y-25554959D01*
X29620632Y-25553657D01*
X29606605Y-25551784D01*
X29595674Y-25549151D01*
X29586072Y-25545566D01*
X29582829Y-25544112D01*
X29557705Y-25527711D01*
X29540136Y-25506409D01*
X29530101Y-25481962D01*
X29527580Y-25456123D01*
X29532555Y-25430645D01*
X29545004Y-25407284D01*
X29564909Y-25387793D01*
X29584715Y-25376772D01*
X29595025Y-25373285D01*
X29608214Y-25370623D01*
X29625916Y-25368626D01*
X29649762Y-25367134D01*
X29681386Y-25365985D01*
X29698950Y-25365529D01*
X29791660Y-25363326D01*
X29791660Y-25558286D01*
X29852610Y-25558286D01*
X29852620Y-25551553D01*
X29852620Y-25313640D01*
X29728696Y-25313640D01*
X29681388Y-25313906D01*
X29681388Y-25313906D01*
G37*
X29681388Y-25313906D02*
X29642881Y-25314877D01*
X29611824Y-25316811D01*
X29586868Y-25319966D01*
X29566661Y-25324599D01*
X29549854Y-25330970D01*
X29535097Y-25339337D01*
X29521040Y-25349957D01*
X29515971Y-25354311D01*
X29492543Y-25379578D01*
X29477948Y-25407266D01*
X29471182Y-25439619D01*
X29470425Y-25456133D01*
X29474831Y-25493948D01*
X29488118Y-25527353D01*
X29509643Y-25555477D01*
X29538765Y-25577449D01*
X29569888Y-25590918D01*
X29596850Y-25599417D01*
X29524075Y-25695988D01*
X29503686Y-25723118D01*
X29485501Y-25747457D01*
X29470364Y-25767864D01*
X29459116Y-25783201D01*
X29452600Y-25792329D01*
X29451300Y-25794399D01*
X29455943Y-25795291D01*
X29468128Y-25795873D01*
X29485236Y-25796022D01*
X29485590Y-25796019D01*
X29519880Y-25795799D01*
X29589777Y-25702039D01*
X29659674Y-25608280D01*
X29791431Y-25608280D01*
X29792816Y-25700990D01*
X29794200Y-25793700D01*
X29819796Y-25795198D01*
X29835190Y-25795397D01*
X29846135Y-25794246D01*
X29849006Y-25793081D01*
X29849737Y-25787419D01*
X29850419Y-25772610D01*
X29851037Y-25749670D01*
X29851574Y-25719612D01*
X29852016Y-25683451D01*
X29852348Y-25642199D01*
X29852554Y-25596872D01*
X29852610Y-25558286D01*
X29791660Y-25558286D01*
X29698950Y-25556612D01*
X29665039Y-25555881D01*
X29639522Y-25554959D01*
X29620632Y-25553657D01*
X29606605Y-25551784D01*
X29595674Y-25549151D01*
X29586072Y-25545566D01*
X29582829Y-25544112D01*
X29557705Y-25527711D01*
X29540136Y-25506409D01*
X29530101Y-25481962D01*
X29527580Y-25456123D01*
X29532555Y-25430645D01*
X29545004Y-25407284D01*
X29564909Y-25387793D01*
X29584715Y-25376772D01*
X29595025Y-25373285D01*
X29608214Y-25370623D01*
X29625916Y-25368626D01*
X29649762Y-25367134D01*
X29681386Y-25365985D01*
X29698950Y-25365529D01*
X29791660Y-25363326D01*
X29791660Y-25558286D01*
X29852610Y-25558286D01*
X29852620Y-25551553D01*
X29852620Y-25313640D01*
X29728696Y-25313640D01*
X29681388Y-25313906D01*
G36*
X29949140Y-25364440D02*
X30111700Y-25364440D01*
X30111700Y-25796240D01*
X30167580Y-25796240D01*
X30167580Y-25364440D01*
X30330140Y-25364440D01*
X30330140Y-25313640D01*
X29949140Y-25313640D01*
X29949140Y-25364440D01*
X29949140Y-25364440D01*
G37*
X29949140Y-25364440D02*
X30111700Y-25364440D01*
X30111700Y-25796240D01*
X30167580Y-25796240D01*
X30167580Y-25364440D01*
X30330140Y-25364440D01*
X30330140Y-25313640D01*
X29949140Y-25313640D01*
X29949140Y-25364440D01*
G36*
X30401260Y-25364440D02*
X30695900Y-25364440D01*
X30695900Y-25527000D01*
X30431184Y-25527000D01*
X30434280Y-25575260D01*
X30565090Y-25576615D01*
X30695900Y-25577971D01*
X30695900Y-25740360D01*
X30401260Y-25740360D01*
X30401260Y-25796240D01*
X30751780Y-25796240D01*
X30751780Y-25313640D01*
X30401260Y-25313640D01*
X30401260Y-25364440D01*
X30401260Y-25364440D01*
G37*
X30401260Y-25364440D02*
X30695900Y-25364440D01*
X30695900Y-25527000D01*
X30431184Y-25527000D01*
X30434280Y-25575260D01*
X30565090Y-25576615D01*
X30695900Y-25577971D01*
X30695900Y-25740360D01*
X30401260Y-25740360D01*
X30401260Y-25796240D01*
X30751780Y-25796240D01*
X30751780Y-25313640D01*
X30401260Y-25313640D01*
X30401260Y-25364440D01*
G36*
X30919489Y-25393472D02*
X30944224Y-25418690D01*
X30968125Y-25443150D01*
X30989716Y-25465335D01*
X31007524Y-25483729D01*
X31020075Y-25496818D01*
X31022393Y-25499268D01*
X31046488Y-25524877D01*
X30942374Y-25655867D01*
X30917265Y-25687488D01*
X30894159Y-25716645D01*
X30873824Y-25742365D01*
X30857026Y-25763678D01*
X30844530Y-25779610D01*
X30837103Y-25789192D01*
X30835361Y-25791548D01*
X30838450Y-25793954D01*
X30849739Y-25795613D01*
X30867275Y-25796239D01*
X30867503Y-25796240D01*
X30902546Y-25796240D01*
X30993024Y-25681940D01*
X31016316Y-25652648D01*
X31037603Y-25626132D01*
X31056067Y-25603392D01*
X31070887Y-25585427D01*
X31081246Y-25573237D01*
X31086324Y-25567822D01*
X31086647Y-25567640D01*
X31091182Y-25571045D01*
X31101446Y-25580388D01*
X31116051Y-25594357D01*
X31133606Y-25611640D01*
X31139226Y-25617260D01*
X31188660Y-25666881D01*
X31188660Y-25796240D01*
X31244540Y-25796240D01*
X31244540Y-25313640D01*
X31188821Y-25313640D01*
X31187471Y-25454181D01*
X31186120Y-25594722D01*
X31051578Y-25455451D01*
X30917035Y-25316180D01*
X30878858Y-25314732D01*
X30840680Y-25313284D01*
X30919489Y-25393472D01*
X30919489Y-25393472D01*
G37*
X30919489Y-25393472D02*
X30944224Y-25418690D01*
X30968125Y-25443150D01*
X30989716Y-25465335D01*
X31007524Y-25483729D01*
X31020075Y-25496818D01*
X31022393Y-25499268D01*
X31046488Y-25524877D01*
X30942374Y-25655867D01*
X30917265Y-25687488D01*
X30894159Y-25716645D01*
X30873824Y-25742365D01*
X30857026Y-25763678D01*
X30844530Y-25779610D01*
X30837103Y-25789192D01*
X30835361Y-25791548D01*
X30838450Y-25793954D01*
X30849739Y-25795613D01*
X30867275Y-25796239D01*
X30867503Y-25796240D01*
X30902546Y-25796240D01*
X30993024Y-25681940D01*
X31016316Y-25652648D01*
X31037603Y-25626132D01*
X31056067Y-25603392D01*
X31070887Y-25585427D01*
X31081246Y-25573237D01*
X31086324Y-25567822D01*
X31086647Y-25567640D01*
X31091182Y-25571045D01*
X31101446Y-25580388D01*
X31116051Y-25594357D01*
X31133606Y-25611640D01*
X31139226Y-25617260D01*
X31188660Y-25666881D01*
X31188660Y-25796240D01*
X31244540Y-25796240D01*
X31244540Y-25313640D01*
X31188821Y-25313640D01*
X31187471Y-25454181D01*
X31186120Y-25594722D01*
X31051578Y-25455451D01*
X30917035Y-25316180D01*
X30878858Y-25314732D01*
X30840680Y-25313284D01*
X30919489Y-25393472D01*
G36*
X32625006Y-25313722D02*
X32593689Y-25314036D01*
X32569438Y-25314682D01*
X32550705Y-25315760D01*
X32535945Y-25317370D01*
X32523609Y-25319611D01*
X32512152Y-25322584D01*
X32508200Y-25323774D01*
X32472126Y-25339510D01*
X32443516Y-25361822D01*
X32422826Y-25390109D01*
X32410511Y-25423767D01*
X32406964Y-25457474D01*
X32411587Y-25495243D01*
X32425058Y-25528468D01*
X32446776Y-25556343D01*
X32476142Y-25578064D01*
X32506475Y-25591027D01*
X32533783Y-25599635D01*
X32464087Y-25691587D01*
X32443851Y-25718346D01*
X32425594Y-25742605D01*
X32410242Y-25763122D01*
X32398724Y-25778655D01*
X32391967Y-25787962D01*
X32390666Y-25789890D01*
X32391091Y-25793362D01*
X32398371Y-25795313D01*
X32413895Y-25796016D01*
X32421531Y-25796019D01*
X32456120Y-25795799D01*
X32526017Y-25702039D01*
X32595914Y-25608280D01*
X32727671Y-25608280D01*
X32729056Y-25700990D01*
X32730440Y-25793700D01*
X32756036Y-25795198D01*
X32771430Y-25795397D01*
X32782375Y-25794246D01*
X32785246Y-25793081D01*
X32785977Y-25787419D01*
X32786659Y-25772610D01*
X32787277Y-25749670D01*
X32787814Y-25719612D01*
X32788256Y-25683451D01*
X32788588Y-25642199D01*
X32788794Y-25596872D01*
X32788850Y-25558286D01*
X32727900Y-25558286D01*
X32635190Y-25556613D01*
X32601752Y-25555918D01*
X32576696Y-25555073D01*
X32558247Y-25553874D01*
X32544627Y-25552111D01*
X32534061Y-25549579D01*
X32524772Y-25546071D01*
X32518212Y-25542989D01*
X32492988Y-25525797D01*
X32475506Y-25504023D01*
X32465738Y-25479378D01*
X32463656Y-25453569D01*
X32469231Y-25428308D01*
X32482436Y-25405303D01*
X32503242Y-25386264D01*
X32520955Y-25376772D01*
X32531265Y-25373285D01*
X32544454Y-25370623D01*
X32562156Y-25368626D01*
X32586002Y-25367134D01*
X32617626Y-25365985D01*
X32635190Y-25365529D01*
X32727900Y-25363326D01*
X32727900Y-25558286D01*
X32788850Y-25558286D01*
X32788860Y-25551553D01*
X32788860Y-25313640D01*
X32664936Y-25313640D01*
X32625006Y-25313722D01*
X32625006Y-25313722D01*
G37*
X32625006Y-25313722D02*
X32593689Y-25314036D01*
X32569438Y-25314682D01*
X32550705Y-25315760D01*
X32535945Y-25317370D01*
X32523609Y-25319611D01*
X32512152Y-25322584D01*
X32508200Y-25323774D01*
X32472126Y-25339510D01*
X32443516Y-25361822D01*
X32422826Y-25390109D01*
X32410511Y-25423767D01*
X32406964Y-25457474D01*
X32411587Y-25495243D01*
X32425058Y-25528468D01*
X32446776Y-25556343D01*
X32476142Y-25578064D01*
X32506475Y-25591027D01*
X32533783Y-25599635D01*
X32464087Y-25691587D01*
X32443851Y-25718346D01*
X32425594Y-25742605D01*
X32410242Y-25763122D01*
X32398724Y-25778655D01*
X32391967Y-25787962D01*
X32390666Y-25789890D01*
X32391091Y-25793362D01*
X32398371Y-25795313D01*
X32413895Y-25796016D01*
X32421531Y-25796019D01*
X32456120Y-25795799D01*
X32526017Y-25702039D01*
X32595914Y-25608280D01*
X32727671Y-25608280D01*
X32729056Y-25700990D01*
X32730440Y-25793700D01*
X32756036Y-25795198D01*
X32771430Y-25795397D01*
X32782375Y-25794246D01*
X32785246Y-25793081D01*
X32785977Y-25787419D01*
X32786659Y-25772610D01*
X32787277Y-25749670D01*
X32787814Y-25719612D01*
X32788256Y-25683451D01*
X32788588Y-25642199D01*
X32788794Y-25596872D01*
X32788850Y-25558286D01*
X32727900Y-25558286D01*
X32635190Y-25556613D01*
X32601752Y-25555918D01*
X32576696Y-25555073D01*
X32558247Y-25553874D01*
X32544627Y-25552111D01*
X32534061Y-25549579D01*
X32524772Y-25546071D01*
X32518212Y-25542989D01*
X32492988Y-25525797D01*
X32475506Y-25504023D01*
X32465738Y-25479378D01*
X32463656Y-25453569D01*
X32469231Y-25428308D01*
X32482436Y-25405303D01*
X32503242Y-25386264D01*
X32520955Y-25376772D01*
X32531265Y-25373285D01*
X32544454Y-25370623D01*
X32562156Y-25368626D01*
X32586002Y-25367134D01*
X32617626Y-25365985D01*
X32635190Y-25365529D01*
X32727900Y-25363326D01*
X32727900Y-25558286D01*
X32788850Y-25558286D01*
X32788860Y-25551553D01*
X32788860Y-25313640D01*
X32664936Y-25313640D01*
X32625006Y-25313722D01*
G36*
X31475803Y-25308833D02*
X31431941Y-25320926D01*
X31391011Y-25341265D01*
X31360891Y-25363980D01*
X31338520Y-25384066D01*
X31357231Y-25403038D01*
X31368378Y-25413902D01*
X31375439Y-25418423D01*
X31381347Y-25417599D01*
X31387711Y-25413401D01*
X31420456Y-25390936D01*
X31448886Y-25375221D01*
X31475433Y-25365407D01*
X31502527Y-25360646D01*
X31532598Y-25360089D01*
X31539453Y-25360422D01*
X31579645Y-25366526D01*
X31614324Y-25380415D01*
X31645470Y-25403033D01*
X31660437Y-25418021D01*
X31682397Y-25445861D01*
X31697115Y-25474481D01*
X31705550Y-25506546D01*
X31708659Y-25544723D01*
X31708728Y-25552400D01*
X31706216Y-25593255D01*
X31698101Y-25627919D01*
X31683514Y-25659188D01*
X31668877Y-25680699D01*
X31642247Y-25707642D01*
X31609069Y-25728687D01*
X31571682Y-25742856D01*
X31532427Y-25749172D01*
X31506405Y-25748541D01*
X31473758Y-25741483D01*
X31439730Y-25727985D01*
X31408675Y-25709996D01*
X31393358Y-25697928D01*
X31373249Y-25679761D01*
X31354337Y-25699130D01*
X31335424Y-25718498D01*
X31354577Y-25735315D01*
X31394993Y-25765553D01*
X31437042Y-25786216D01*
X31482266Y-25797888D01*
X31528286Y-25801188D01*
X31560896Y-25799632D01*
X31588802Y-25794670D01*
X31606380Y-25789409D01*
X31649762Y-25769633D01*
X31687042Y-25742656D01*
X31717878Y-25709646D01*
X31741929Y-25671769D01*
X31758854Y-25630193D01*
X31768311Y-25586086D01*
X31769959Y-25540616D01*
X31763456Y-25494949D01*
X31748461Y-25450254D01*
X31724633Y-25407698D01*
X31719919Y-25401086D01*
X31688701Y-25366834D01*
X31651776Y-25339934D01*
X31610584Y-25320535D01*
X31566564Y-25308786D01*
X31521157Y-25304836D01*
X31475803Y-25308833D01*
X31475803Y-25308833D01*
G37*
X31475803Y-25308833D02*
X31431941Y-25320926D01*
X31391011Y-25341265D01*
X31360891Y-25363980D01*
X31338520Y-25384066D01*
X31357231Y-25403038D01*
X31368378Y-25413902D01*
X31375439Y-25418423D01*
X31381347Y-25417599D01*
X31387711Y-25413401D01*
X31420456Y-25390936D01*
X31448886Y-25375221D01*
X31475433Y-25365407D01*
X31502527Y-25360646D01*
X31532598Y-25360089D01*
X31539453Y-25360422D01*
X31579645Y-25366526D01*
X31614324Y-25380415D01*
X31645470Y-25403033D01*
X31660437Y-25418021D01*
X31682397Y-25445861D01*
X31697115Y-25474481D01*
X31705550Y-25506546D01*
X31708659Y-25544723D01*
X31708728Y-25552400D01*
X31706216Y-25593255D01*
X31698101Y-25627919D01*
X31683514Y-25659188D01*
X31668877Y-25680699D01*
X31642247Y-25707642D01*
X31609069Y-25728687D01*
X31571682Y-25742856D01*
X31532427Y-25749172D01*
X31506405Y-25748541D01*
X31473758Y-25741483D01*
X31439730Y-25727985D01*
X31408675Y-25709996D01*
X31393358Y-25697928D01*
X31373249Y-25679761D01*
X31354337Y-25699130D01*
X31335424Y-25718498D01*
X31354577Y-25735315D01*
X31394993Y-25765553D01*
X31437042Y-25786216D01*
X31482266Y-25797888D01*
X31528286Y-25801188D01*
X31560896Y-25799632D01*
X31588802Y-25794670D01*
X31606380Y-25789409D01*
X31649762Y-25769633D01*
X31687042Y-25742656D01*
X31717878Y-25709646D01*
X31741929Y-25671769D01*
X31758854Y-25630193D01*
X31768311Y-25586086D01*
X31769959Y-25540616D01*
X31763456Y-25494949D01*
X31748461Y-25450254D01*
X31724633Y-25407698D01*
X31719919Y-25401086D01*
X31688701Y-25366834D01*
X31651776Y-25339934D01*
X31610584Y-25320535D01*
X31566564Y-25308786D01*
X31521157Y-25304836D01*
X31475803Y-25308833D01*
G36*
X32045017Y-25307705D02*
X31996885Y-25319425D01*
X31953710Y-25339407D01*
X31916149Y-25366709D01*
X31884857Y-25400386D01*
X31860491Y-25439497D01*
X31843708Y-25483099D01*
X31835163Y-25530248D01*
X31835515Y-25580002D01*
X31838894Y-25603776D01*
X31850486Y-25642915D01*
X31869821Y-25681600D01*
X31895195Y-25717442D01*
X31924904Y-25748054D01*
X31957245Y-25771047D01*
X31958879Y-25771942D01*
X31999055Y-25788535D01*
X32043940Y-25798375D01*
X32090344Y-25801103D01*
X32135081Y-25796360D01*
X32148249Y-25793280D01*
X32192248Y-25776519D01*
X32230795Y-25752046D01*
X32263406Y-25721012D01*
X32289594Y-25684571D01*
X32308873Y-25643874D01*
X32320757Y-25600073D01*
X32324761Y-25554320D01*
X32324582Y-25552400D01*
X32263072Y-25552400D01*
X32262785Y-25577749D01*
X32261578Y-25596037D01*
X32258933Y-25610356D01*
X32254335Y-25623797D01*
X32249188Y-25635386D01*
X32228907Y-25671622D01*
X32205428Y-25699649D01*
X32180348Y-25719342D01*
X32142212Y-25737972D01*
X32101144Y-25747491D01*
X32058972Y-25747768D01*
X32017522Y-25738668D01*
X32001570Y-25732380D01*
X31969369Y-25712812D01*
X31940554Y-25685348D01*
X31917267Y-25652173D01*
X31910935Y-25639867D01*
X31904767Y-25625659D01*
X31900789Y-25612748D01*
X31898534Y-25598218D01*
X31897534Y-25579151D01*
X31897320Y-25554940D01*
X31897560Y-25529236D01*
X31898612Y-25510692D01*
X31900977Y-25496311D01*
X31905153Y-25483097D01*
X31911643Y-25468053D01*
X31911921Y-25467450D01*
X31929783Y-25437866D01*
X31954256Y-25409840D01*
X31982350Y-25386397D01*
X32005267Y-25373046D01*
X32019219Y-25367532D01*
X32033981Y-25364137D01*
X32052589Y-25362411D01*
X32078082Y-25361901D01*
X32080200Y-25361900D01*
X32104874Y-25362209D01*
X32122584Y-25363515D01*
X32136519Y-25366379D01*
X32149867Y-25371366D01*
X32159573Y-25375931D01*
X32189441Y-25395254D01*
X32217233Y-25421855D01*
X32240218Y-25452874D01*
X32249462Y-25470012D01*
X32255787Y-25484662D01*
X32259801Y-25498011D01*
X32262013Y-25513131D01*
X32262929Y-25533097D01*
X32263072Y-25552400D01*
X32324582Y-25552400D01*
X32320399Y-25507767D01*
X32307184Y-25461567D01*
X32297419Y-25439582D01*
X32271323Y-25398286D01*
X32238335Y-25363749D01*
X32199668Y-25336605D01*
X32156535Y-25317487D01*
X32110149Y-25307031D01*
X32061725Y-25305871D01*
X32045017Y-25307705D01*
X32045017Y-25307705D01*
G37*
X32045017Y-25307705D02*
X31996885Y-25319425D01*
X31953710Y-25339407D01*
X31916149Y-25366709D01*
X31884857Y-25400386D01*
X31860491Y-25439497D01*
X31843708Y-25483099D01*
X31835163Y-25530248D01*
X31835515Y-25580002D01*
X31838894Y-25603776D01*
X31850486Y-25642915D01*
X31869821Y-25681600D01*
X31895195Y-25717442D01*
X31924904Y-25748054D01*
X31957245Y-25771047D01*
X31958879Y-25771942D01*
X31999055Y-25788535D01*
X32043940Y-25798375D01*
X32090344Y-25801103D01*
X32135081Y-25796360D01*
X32148249Y-25793280D01*
X32192248Y-25776519D01*
X32230795Y-25752046D01*
X32263406Y-25721012D01*
X32289594Y-25684571D01*
X32308873Y-25643874D01*
X32320757Y-25600073D01*
X32324761Y-25554320D01*
X32324582Y-25552400D01*
X32263072Y-25552400D01*
X32262785Y-25577749D01*
X32261578Y-25596037D01*
X32258933Y-25610356D01*
X32254335Y-25623797D01*
X32249188Y-25635386D01*
X32228907Y-25671622D01*
X32205428Y-25699649D01*
X32180348Y-25719342D01*
X32142212Y-25737972D01*
X32101144Y-25747491D01*
X32058972Y-25747768D01*
X32017522Y-25738668D01*
X32001570Y-25732380D01*
X31969369Y-25712812D01*
X31940554Y-25685348D01*
X31917267Y-25652173D01*
X31910935Y-25639867D01*
X31904767Y-25625659D01*
X31900789Y-25612748D01*
X31898534Y-25598218D01*
X31897534Y-25579151D01*
X31897320Y-25554940D01*
X31897560Y-25529236D01*
X31898612Y-25510692D01*
X31900977Y-25496311D01*
X31905153Y-25483097D01*
X31911643Y-25468053D01*
X31911921Y-25467450D01*
X31929783Y-25437866D01*
X31954256Y-25409840D01*
X31982350Y-25386397D01*
X32005267Y-25373046D01*
X32019219Y-25367532D01*
X32033981Y-25364137D01*
X32052589Y-25362411D01*
X32078082Y-25361901D01*
X32080200Y-25361900D01*
X32104874Y-25362209D01*
X32122584Y-25363515D01*
X32136519Y-25366379D01*
X32149867Y-25371366D01*
X32159573Y-25375931D01*
X32189441Y-25395254D01*
X32217233Y-25421855D01*
X32240218Y-25452874D01*
X32249462Y-25470012D01*
X32255787Y-25484662D01*
X32259801Y-25498011D01*
X32262013Y-25513131D01*
X32262929Y-25533097D01*
X32263072Y-25552400D01*
X32324582Y-25552400D01*
X32320399Y-25507767D01*
X32307184Y-25461567D01*
X32297419Y-25439582D01*
X32271323Y-25398286D01*
X32238335Y-25363749D01*
X32199668Y-25336605D01*
X32156535Y-25317487D01*
X32110149Y-25307031D01*
X32061725Y-25305871D01*
X32045017Y-25307705D01*
G04 #@! TO.C,C5*
D12*
X36742666Y-4929142D02*
X36790285Y-4976761D01*
X36933142Y-5024380D01*
X37028380Y-5024380D01*
X37171238Y-4976761D01*
X37266476Y-4881523D01*
X37314095Y-4786285D01*
X37361714Y-4595809D01*
X37361714Y-4452952D01*
X37314095Y-4262476D01*
X37266476Y-4167238D01*
X37171238Y-4072000D01*
X37028380Y-4024380D01*
X36933142Y-4024380D01*
X36790285Y-4072000D01*
X36742666Y-4119619D01*
X35837904Y-4024380D02*
X36314095Y-4024380D01*
X36361714Y-4500571D01*
X36314095Y-4452952D01*
X36218857Y-4405333D01*
X35980761Y-4405333D01*
X35885523Y-4452952D01*
X35837904Y-4500571D01*
X35790285Y-4595809D01*
X35790285Y-4833904D01*
X35837904Y-4929142D01*
X35885523Y-4976761D01*
X35980761Y-5024380D01*
X36218857Y-5024380D01*
X36314095Y-4976761D01*
X36361714Y-4929142D01*
G04 #@! TO.C,C6*
X51982666Y-4929142D02*
X52030285Y-4976761D01*
X52173142Y-5024380D01*
X52268380Y-5024380D01*
X52411238Y-4976761D01*
X52506476Y-4881523D01*
X52554095Y-4786285D01*
X52601714Y-4595809D01*
X52601714Y-4452952D01*
X52554095Y-4262476D01*
X52506476Y-4167238D01*
X52411238Y-4072000D01*
X52268380Y-4024380D01*
X52173142Y-4024380D01*
X52030285Y-4072000D01*
X51982666Y-4119619D01*
X51125523Y-4024380D02*
X51316000Y-4024380D01*
X51411238Y-4072000D01*
X51458857Y-4119619D01*
X51554095Y-4262476D01*
X51601714Y-4452952D01*
X51601714Y-4833904D01*
X51554095Y-4929142D01*
X51506476Y-4976761D01*
X51411238Y-5024380D01*
X51220761Y-5024380D01*
X51125523Y-4976761D01*
X51077904Y-4929142D01*
X51030285Y-4833904D01*
X51030285Y-4595809D01*
X51077904Y-4500571D01*
X51125523Y-4452952D01*
X51220761Y-4405333D01*
X51411238Y-4405333D01*
X51506476Y-4452952D01*
X51554095Y-4500571D01*
X51601714Y-4595809D01*
G04 #@! TO.C,C7*
X58332666Y-24741142D02*
X58380285Y-24788761D01*
X58523142Y-24836380D01*
X58618380Y-24836380D01*
X58761238Y-24788761D01*
X58856476Y-24693523D01*
X58904095Y-24598285D01*
X58951714Y-24407809D01*
X58951714Y-24264952D01*
X58904095Y-24074476D01*
X58856476Y-23979238D01*
X58761238Y-23884000D01*
X58618380Y-23836380D01*
X58523142Y-23836380D01*
X58380285Y-23884000D01*
X58332666Y-23931619D01*
X57999333Y-23836380D02*
X57332666Y-23836380D01*
X57761238Y-24836380D01*
G04 #@! TO.C,C9*
X58332666Y-29313142D02*
X58380285Y-29360761D01*
X58523142Y-29408380D01*
X58618380Y-29408380D01*
X58761238Y-29360761D01*
X58856476Y-29265523D01*
X58904095Y-29170285D01*
X58951714Y-28979809D01*
X58951714Y-28836952D01*
X58904095Y-28646476D01*
X58856476Y-28551238D01*
X58761238Y-28456000D01*
X58618380Y-28408380D01*
X58523142Y-28408380D01*
X58380285Y-28456000D01*
X58332666Y-28503619D01*
X57856476Y-29408380D02*
X57666000Y-29408380D01*
X57570761Y-29360761D01*
X57523142Y-29313142D01*
X57427904Y-29170285D01*
X57380285Y-28979809D01*
X57380285Y-28598857D01*
X57427904Y-28503619D01*
X57475523Y-28456000D01*
X57570761Y-28408380D01*
X57761238Y-28408380D01*
X57856476Y-28456000D01*
X57904095Y-28503619D01*
X57951714Y-28598857D01*
X57951714Y-28836952D01*
X57904095Y-28932190D01*
X57856476Y-28979809D01*
X57761238Y-29027428D01*
X57570761Y-29027428D01*
X57475523Y-28979809D01*
X57427904Y-28932190D01*
X57380285Y-28836952D01*
G04 #@! TO.C,C10*
X36456857Y-28551142D02*
X36504476Y-28598761D01*
X36647333Y-28646380D01*
X36742571Y-28646380D01*
X36885428Y-28598761D01*
X36980666Y-28503523D01*
X37028285Y-28408285D01*
X37075904Y-28217809D01*
X37075904Y-28074952D01*
X37028285Y-27884476D01*
X36980666Y-27789238D01*
X36885428Y-27694000D01*
X36742571Y-27646380D01*
X36647333Y-27646380D01*
X36504476Y-27694000D01*
X36456857Y-27741619D01*
X35504476Y-28646380D02*
X36075904Y-28646380D01*
X35790190Y-28646380D02*
X35790190Y-27646380D01*
X35885428Y-27789238D01*
X35980666Y-27884476D01*
X36075904Y-27932095D01*
X34885428Y-27646380D02*
X34790190Y-27646380D01*
X34694952Y-27694000D01*
X34647333Y-27741619D01*
X34599714Y-27836857D01*
X34552095Y-28027333D01*
X34552095Y-28265428D01*
X34599714Y-28455904D01*
X34647333Y-28551142D01*
X34694952Y-28598761D01*
X34790190Y-28646380D01*
X34885428Y-28646380D01*
X34980666Y-28598761D01*
X35028285Y-28551142D01*
X35075904Y-28455904D01*
X35123523Y-28265428D01*
X35123523Y-28027333D01*
X35075904Y-27836857D01*
X35028285Y-27741619D01*
X34980666Y-27694000D01*
X34885428Y-27646380D01*
G04 #@! TO.C,U1*
X44576904Y-11227380D02*
X44576904Y-12036904D01*
X44529285Y-12132142D01*
X44481666Y-12179761D01*
X44386428Y-12227380D01*
X44195952Y-12227380D01*
X44100714Y-12179761D01*
X44053095Y-12132142D01*
X44005476Y-12036904D01*
X44005476Y-11227380D01*
X43005476Y-12227380D02*
X43576904Y-12227380D01*
X43291190Y-12227380D02*
X43291190Y-11227380D01*
X43386428Y-11370238D01*
X43481666Y-11465476D01*
X43576904Y-11513095D01*
G04 #@! TO.C,U3*
X45211904Y-9612380D02*
X45211904Y-10421904D01*
X45164285Y-10517142D01*
X45116666Y-10564761D01*
X45021428Y-10612380D01*
X44830952Y-10612380D01*
X44735714Y-10564761D01*
X44688095Y-10517142D01*
X44640476Y-10421904D01*
X44640476Y-9612380D01*
X44259523Y-9612380D02*
X43640476Y-9612380D01*
X43973809Y-9993333D01*
X43830952Y-9993333D01*
X43735714Y-10040952D01*
X43688095Y-10088571D01*
X43640476Y-10183809D01*
X43640476Y-10421904D01*
X43688095Y-10517142D01*
X43735714Y-10564761D01*
X43830952Y-10612380D01*
X44116666Y-10612380D01*
X44211904Y-10564761D01*
X44259523Y-10517142D01*
G04 #@! TO.C,Y1*
X53308190Y-20042190D02*
X53308190Y-20518380D01*
X53641523Y-19518380D02*
X53308190Y-20042190D01*
X52974857Y-19518380D01*
X52117714Y-20518380D02*
X52689142Y-20518380D01*
X52403428Y-20518380D02*
X52403428Y-19518380D01*
X52498666Y-19661238D01*
X52593904Y-19756476D01*
X52689142Y-19804095D01*
G04 #@! TD*
M02*
