G04 #@! TF.GenerationSoftware,KiCad,Pcbnew,(5.0.0)*
G04 #@! TF.CreationDate,2019-03-08T13:39:37-05:00*
G04 #@! TF.ProjectId,Dongle,446F6E676C652E6B696361645F706362,rev?*
G04 #@! TF.SameCoordinates,Original*
G04 #@! TF.FileFunction,Copper,L1,Top,Signal*
G04 #@! TF.FilePolarity,Positive*
%FSLAX46Y46*%
G04 Gerber Fmt 4.6, Leading zero omitted, Abs format (unit mm)*
G04 Created by KiCad (PCBNEW (5.0.0)) date 03/08/19 13:39:37*
%MOMM*%
%LPD*%
G01*
G04 APERTURE LIST*
G04 #@! TA.AperFunction,SMDPad,CuDef*
%ADD10R,1.200000X0.900000*%
G04 #@! TD*
G04 #@! TA.AperFunction,ComponentPad*
%ADD11C,6.400000*%
G04 #@! TD*
G04 #@! TA.AperFunction,SMDPad,CuDef*
%ADD12R,3.200000X1.200000*%
G04 #@! TD*
G04 #@! TA.AperFunction,ComponentPad*
%ADD13O,3.500000X1.200000*%
G04 #@! TD*
G04 #@! TA.AperFunction,SMDPad,CuDef*
%ADD14R,1.200000X0.400000*%
G04 #@! TD*
G04 #@! TA.AperFunction,SMDPad,CuDef*
%ADD15R,2.000000X1.000000*%
G04 #@! TD*
G04 #@! TA.AperFunction,SMDPad,CuDef*
%ADD16R,0.750000X1.200000*%
G04 #@! TD*
G04 #@! TA.AperFunction,SMDPad,CuDef*
%ADD17R,1.200000X0.750000*%
G04 #@! TD*
G04 #@! TA.AperFunction,ComponentPad*
%ADD18C,1.500000*%
G04 #@! TD*
G04 #@! TA.AperFunction,ComponentPad*
%ADD19C,2.000000*%
G04 #@! TD*
G04 #@! TA.AperFunction,ComponentPad*
%ADD20C,2.200000*%
G04 #@! TD*
G04 #@! TA.AperFunction,SMDPad,CuDef*
%ADD21R,0.600000X0.800000*%
G04 #@! TD*
G04 #@! TA.AperFunction,ViaPad*
%ADD22C,0.800000*%
G04 #@! TD*
G04 #@! TA.AperFunction,Conductor*
%ADD23C,0.250000*%
G04 #@! TD*
G04 #@! TA.AperFunction,Conductor*
%ADD24C,1.100000*%
G04 #@! TD*
G04 #@! TA.AperFunction,Conductor*
%ADD25C,1.300000*%
G04 #@! TD*
G04 #@! TA.AperFunction,Conductor*
%ADD26C,0.300000*%
G04 #@! TD*
G04 #@! TA.AperFunction,Conductor*
%ADD27C,0.254000*%
G04 #@! TD*
G04 APERTURE END LIST*
D10*
G04 #@! TO.P,R3,2*
G04 #@! TO.N,/~MCLR*
X57551500Y-17272000D03*
G04 #@! TO.P,R3,1*
G04 #@! TO.N,+3V3*
X55351500Y-17272000D03*
G04 #@! TD*
D11*
G04 #@! TO.P,REF\002A\002A,1*
G04 #@! TO.N,N/C*
X57150000Y-6350000D03*
G04 #@! TD*
D12*
G04 #@! TO.P,J1,1*
G04 #@! TO.N,+5V*
X28956000Y-20955000D03*
G04 #@! TO.P,J1,2*
G04 #@! TO.N,/D1-*
X28956000Y-23455000D03*
G04 #@! TO.P,J1,3*
G04 #@! TO.N,/D1+*
X28956000Y-25455000D03*
G04 #@! TO.P,J1,4*
G04 #@! TO.N,GND*
X28956000Y-27955000D03*
D13*
G04 #@! TO.P,J1,5*
X25856000Y-18055000D03*
X25856000Y-30855000D03*
G04 #@! TD*
D14*
G04 #@! TO.P,U2,1*
G04 #@! TO.N,Net-(U2-Pad1)*
X41088000Y-23558500D03*
G04 #@! TO.P,U2,2*
G04 #@! TO.N,/RTS*
X41088000Y-24193500D03*
G04 #@! TO.P,U2,3*
G04 #@! TO.N,Net-(C4-Pad1)*
X41088000Y-24828500D03*
G04 #@! TO.P,U2,4*
G04 #@! TO.N,/DOUT*
X41088000Y-25463500D03*
G04 #@! TO.P,U2,5*
G04 #@! TO.N,Net-(U2-Pad5)*
X41088000Y-26098500D03*
G04 #@! TO.P,U2,6*
G04 #@! TO.N,GND*
X41088000Y-26733500D03*
G04 #@! TO.P,U2,7*
G04 #@! TO.N,Net-(U2-Pad7)*
X41088000Y-27368500D03*
G04 #@! TO.P,U2,8*
G04 #@! TO.N,Net-(U2-Pad8)*
X41088000Y-28003500D03*
G04 #@! TO.P,U2,9*
G04 #@! TO.N,/CTS*
X41088000Y-28638500D03*
G04 #@! TO.P,U2,10*
G04 #@! TO.N,Net-(U2-Pad10)*
X41088000Y-29273500D03*
G04 #@! TO.P,U2,11*
G04 #@! TO.N,/USBD+*
X46288000Y-29273500D03*
G04 #@! TO.P,U2,12*
G04 #@! TO.N,/USBD-*
X46288000Y-28638500D03*
G04 #@! TO.P,U2,13*
G04 #@! TO.N,Net-(C4-Pad1)*
X46288000Y-28003500D03*
G04 #@! TO.P,U2,14*
X46288000Y-27368500D03*
G04 #@! TO.P,U2,15*
G04 #@! TO.N,+5V*
X46288000Y-26733500D03*
G04 #@! TO.P,U2,16*
G04 #@! TO.N,GND*
X46288000Y-26098500D03*
G04 #@! TO.P,U2,17*
G04 #@! TO.N,Net-(U2-Pad17)*
X46288000Y-25463500D03*
G04 #@! TO.P,U2,18*
G04 #@! TO.N,Net-(U2-Pad18)*
X46288000Y-24828500D03*
G04 #@! TO.P,U2,19*
G04 #@! TO.N,Net-(U2-Pad19)*
X46288000Y-24193500D03*
G04 #@! TO.P,U2,20*
G04 #@! TO.N,/DIN*
X46288000Y-23558500D03*
G04 #@! TD*
D15*
G04 #@! TO.P,U5,16*
G04 #@! TO.N,/DIO2*
X35815000Y-19700000D03*
G04 #@! TO.P,U5,15*
G04 #@! TO.N,/DIO1*
X35815000Y-17700000D03*
G04 #@! TO.P,U5,14*
G04 #@! TO.N,/DIO0*
X35815000Y-15700000D03*
G04 #@! TO.P,U5,13*
G04 #@! TO.N,+3V3*
X35815000Y-13700000D03*
G04 #@! TO.P,U5,12*
G04 #@! TO.N,/DIO4*
X35815000Y-11700000D03*
G04 #@! TO.P,U5,11*
G04 #@! TO.N,/DIO3*
X35815000Y-9700000D03*
G04 #@! TO.P,U5,10*
G04 #@! TO.N,GND*
X35815000Y-7700000D03*
G04 #@! TO.P,U5,9*
G04 #@! TO.N,Net-(J2-Pad1)*
X35815000Y-5700000D03*
G04 #@! TO.P,U5,8*
G04 #@! TO.N,GND*
X51815000Y-5700000D03*
G04 #@! TO.P,U5,7*
G04 #@! TO.N,/DIO5*
X51815000Y-7700000D03*
G04 #@! TO.P,U5,6*
G04 #@! TO.N,/RESET*
X51815000Y-9700000D03*
G04 #@! TO.P,U5,5*
G04 #@! TO.N,/CS*
X51815000Y-11700000D03*
G04 #@! TO.P,U5,4*
G04 #@! TO.N,/SCK*
X51815000Y-13700000D03*
G04 #@! TO.P,U5,3*
G04 #@! TO.N,/MOSI*
X51815000Y-15700000D03*
G04 #@! TO.P,U5,2*
G04 #@! TO.N,/MISO*
X51815000Y-17700000D03*
G04 #@! TO.P,U5,1*
G04 #@! TO.N,GND*
X51815000Y-19700000D03*
G04 #@! TD*
D16*
G04 #@! TO.P,C1,1*
G04 #@! TO.N,/D1-*
X29845000Y-17140000D03*
G04 #@! TO.P,C1,2*
G04 #@! TO.N,GND*
X29845000Y-15240000D03*
G04 #@! TD*
G04 #@! TO.P,C2,2*
G04 #@! TO.N,GND*
X29845000Y-11430000D03*
G04 #@! TO.P,C2,1*
G04 #@! TO.N,/D1+*
X29845000Y-13330000D03*
G04 #@! TD*
G04 #@! TO.P,C3,2*
G04 #@! TO.N,GND*
X32004000Y-15240000D03*
G04 #@! TO.P,C3,1*
G04 #@! TO.N,+5V*
X32004000Y-17140000D03*
G04 #@! TD*
D17*
G04 #@! TO.P,C4,2*
G04 #@! TO.N,GND*
X34290000Y-30988000D03*
G04 #@! TO.P,C4,1*
G04 #@! TO.N,Net-(C4-Pad1)*
X36190000Y-30988000D03*
G04 #@! TD*
D16*
G04 #@! TO.P,C8,1*
G04 #@! TO.N,+3V3*
X32004000Y-13208000D03*
G04 #@! TO.P,C8,2*
G04 #@! TO.N,GND*
X32004000Y-11308000D03*
G04 #@! TD*
D15*
G04 #@! TO.P,J4,1*
G04 #@! TO.N,/~MCLR*
X56388000Y-20828000D03*
G04 #@! TO.P,J4,2*
G04 #@! TO.N,+5V*
X56388000Y-23368000D03*
G04 #@! TO.P,J4,3*
G04 #@! TO.N,GND*
X56388000Y-25908000D03*
G04 #@! TO.P,J4,4*
G04 #@! TO.N,/ICSPDAT*
X56388000Y-28448000D03*
G04 #@! TO.P,J4,5*
G04 #@! TO.N,/ICSPCLK*
X56388000Y-30988000D03*
G04 #@! TD*
D10*
G04 #@! TO.P,R1,2*
G04 #@! TO.N,/D1-*
X34036000Y-26162000D03*
G04 #@! TO.P,R1,1*
G04 #@! TO.N,/USBD-*
X36236000Y-26162000D03*
G04 #@! TD*
G04 #@! TO.P,R2,1*
G04 #@! TO.N,/USBD+*
X36236000Y-27686000D03*
G04 #@! TO.P,R2,2*
G04 #@! TO.N,/D1+*
X34036000Y-27686000D03*
G04 #@! TD*
G04 #@! TO.P,R4,1*
G04 #@! TO.N,+3V3*
X57551500Y-13208000D03*
G04 #@! TO.P,R4,2*
G04 #@! TO.N,/RESET*
X55351500Y-13208000D03*
G04 #@! TD*
G04 #@! TO.P,R5,2*
G04 #@! TO.N,/CS*
X55351500Y-15240000D03*
G04 #@! TO.P,R5,1*
G04 #@! TO.N,+3V3*
X57551500Y-15240000D03*
G04 #@! TD*
D18*
G04 #@! TO.P,Y1,2*
G04 #@! TO.N,/OSC2*
X52832000Y-29264000D03*
G04 #@! TO.P,Y1,1*
G04 #@! TO.N,/OSC1*
X52832000Y-24384000D03*
G04 #@! TD*
D19*
G04 #@! TO.P,J2,1*
G04 #@! TO.N,Net-(J2-Pad1)*
X28575000Y-5715000D03*
D20*
G04 #@! TO.P,J2,2*
G04 #@! TO.N,GND*
X26025000Y-3165000D03*
X31125000Y-3165000D03*
X26025000Y-8265000D03*
X31125000Y-8265000D03*
G04 #@! TD*
D21*
G04 #@! TO.P,D1,2*
G04 #@! TO.N,GND*
X33616000Y-20955000D03*
G04 #@! TO.P,D1,1*
G04 #@! TO.N,+5V*
X31916000Y-20955000D03*
G04 #@! TD*
D11*
G04 #@! TO.P,REF\002A\002A,1*
G04 #@! TO.N,N/C*
X24130000Y-13462000D03*
G04 #@! TD*
D22*
G04 #@! TO.N,GND*
X21590000Y-34290000D03*
X44196000Y-11684000D03*
X42288002Y-27432000D03*
X29972000Y-19304000D03*
X33782000Y-4318000D03*
X33782000Y-7112000D03*
X35814000Y-4318000D03*
X37592000Y-6350000D03*
X37592000Y-5080000D03*
X23495000Y-34290000D03*
X25400000Y-34290000D03*
X27305000Y-34290000D03*
X29210000Y-34290000D03*
X31115000Y-34290000D03*
X33020000Y-34290000D03*
X34925000Y-34290000D03*
X36830000Y-34290000D03*
X38735000Y-34290000D03*
X40640000Y-34290000D03*
X42545000Y-34290000D03*
X44450000Y-34290000D03*
X46355000Y-34290000D03*
X48260000Y-34290000D03*
X50165000Y-34290000D03*
X52070000Y-34290000D03*
X53975000Y-34290000D03*
X55880000Y-34290000D03*
X57785000Y-34290000D03*
X59690000Y-34290000D03*
X60325000Y-33020000D03*
X60325000Y-31115000D03*
X60325000Y-29210000D03*
X60325000Y-27305000D03*
X60325000Y-25400000D03*
X60325000Y-23495000D03*
X60325000Y-21590000D03*
X60325000Y-19685000D03*
X60325000Y-17780000D03*
X60325000Y-15875000D03*
X60325000Y-13970000D03*
X60325000Y-11430000D03*
X60325000Y-9525000D03*
X60325000Y-1905000D03*
X58420000Y-1905000D03*
X56515000Y-1905000D03*
X54610000Y-1905000D03*
X52705000Y-1905000D03*
X50800000Y-1905000D03*
X48895000Y-1905000D03*
X46990000Y-1905000D03*
X45085000Y-1905000D03*
X43180000Y-1905000D03*
X41275000Y-1905000D03*
X39370000Y-1905000D03*
X37465000Y-1905000D03*
X35560000Y-1905000D03*
X33655000Y-1905000D03*
X28575000Y-1905000D03*
X23495000Y-1905000D03*
X20955000Y-1905000D03*
X20955000Y-3810000D03*
X20955000Y-5715000D03*
X20955000Y-7620000D03*
X20955000Y-9525000D03*
X20955000Y-16510000D03*
X20955000Y-18415000D03*
X20955000Y-20320000D03*
X20955000Y-22225000D03*
X20955000Y-24130000D03*
X20955000Y-26035000D03*
X20955000Y-27940000D03*
X20955000Y-29845000D03*
X20955000Y-31750000D03*
X36830000Y-29210000D03*
X35560000Y-29210000D03*
X34290000Y-29210000D03*
X44450000Y-9525000D03*
X45720000Y-9525000D03*
X45720000Y-8255000D03*
X44450000Y-8255000D03*
X46990000Y-9525000D03*
X45720000Y-10795000D03*
X46990000Y-10795000D03*
X33655000Y-8890000D03*
X33655000Y-10795000D03*
X27940000Y-10795000D03*
X23495000Y-5715000D03*
X57785000Y-10795000D03*
X29210000Y-32385000D03*
X29210000Y-30480000D03*
X22860000Y-31750000D03*
X22860000Y-24130000D03*
X25400000Y-24765000D03*
X33655000Y-17272000D03*
X44704000Y-26035000D03*
X54229000Y-20066000D03*
X57658000Y-22098000D03*
X22860000Y-20320000D03*
X22860000Y-27940000D03*
X23241000Y-8255000D03*
X23495000Y-3937000D03*
X22860000Y-22225000D03*
X22860000Y-18415000D03*
X49530000Y-31750000D03*
X48260000Y-31750000D03*
X57531000Y-27178000D03*
G04 #@! TO.N,+5V*
X33024653Y-31999347D03*
X31916000Y-19304000D03*
G04 #@! TO.N,+3V3*
X55880000Y-11684000D03*
X40132000Y-12700000D03*
X36830000Y-22225000D03*
X54085438Y-16781419D03*
G04 #@! TO.N,/~MCLR*
X49276000Y-12700000D03*
G04 #@! TO.N,/ICSPDAT*
X30988000Y-32004000D03*
X39116000Y-12700000D03*
X33528000Y-12700000D03*
G04 #@! TO.N,/ICSPCLK*
X32004000Y-32004000D03*
X41656000Y-14515000D03*
X33528000Y-14732000D03*
G04 #@! TO.N,/RESET*
X54841669Y-11706331D03*
G04 #@! TO.N,/CS*
X45720000Y-21336000D03*
G04 #@! TO.N,/DIN*
X43688000Y-21336000D03*
G04 #@! TO.N,/DOUT*
X44301760Y-23942497D03*
G04 #@! TO.N,/RTS*
X43180000Y-23876000D03*
G04 #@! TO.N,/CTS*
X43678796Y-27422624D03*
G04 #@! TO.N,/MISO*
X56388000Y-19050000D03*
G04 #@! TO.N,/MOSI*
X55245000Y-18322002D03*
G04 #@! TO.N,/SCK*
X44704000Y-21336000D03*
G04 #@! TO.N,/DIO5*
X50292000Y-10668000D03*
G04 #@! TO.N,/DIO4*
X42455000Y-12700000D03*
G04 #@! TO.N,/DIO3*
X42672000Y-11684000D03*
G04 #@! TO.N,/DIO2*
X44196000Y-18288000D03*
G04 #@! TO.N,/DIO1*
X44196000Y-16764000D03*
G04 #@! TO.N,/DIO0*
X44196000Y-15240000D03*
G04 #@! TD*
D23*
G04 #@! TO.N,GND*
X45720000Y-10160000D02*
X45720000Y-9652000D01*
X44196000Y-11684000D02*
X45720000Y-10160000D01*
X42288002Y-27083502D02*
X42288002Y-27432000D01*
X41088000Y-26733500D02*
X41938000Y-26733500D01*
X41938000Y-26733500D02*
X42288002Y-27083502D01*
X30597000Y-15240000D02*
X30988000Y-15631000D01*
X30988000Y-15631000D02*
X30988000Y-18288000D01*
X30988000Y-18288000D02*
X29972000Y-19304000D01*
X31379000Y-15240000D02*
X30988000Y-15631000D01*
X32004000Y-15240000D02*
X31379000Y-15240000D01*
D24*
X33616000Y-20955000D02*
X33616000Y-17311000D01*
D23*
X33616000Y-17311000D02*
X33655000Y-17272000D01*
X46288000Y-26098500D02*
X44767500Y-26098500D01*
X44767500Y-26098500D02*
X44704000Y-26035000D01*
X51815000Y-19700000D02*
X53863000Y-19700000D01*
X53863000Y-19700000D02*
X54229000Y-20066000D01*
X29845000Y-15240000D02*
X30226000Y-15240000D01*
X29972000Y-15240000D02*
X30226000Y-15240000D01*
X30226000Y-15240000D02*
X30597000Y-15240000D01*
G04 #@! TO.N,Net-(C4-Pad1)*
X40238000Y-24828500D02*
X39841010Y-25225490D01*
X41088000Y-24828500D02*
X40238000Y-24828500D01*
X39841010Y-25225490D02*
X39841010Y-29671692D01*
X39841010Y-29671692D02*
X40432308Y-30262990D01*
X44186682Y-27940000D02*
X46288000Y-27940000D01*
X41863692Y-30262990D02*
X44186682Y-27940000D01*
X40432308Y-30262990D02*
X41863692Y-30262990D01*
X46288000Y-28003500D02*
X46288000Y-27940000D01*
X46288000Y-27940000D02*
X46288000Y-27368500D01*
X47138000Y-28003500D02*
X46288000Y-28003500D01*
X37934000Y-30988000D02*
X38950000Y-32004000D01*
X36190000Y-30988000D02*
X37934000Y-30988000D01*
X38950000Y-32004000D02*
X46228000Y-32004000D01*
X46228000Y-32004000D02*
X47213001Y-31018999D01*
X47213001Y-31018999D02*
X47213001Y-28078501D01*
X47213001Y-28078501D02*
X47138000Y-28003500D01*
D24*
G04 #@! TO.N,Net-(J2-Pad1)*
X28590000Y-5700000D02*
X28575000Y-5715000D01*
X35815000Y-5700000D02*
X28590000Y-5700000D01*
D25*
G04 #@! TO.N,+5V*
X28956000Y-20955000D02*
X31916000Y-20955000D01*
D26*
X31916000Y-17228000D02*
X32004000Y-17140000D01*
X31916000Y-19304000D02*
X31916000Y-17228000D01*
X31916000Y-20955000D02*
X31916000Y-19304000D01*
X33024653Y-31999347D02*
X33537306Y-32512000D01*
X33537306Y-32512000D02*
X46391764Y-32512000D01*
X46391764Y-32512000D02*
X47688009Y-31215755D01*
X47188000Y-26733500D02*
X46288000Y-26733500D01*
X47688009Y-31215755D02*
X47688009Y-27233509D01*
X56388000Y-22987000D02*
X56388000Y-23368000D01*
X54229000Y-20828000D02*
X56388000Y-22987000D01*
X51471765Y-20828000D02*
X54229000Y-20828000D01*
X47688009Y-24611756D02*
X51471765Y-20828000D01*
X47624509Y-26733500D02*
X47688009Y-26670000D01*
X46288000Y-26733500D02*
X47624509Y-26733500D01*
X47688009Y-27233509D02*
X47688009Y-26670000D01*
X47688009Y-26670000D02*
X47688009Y-24611756D01*
G04 #@! TO.N,+3V3*
X37068000Y-13700000D02*
X35815000Y-13700000D01*
X37084000Y-13716000D02*
X37068000Y-13700000D01*
X35315000Y-13700000D02*
X35815000Y-13700000D01*
X35299000Y-13716000D02*
X35315000Y-13700000D01*
X56504000Y-15240000D02*
X57404000Y-15240000D01*
X56406000Y-15142000D02*
X56504000Y-15240000D01*
X57572000Y-13208000D02*
X56406000Y-13208000D01*
X56406000Y-13208000D02*
X56406000Y-15142000D01*
X56406000Y-12210000D02*
X56406000Y-13208000D01*
X55880000Y-11684000D02*
X56406000Y-12210000D01*
X37115000Y-13700000D02*
X35815000Y-13700000D01*
X39226002Y-13700000D02*
X37115000Y-13700000D01*
X39866001Y-13060001D02*
X39226002Y-13700000D01*
X39866001Y-12965999D02*
X39866001Y-13060001D01*
X40132000Y-12700000D02*
X39866001Y-12965999D01*
X33187000Y-13716000D02*
X34671000Y-13716000D01*
X32679000Y-13208000D02*
X33187000Y-13716000D01*
X32004000Y-13208000D02*
X32679000Y-13208000D01*
X34261000Y-13716000D02*
X34671000Y-13716000D01*
X34671000Y-13716000D02*
X35299000Y-13716000D01*
X55161000Y-17145000D02*
X55288000Y-17272000D01*
X40882001Y-13450001D02*
X40132000Y-12700000D01*
X36830000Y-22225000D02*
X37465000Y-21590000D01*
X37465000Y-21590000D02*
X42323998Y-21590000D01*
X42323998Y-21590000D02*
X44946001Y-18967997D01*
X44946001Y-18967997D02*
X44946001Y-13831001D01*
X44946001Y-13831001D02*
X44565001Y-13450001D01*
X44565001Y-13450001D02*
X40882001Y-13450001D01*
X55288000Y-17272000D02*
X54576019Y-17272000D01*
X54576019Y-17272000D02*
X54085438Y-16781419D01*
D23*
G04 #@! TO.N,/~MCLR*
X57488000Y-18978000D02*
X57488000Y-17272000D01*
X56388000Y-20828000D02*
X56388000Y-20078000D01*
X56388000Y-20078000D02*
X57488000Y-18978000D01*
X52900002Y-12700000D02*
X53848000Y-13647998D01*
X53848000Y-13647998D02*
X53848000Y-15519002D01*
X49276000Y-12700000D02*
X52900002Y-12700000D01*
X53848000Y-15519002D02*
X54584998Y-16256000D01*
X54584998Y-16256000D02*
X57172000Y-16256000D01*
X57488000Y-16572000D02*
X57488000Y-17272000D01*
X57172000Y-16256000D02*
X57488000Y-16572000D01*
G04 #@! TO.N,/ICSPDAT*
X33528000Y-12700000D02*
X39116000Y-12700000D01*
X30988000Y-32061002D02*
X30988000Y-32004000D01*
X57638000Y-28448000D02*
X58293000Y-29103000D01*
X56388000Y-28448000D02*
X57638000Y-28448000D01*
X58293000Y-29103000D02*
X58293000Y-31877000D01*
X58293000Y-31877000D02*
X56642000Y-33528000D01*
X56642000Y-33528000D02*
X32454998Y-33528000D01*
X32454998Y-33528000D02*
X30988000Y-32061002D01*
G04 #@! TO.N,/ICSPCLK*
X41439000Y-14732000D02*
X41656000Y-14515000D01*
X33528000Y-14732000D02*
X41439000Y-14732000D01*
X56388000Y-32131000D02*
X56388000Y-30988000D01*
X55531990Y-32987010D02*
X56388000Y-32131000D01*
X32004000Y-32004000D02*
X32987010Y-32987010D01*
X32987010Y-32987010D02*
X55531990Y-32987010D01*
G04 #@! TO.N,/RESET*
X54841669Y-12677669D02*
X55372000Y-13208000D01*
X54841669Y-11706331D02*
X54841669Y-12677669D01*
X54841669Y-11706331D02*
X54841669Y-10137669D01*
X54404000Y-9700000D02*
X51815000Y-9700000D01*
X54841669Y-10137669D02*
X54404000Y-9700000D01*
G04 #@! TO.N,/CS*
X55054000Y-15240000D02*
X55204000Y-15240000D01*
X54354000Y-14540000D02*
X55054000Y-15240000D01*
X54354000Y-12989000D02*
X54354000Y-14540000D01*
X53065000Y-11700000D02*
X54354000Y-12989000D01*
X51815000Y-11700000D02*
X53065000Y-11700000D01*
X51799000Y-11684000D02*
X51815000Y-11700000D01*
X46011000Y-11684000D02*
X51799000Y-11684000D01*
X45720000Y-21336000D02*
X45720000Y-11975000D01*
X45720000Y-11975000D02*
X46011000Y-11684000D01*
G04 #@! TO.N,/DIN*
X45438000Y-23558500D02*
X46288000Y-23558500D01*
X45344815Y-23558500D02*
X45438000Y-23558500D01*
X43688000Y-21901685D02*
X45344815Y-23558500D01*
X43688000Y-21336000D02*
X43688000Y-21901685D01*
G04 #@! TO.N,/DOUT*
X42672000Y-25463500D02*
X41088000Y-25463500D01*
X42672000Y-25463500D02*
X43624500Y-25463500D01*
X43624500Y-25463500D02*
X44301760Y-24786240D01*
X44301760Y-24786240D02*
X44301760Y-23942497D01*
G04 #@! TO.N,/RTS*
X42862500Y-24193500D02*
X43180000Y-23876000D01*
X41088000Y-24193500D02*
X42862500Y-24193500D01*
G04 #@! TO.N,/CTS*
X41938000Y-28638500D02*
X41088000Y-28638500D01*
X42031185Y-28638500D02*
X41938000Y-28638500D01*
X42031185Y-28638500D02*
X42481500Y-28638500D01*
X42481500Y-28638500D02*
X42672000Y-28448000D01*
X42481500Y-28638500D02*
X42481500Y-28619920D01*
X42481500Y-28619920D02*
X43678796Y-27422624D01*
G04 #@! TO.N,/MISO*
X52174685Y-17700000D02*
X51815000Y-17700000D01*
X54100590Y-19050000D02*
X56388000Y-19050000D01*
X53524685Y-19050000D02*
X54100590Y-19050000D01*
X53270685Y-18796000D02*
X53524685Y-19050000D01*
X53270685Y-18796000D02*
X52174685Y-17700000D01*
G04 #@! TO.N,/MOSI*
X51315000Y-15700000D02*
X51815000Y-15700000D01*
X53065000Y-15700000D02*
X53340000Y-15975000D01*
X51815000Y-15700000D02*
X53065000Y-15700000D01*
X53340000Y-17108983D02*
X53757017Y-17526000D01*
X53340000Y-15975000D02*
X53340000Y-17108983D01*
X53757017Y-17526000D02*
X53757017Y-18070017D01*
X53757017Y-18070017D02*
X53975000Y-18288000D01*
X53975000Y-18288000D02*
X55210998Y-18288000D01*
X55210998Y-18288000D02*
X55245000Y-18322002D01*
G04 #@! TO.N,/SCK*
X44704000Y-21336000D02*
X44704000Y-21901685D01*
X44704000Y-21901685D02*
X45154315Y-22352000D01*
X46609000Y-21844000D02*
X46609000Y-14351000D01*
X46101000Y-22352000D02*
X46609000Y-21844000D01*
X45154315Y-22352000D02*
X46101000Y-22352000D01*
X47260000Y-13700000D02*
X51815000Y-13700000D01*
X46609000Y-14351000D02*
X47260000Y-13700000D01*
G04 #@! TO.N,/DIO5*
X50292000Y-10668000D02*
X50292000Y-7973000D01*
X50292000Y-7973000D02*
X50565000Y-7700000D01*
X50565000Y-7700000D02*
X51815000Y-7700000D01*
G04 #@! TO.N,/DIO4*
X41455000Y-11700000D02*
X42455000Y-12700000D01*
X35815000Y-11700000D02*
X41455000Y-11700000D01*
G04 #@! TO.N,/DIO3*
X40688000Y-9700000D02*
X35815000Y-9700000D01*
X42672000Y-11684000D02*
X40688000Y-9700000D01*
G04 #@! TO.N,/DIO2*
X42784000Y-19700000D02*
X35815000Y-19700000D01*
X44196000Y-18288000D02*
X42784000Y-19700000D01*
G04 #@! TO.N,/DIO1*
X43260000Y-17700000D02*
X35815000Y-17700000D01*
X44196000Y-16764000D02*
X43260000Y-17700000D01*
G04 #@! TO.N,/DIO0*
X36275000Y-15240000D02*
X35815000Y-15700000D01*
X44196000Y-15240000D02*
X36275000Y-15240000D01*
G04 #@! TO.N,/D1-*
X29972000Y-17990000D02*
X29972000Y-17140000D01*
X28956000Y-23455000D02*
X27956000Y-23455000D01*
X27320571Y-19685000D02*
X28277000Y-19685000D01*
X28277000Y-19685000D02*
X29972000Y-17990000D01*
X26924000Y-20081571D02*
X27320571Y-19685000D01*
X26924000Y-22423000D02*
X26924000Y-20081571D01*
X27956000Y-23455000D02*
X26924000Y-22423000D01*
D26*
X28956000Y-23455000D02*
X30248893Y-23455000D01*
X33250554Y-26674000D02*
X33374000Y-26674000D01*
X33886000Y-26162000D02*
X34036000Y-26162000D01*
X29706000Y-24205000D02*
X30781554Y-24205000D01*
X28956000Y-23455000D02*
X29706000Y-24205000D01*
X33374000Y-26674000D02*
X33886000Y-26162000D01*
X30781554Y-24205000D02*
X33250554Y-26674000D01*
D23*
G04 #@! TO.N,/D1+*
X29337000Y-13208000D02*
X29972000Y-13208000D01*
X28575000Y-13970000D02*
X29337000Y-13208000D01*
X28575000Y-18669000D02*
X28575000Y-13970000D01*
X28956000Y-25455000D02*
X27956000Y-25455000D01*
X27956000Y-25455000D02*
X26473990Y-23972990D01*
X26473990Y-23972990D02*
X26473990Y-19895171D01*
X26473990Y-19895171D02*
X27178000Y-19191161D01*
X27178000Y-19191161D02*
X28052839Y-19191161D01*
X28052839Y-19191161D02*
X28575000Y-18669000D01*
D26*
X33886000Y-27686000D02*
X34036000Y-27686000D01*
X30574446Y-24705000D02*
X33043446Y-27174000D01*
X29706000Y-24705000D02*
X30574446Y-24705000D01*
X28956000Y-25455000D02*
X29706000Y-24705000D01*
X33374000Y-27174000D02*
X33886000Y-27686000D01*
X33043446Y-27174000D02*
X33374000Y-27174000D01*
G04 #@! TO.N,/USBD-*
X36873000Y-26649000D02*
X37705910Y-26649000D01*
X36386000Y-26162000D02*
X36873000Y-26649000D01*
X36236000Y-26162000D02*
X36386000Y-26162000D01*
X45387999Y-28638500D02*
X46288000Y-28638500D01*
X40235553Y-30738000D02*
X42060447Y-30738000D01*
X39366000Y-29868447D02*
X40235553Y-30738000D01*
X39366000Y-28309090D02*
X39366000Y-29868447D01*
X37705910Y-26649000D02*
X39366000Y-28309090D01*
X45345499Y-28681000D02*
X45387999Y-28638500D01*
X44117446Y-28681000D02*
X45345499Y-28681000D01*
X42060447Y-30738000D02*
X44117446Y-28681000D01*
G04 #@! TO.N,/USBD+*
X36873000Y-27199000D02*
X37478090Y-27199000D01*
X36236000Y-27686000D02*
X36386000Y-27686000D01*
X36386000Y-27686000D02*
X36873000Y-27199000D01*
X45387999Y-29273500D02*
X46288000Y-29273500D01*
X45345499Y-29231000D02*
X45387999Y-29273500D01*
X38816009Y-28536919D02*
X38816010Y-30096261D01*
X37478090Y-27199000D02*
X38816009Y-28536919D01*
X38816010Y-30096261D02*
X40007740Y-31287991D01*
X40007740Y-31287991D02*
X42288261Y-31287990D01*
X42288261Y-31287990D02*
X44345251Y-29231000D01*
X44345251Y-29231000D02*
X45345499Y-29231000D01*
G04 #@! TD*
D27*
G04 #@! TO.N,GND*
G36*
X60479001Y-34317000D02*
X21055000Y-34317000D01*
X21055000Y-31172609D01*
X23512538Y-31172609D01*
X23516408Y-31210281D01*
X23742920Y-31638474D01*
X24116053Y-31947390D01*
X24579000Y-32090000D01*
X25729000Y-32090000D01*
X25729000Y-30982000D01*
X25983000Y-30982000D01*
X25983000Y-32090000D01*
X27133000Y-32090000D01*
X27595947Y-31947390D01*
X27969080Y-31638474D01*
X28195592Y-31210281D01*
X28199462Y-31172609D01*
X28074731Y-30982000D01*
X25983000Y-30982000D01*
X25729000Y-30982000D01*
X23637269Y-30982000D01*
X23512538Y-31172609D01*
X21055000Y-31172609D01*
X21055000Y-30537391D01*
X23512538Y-30537391D01*
X23637269Y-30728000D01*
X25729000Y-30728000D01*
X25729000Y-29620000D01*
X25983000Y-29620000D01*
X25983000Y-30728000D01*
X28074731Y-30728000D01*
X28199462Y-30537391D01*
X28195592Y-30499719D01*
X27969080Y-30071526D01*
X27595947Y-29762610D01*
X27133000Y-29620000D01*
X25983000Y-29620000D01*
X25729000Y-29620000D01*
X24579000Y-29620000D01*
X24116053Y-29762610D01*
X23742920Y-30071526D01*
X23516408Y-30499719D01*
X23512538Y-30537391D01*
X21055000Y-30537391D01*
X21055000Y-28240750D01*
X26721000Y-28240750D01*
X26721000Y-28681309D01*
X26817673Y-28914698D01*
X26996301Y-29093327D01*
X27229690Y-29190000D01*
X28670250Y-29190000D01*
X28829000Y-29031250D01*
X28829000Y-28082000D01*
X29083000Y-28082000D01*
X29083000Y-29031250D01*
X29241750Y-29190000D01*
X30682310Y-29190000D01*
X30915699Y-29093327D01*
X31094327Y-28914698D01*
X31191000Y-28681309D01*
X31191000Y-28240750D01*
X31032250Y-28082000D01*
X29083000Y-28082000D01*
X28829000Y-28082000D01*
X26879750Y-28082000D01*
X26721000Y-28240750D01*
X21055000Y-28240750D01*
X21055000Y-26709343D01*
X24021000Y-26709343D01*
X24021000Y-27200657D01*
X24209018Y-27654571D01*
X24556429Y-28001982D01*
X25010343Y-28190000D01*
X25501657Y-28190000D01*
X25955571Y-28001982D01*
X26302982Y-27654571D01*
X26479387Y-27228691D01*
X26721000Y-27228691D01*
X26721000Y-27669250D01*
X26879750Y-27828000D01*
X28829000Y-27828000D01*
X28829000Y-26878750D01*
X29083000Y-26878750D01*
X29083000Y-27828000D01*
X31032250Y-27828000D01*
X31191000Y-27669250D01*
X31191000Y-27228691D01*
X31094327Y-26995302D01*
X30915699Y-26816673D01*
X30682310Y-26720000D01*
X29241750Y-26720000D01*
X29083000Y-26878750D01*
X28829000Y-26878750D01*
X28670250Y-26720000D01*
X27229690Y-26720000D01*
X26996301Y-26816673D01*
X26817673Y-26995302D01*
X26721000Y-27228691D01*
X26479387Y-27228691D01*
X26491000Y-27200657D01*
X26491000Y-26709343D01*
X26302982Y-26255429D01*
X25955571Y-25908018D01*
X25501657Y-25720000D01*
X25010343Y-25720000D01*
X24556429Y-25908018D01*
X24209018Y-26255429D01*
X24021000Y-26709343D01*
X21055000Y-26709343D01*
X21055000Y-18372609D01*
X23512538Y-18372609D01*
X23516408Y-18410281D01*
X23742920Y-18838474D01*
X24116053Y-19147390D01*
X24579000Y-19290000D01*
X25729000Y-19290000D01*
X25729000Y-18182000D01*
X23637269Y-18182000D01*
X23512538Y-18372609D01*
X21055000Y-18372609D01*
X21055000Y-15810509D01*
X21957647Y-16713156D01*
X23367171Y-17297000D01*
X23729444Y-17297000D01*
X23516408Y-17699719D01*
X23512538Y-17737391D01*
X23637269Y-17928000D01*
X25729000Y-17928000D01*
X25729000Y-17908000D01*
X25983000Y-17908000D01*
X25983000Y-17928000D01*
X26003000Y-17928000D01*
X26003000Y-18182000D01*
X25983000Y-18182000D01*
X25983000Y-19290000D01*
X26004360Y-19290000D01*
X25989517Y-19304843D01*
X25926062Y-19347242D01*
X25883662Y-19410698D01*
X25883661Y-19410699D01*
X25776626Y-19570888D01*
X25758087Y-19598634D01*
X25730149Y-19739090D01*
X25699102Y-19895171D01*
X25713991Y-19970023D01*
X25713991Y-20807952D01*
X25501657Y-20720000D01*
X25010343Y-20720000D01*
X24556429Y-20908018D01*
X24209018Y-21255429D01*
X24021000Y-21709343D01*
X24021000Y-22200657D01*
X24209018Y-22654571D01*
X24556429Y-23001982D01*
X25010343Y-23190000D01*
X25501657Y-23190000D01*
X25713990Y-23102048D01*
X25713990Y-23898143D01*
X25699102Y-23972990D01*
X25713990Y-24047837D01*
X25713990Y-24047841D01*
X25758086Y-24269526D01*
X25926061Y-24520919D01*
X25989520Y-24563321D01*
X26708560Y-25282362D01*
X26708560Y-26055000D01*
X26757843Y-26302765D01*
X26898191Y-26512809D01*
X27108235Y-26653157D01*
X27356000Y-26702440D01*
X30556000Y-26702440D01*
X30803765Y-26653157D01*
X31013809Y-26512809D01*
X31117265Y-26357977D01*
X32433699Y-27674411D01*
X32477493Y-27739953D01*
X32543035Y-27783747D01*
X32543037Y-27783749D01*
X32572597Y-27803500D01*
X32737154Y-27913454D01*
X32788560Y-27923679D01*
X32788560Y-28136000D01*
X32837843Y-28383765D01*
X32978191Y-28593809D01*
X33188235Y-28734157D01*
X33436000Y-28783440D01*
X34636000Y-28783440D01*
X34883765Y-28734157D01*
X35093809Y-28593809D01*
X35136000Y-28530666D01*
X35178191Y-28593809D01*
X35388235Y-28734157D01*
X35636000Y-28783440D01*
X36836000Y-28783440D01*
X37083765Y-28734157D01*
X37293809Y-28593809D01*
X37434157Y-28383765D01*
X37453824Y-28284891D01*
X38031009Y-28862077D01*
X38031011Y-30018945D01*
X38015632Y-30096261D01*
X38043195Y-30234831D01*
X38008852Y-30228000D01*
X38008847Y-30228000D01*
X37934000Y-30213112D01*
X37859153Y-30228000D01*
X37296459Y-30228000D01*
X37247809Y-30155191D01*
X37037765Y-30014843D01*
X36790000Y-29965560D01*
X35590000Y-29965560D01*
X35342235Y-30014843D01*
X35250898Y-30075873D01*
X35249698Y-30074673D01*
X35016309Y-29978000D01*
X34575750Y-29978000D01*
X34417000Y-30136750D01*
X34417000Y-30861000D01*
X34437000Y-30861000D01*
X34437000Y-31115000D01*
X34417000Y-31115000D01*
X34417000Y-31135000D01*
X34163000Y-31135000D01*
X34163000Y-31115000D01*
X34143000Y-31115000D01*
X34143000Y-30861000D01*
X34163000Y-30861000D01*
X34163000Y-30136750D01*
X34004250Y-29978000D01*
X33563691Y-29978000D01*
X33330302Y-30074673D01*
X33151673Y-30253301D01*
X33055000Y-30486690D01*
X33055000Y-30702250D01*
X33213748Y-30860998D01*
X33055000Y-30860998D01*
X33055000Y-30964347D01*
X32818779Y-30964347D01*
X32508710Y-31092782D01*
X32209874Y-30969000D01*
X31798126Y-30969000D01*
X31496000Y-31094144D01*
X31193874Y-30969000D01*
X30782126Y-30969000D01*
X30401720Y-31126569D01*
X30110569Y-31417720D01*
X29953000Y-31798126D01*
X29953000Y-32209874D01*
X30110569Y-32590280D01*
X30401720Y-32881431D01*
X30782126Y-33039000D01*
X30891196Y-33039000D01*
X31864671Y-34012476D01*
X31907069Y-34075929D01*
X31970522Y-34118327D01*
X31970524Y-34118329D01*
X32095900Y-34202102D01*
X32158461Y-34243904D01*
X32380146Y-34288000D01*
X32380150Y-34288000D01*
X32454997Y-34302888D01*
X32529844Y-34288000D01*
X56567153Y-34288000D01*
X56642000Y-34302888D01*
X56716847Y-34288000D01*
X56716852Y-34288000D01*
X56938537Y-34243904D01*
X57189929Y-34075929D01*
X57232331Y-34012470D01*
X58777473Y-32467329D01*
X58840929Y-32424929D01*
X59008904Y-32173537D01*
X59053000Y-31951852D01*
X59053000Y-31951848D01*
X59067888Y-31877000D01*
X59053000Y-31802152D01*
X59053000Y-29177847D01*
X59067888Y-29103000D01*
X59053000Y-29028153D01*
X59053000Y-29028148D01*
X59008904Y-28806463D01*
X58840929Y-28555071D01*
X58777473Y-28512671D01*
X58228331Y-27963530D01*
X58185929Y-27900071D01*
X58001378Y-27776758D01*
X57986157Y-27700235D01*
X57845809Y-27490191D01*
X57635765Y-27349843D01*
X57388000Y-27300560D01*
X55388000Y-27300560D01*
X55140235Y-27349843D01*
X54930191Y-27490191D01*
X54789843Y-27700235D01*
X54740560Y-27948000D01*
X54740560Y-28948000D01*
X54789843Y-29195765D01*
X54930191Y-29405809D01*
X55140235Y-29546157D01*
X55388000Y-29595440D01*
X57388000Y-29595440D01*
X57533000Y-29566598D01*
X57533000Y-29869402D01*
X57388000Y-29840560D01*
X55388000Y-29840560D01*
X55140235Y-29889843D01*
X54930191Y-30030191D01*
X54789843Y-30240235D01*
X54740560Y-30488000D01*
X54740560Y-31488000D01*
X54789843Y-31735765D01*
X54930191Y-31945809D01*
X55140235Y-32086157D01*
X55321905Y-32122293D01*
X55217189Y-32227010D01*
X47786912Y-32227010D01*
X48188420Y-31825502D01*
X48253962Y-31781708D01*
X48297756Y-31716166D01*
X48297758Y-31716164D01*
X48379196Y-31594283D01*
X48427463Y-31522047D01*
X48473009Y-31293071D01*
X48473009Y-31293067D01*
X48488387Y-31215756D01*
X48473009Y-31138445D01*
X48473009Y-28988506D01*
X51447000Y-28988506D01*
X51447000Y-29539494D01*
X51657853Y-30048540D01*
X52047460Y-30438147D01*
X52556506Y-30649000D01*
X53107494Y-30649000D01*
X53616540Y-30438147D01*
X54006147Y-30048540D01*
X54217000Y-29539494D01*
X54217000Y-28988506D01*
X54006147Y-28479460D01*
X53616540Y-28089853D01*
X53107494Y-27879000D01*
X52556506Y-27879000D01*
X52047460Y-28089853D01*
X51657853Y-28479460D01*
X51447000Y-28988506D01*
X48473009Y-28988506D01*
X48473009Y-26747312D01*
X48488387Y-26670000D01*
X48473009Y-26592688D01*
X48473009Y-26193750D01*
X54753000Y-26193750D01*
X54753000Y-26534309D01*
X54849673Y-26767698D01*
X55028301Y-26946327D01*
X55261690Y-27043000D01*
X56102250Y-27043000D01*
X56261000Y-26884250D01*
X56261000Y-26035000D01*
X56515000Y-26035000D01*
X56515000Y-26884250D01*
X56673750Y-27043000D01*
X57514310Y-27043000D01*
X57747699Y-26946327D01*
X57926327Y-26767698D01*
X58023000Y-26534309D01*
X58023000Y-26193750D01*
X57864250Y-26035000D01*
X56515000Y-26035000D01*
X56261000Y-26035000D01*
X54911750Y-26035000D01*
X54753000Y-26193750D01*
X48473009Y-26193750D01*
X48473009Y-24936913D01*
X49301416Y-24108506D01*
X51447000Y-24108506D01*
X51447000Y-24659494D01*
X51657853Y-25168540D01*
X52047460Y-25558147D01*
X52556506Y-25769000D01*
X53107494Y-25769000D01*
X53616540Y-25558147D01*
X53892996Y-25281691D01*
X54753000Y-25281691D01*
X54753000Y-25622250D01*
X54911750Y-25781000D01*
X56261000Y-25781000D01*
X56261000Y-24931750D01*
X56515000Y-24931750D01*
X56515000Y-25781000D01*
X57864250Y-25781000D01*
X58023000Y-25622250D01*
X58023000Y-25281691D01*
X57926327Y-25048302D01*
X57747699Y-24869673D01*
X57514310Y-24773000D01*
X56673750Y-24773000D01*
X56515000Y-24931750D01*
X56261000Y-24931750D01*
X56102250Y-24773000D01*
X55261690Y-24773000D01*
X55028301Y-24869673D01*
X54849673Y-25048302D01*
X54753000Y-25281691D01*
X53892996Y-25281691D01*
X54006147Y-25168540D01*
X54217000Y-24659494D01*
X54217000Y-24108506D01*
X54006147Y-23599460D01*
X53616540Y-23209853D01*
X53107494Y-22999000D01*
X52556506Y-22999000D01*
X52047460Y-23209853D01*
X51657853Y-23599460D01*
X51447000Y-24108506D01*
X49301416Y-24108506D01*
X51796923Y-21613000D01*
X53903843Y-21613000D01*
X54838403Y-22547560D01*
X54789843Y-22620235D01*
X54740560Y-22868000D01*
X54740560Y-23868000D01*
X54789843Y-24115765D01*
X54930191Y-24325809D01*
X55140235Y-24466157D01*
X55388000Y-24515440D01*
X57388000Y-24515440D01*
X57635765Y-24466157D01*
X57845809Y-24325809D01*
X57986157Y-24115765D01*
X58035440Y-23868000D01*
X58035440Y-22868000D01*
X57986157Y-22620235D01*
X57845809Y-22410191D01*
X57635765Y-22269843D01*
X57388000Y-22220560D01*
X56731718Y-22220560D01*
X56486598Y-21975440D01*
X57388000Y-21975440D01*
X57635765Y-21926157D01*
X57845809Y-21785809D01*
X57986157Y-21575765D01*
X58035440Y-21328000D01*
X58035440Y-20328000D01*
X57986157Y-20080235D01*
X57845809Y-19870191D01*
X57740786Y-19800016D01*
X57972473Y-19568329D01*
X58035929Y-19525929D01*
X58203904Y-19274537D01*
X58248000Y-19052852D01*
X58248000Y-19052847D01*
X58262888Y-18978000D01*
X58248000Y-18903153D01*
X58248000Y-18350245D01*
X58399265Y-18320157D01*
X58609309Y-18179809D01*
X58749657Y-17969765D01*
X58798940Y-17722000D01*
X58798940Y-16822000D01*
X58749657Y-16574235D01*
X58609309Y-16364191D01*
X58447391Y-16256000D01*
X58609309Y-16147809D01*
X58749657Y-15937765D01*
X58798940Y-15690000D01*
X58798940Y-14790000D01*
X58749657Y-14542235D01*
X58609309Y-14332191D01*
X58447391Y-14224000D01*
X58609309Y-14115809D01*
X58749657Y-13905765D01*
X58798940Y-13658000D01*
X58798940Y-12758000D01*
X58749657Y-12510235D01*
X58609309Y-12300191D01*
X58399265Y-12159843D01*
X58151500Y-12110560D01*
X57186599Y-12110560D01*
X57145454Y-11903708D01*
X57063585Y-11781183D01*
X57015749Y-11709591D01*
X57015747Y-11709589D01*
X56971953Y-11644047D01*
X56915000Y-11605992D01*
X56915000Y-11478126D01*
X56757431Y-11097720D01*
X56466280Y-10806569D01*
X56085874Y-10649000D01*
X55674126Y-10649000D01*
X55601669Y-10679013D01*
X55601669Y-10212515D01*
X55616557Y-10137668D01*
X55601669Y-10062821D01*
X55601669Y-10062817D01*
X55557624Y-9841391D01*
X56387171Y-10185000D01*
X57912829Y-10185000D01*
X59322353Y-9601156D01*
X60401156Y-8522353D01*
X60479000Y-8334420D01*
X60479001Y-34317000D01*
X60479001Y-34317000D01*
G37*
X60479001Y-34317000D02*
X21055000Y-34317000D01*
X21055000Y-31172609D01*
X23512538Y-31172609D01*
X23516408Y-31210281D01*
X23742920Y-31638474D01*
X24116053Y-31947390D01*
X24579000Y-32090000D01*
X25729000Y-32090000D01*
X25729000Y-30982000D01*
X25983000Y-30982000D01*
X25983000Y-32090000D01*
X27133000Y-32090000D01*
X27595947Y-31947390D01*
X27969080Y-31638474D01*
X28195592Y-31210281D01*
X28199462Y-31172609D01*
X28074731Y-30982000D01*
X25983000Y-30982000D01*
X25729000Y-30982000D01*
X23637269Y-30982000D01*
X23512538Y-31172609D01*
X21055000Y-31172609D01*
X21055000Y-30537391D01*
X23512538Y-30537391D01*
X23637269Y-30728000D01*
X25729000Y-30728000D01*
X25729000Y-29620000D01*
X25983000Y-29620000D01*
X25983000Y-30728000D01*
X28074731Y-30728000D01*
X28199462Y-30537391D01*
X28195592Y-30499719D01*
X27969080Y-30071526D01*
X27595947Y-29762610D01*
X27133000Y-29620000D01*
X25983000Y-29620000D01*
X25729000Y-29620000D01*
X24579000Y-29620000D01*
X24116053Y-29762610D01*
X23742920Y-30071526D01*
X23516408Y-30499719D01*
X23512538Y-30537391D01*
X21055000Y-30537391D01*
X21055000Y-28240750D01*
X26721000Y-28240750D01*
X26721000Y-28681309D01*
X26817673Y-28914698D01*
X26996301Y-29093327D01*
X27229690Y-29190000D01*
X28670250Y-29190000D01*
X28829000Y-29031250D01*
X28829000Y-28082000D01*
X29083000Y-28082000D01*
X29083000Y-29031250D01*
X29241750Y-29190000D01*
X30682310Y-29190000D01*
X30915699Y-29093327D01*
X31094327Y-28914698D01*
X31191000Y-28681309D01*
X31191000Y-28240750D01*
X31032250Y-28082000D01*
X29083000Y-28082000D01*
X28829000Y-28082000D01*
X26879750Y-28082000D01*
X26721000Y-28240750D01*
X21055000Y-28240750D01*
X21055000Y-26709343D01*
X24021000Y-26709343D01*
X24021000Y-27200657D01*
X24209018Y-27654571D01*
X24556429Y-28001982D01*
X25010343Y-28190000D01*
X25501657Y-28190000D01*
X25955571Y-28001982D01*
X26302982Y-27654571D01*
X26479387Y-27228691D01*
X26721000Y-27228691D01*
X26721000Y-27669250D01*
X26879750Y-27828000D01*
X28829000Y-27828000D01*
X28829000Y-26878750D01*
X29083000Y-26878750D01*
X29083000Y-27828000D01*
X31032250Y-27828000D01*
X31191000Y-27669250D01*
X31191000Y-27228691D01*
X31094327Y-26995302D01*
X30915699Y-26816673D01*
X30682310Y-26720000D01*
X29241750Y-26720000D01*
X29083000Y-26878750D01*
X28829000Y-26878750D01*
X28670250Y-26720000D01*
X27229690Y-26720000D01*
X26996301Y-26816673D01*
X26817673Y-26995302D01*
X26721000Y-27228691D01*
X26479387Y-27228691D01*
X26491000Y-27200657D01*
X26491000Y-26709343D01*
X26302982Y-26255429D01*
X25955571Y-25908018D01*
X25501657Y-25720000D01*
X25010343Y-25720000D01*
X24556429Y-25908018D01*
X24209018Y-26255429D01*
X24021000Y-26709343D01*
X21055000Y-26709343D01*
X21055000Y-18372609D01*
X23512538Y-18372609D01*
X23516408Y-18410281D01*
X23742920Y-18838474D01*
X24116053Y-19147390D01*
X24579000Y-19290000D01*
X25729000Y-19290000D01*
X25729000Y-18182000D01*
X23637269Y-18182000D01*
X23512538Y-18372609D01*
X21055000Y-18372609D01*
X21055000Y-15810509D01*
X21957647Y-16713156D01*
X23367171Y-17297000D01*
X23729444Y-17297000D01*
X23516408Y-17699719D01*
X23512538Y-17737391D01*
X23637269Y-17928000D01*
X25729000Y-17928000D01*
X25729000Y-17908000D01*
X25983000Y-17908000D01*
X25983000Y-17928000D01*
X26003000Y-17928000D01*
X26003000Y-18182000D01*
X25983000Y-18182000D01*
X25983000Y-19290000D01*
X26004360Y-19290000D01*
X25989517Y-19304843D01*
X25926062Y-19347242D01*
X25883662Y-19410698D01*
X25883661Y-19410699D01*
X25776626Y-19570888D01*
X25758087Y-19598634D01*
X25730149Y-19739090D01*
X25699102Y-19895171D01*
X25713991Y-19970023D01*
X25713991Y-20807952D01*
X25501657Y-20720000D01*
X25010343Y-20720000D01*
X24556429Y-20908018D01*
X24209018Y-21255429D01*
X24021000Y-21709343D01*
X24021000Y-22200657D01*
X24209018Y-22654571D01*
X24556429Y-23001982D01*
X25010343Y-23190000D01*
X25501657Y-23190000D01*
X25713990Y-23102048D01*
X25713990Y-23898143D01*
X25699102Y-23972990D01*
X25713990Y-24047837D01*
X25713990Y-24047841D01*
X25758086Y-24269526D01*
X25926061Y-24520919D01*
X25989520Y-24563321D01*
X26708560Y-25282362D01*
X26708560Y-26055000D01*
X26757843Y-26302765D01*
X26898191Y-26512809D01*
X27108235Y-26653157D01*
X27356000Y-26702440D01*
X30556000Y-26702440D01*
X30803765Y-26653157D01*
X31013809Y-26512809D01*
X31117265Y-26357977D01*
X32433699Y-27674411D01*
X32477493Y-27739953D01*
X32543035Y-27783747D01*
X32543037Y-27783749D01*
X32572597Y-27803500D01*
X32737154Y-27913454D01*
X32788560Y-27923679D01*
X32788560Y-28136000D01*
X32837843Y-28383765D01*
X32978191Y-28593809D01*
X33188235Y-28734157D01*
X33436000Y-28783440D01*
X34636000Y-28783440D01*
X34883765Y-28734157D01*
X35093809Y-28593809D01*
X35136000Y-28530666D01*
X35178191Y-28593809D01*
X35388235Y-28734157D01*
X35636000Y-28783440D01*
X36836000Y-28783440D01*
X37083765Y-28734157D01*
X37293809Y-28593809D01*
X37434157Y-28383765D01*
X37453824Y-28284891D01*
X38031009Y-28862077D01*
X38031011Y-30018945D01*
X38015632Y-30096261D01*
X38043195Y-30234831D01*
X38008852Y-30228000D01*
X38008847Y-30228000D01*
X37934000Y-30213112D01*
X37859153Y-30228000D01*
X37296459Y-30228000D01*
X37247809Y-30155191D01*
X37037765Y-30014843D01*
X36790000Y-29965560D01*
X35590000Y-29965560D01*
X35342235Y-30014843D01*
X35250898Y-30075873D01*
X35249698Y-30074673D01*
X35016309Y-29978000D01*
X34575750Y-29978000D01*
X34417000Y-30136750D01*
X34417000Y-30861000D01*
X34437000Y-30861000D01*
X34437000Y-31115000D01*
X34417000Y-31115000D01*
X34417000Y-31135000D01*
X34163000Y-31135000D01*
X34163000Y-31115000D01*
X34143000Y-31115000D01*
X34143000Y-30861000D01*
X34163000Y-30861000D01*
X34163000Y-30136750D01*
X34004250Y-29978000D01*
X33563691Y-29978000D01*
X33330302Y-30074673D01*
X33151673Y-30253301D01*
X33055000Y-30486690D01*
X33055000Y-30702250D01*
X33213748Y-30860998D01*
X33055000Y-30860998D01*
X33055000Y-30964347D01*
X32818779Y-30964347D01*
X32508710Y-31092782D01*
X32209874Y-30969000D01*
X31798126Y-30969000D01*
X31496000Y-31094144D01*
X31193874Y-30969000D01*
X30782126Y-30969000D01*
X30401720Y-31126569D01*
X30110569Y-31417720D01*
X29953000Y-31798126D01*
X29953000Y-32209874D01*
X30110569Y-32590280D01*
X30401720Y-32881431D01*
X30782126Y-33039000D01*
X30891196Y-33039000D01*
X31864671Y-34012476D01*
X31907069Y-34075929D01*
X31970522Y-34118327D01*
X31970524Y-34118329D01*
X32095900Y-34202102D01*
X32158461Y-34243904D01*
X32380146Y-34288000D01*
X32380150Y-34288000D01*
X32454997Y-34302888D01*
X32529844Y-34288000D01*
X56567153Y-34288000D01*
X56642000Y-34302888D01*
X56716847Y-34288000D01*
X56716852Y-34288000D01*
X56938537Y-34243904D01*
X57189929Y-34075929D01*
X57232331Y-34012470D01*
X58777473Y-32467329D01*
X58840929Y-32424929D01*
X59008904Y-32173537D01*
X59053000Y-31951852D01*
X59053000Y-31951848D01*
X59067888Y-31877000D01*
X59053000Y-31802152D01*
X59053000Y-29177847D01*
X59067888Y-29103000D01*
X59053000Y-29028153D01*
X59053000Y-29028148D01*
X59008904Y-28806463D01*
X58840929Y-28555071D01*
X58777473Y-28512671D01*
X58228331Y-27963530D01*
X58185929Y-27900071D01*
X58001378Y-27776758D01*
X57986157Y-27700235D01*
X57845809Y-27490191D01*
X57635765Y-27349843D01*
X57388000Y-27300560D01*
X55388000Y-27300560D01*
X55140235Y-27349843D01*
X54930191Y-27490191D01*
X54789843Y-27700235D01*
X54740560Y-27948000D01*
X54740560Y-28948000D01*
X54789843Y-29195765D01*
X54930191Y-29405809D01*
X55140235Y-29546157D01*
X55388000Y-29595440D01*
X57388000Y-29595440D01*
X57533000Y-29566598D01*
X57533000Y-29869402D01*
X57388000Y-29840560D01*
X55388000Y-29840560D01*
X55140235Y-29889843D01*
X54930191Y-30030191D01*
X54789843Y-30240235D01*
X54740560Y-30488000D01*
X54740560Y-31488000D01*
X54789843Y-31735765D01*
X54930191Y-31945809D01*
X55140235Y-32086157D01*
X55321905Y-32122293D01*
X55217189Y-32227010D01*
X47786912Y-32227010D01*
X48188420Y-31825502D01*
X48253962Y-31781708D01*
X48297756Y-31716166D01*
X48297758Y-31716164D01*
X48379196Y-31594283D01*
X48427463Y-31522047D01*
X48473009Y-31293071D01*
X48473009Y-31293067D01*
X48488387Y-31215756D01*
X48473009Y-31138445D01*
X48473009Y-28988506D01*
X51447000Y-28988506D01*
X51447000Y-29539494D01*
X51657853Y-30048540D01*
X52047460Y-30438147D01*
X52556506Y-30649000D01*
X53107494Y-30649000D01*
X53616540Y-30438147D01*
X54006147Y-30048540D01*
X54217000Y-29539494D01*
X54217000Y-28988506D01*
X54006147Y-28479460D01*
X53616540Y-28089853D01*
X53107494Y-27879000D01*
X52556506Y-27879000D01*
X52047460Y-28089853D01*
X51657853Y-28479460D01*
X51447000Y-28988506D01*
X48473009Y-28988506D01*
X48473009Y-26747312D01*
X48488387Y-26670000D01*
X48473009Y-26592688D01*
X48473009Y-26193750D01*
X54753000Y-26193750D01*
X54753000Y-26534309D01*
X54849673Y-26767698D01*
X55028301Y-26946327D01*
X55261690Y-27043000D01*
X56102250Y-27043000D01*
X56261000Y-26884250D01*
X56261000Y-26035000D01*
X56515000Y-26035000D01*
X56515000Y-26884250D01*
X56673750Y-27043000D01*
X57514310Y-27043000D01*
X57747699Y-26946327D01*
X57926327Y-26767698D01*
X58023000Y-26534309D01*
X58023000Y-26193750D01*
X57864250Y-26035000D01*
X56515000Y-26035000D01*
X56261000Y-26035000D01*
X54911750Y-26035000D01*
X54753000Y-26193750D01*
X48473009Y-26193750D01*
X48473009Y-24936913D01*
X49301416Y-24108506D01*
X51447000Y-24108506D01*
X51447000Y-24659494D01*
X51657853Y-25168540D01*
X52047460Y-25558147D01*
X52556506Y-25769000D01*
X53107494Y-25769000D01*
X53616540Y-25558147D01*
X53892996Y-25281691D01*
X54753000Y-25281691D01*
X54753000Y-25622250D01*
X54911750Y-25781000D01*
X56261000Y-25781000D01*
X56261000Y-24931750D01*
X56515000Y-24931750D01*
X56515000Y-25781000D01*
X57864250Y-25781000D01*
X58023000Y-25622250D01*
X58023000Y-25281691D01*
X57926327Y-25048302D01*
X57747699Y-24869673D01*
X57514310Y-24773000D01*
X56673750Y-24773000D01*
X56515000Y-24931750D01*
X56261000Y-24931750D01*
X56102250Y-24773000D01*
X55261690Y-24773000D01*
X55028301Y-24869673D01*
X54849673Y-25048302D01*
X54753000Y-25281691D01*
X53892996Y-25281691D01*
X54006147Y-25168540D01*
X54217000Y-24659494D01*
X54217000Y-24108506D01*
X54006147Y-23599460D01*
X53616540Y-23209853D01*
X53107494Y-22999000D01*
X52556506Y-22999000D01*
X52047460Y-23209853D01*
X51657853Y-23599460D01*
X51447000Y-24108506D01*
X49301416Y-24108506D01*
X51796923Y-21613000D01*
X53903843Y-21613000D01*
X54838403Y-22547560D01*
X54789843Y-22620235D01*
X54740560Y-22868000D01*
X54740560Y-23868000D01*
X54789843Y-24115765D01*
X54930191Y-24325809D01*
X55140235Y-24466157D01*
X55388000Y-24515440D01*
X57388000Y-24515440D01*
X57635765Y-24466157D01*
X57845809Y-24325809D01*
X57986157Y-24115765D01*
X58035440Y-23868000D01*
X58035440Y-22868000D01*
X57986157Y-22620235D01*
X57845809Y-22410191D01*
X57635765Y-22269843D01*
X57388000Y-22220560D01*
X56731718Y-22220560D01*
X56486598Y-21975440D01*
X57388000Y-21975440D01*
X57635765Y-21926157D01*
X57845809Y-21785809D01*
X57986157Y-21575765D01*
X58035440Y-21328000D01*
X58035440Y-20328000D01*
X57986157Y-20080235D01*
X57845809Y-19870191D01*
X57740786Y-19800016D01*
X57972473Y-19568329D01*
X58035929Y-19525929D01*
X58203904Y-19274537D01*
X58248000Y-19052852D01*
X58248000Y-19052847D01*
X58262888Y-18978000D01*
X58248000Y-18903153D01*
X58248000Y-18350245D01*
X58399265Y-18320157D01*
X58609309Y-18179809D01*
X58749657Y-17969765D01*
X58798940Y-17722000D01*
X58798940Y-16822000D01*
X58749657Y-16574235D01*
X58609309Y-16364191D01*
X58447391Y-16256000D01*
X58609309Y-16147809D01*
X58749657Y-15937765D01*
X58798940Y-15690000D01*
X58798940Y-14790000D01*
X58749657Y-14542235D01*
X58609309Y-14332191D01*
X58447391Y-14224000D01*
X58609309Y-14115809D01*
X58749657Y-13905765D01*
X58798940Y-13658000D01*
X58798940Y-12758000D01*
X58749657Y-12510235D01*
X58609309Y-12300191D01*
X58399265Y-12159843D01*
X58151500Y-12110560D01*
X57186599Y-12110560D01*
X57145454Y-11903708D01*
X57063585Y-11781183D01*
X57015749Y-11709591D01*
X57015747Y-11709589D01*
X56971953Y-11644047D01*
X56915000Y-11605992D01*
X56915000Y-11478126D01*
X56757431Y-11097720D01*
X56466280Y-10806569D01*
X56085874Y-10649000D01*
X55674126Y-10649000D01*
X55601669Y-10679013D01*
X55601669Y-10212515D01*
X55616557Y-10137668D01*
X55601669Y-10062821D01*
X55601669Y-10062817D01*
X55557624Y-9841391D01*
X56387171Y-10185000D01*
X57912829Y-10185000D01*
X59322353Y-9601156D01*
X60401156Y-8522353D01*
X60479000Y-8334420D01*
X60479001Y-34317000D01*
G36*
X45040560Y-25028500D02*
X45063932Y-25146000D01*
X45040560Y-25263500D01*
X45040560Y-25663500D01*
X45059202Y-25757218D01*
X45053000Y-25772190D01*
X45053000Y-25839750D01*
X45081234Y-25867984D01*
X45089843Y-25911265D01*
X45214950Y-26098500D01*
X45089843Y-26285735D01*
X45081234Y-26329016D01*
X45053000Y-26357250D01*
X45053000Y-26424810D01*
X45059202Y-26439782D01*
X45040560Y-26533500D01*
X45040560Y-26933500D01*
X45063932Y-27051000D01*
X45040560Y-27168500D01*
X45040560Y-27180000D01*
X44698574Y-27180000D01*
X44556227Y-26836344D01*
X44265076Y-26545193D01*
X43884670Y-26387624D01*
X43472922Y-26387624D01*
X43092516Y-26545193D01*
X42801365Y-26836344D01*
X42643796Y-27216750D01*
X42643796Y-27382822D01*
X42316805Y-27709814D01*
X42312068Y-27685999D01*
X42335440Y-27568500D01*
X42335440Y-27168500D01*
X42316798Y-27074782D01*
X42323000Y-27059810D01*
X42323000Y-26992250D01*
X42294766Y-26964016D01*
X42286157Y-26920735D01*
X42161050Y-26733500D01*
X42286157Y-26546265D01*
X42294766Y-26502984D01*
X42323000Y-26474750D01*
X42323000Y-26407190D01*
X42316798Y-26392218D01*
X42335440Y-26298500D01*
X42335440Y-26223500D01*
X43549653Y-26223500D01*
X43624500Y-26238388D01*
X43699347Y-26223500D01*
X43699352Y-26223500D01*
X43921037Y-26179404D01*
X44172429Y-26011429D01*
X44214831Y-25947970D01*
X44786233Y-25376569D01*
X44849689Y-25334169D01*
X45017664Y-25082777D01*
X45040560Y-24967671D01*
X45040560Y-25028500D01*
X45040560Y-25028500D01*
G37*
X45040560Y-25028500D02*
X45063932Y-25146000D01*
X45040560Y-25263500D01*
X45040560Y-25663500D01*
X45059202Y-25757218D01*
X45053000Y-25772190D01*
X45053000Y-25839750D01*
X45081234Y-25867984D01*
X45089843Y-25911265D01*
X45214950Y-26098500D01*
X45089843Y-26285735D01*
X45081234Y-26329016D01*
X45053000Y-26357250D01*
X45053000Y-26424810D01*
X45059202Y-26439782D01*
X45040560Y-26533500D01*
X45040560Y-26933500D01*
X45063932Y-27051000D01*
X45040560Y-27168500D01*
X45040560Y-27180000D01*
X44698574Y-27180000D01*
X44556227Y-26836344D01*
X44265076Y-26545193D01*
X43884670Y-26387624D01*
X43472922Y-26387624D01*
X43092516Y-26545193D01*
X42801365Y-26836344D01*
X42643796Y-27216750D01*
X42643796Y-27382822D01*
X42316805Y-27709814D01*
X42312068Y-27685999D01*
X42335440Y-27568500D01*
X42335440Y-27168500D01*
X42316798Y-27074782D01*
X42323000Y-27059810D01*
X42323000Y-26992250D01*
X42294766Y-26964016D01*
X42286157Y-26920735D01*
X42161050Y-26733500D01*
X42286157Y-26546265D01*
X42294766Y-26502984D01*
X42323000Y-26474750D01*
X42323000Y-26407190D01*
X42316798Y-26392218D01*
X42335440Y-26298500D01*
X42335440Y-26223500D01*
X43549653Y-26223500D01*
X43624500Y-26238388D01*
X43699347Y-26223500D01*
X43699352Y-26223500D01*
X43921037Y-26179404D01*
X44172429Y-26011429D01*
X44214831Y-25947970D01*
X44786233Y-25376569D01*
X44849689Y-25334169D01*
X45017664Y-25082777D01*
X45040560Y-24967671D01*
X45040560Y-25028500D01*
G36*
X34167560Y-16200000D02*
X34216843Y-16447765D01*
X34357191Y-16657809D01*
X34420334Y-16700000D01*
X34357191Y-16742191D01*
X34216843Y-16952235D01*
X34167560Y-17200000D01*
X34167560Y-18200000D01*
X34216843Y-18447765D01*
X34357191Y-18657809D01*
X34420334Y-18700000D01*
X34357191Y-18742191D01*
X34216843Y-18952235D01*
X34167560Y-19200000D01*
X34167560Y-19971881D01*
X34042309Y-19920000D01*
X33901750Y-19920000D01*
X33743000Y-20078750D01*
X33743000Y-20828000D01*
X34392250Y-20828000D01*
X34480229Y-20740021D01*
X34567235Y-20798157D01*
X34815000Y-20847440D01*
X36815000Y-20847440D01*
X37062765Y-20798157D01*
X37272809Y-20657809D01*
X37404982Y-20460000D01*
X42343841Y-20460000D01*
X41998841Y-20805000D01*
X37542312Y-20805000D01*
X37465000Y-20789622D01*
X37387688Y-20805000D01*
X37387684Y-20805000D01*
X37158708Y-20850546D01*
X36899047Y-21024047D01*
X36855251Y-21089592D01*
X36754843Y-21190000D01*
X36624126Y-21190000D01*
X36243720Y-21347569D01*
X35952569Y-21638720D01*
X35795000Y-22019126D01*
X35795000Y-22430874D01*
X35952569Y-22811280D01*
X36243720Y-23102431D01*
X36624126Y-23260000D01*
X37035874Y-23260000D01*
X37416280Y-23102431D01*
X37707431Y-22811280D01*
X37865000Y-22430874D01*
X37865000Y-22375000D01*
X42246686Y-22375000D01*
X42323998Y-22390378D01*
X42401310Y-22375000D01*
X42401314Y-22375000D01*
X42630290Y-22329454D01*
X42889951Y-22155953D01*
X42933747Y-22090408D01*
X42947846Y-22076309D01*
X42972096Y-22198222D01*
X43140072Y-22449614D01*
X43203528Y-22492014D01*
X43670345Y-22958832D01*
X43385874Y-22841000D01*
X42974126Y-22841000D01*
X42593720Y-22998569D01*
X42318575Y-23273714D01*
X42286157Y-23110735D01*
X42145809Y-22900691D01*
X41935765Y-22760343D01*
X41688000Y-22711060D01*
X40488000Y-22711060D01*
X40240235Y-22760343D01*
X40030191Y-22900691D01*
X39889843Y-23110735D01*
X39840560Y-23358500D01*
X39840560Y-23758500D01*
X39863932Y-23876000D01*
X39840560Y-23993500D01*
X39840560Y-24180017D01*
X39690071Y-24280571D01*
X39647669Y-24344030D01*
X39356540Y-24635159D01*
X39293081Y-24677561D01*
X39125106Y-24928954D01*
X39081010Y-25150639D01*
X39081010Y-25150643D01*
X39066122Y-25225490D01*
X39081010Y-25300337D01*
X39081010Y-26913943D01*
X38315659Y-26148592D01*
X38271863Y-26083047D01*
X38012202Y-25909546D01*
X37783226Y-25864000D01*
X37783222Y-25864000D01*
X37705910Y-25848622D01*
X37628598Y-25864000D01*
X37483440Y-25864000D01*
X37483440Y-25712000D01*
X37434157Y-25464235D01*
X37293809Y-25254191D01*
X37083765Y-25113843D01*
X36836000Y-25064560D01*
X35636000Y-25064560D01*
X35388235Y-25113843D01*
X35178191Y-25254191D01*
X35136000Y-25317334D01*
X35093809Y-25254191D01*
X34883765Y-25113843D01*
X34636000Y-25064560D01*
X33436000Y-25064560D01*
X33188235Y-25113843D01*
X32978191Y-25254191D01*
X32963255Y-25276544D01*
X31391302Y-23704591D01*
X31347507Y-23639047D01*
X31203440Y-23542784D01*
X31203440Y-22855000D01*
X31154157Y-22607235D01*
X31013809Y-22397191D01*
X30803765Y-22256843D01*
X30719089Y-22240000D01*
X32042558Y-22240000D01*
X32417382Y-22165443D01*
X32842433Y-21881433D01*
X32883278Y-21820304D01*
X32956302Y-21893327D01*
X33189691Y-21990000D01*
X33330250Y-21990000D01*
X33489000Y-21831250D01*
X33489000Y-21082000D01*
X33743000Y-21082000D01*
X33743000Y-21831250D01*
X33901750Y-21990000D01*
X34042309Y-21990000D01*
X34275698Y-21893327D01*
X34454327Y-21714699D01*
X34551000Y-21481310D01*
X34551000Y-21240750D01*
X34392250Y-21082000D01*
X33743000Y-21082000D01*
X33489000Y-21082000D01*
X33469000Y-21082000D01*
X33469000Y-20828000D01*
X33489000Y-20828000D01*
X33489000Y-20078750D01*
X33330250Y-19920000D01*
X33189691Y-19920000D01*
X32956302Y-20016673D01*
X32883278Y-20089696D01*
X32842433Y-20028567D01*
X32730161Y-19953550D01*
X32793431Y-19890280D01*
X32951000Y-19509874D01*
X32951000Y-19098126D01*
X32793431Y-18717720D01*
X32701000Y-18625289D01*
X32701000Y-18288554D01*
X32836809Y-18197809D01*
X32977157Y-17987765D01*
X33026440Y-17740000D01*
X33026440Y-16540000D01*
X32977157Y-16292235D01*
X32916127Y-16200898D01*
X32917327Y-16199698D01*
X33014000Y-15966309D01*
X33014000Y-15639370D01*
X33322126Y-15767000D01*
X33733874Y-15767000D01*
X34114280Y-15609431D01*
X34167560Y-15556151D01*
X34167560Y-16200000D01*
X34167560Y-16200000D01*
G37*
X34167560Y-16200000D02*
X34216843Y-16447765D01*
X34357191Y-16657809D01*
X34420334Y-16700000D01*
X34357191Y-16742191D01*
X34216843Y-16952235D01*
X34167560Y-17200000D01*
X34167560Y-18200000D01*
X34216843Y-18447765D01*
X34357191Y-18657809D01*
X34420334Y-18700000D01*
X34357191Y-18742191D01*
X34216843Y-18952235D01*
X34167560Y-19200000D01*
X34167560Y-19971881D01*
X34042309Y-19920000D01*
X33901750Y-19920000D01*
X33743000Y-20078750D01*
X33743000Y-20828000D01*
X34392250Y-20828000D01*
X34480229Y-20740021D01*
X34567235Y-20798157D01*
X34815000Y-20847440D01*
X36815000Y-20847440D01*
X37062765Y-20798157D01*
X37272809Y-20657809D01*
X37404982Y-20460000D01*
X42343841Y-20460000D01*
X41998841Y-20805000D01*
X37542312Y-20805000D01*
X37465000Y-20789622D01*
X37387688Y-20805000D01*
X37387684Y-20805000D01*
X37158708Y-20850546D01*
X36899047Y-21024047D01*
X36855251Y-21089592D01*
X36754843Y-21190000D01*
X36624126Y-21190000D01*
X36243720Y-21347569D01*
X35952569Y-21638720D01*
X35795000Y-22019126D01*
X35795000Y-22430874D01*
X35952569Y-22811280D01*
X36243720Y-23102431D01*
X36624126Y-23260000D01*
X37035874Y-23260000D01*
X37416280Y-23102431D01*
X37707431Y-22811280D01*
X37865000Y-22430874D01*
X37865000Y-22375000D01*
X42246686Y-22375000D01*
X42323998Y-22390378D01*
X42401310Y-22375000D01*
X42401314Y-22375000D01*
X42630290Y-22329454D01*
X42889951Y-22155953D01*
X42933747Y-22090408D01*
X42947846Y-22076309D01*
X42972096Y-22198222D01*
X43140072Y-22449614D01*
X43203528Y-22492014D01*
X43670345Y-22958832D01*
X43385874Y-22841000D01*
X42974126Y-22841000D01*
X42593720Y-22998569D01*
X42318575Y-23273714D01*
X42286157Y-23110735D01*
X42145809Y-22900691D01*
X41935765Y-22760343D01*
X41688000Y-22711060D01*
X40488000Y-22711060D01*
X40240235Y-22760343D01*
X40030191Y-22900691D01*
X39889843Y-23110735D01*
X39840560Y-23358500D01*
X39840560Y-23758500D01*
X39863932Y-23876000D01*
X39840560Y-23993500D01*
X39840560Y-24180017D01*
X39690071Y-24280571D01*
X39647669Y-24344030D01*
X39356540Y-24635159D01*
X39293081Y-24677561D01*
X39125106Y-24928954D01*
X39081010Y-25150639D01*
X39081010Y-25150643D01*
X39066122Y-25225490D01*
X39081010Y-25300337D01*
X39081010Y-26913943D01*
X38315659Y-26148592D01*
X38271863Y-26083047D01*
X38012202Y-25909546D01*
X37783226Y-25864000D01*
X37783222Y-25864000D01*
X37705910Y-25848622D01*
X37628598Y-25864000D01*
X37483440Y-25864000D01*
X37483440Y-25712000D01*
X37434157Y-25464235D01*
X37293809Y-25254191D01*
X37083765Y-25113843D01*
X36836000Y-25064560D01*
X35636000Y-25064560D01*
X35388235Y-25113843D01*
X35178191Y-25254191D01*
X35136000Y-25317334D01*
X35093809Y-25254191D01*
X34883765Y-25113843D01*
X34636000Y-25064560D01*
X33436000Y-25064560D01*
X33188235Y-25113843D01*
X32978191Y-25254191D01*
X32963255Y-25276544D01*
X31391302Y-23704591D01*
X31347507Y-23639047D01*
X31203440Y-23542784D01*
X31203440Y-22855000D01*
X31154157Y-22607235D01*
X31013809Y-22397191D01*
X30803765Y-22256843D01*
X30719089Y-22240000D01*
X32042558Y-22240000D01*
X32417382Y-22165443D01*
X32842433Y-21881433D01*
X32883278Y-21820304D01*
X32956302Y-21893327D01*
X33189691Y-21990000D01*
X33330250Y-21990000D01*
X33489000Y-21831250D01*
X33489000Y-21082000D01*
X33743000Y-21082000D01*
X33743000Y-21831250D01*
X33901750Y-21990000D01*
X34042309Y-21990000D01*
X34275698Y-21893327D01*
X34454327Y-21714699D01*
X34551000Y-21481310D01*
X34551000Y-21240750D01*
X34392250Y-21082000D01*
X33743000Y-21082000D01*
X33489000Y-21082000D01*
X33469000Y-21082000D01*
X33469000Y-20828000D01*
X33489000Y-20828000D01*
X33489000Y-20078750D01*
X33330250Y-19920000D01*
X33189691Y-19920000D01*
X32956302Y-20016673D01*
X32883278Y-20089696D01*
X32842433Y-20028567D01*
X32730161Y-19953550D01*
X32793431Y-19890280D01*
X32951000Y-19509874D01*
X32951000Y-19098126D01*
X32793431Y-18717720D01*
X32701000Y-18625289D01*
X32701000Y-18288554D01*
X32836809Y-18197809D01*
X32977157Y-17987765D01*
X33026440Y-17740000D01*
X33026440Y-16540000D01*
X32977157Y-16292235D01*
X32916127Y-16200898D01*
X32917327Y-16199698D01*
X33014000Y-15966309D01*
X33014000Y-15639370D01*
X33322126Y-15767000D01*
X33733874Y-15767000D01*
X34114280Y-15609431D01*
X34167560Y-15556151D01*
X34167560Y-16200000D01*
G36*
X50357191Y-14657809D02*
X50420334Y-14700000D01*
X50357191Y-14742191D01*
X50216843Y-14952235D01*
X50167560Y-15200000D01*
X50167560Y-16200000D01*
X50216843Y-16447765D01*
X50357191Y-16657809D01*
X50420334Y-16700000D01*
X50357191Y-16742191D01*
X50216843Y-16952235D01*
X50167560Y-17200000D01*
X50167560Y-18200000D01*
X50216843Y-18447765D01*
X50357191Y-18657809D01*
X50418320Y-18698655D01*
X50276673Y-18840301D01*
X50180000Y-19073690D01*
X50180000Y-19414250D01*
X50338750Y-19573000D01*
X51688000Y-19573000D01*
X51688000Y-19553000D01*
X51942000Y-19553000D01*
X51942000Y-19573000D01*
X51962000Y-19573000D01*
X51962000Y-19827000D01*
X51942000Y-19827000D01*
X51942000Y-19847000D01*
X51688000Y-19847000D01*
X51688000Y-19827000D01*
X50338750Y-19827000D01*
X50180000Y-19985750D01*
X50180000Y-20326310D01*
X50276673Y-20559699D01*
X50453291Y-20736316D01*
X47535440Y-23654168D01*
X47535440Y-23358500D01*
X47486157Y-23110735D01*
X47345809Y-22900691D01*
X47135765Y-22760343D01*
X46888000Y-22711060D01*
X46816742Y-22711060D01*
X47093475Y-22434327D01*
X47156929Y-22391929D01*
X47199327Y-22328476D01*
X47199329Y-22328474D01*
X47314603Y-22155953D01*
X47324904Y-22140537D01*
X47369000Y-21918852D01*
X47369000Y-21918848D01*
X47383888Y-21844001D01*
X47369000Y-21769154D01*
X47369000Y-14665801D01*
X47574802Y-14460000D01*
X50225018Y-14460000D01*
X50357191Y-14657809D01*
X50357191Y-14657809D01*
G37*
X50357191Y-14657809D02*
X50420334Y-14700000D01*
X50357191Y-14742191D01*
X50216843Y-14952235D01*
X50167560Y-15200000D01*
X50167560Y-16200000D01*
X50216843Y-16447765D01*
X50357191Y-16657809D01*
X50420334Y-16700000D01*
X50357191Y-16742191D01*
X50216843Y-16952235D01*
X50167560Y-17200000D01*
X50167560Y-18200000D01*
X50216843Y-18447765D01*
X50357191Y-18657809D01*
X50418320Y-18698655D01*
X50276673Y-18840301D01*
X50180000Y-19073690D01*
X50180000Y-19414250D01*
X50338750Y-19573000D01*
X51688000Y-19573000D01*
X51688000Y-19553000D01*
X51942000Y-19553000D01*
X51942000Y-19573000D01*
X51962000Y-19573000D01*
X51962000Y-19827000D01*
X51942000Y-19827000D01*
X51942000Y-19847000D01*
X51688000Y-19847000D01*
X51688000Y-19827000D01*
X50338750Y-19827000D01*
X50180000Y-19985750D01*
X50180000Y-20326310D01*
X50276673Y-20559699D01*
X50453291Y-20736316D01*
X47535440Y-23654168D01*
X47535440Y-23358500D01*
X47486157Y-23110735D01*
X47345809Y-22900691D01*
X47135765Y-22760343D01*
X46888000Y-22711060D01*
X46816742Y-22711060D01*
X47093475Y-22434327D01*
X47156929Y-22391929D01*
X47199327Y-22328476D01*
X47199329Y-22328474D01*
X47314603Y-22155953D01*
X47324904Y-22140537D01*
X47369000Y-21918852D01*
X47369000Y-21918848D01*
X47383888Y-21844001D01*
X47369000Y-21769154D01*
X47369000Y-14665801D01*
X47574802Y-14460000D01*
X50225018Y-14460000D01*
X50357191Y-14657809D01*
G36*
X54930191Y-19870191D02*
X54789843Y-20080235D01*
X54758521Y-20237704D01*
X54535292Y-20088546D01*
X54306316Y-20043000D01*
X54306312Y-20043000D01*
X54229000Y-20027622D01*
X54151688Y-20043000D01*
X53450000Y-20043000D01*
X53450000Y-19985750D01*
X53291252Y-19827002D01*
X53450000Y-19827002D01*
X53450000Y-19810032D01*
X53524684Y-19824888D01*
X53599531Y-19810000D01*
X55020273Y-19810000D01*
X54930191Y-19870191D01*
X54930191Y-19870191D01*
G37*
X54930191Y-19870191D02*
X54789843Y-20080235D01*
X54758521Y-20237704D01*
X54535292Y-20088546D01*
X54306316Y-20043000D01*
X54306312Y-20043000D01*
X54229000Y-20027622D01*
X54151688Y-20043000D01*
X53450000Y-20043000D01*
X53450000Y-19985750D01*
X53291252Y-19827002D01*
X53450000Y-19827002D01*
X53450000Y-19810032D01*
X53524684Y-19824888D01*
X53599531Y-19810000D01*
X55020273Y-19810000D01*
X54930191Y-19870191D01*
G36*
X24979737Y-1940132D02*
X26025000Y-2985395D01*
X27070263Y-1940132D01*
X26994602Y-1751000D01*
X30155398Y-1751000D01*
X30079737Y-1940132D01*
X31125000Y-2985395D01*
X32170263Y-1940132D01*
X32094602Y-1751000D01*
X60479000Y-1751000D01*
X60479000Y-4365579D01*
X60401156Y-4177647D01*
X59322353Y-3098844D01*
X57912829Y-2515000D01*
X56387171Y-2515000D01*
X54977647Y-3098844D01*
X53898844Y-4177647D01*
X53450000Y-5261252D01*
X53450000Y-5073690D01*
X53353327Y-4840301D01*
X53174698Y-4661673D01*
X52941309Y-4565000D01*
X52100750Y-4565000D01*
X51942000Y-4723750D01*
X51942000Y-5573000D01*
X51962000Y-5573000D01*
X51962000Y-5827000D01*
X51942000Y-5827000D01*
X51942000Y-5847000D01*
X51688000Y-5847000D01*
X51688000Y-5827000D01*
X50338750Y-5827000D01*
X50180000Y-5985750D01*
X50180000Y-6326310D01*
X50276673Y-6559699D01*
X50418320Y-6701345D01*
X50357191Y-6742191D01*
X50216843Y-6952235D01*
X50201622Y-7028758D01*
X50017071Y-7152071D01*
X49974670Y-7215528D01*
X49807527Y-7382672D01*
X49744072Y-7425071D01*
X49701672Y-7488527D01*
X49701671Y-7488528D01*
X49576097Y-7676463D01*
X49517112Y-7973000D01*
X49532001Y-8047852D01*
X49532000Y-9964289D01*
X49414569Y-10081720D01*
X49257000Y-10462126D01*
X49257000Y-10873874D01*
X49277763Y-10924000D01*
X46085846Y-10924000D01*
X46010999Y-10909112D01*
X45936152Y-10924000D01*
X45936148Y-10924000D01*
X45714463Y-10968096D01*
X45463071Y-11136071D01*
X45420669Y-11199530D01*
X45235528Y-11384671D01*
X45172072Y-11427071D01*
X45129672Y-11490527D01*
X45129671Y-11490528D01*
X45004097Y-11678463D01*
X44945112Y-11975000D01*
X44960001Y-12049852D01*
X44960001Y-12769820D01*
X44871293Y-12710547D01*
X44642317Y-12665001D01*
X44642313Y-12665001D01*
X44565001Y-12649623D01*
X44487689Y-12665001D01*
X43490000Y-12665001D01*
X43490000Y-12494126D01*
X43441844Y-12377867D01*
X43549431Y-12270280D01*
X43707000Y-11889874D01*
X43707000Y-11478126D01*
X43549431Y-11097720D01*
X43258280Y-10806569D01*
X42877874Y-10649000D01*
X42711802Y-10649000D01*
X41278331Y-9215530D01*
X41235929Y-9152071D01*
X40984537Y-8984096D01*
X40762852Y-8940000D01*
X40762847Y-8940000D01*
X40688000Y-8925112D01*
X40613153Y-8940000D01*
X37404982Y-8940000D01*
X37272809Y-8742191D01*
X37211680Y-8701345D01*
X37353327Y-8559699D01*
X37450000Y-8326310D01*
X37450000Y-7985750D01*
X37291250Y-7827000D01*
X35942000Y-7827000D01*
X35942000Y-7847000D01*
X35688000Y-7847000D01*
X35688000Y-7827000D01*
X34338750Y-7827000D01*
X34180000Y-7985750D01*
X34180000Y-8326310D01*
X34276673Y-8559699D01*
X34418320Y-8701345D01*
X34357191Y-8742191D01*
X34216843Y-8952235D01*
X34167560Y-9200000D01*
X34167560Y-10200000D01*
X34216843Y-10447765D01*
X34357191Y-10657809D01*
X34420334Y-10700000D01*
X34357191Y-10742191D01*
X34216843Y-10952235D01*
X34167560Y-11200000D01*
X34167560Y-11875849D01*
X34114280Y-11822569D01*
X33733874Y-11665000D01*
X33322126Y-11665000D01*
X33014000Y-11792630D01*
X33014000Y-11593750D01*
X32855250Y-11435000D01*
X32131000Y-11435000D01*
X32131000Y-11455000D01*
X31877000Y-11455000D01*
X31877000Y-11435000D01*
X31152750Y-11435000D01*
X30994000Y-11593750D01*
X30994000Y-12034309D01*
X31090673Y-12267698D01*
X31091873Y-12268898D01*
X31030843Y-12360235D01*
X30981560Y-12608000D01*
X30981560Y-13808000D01*
X31030843Y-14055765D01*
X31144745Y-14226230D01*
X31090673Y-14280302D01*
X30994000Y-14513691D01*
X30994000Y-14954250D01*
X31152750Y-15113000D01*
X31877000Y-15113000D01*
X31877000Y-15093000D01*
X32131000Y-15093000D01*
X32131000Y-15113000D01*
X32151000Y-15113000D01*
X32151000Y-15367000D01*
X32131000Y-15367000D01*
X32131000Y-15387000D01*
X31877000Y-15387000D01*
X31877000Y-15367000D01*
X31152750Y-15367000D01*
X30994000Y-15525750D01*
X30994000Y-15966309D01*
X31090673Y-16199698D01*
X31091873Y-16200898D01*
X31030843Y-16292235D01*
X30981560Y-16540000D01*
X30981560Y-17740000D01*
X31030843Y-17987765D01*
X31131001Y-18137660D01*
X31131000Y-18625289D01*
X31038569Y-18717720D01*
X30881000Y-19098126D01*
X30881000Y-19509874D01*
X30947326Y-19670000D01*
X29366801Y-19670000D01*
X30456473Y-18580329D01*
X30519929Y-18537929D01*
X30687904Y-18286537D01*
X30717313Y-18138687D01*
X30818157Y-17987765D01*
X30867440Y-17740000D01*
X30867440Y-16540000D01*
X30818157Y-16292235D01*
X30757127Y-16200898D01*
X30758327Y-16199698D01*
X30855000Y-15966309D01*
X30855000Y-15525750D01*
X30696250Y-15367000D01*
X29972000Y-15367000D01*
X29972000Y-15387000D01*
X29718000Y-15387000D01*
X29718000Y-15367000D01*
X29698000Y-15367000D01*
X29698000Y-15113000D01*
X29718000Y-15113000D01*
X29718000Y-15093000D01*
X29972000Y-15093000D01*
X29972000Y-15113000D01*
X30696250Y-15113000D01*
X30855000Y-14954250D01*
X30855000Y-14513691D01*
X30758327Y-14280302D01*
X30753122Y-14275097D01*
X30818157Y-14177765D01*
X30867440Y-13930000D01*
X30867440Y-12730000D01*
X30818157Y-12482235D01*
X30757127Y-12390898D01*
X30758327Y-12389698D01*
X30855000Y-12156309D01*
X30855000Y-11715750D01*
X30696250Y-11557000D01*
X29972000Y-11557000D01*
X29972000Y-11577000D01*
X29718000Y-11577000D01*
X29718000Y-11557000D01*
X28993750Y-11557000D01*
X28835000Y-11715750D01*
X28835000Y-12156309D01*
X28931673Y-12389698D01*
X28932873Y-12390898D01*
X28871843Y-12482235D01*
X28843735Y-12623546D01*
X28789071Y-12660071D01*
X28746672Y-12723526D01*
X28090528Y-13379671D01*
X28027072Y-13422071D01*
X27984672Y-13485527D01*
X27984671Y-13485528D01*
X27965000Y-13514968D01*
X27965000Y-12699171D01*
X27381156Y-11289647D01*
X26795200Y-10703691D01*
X28835000Y-10703691D01*
X28835000Y-11144250D01*
X28993750Y-11303000D01*
X29718000Y-11303000D01*
X29718000Y-10353750D01*
X29972000Y-10353750D01*
X29972000Y-11303000D01*
X30696250Y-11303000D01*
X30855000Y-11144250D01*
X30855000Y-10703691D01*
X30804466Y-10581691D01*
X30994000Y-10581691D01*
X30994000Y-11022250D01*
X31152750Y-11181000D01*
X31877000Y-11181000D01*
X31877000Y-10231750D01*
X32131000Y-10231750D01*
X32131000Y-11181000D01*
X32855250Y-11181000D01*
X33014000Y-11022250D01*
X33014000Y-10581691D01*
X32917327Y-10348302D01*
X32738699Y-10169673D01*
X32505310Y-10073000D01*
X32289750Y-10073000D01*
X32131000Y-10231750D01*
X31877000Y-10231750D01*
X31718250Y-10073000D01*
X31502690Y-10073000D01*
X31269301Y-10169673D01*
X31090673Y-10348302D01*
X30994000Y-10581691D01*
X30804466Y-10581691D01*
X30758327Y-10470302D01*
X30579699Y-10291673D01*
X30346310Y-10195000D01*
X30130750Y-10195000D01*
X29972000Y-10353750D01*
X29718000Y-10353750D01*
X29559250Y-10195000D01*
X29343690Y-10195000D01*
X29110301Y-10291673D01*
X28931673Y-10470302D01*
X28835000Y-10703691D01*
X26795200Y-10703691D01*
X26302353Y-10210844D01*
X25812295Y-10007855D01*
X26426453Y-9987836D01*
X26959359Y-9767099D01*
X27070263Y-9489868D01*
X30079737Y-9489868D01*
X30190641Y-9767099D01*
X30836593Y-10010323D01*
X31526453Y-9987836D01*
X32059359Y-9767099D01*
X32170263Y-9489868D01*
X31125000Y-8444605D01*
X30079737Y-9489868D01*
X27070263Y-9489868D01*
X26025000Y-8444605D01*
X24979737Y-9489868D01*
X25062752Y-9697385D01*
X24892829Y-9627000D01*
X23367171Y-9627000D01*
X21957647Y-10210844D01*
X21055000Y-11113491D01*
X21055000Y-7976593D01*
X24279677Y-7976593D01*
X24302164Y-8666453D01*
X24522901Y-9199359D01*
X24800132Y-9310263D01*
X25845395Y-8265000D01*
X26204605Y-8265000D01*
X27249868Y-9310263D01*
X27527099Y-9199359D01*
X27770323Y-8553407D01*
X27751521Y-7976593D01*
X29379677Y-7976593D01*
X29402164Y-8666453D01*
X29622901Y-9199359D01*
X29900132Y-9310263D01*
X30945395Y-8265000D01*
X31304605Y-8265000D01*
X32349868Y-9310263D01*
X32627099Y-9199359D01*
X32870323Y-8553407D01*
X32847836Y-7863547D01*
X32627099Y-7330641D01*
X32349868Y-7219737D01*
X31304605Y-8265000D01*
X30945395Y-8265000D01*
X29900132Y-7219737D01*
X29622901Y-7330641D01*
X29379677Y-7976593D01*
X27751521Y-7976593D01*
X27747836Y-7863547D01*
X27527099Y-7330641D01*
X27249868Y-7219737D01*
X26204605Y-8265000D01*
X25845395Y-8265000D01*
X24800132Y-7219737D01*
X24522901Y-7330641D01*
X24279677Y-7976593D01*
X21055000Y-7976593D01*
X21055000Y-7040132D01*
X24979737Y-7040132D01*
X26025000Y-8085395D01*
X27070263Y-7040132D01*
X26959359Y-6762901D01*
X26313407Y-6519677D01*
X25623547Y-6542164D01*
X25090641Y-6762901D01*
X24979737Y-7040132D01*
X21055000Y-7040132D01*
X21055000Y-5389778D01*
X26940000Y-5389778D01*
X26940000Y-6040222D01*
X27188914Y-6641153D01*
X27648847Y-7101086D01*
X28249778Y-7350000D01*
X28900222Y-7350000D01*
X29501153Y-7101086D01*
X29717239Y-6885000D01*
X30141796Y-6885000D01*
X30079737Y-7040132D01*
X31125000Y-8085395D01*
X32170263Y-7040132D01*
X32108204Y-6885000D01*
X34258158Y-6885000D01*
X34180000Y-7073690D01*
X34180000Y-7414250D01*
X34338750Y-7573000D01*
X35688000Y-7573000D01*
X35688000Y-7553000D01*
X35942000Y-7553000D01*
X35942000Y-7573000D01*
X37291250Y-7573000D01*
X37450000Y-7414250D01*
X37450000Y-7073690D01*
X37353327Y-6840301D01*
X37211680Y-6698655D01*
X37272809Y-6657809D01*
X37413157Y-6447765D01*
X37462440Y-6200000D01*
X37462440Y-5200000D01*
X37437316Y-5073690D01*
X50180000Y-5073690D01*
X50180000Y-5414250D01*
X50338750Y-5573000D01*
X51688000Y-5573000D01*
X51688000Y-4723750D01*
X51529250Y-4565000D01*
X50688691Y-4565000D01*
X50455302Y-4661673D01*
X50276673Y-4840301D01*
X50180000Y-5073690D01*
X37437316Y-5073690D01*
X37413157Y-4952235D01*
X37272809Y-4742191D01*
X37062765Y-4601843D01*
X36815000Y-4552560D01*
X36120536Y-4552560D01*
X35931710Y-4515000D01*
X32120205Y-4515000D01*
X32170263Y-4389868D01*
X31125000Y-3344605D01*
X30079737Y-4389868D01*
X30129795Y-4515000D01*
X29687239Y-4515000D01*
X29501153Y-4328914D01*
X28900222Y-4080000D01*
X28249778Y-4080000D01*
X27648847Y-4328914D01*
X27188914Y-4788847D01*
X26940000Y-5389778D01*
X21055000Y-5389778D01*
X21055000Y-4389868D01*
X24979737Y-4389868D01*
X25090641Y-4667099D01*
X25736593Y-4910323D01*
X26426453Y-4887836D01*
X26959359Y-4667099D01*
X27070263Y-4389868D01*
X26025000Y-3344605D01*
X24979737Y-4389868D01*
X21055000Y-4389868D01*
X21055000Y-2876593D01*
X24279677Y-2876593D01*
X24302164Y-3566453D01*
X24522901Y-4099359D01*
X24800132Y-4210263D01*
X25845395Y-3165000D01*
X26204605Y-3165000D01*
X27249868Y-4210263D01*
X27527099Y-4099359D01*
X27770323Y-3453407D01*
X27751521Y-2876593D01*
X29379677Y-2876593D01*
X29402164Y-3566453D01*
X29622901Y-4099359D01*
X29900132Y-4210263D01*
X30945395Y-3165000D01*
X31304605Y-3165000D01*
X32349868Y-4210263D01*
X32627099Y-4099359D01*
X32870323Y-3453407D01*
X32847836Y-2763547D01*
X32627099Y-2230641D01*
X32349868Y-2119737D01*
X31304605Y-3165000D01*
X30945395Y-3165000D01*
X29900132Y-2119737D01*
X29622901Y-2230641D01*
X29379677Y-2876593D01*
X27751521Y-2876593D01*
X27747836Y-2763547D01*
X27527099Y-2230641D01*
X27249868Y-2119737D01*
X26204605Y-3165000D01*
X25845395Y-3165000D01*
X24800132Y-2119737D01*
X24522901Y-2230641D01*
X24279677Y-2876593D01*
X21055000Y-2876593D01*
X21055000Y-1751000D01*
X25055398Y-1751000D01*
X24979737Y-1940132D01*
X24979737Y-1940132D01*
G37*
X24979737Y-1940132D02*
X26025000Y-2985395D01*
X27070263Y-1940132D01*
X26994602Y-1751000D01*
X30155398Y-1751000D01*
X30079737Y-1940132D01*
X31125000Y-2985395D01*
X32170263Y-1940132D01*
X32094602Y-1751000D01*
X60479000Y-1751000D01*
X60479000Y-4365579D01*
X60401156Y-4177647D01*
X59322353Y-3098844D01*
X57912829Y-2515000D01*
X56387171Y-2515000D01*
X54977647Y-3098844D01*
X53898844Y-4177647D01*
X53450000Y-5261252D01*
X53450000Y-5073690D01*
X53353327Y-4840301D01*
X53174698Y-4661673D01*
X52941309Y-4565000D01*
X52100750Y-4565000D01*
X51942000Y-4723750D01*
X51942000Y-5573000D01*
X51962000Y-5573000D01*
X51962000Y-5827000D01*
X51942000Y-5827000D01*
X51942000Y-5847000D01*
X51688000Y-5847000D01*
X51688000Y-5827000D01*
X50338750Y-5827000D01*
X50180000Y-5985750D01*
X50180000Y-6326310D01*
X50276673Y-6559699D01*
X50418320Y-6701345D01*
X50357191Y-6742191D01*
X50216843Y-6952235D01*
X50201622Y-7028758D01*
X50017071Y-7152071D01*
X49974670Y-7215528D01*
X49807527Y-7382672D01*
X49744072Y-7425071D01*
X49701672Y-7488527D01*
X49701671Y-7488528D01*
X49576097Y-7676463D01*
X49517112Y-7973000D01*
X49532001Y-8047852D01*
X49532000Y-9964289D01*
X49414569Y-10081720D01*
X49257000Y-10462126D01*
X49257000Y-10873874D01*
X49277763Y-10924000D01*
X46085846Y-10924000D01*
X46010999Y-10909112D01*
X45936152Y-10924000D01*
X45936148Y-10924000D01*
X45714463Y-10968096D01*
X45463071Y-11136071D01*
X45420669Y-11199530D01*
X45235528Y-11384671D01*
X45172072Y-11427071D01*
X45129672Y-11490527D01*
X45129671Y-11490528D01*
X45004097Y-11678463D01*
X44945112Y-11975000D01*
X44960001Y-12049852D01*
X44960001Y-12769820D01*
X44871293Y-12710547D01*
X44642317Y-12665001D01*
X44642313Y-12665001D01*
X44565001Y-12649623D01*
X44487689Y-12665001D01*
X43490000Y-12665001D01*
X43490000Y-12494126D01*
X43441844Y-12377867D01*
X43549431Y-12270280D01*
X43707000Y-11889874D01*
X43707000Y-11478126D01*
X43549431Y-11097720D01*
X43258280Y-10806569D01*
X42877874Y-10649000D01*
X42711802Y-10649000D01*
X41278331Y-9215530D01*
X41235929Y-9152071D01*
X40984537Y-8984096D01*
X40762852Y-8940000D01*
X40762847Y-8940000D01*
X40688000Y-8925112D01*
X40613153Y-8940000D01*
X37404982Y-8940000D01*
X37272809Y-8742191D01*
X37211680Y-8701345D01*
X37353327Y-8559699D01*
X37450000Y-8326310D01*
X37450000Y-7985750D01*
X37291250Y-7827000D01*
X35942000Y-7827000D01*
X35942000Y-7847000D01*
X35688000Y-7847000D01*
X35688000Y-7827000D01*
X34338750Y-7827000D01*
X34180000Y-7985750D01*
X34180000Y-8326310D01*
X34276673Y-8559699D01*
X34418320Y-8701345D01*
X34357191Y-8742191D01*
X34216843Y-8952235D01*
X34167560Y-9200000D01*
X34167560Y-10200000D01*
X34216843Y-10447765D01*
X34357191Y-10657809D01*
X34420334Y-10700000D01*
X34357191Y-10742191D01*
X34216843Y-10952235D01*
X34167560Y-11200000D01*
X34167560Y-11875849D01*
X34114280Y-11822569D01*
X33733874Y-11665000D01*
X33322126Y-11665000D01*
X33014000Y-11792630D01*
X33014000Y-11593750D01*
X32855250Y-11435000D01*
X32131000Y-11435000D01*
X32131000Y-11455000D01*
X31877000Y-11455000D01*
X31877000Y-11435000D01*
X31152750Y-11435000D01*
X30994000Y-11593750D01*
X30994000Y-12034309D01*
X31090673Y-12267698D01*
X31091873Y-12268898D01*
X31030843Y-12360235D01*
X30981560Y-12608000D01*
X30981560Y-13808000D01*
X31030843Y-14055765D01*
X31144745Y-14226230D01*
X31090673Y-14280302D01*
X30994000Y-14513691D01*
X30994000Y-14954250D01*
X31152750Y-15113000D01*
X31877000Y-15113000D01*
X31877000Y-15093000D01*
X32131000Y-15093000D01*
X32131000Y-15113000D01*
X32151000Y-15113000D01*
X32151000Y-15367000D01*
X32131000Y-15367000D01*
X32131000Y-15387000D01*
X31877000Y-15387000D01*
X31877000Y-15367000D01*
X31152750Y-15367000D01*
X30994000Y-15525750D01*
X30994000Y-15966309D01*
X31090673Y-16199698D01*
X31091873Y-16200898D01*
X31030843Y-16292235D01*
X30981560Y-16540000D01*
X30981560Y-17740000D01*
X31030843Y-17987765D01*
X31131001Y-18137660D01*
X31131000Y-18625289D01*
X31038569Y-18717720D01*
X30881000Y-19098126D01*
X30881000Y-19509874D01*
X30947326Y-19670000D01*
X29366801Y-19670000D01*
X30456473Y-18580329D01*
X30519929Y-18537929D01*
X30687904Y-18286537D01*
X30717313Y-18138687D01*
X30818157Y-17987765D01*
X30867440Y-17740000D01*
X30867440Y-16540000D01*
X30818157Y-16292235D01*
X30757127Y-16200898D01*
X30758327Y-16199698D01*
X30855000Y-15966309D01*
X30855000Y-15525750D01*
X30696250Y-15367000D01*
X29972000Y-15367000D01*
X29972000Y-15387000D01*
X29718000Y-15387000D01*
X29718000Y-15367000D01*
X29698000Y-15367000D01*
X29698000Y-15113000D01*
X29718000Y-15113000D01*
X29718000Y-15093000D01*
X29972000Y-15093000D01*
X29972000Y-15113000D01*
X30696250Y-15113000D01*
X30855000Y-14954250D01*
X30855000Y-14513691D01*
X30758327Y-14280302D01*
X30753122Y-14275097D01*
X30818157Y-14177765D01*
X30867440Y-13930000D01*
X30867440Y-12730000D01*
X30818157Y-12482235D01*
X30757127Y-12390898D01*
X30758327Y-12389698D01*
X30855000Y-12156309D01*
X30855000Y-11715750D01*
X30696250Y-11557000D01*
X29972000Y-11557000D01*
X29972000Y-11577000D01*
X29718000Y-11577000D01*
X29718000Y-11557000D01*
X28993750Y-11557000D01*
X28835000Y-11715750D01*
X28835000Y-12156309D01*
X28931673Y-12389698D01*
X28932873Y-12390898D01*
X28871843Y-12482235D01*
X28843735Y-12623546D01*
X28789071Y-12660071D01*
X28746672Y-12723526D01*
X28090528Y-13379671D01*
X28027072Y-13422071D01*
X27984672Y-13485527D01*
X27984671Y-13485528D01*
X27965000Y-13514968D01*
X27965000Y-12699171D01*
X27381156Y-11289647D01*
X26795200Y-10703691D01*
X28835000Y-10703691D01*
X28835000Y-11144250D01*
X28993750Y-11303000D01*
X29718000Y-11303000D01*
X29718000Y-10353750D01*
X29972000Y-10353750D01*
X29972000Y-11303000D01*
X30696250Y-11303000D01*
X30855000Y-11144250D01*
X30855000Y-10703691D01*
X30804466Y-10581691D01*
X30994000Y-10581691D01*
X30994000Y-11022250D01*
X31152750Y-11181000D01*
X31877000Y-11181000D01*
X31877000Y-10231750D01*
X32131000Y-10231750D01*
X32131000Y-11181000D01*
X32855250Y-11181000D01*
X33014000Y-11022250D01*
X33014000Y-10581691D01*
X32917327Y-10348302D01*
X32738699Y-10169673D01*
X32505310Y-10073000D01*
X32289750Y-10073000D01*
X32131000Y-10231750D01*
X31877000Y-10231750D01*
X31718250Y-10073000D01*
X31502690Y-10073000D01*
X31269301Y-10169673D01*
X31090673Y-10348302D01*
X30994000Y-10581691D01*
X30804466Y-10581691D01*
X30758327Y-10470302D01*
X30579699Y-10291673D01*
X30346310Y-10195000D01*
X30130750Y-10195000D01*
X29972000Y-10353750D01*
X29718000Y-10353750D01*
X29559250Y-10195000D01*
X29343690Y-10195000D01*
X29110301Y-10291673D01*
X28931673Y-10470302D01*
X28835000Y-10703691D01*
X26795200Y-10703691D01*
X26302353Y-10210844D01*
X25812295Y-10007855D01*
X26426453Y-9987836D01*
X26959359Y-9767099D01*
X27070263Y-9489868D01*
X30079737Y-9489868D01*
X30190641Y-9767099D01*
X30836593Y-10010323D01*
X31526453Y-9987836D01*
X32059359Y-9767099D01*
X32170263Y-9489868D01*
X31125000Y-8444605D01*
X30079737Y-9489868D01*
X27070263Y-9489868D01*
X26025000Y-8444605D01*
X24979737Y-9489868D01*
X25062752Y-9697385D01*
X24892829Y-9627000D01*
X23367171Y-9627000D01*
X21957647Y-10210844D01*
X21055000Y-11113491D01*
X21055000Y-7976593D01*
X24279677Y-7976593D01*
X24302164Y-8666453D01*
X24522901Y-9199359D01*
X24800132Y-9310263D01*
X25845395Y-8265000D01*
X26204605Y-8265000D01*
X27249868Y-9310263D01*
X27527099Y-9199359D01*
X27770323Y-8553407D01*
X27751521Y-7976593D01*
X29379677Y-7976593D01*
X29402164Y-8666453D01*
X29622901Y-9199359D01*
X29900132Y-9310263D01*
X30945395Y-8265000D01*
X31304605Y-8265000D01*
X32349868Y-9310263D01*
X32627099Y-9199359D01*
X32870323Y-8553407D01*
X32847836Y-7863547D01*
X32627099Y-7330641D01*
X32349868Y-7219737D01*
X31304605Y-8265000D01*
X30945395Y-8265000D01*
X29900132Y-7219737D01*
X29622901Y-7330641D01*
X29379677Y-7976593D01*
X27751521Y-7976593D01*
X27747836Y-7863547D01*
X27527099Y-7330641D01*
X27249868Y-7219737D01*
X26204605Y-8265000D01*
X25845395Y-8265000D01*
X24800132Y-7219737D01*
X24522901Y-7330641D01*
X24279677Y-7976593D01*
X21055000Y-7976593D01*
X21055000Y-7040132D01*
X24979737Y-7040132D01*
X26025000Y-8085395D01*
X27070263Y-7040132D01*
X26959359Y-6762901D01*
X26313407Y-6519677D01*
X25623547Y-6542164D01*
X25090641Y-6762901D01*
X24979737Y-7040132D01*
X21055000Y-7040132D01*
X21055000Y-5389778D01*
X26940000Y-5389778D01*
X26940000Y-6040222D01*
X27188914Y-6641153D01*
X27648847Y-7101086D01*
X28249778Y-7350000D01*
X28900222Y-7350000D01*
X29501153Y-7101086D01*
X29717239Y-6885000D01*
X30141796Y-6885000D01*
X30079737Y-7040132D01*
X31125000Y-8085395D01*
X32170263Y-7040132D01*
X32108204Y-6885000D01*
X34258158Y-6885000D01*
X34180000Y-7073690D01*
X34180000Y-7414250D01*
X34338750Y-7573000D01*
X35688000Y-7573000D01*
X35688000Y-7553000D01*
X35942000Y-7553000D01*
X35942000Y-7573000D01*
X37291250Y-7573000D01*
X37450000Y-7414250D01*
X37450000Y-7073690D01*
X37353327Y-6840301D01*
X37211680Y-6698655D01*
X37272809Y-6657809D01*
X37413157Y-6447765D01*
X37462440Y-6200000D01*
X37462440Y-5200000D01*
X37437316Y-5073690D01*
X50180000Y-5073690D01*
X50180000Y-5414250D01*
X50338750Y-5573000D01*
X51688000Y-5573000D01*
X51688000Y-4723750D01*
X51529250Y-4565000D01*
X50688691Y-4565000D01*
X50455302Y-4661673D01*
X50276673Y-4840301D01*
X50180000Y-5073690D01*
X37437316Y-5073690D01*
X37413157Y-4952235D01*
X37272809Y-4742191D01*
X37062765Y-4601843D01*
X36815000Y-4552560D01*
X36120536Y-4552560D01*
X35931710Y-4515000D01*
X32120205Y-4515000D01*
X32170263Y-4389868D01*
X31125000Y-3344605D01*
X30079737Y-4389868D01*
X30129795Y-4515000D01*
X29687239Y-4515000D01*
X29501153Y-4328914D01*
X28900222Y-4080000D01*
X28249778Y-4080000D01*
X27648847Y-4328914D01*
X27188914Y-4788847D01*
X26940000Y-5389778D01*
X21055000Y-5389778D01*
X21055000Y-4389868D01*
X24979737Y-4389868D01*
X25090641Y-4667099D01*
X25736593Y-4910323D01*
X26426453Y-4887836D01*
X26959359Y-4667099D01*
X27070263Y-4389868D01*
X26025000Y-3344605D01*
X24979737Y-4389868D01*
X21055000Y-4389868D01*
X21055000Y-2876593D01*
X24279677Y-2876593D01*
X24302164Y-3566453D01*
X24522901Y-4099359D01*
X24800132Y-4210263D01*
X25845395Y-3165000D01*
X26204605Y-3165000D01*
X27249868Y-4210263D01*
X27527099Y-4099359D01*
X27770323Y-3453407D01*
X27751521Y-2876593D01*
X29379677Y-2876593D01*
X29402164Y-3566453D01*
X29622901Y-4099359D01*
X29900132Y-4210263D01*
X30945395Y-3165000D01*
X31304605Y-3165000D01*
X32349868Y-4210263D01*
X32627099Y-4099359D01*
X32870323Y-3453407D01*
X32847836Y-2763547D01*
X32627099Y-2230641D01*
X32349868Y-2119737D01*
X31304605Y-3165000D01*
X30945395Y-3165000D01*
X29900132Y-2119737D01*
X29622901Y-2230641D01*
X29379677Y-2876593D01*
X27751521Y-2876593D01*
X27747836Y-2763547D01*
X27527099Y-2230641D01*
X27249868Y-2119737D01*
X26204605Y-3165000D01*
X25845395Y-3165000D01*
X24800132Y-2119737D01*
X24522901Y-2230641D01*
X24279677Y-2876593D01*
X21055000Y-2876593D01*
X21055000Y-1751000D01*
X25055398Y-1751000D01*
X24979737Y-1940132D01*
G04 #@! TD*
M02*
