G04 #@! TF.GenerationSoftware,KiCad,Pcbnew,(5.0.0)*
G04 #@! TF.CreationDate,2019-04-04T16:01:48-04:00*
G04 #@! TF.ProjectId,Radio Board,526164696F20426F6172642E6B696361,rev?*
G04 #@! TF.SameCoordinates,Original*
G04 #@! TF.FileFunction,Copper,L2,Bot,Signal*
G04 #@! TF.FilePolarity,Positive*
%FSLAX46Y46*%
G04 Gerber Fmt 4.6, Leading zero omitted, Abs format (unit mm)*
G04 Created by KiCad (PCBNEW (5.0.0)) date 04/04/19 16:01:48*
%MOMM*%
%LPD*%
G01*
G04 APERTURE LIST*
G04 #@! TA.AperFunction,ComponentPad*
%ADD10C,6.400000*%
G04 #@! TD*
G04 #@! TA.AperFunction,ComponentPad*
%ADD11O,1.700000X1.700000*%
G04 #@! TD*
G04 #@! TA.AperFunction,ComponentPad*
%ADD12R,1.700000X1.700000*%
G04 #@! TD*
G04 #@! TA.AperFunction,ViaPad*
%ADD13C,0.800000*%
G04 #@! TD*
G04 #@! TA.AperFunction,Conductor*
%ADD14C,0.250000*%
G04 #@! TD*
G04 #@! TA.AperFunction,Conductor*
%ADD15C,0.254000*%
G04 #@! TD*
G04 APERTURE END LIST*
D10*
G04 #@! TO.P,REF\002A\002A,1*
G04 #@! TO.N,N/C*
X5000000Y-77000000D03*
G04 #@! TD*
G04 #@! TO.P,REF\002A\002A,1*
G04 #@! TO.N,N/C*
X5000000Y-5000000D03*
G04 #@! TD*
G04 #@! TO.P,REF\002A\002A,1*
G04 #@! TO.N,N/C*
X77000000Y-77000000D03*
G04 #@! TD*
G04 #@! TO.P,REF\002A\002A,1*
G04 #@! TO.N,N/C*
X77000000Y-5000000D03*
G04 #@! TD*
D11*
G04 #@! TO.P,J1,20*
G04 #@! TO.N,Net-(J1-Pad20)*
X52430000Y-3000000D03*
G04 #@! TO.P,J1,19*
G04 #@! TO.N,+3V3*
X52430000Y-5540000D03*
G04 #@! TO.P,J1,18*
G04 #@! TO.N,Net-(J1-Pad18)*
X49890000Y-3000000D03*
G04 #@! TO.P,J1,17*
G04 #@! TO.N,Net-(J1-Pad17)*
X49890000Y-5540000D03*
G04 #@! TO.P,J1,16*
G04 #@! TO.N,Net-(J1-Pad16)*
X47350000Y-3000000D03*
G04 #@! TO.P,J1,15*
G04 #@! TO.N,Net-(J1-Pad15)*
X47350000Y-5540000D03*
G04 #@! TO.P,J1,14*
G04 #@! TO.N,Net-(J1-Pad14)*
X44810000Y-3000000D03*
G04 #@! TO.P,J1,13*
G04 #@! TO.N,Net-(J1-Pad13)*
X44810000Y-5540000D03*
G04 #@! TO.P,J1,12*
G04 #@! TO.N,Net-(J1-Pad12)*
X42270000Y-3000000D03*
G04 #@! TO.P,J1,11*
G04 #@! TO.N,Net-(J1-Pad11)*
X42270000Y-5540000D03*
G04 #@! TO.P,J1,10*
G04 #@! TO.N,/~CS2*
X39730000Y-3000000D03*
G04 #@! TO.P,J1,9*
G04 #@! TO.N,/~CS1*
X39730000Y-5540000D03*
G04 #@! TO.P,J1,8*
G04 #@! TO.N,/SCK*
X37190000Y-3000000D03*
G04 #@! TO.P,J1,7*
G04 #@! TO.N,/MOSI*
X37190000Y-5540000D03*
G04 #@! TO.P,J1,6*
G04 #@! TO.N,/MISO*
X34650000Y-3000000D03*
G04 #@! TO.P,J1,5*
G04 #@! TO.N,/INT1*
X34650000Y-5540000D03*
G04 #@! TO.P,J1,4*
G04 #@! TO.N,/INT2*
X32110000Y-3000000D03*
G04 #@! TO.P,J1,3*
G04 #@! TO.N,Net-(J1-Pad3)*
X32110000Y-5540000D03*
G04 #@! TO.P,J1,2*
G04 #@! TO.N,Net-(J1-Pad2)*
X29570000Y-3000000D03*
D12*
G04 #@! TO.P,J1,1*
G04 #@! TO.N,GND*
X29570000Y-5540000D03*
G04 #@! TD*
D13*
G04 #@! TO.N,GND*
X58420000Y-80010000D03*
X55880000Y-80010000D03*
X53340000Y-80010000D03*
X50800000Y-80010000D03*
X48260000Y-80010000D03*
X45720000Y-80010000D03*
X43180000Y-80010000D03*
X40640000Y-80010000D03*
X38100000Y-80010000D03*
X35560000Y-80010000D03*
X33020000Y-80010000D03*
X30480000Y-80010000D03*
X27940000Y-80010000D03*
X25400000Y-80010000D03*
X22860000Y-80010000D03*
X20320000Y-80010000D03*
X17780000Y-80010000D03*
X15240000Y-80010000D03*
X12700000Y-80010000D03*
X10160000Y-80010000D03*
X15240000Y-40132000D03*
X13970000Y-40132000D03*
X13970000Y-42926000D03*
X15240000Y-42926000D03*
X37846000Y-68834000D03*
X39116000Y-68834000D03*
X39116000Y-71374000D03*
X37846000Y-71374000D03*
X10160000Y-2540000D03*
X12700000Y-2540000D03*
X15240000Y-2540000D03*
X17780000Y-2540000D03*
X20320000Y-2540000D03*
X22860000Y-2540000D03*
X55880000Y-2540000D03*
X58420000Y-2540000D03*
X58420000Y-5080000D03*
X58420000Y-7620000D03*
X58420000Y-10160000D03*
X58420000Y-12700000D03*
X58420000Y-15240000D03*
X58420000Y-17780000D03*
X58420000Y-20320000D03*
X58420000Y-22860000D03*
X58420000Y-25400000D03*
X58420000Y-27940000D03*
X58420000Y-30480000D03*
X58420000Y-33020000D03*
X58420000Y-35560000D03*
X58420000Y-38100000D03*
X58420000Y-40640000D03*
X58420000Y-43180000D03*
X58420000Y-45720000D03*
X58420000Y-48260000D03*
X58420000Y-50800000D03*
X58420000Y-53340000D03*
X58420000Y-55880000D03*
X58420000Y-58420000D03*
X58420000Y-60960000D03*
X58420000Y-63500000D03*
X58420000Y-66040000D03*
X58420000Y-68580000D03*
X58420000Y-71120000D03*
X58420000Y-73660000D03*
X58420000Y-76200000D03*
X58420000Y-80010000D03*
X2540000Y-73660000D03*
X2540000Y-71120000D03*
X2540000Y-68580000D03*
X2540000Y-66040000D03*
X2540000Y-63500000D03*
X2540000Y-60960000D03*
X2540000Y-58420000D03*
X2540000Y-55880000D03*
X2540000Y-53340000D03*
X2540000Y-50800000D03*
X2540000Y-48260000D03*
X2540000Y-45720000D03*
X2540000Y-43180000D03*
X2540000Y-40640000D03*
X2540000Y-38100000D03*
X2540000Y-35560000D03*
X2540000Y-33020000D03*
X2540000Y-30480000D03*
X2540000Y-27940000D03*
X2540000Y-25400000D03*
X2540000Y-22860000D03*
X2540000Y-20320000D03*
X2540000Y-17780000D03*
X2540000Y-15240000D03*
X2540000Y-12700000D03*
X2540000Y-10160000D03*
X28448000Y-46228000D03*
X39624000Y-64262000D03*
X27178000Y-62992000D03*
X28194000Y-62992000D03*
X26162000Y-62992000D03*
X26670000Y-61976000D03*
X27686000Y-61976000D03*
X26670000Y-64008000D03*
X27686000Y-64008000D03*
X47244000Y-39624000D03*
X46228000Y-39624000D03*
X47244000Y-37592000D03*
X45720000Y-38608000D03*
X46736000Y-38608000D03*
X47752000Y-38608000D03*
X46228000Y-37592000D03*
X23368000Y-35052000D03*
X22352000Y-35052000D03*
X22860000Y-34036000D03*
X23876000Y-34036000D03*
X21844000Y-34036000D03*
X22352000Y-33020000D03*
X23368000Y-33020000D03*
X45974000Y-13462000D03*
X46990000Y-13462000D03*
X47498000Y-14478000D03*
X46482000Y-14478000D03*
X46482000Y-12446000D03*
X48006000Y-13462000D03*
X47498000Y-12446000D03*
X16256000Y-8128000D03*
X15748000Y-9144000D03*
X15240000Y-8128000D03*
X14732000Y-9144000D03*
X16256000Y-10160000D03*
X15240000Y-10160000D03*
X16764000Y-9144000D03*
X48387000Y-62865000D03*
X47371000Y-62865000D03*
X47879000Y-61849000D03*
X48895000Y-61849000D03*
X46863000Y-61849000D03*
X47371000Y-60833000D03*
X48387000Y-60833000D03*
X29210000Y-19812000D03*
X28194000Y-19812000D03*
X28702000Y-18796000D03*
X29718000Y-18796000D03*
X27686000Y-18796000D03*
X28194000Y-17780000D03*
X29210000Y-17780000D03*
X45720000Y-27051000D03*
X46736000Y-27051000D03*
X46228000Y-28067000D03*
X46228000Y-26035000D03*
X47752000Y-27051000D03*
X47244000Y-28067000D03*
X47244000Y-26035000D03*
G04 #@! TO.N,+3V3*
X38862000Y-10668000D03*
X16387653Y-49493000D03*
G04 #@! TO.N,/INT2*
X34303847Y-44934847D03*
G04 #@! TO.N,/INT1*
X31496000Y-46902000D03*
G04 #@! TO.N,/~CS2*
X16256000Y-50546000D03*
X37809000Y-14224000D03*
G04 #@! TO.N,/SCK*
X17979044Y-62038485D03*
X35306000Y-32258000D03*
X35306000Y-9652000D03*
G04 #@! TO.N,/MOSI*
X17979044Y-60038485D03*
X36068000Y-31496000D03*
X35851000Y-8005653D03*
G04 #@! TO.N,/MISO*
X17979044Y-58038485D03*
X36830000Y-30480000D03*
G04 #@! TD*
D14*
G04 #@! TO.N,+3V3*
X38862000Y-10668000D02*
X39261999Y-10268001D01*
X39261999Y-10268001D02*
X51199999Y-10268001D01*
X52430000Y-9038000D02*
X51199999Y-10268001D01*
X52430000Y-5540000D02*
X52430000Y-9038000D01*
X16953338Y-49493000D02*
X17170338Y-49276000D01*
X16387653Y-49493000D02*
X16953338Y-49493000D01*
X17170338Y-49276000D02*
X33910410Y-49276000D01*
X33910410Y-49276000D02*
X34036000Y-49276000D01*
X36322000Y-46990000D02*
X36830000Y-46482000D01*
X34036000Y-49276000D02*
X36322000Y-46990000D01*
X37084000Y-12446000D02*
X37592000Y-11938000D01*
X37084000Y-29081590D02*
X37084000Y-12446000D01*
X37555001Y-29552591D02*
X37084000Y-29081590D01*
X37084000Y-46228000D02*
X37084000Y-32766000D01*
X37592000Y-11938000D02*
X38862000Y-10668000D01*
X36322000Y-46990000D02*
X37084000Y-46228000D01*
X37084000Y-32766000D02*
X37338000Y-32512000D01*
X37338000Y-32512000D02*
X37338000Y-31045002D01*
X37338000Y-31045002D02*
X37555001Y-30828001D01*
X37555001Y-30828001D02*
X37555001Y-29552591D01*
G04 #@! TO.N,/~CS2*
X37592000Y-28702000D02*
X37592000Y-14441000D01*
X37592000Y-14441000D02*
X37809000Y-14224000D01*
X38100000Y-31242000D02*
X38100000Y-29210000D01*
X37846000Y-31496000D02*
X38100000Y-31242000D01*
X37846000Y-32766000D02*
X37846000Y-31496000D01*
X16821685Y-50546000D02*
X17583685Y-49784000D01*
X17583685Y-49784000D02*
X34290000Y-49784000D01*
X38100000Y-29210000D02*
X37592000Y-28702000D01*
X34290000Y-49784000D02*
X37592000Y-46482000D01*
X37592000Y-46482000D02*
X37592000Y-33020000D01*
X16256000Y-50546000D02*
X16821685Y-50546000D01*
X37592000Y-33020000D02*
X37846000Y-32766000D01*
G04 #@! TO.N,/SCK*
X35306000Y-30988000D02*
X35306000Y-32258000D01*
X35560000Y-30734000D02*
X35306000Y-30988000D01*
X35560000Y-10922000D02*
X35560000Y-30734000D01*
X35306000Y-10668000D02*
X35560000Y-10922000D01*
X35306000Y-9652000D02*
X35306000Y-10668000D01*
X16646559Y-60706000D02*
X17979044Y-62038485D01*
X14732000Y-60706000D02*
X16646559Y-60706000D01*
X13208000Y-59182000D02*
X14732000Y-60706000D01*
X35560000Y-32512000D02*
X35560000Y-45466000D01*
X35306000Y-32258000D02*
X35560000Y-32512000D01*
X33274000Y-47752000D02*
X15494000Y-47752000D01*
X35560000Y-45466000D02*
X33274000Y-47752000D01*
X15494000Y-47752000D02*
X13208000Y-50038000D01*
X13208000Y-50038000D02*
X13208000Y-59182000D01*
G04 #@! TO.N,/MOSI*
X13716000Y-58928000D02*
X13716000Y-54610000D01*
X14826485Y-60038485D02*
X13716000Y-58928000D01*
X17979044Y-60038485D02*
X14826485Y-60038485D01*
X13716000Y-54610000D02*
X13716000Y-50417590D01*
X13716000Y-50417590D02*
X13716000Y-50292000D01*
X13716000Y-50292000D02*
X15748000Y-48260000D01*
X19050000Y-48260000D02*
X33528000Y-48260000D01*
X19050000Y-48260000D02*
X19304000Y-48260000D01*
X15748000Y-48260000D02*
X19050000Y-48260000D01*
X33528000Y-48260000D02*
X36068000Y-45720000D01*
X36068000Y-45720000D02*
X36068000Y-36322000D01*
X36068000Y-36322000D02*
X36068000Y-31496000D01*
X36068000Y-31496000D02*
X36068000Y-26670000D01*
X35851000Y-8927000D02*
X36068000Y-9144000D01*
X35851000Y-8005653D02*
X35851000Y-8927000D01*
X36068000Y-26670000D02*
X36068000Y-9144000D01*
G04 #@! TO.N,/MISO*
X16581529Y-59436000D02*
X17979044Y-58038485D01*
X14224000Y-58674000D02*
X14986000Y-59436000D01*
X14224000Y-50546000D02*
X14224000Y-58674000D01*
X36830000Y-32258000D02*
X36576000Y-32512000D01*
X36830000Y-30480000D02*
X36830000Y-32258000D01*
X36576000Y-32512000D02*
X36576000Y-45974000D01*
X36576000Y-45974000D02*
X33782000Y-48768000D01*
X33782000Y-48768000D02*
X16002000Y-48768000D01*
X14986000Y-59436000D02*
X16581529Y-59436000D01*
X16002000Y-48768000D02*
X14224000Y-50546000D01*
X35941000Y-4291000D02*
X34650000Y-3000000D01*
X35941000Y-6985000D02*
X35941000Y-4291000D01*
X36576000Y-7620000D02*
X35941000Y-6985000D01*
X36576000Y-29210000D02*
X36576000Y-7620000D01*
X36830000Y-30480000D02*
X36830000Y-29464000D01*
X36830000Y-29464000D02*
X36576000Y-29210000D01*
G04 #@! TO.N,/INT1*
X32962001Y-47301999D02*
X31895999Y-47301999D01*
X35052000Y-45212000D02*
X32962001Y-47301999D01*
X34544000Y-32766000D02*
X35052000Y-33274000D01*
X34544000Y-30988000D02*
X34544000Y-32766000D01*
X34650000Y-5540000D02*
X34650000Y-9165000D01*
X35052000Y-33274000D02*
X35052000Y-45212000D01*
X34650000Y-9165000D02*
X34544000Y-9271000D01*
X31895999Y-47301999D02*
X31496000Y-46902000D01*
X35052000Y-11176000D02*
X35052000Y-30480000D01*
X35052000Y-30480000D02*
X34544000Y-30988000D01*
X34544000Y-9271000D02*
X34544000Y-10033000D01*
X34671000Y-10160000D02*
X34671000Y-10795000D01*
X34544000Y-10033000D02*
X34671000Y-10160000D01*
X34671000Y-10795000D02*
X35052000Y-11176000D01*
G04 #@! TO.N,/INT2*
X33401000Y-6477000D02*
X33401000Y-4291000D01*
X33401000Y-4291000D02*
X32110000Y-3000000D01*
X34036000Y-10922000D02*
X34036000Y-7112000D01*
X34544000Y-30226000D02*
X34544000Y-11430000D01*
X34303847Y-44369162D02*
X34544000Y-44129009D01*
X34303847Y-44934847D02*
X34303847Y-44369162D01*
X34544000Y-44129009D02*
X34544000Y-33528000D01*
X34544000Y-33528000D02*
X34036000Y-33020000D01*
X34036000Y-33020000D02*
X34036000Y-30734000D01*
X34036000Y-7112000D02*
X33401000Y-6477000D01*
X34544000Y-11430000D02*
X34036000Y-10922000D01*
X34036000Y-30734000D02*
X34544000Y-30226000D01*
G04 #@! TD*
D15*
G04 #@! TO.N,GND*
G36*
X59563000Y-81265000D02*
X2052364Y-81265000D01*
X1647062Y-81206956D01*
X1322496Y-81059385D01*
X1052394Y-80826650D01*
X858468Y-80527459D01*
X749030Y-80161525D01*
X735000Y-79972727D01*
X735000Y-76237171D01*
X1165000Y-76237171D01*
X1165000Y-77762829D01*
X1748844Y-79172353D01*
X2827647Y-80251156D01*
X4237171Y-80835000D01*
X5762829Y-80835000D01*
X7172353Y-80251156D01*
X8251156Y-79172353D01*
X8835000Y-77762829D01*
X8835000Y-76237171D01*
X8251156Y-74827647D01*
X7172353Y-73748844D01*
X5762829Y-73165000D01*
X4237171Y-73165000D01*
X2827647Y-73748844D01*
X1748844Y-74827647D01*
X1165000Y-76237171D01*
X735000Y-76237171D01*
X735000Y-50038000D01*
X12433112Y-50038000D01*
X12448000Y-50112847D01*
X12448001Y-59107148D01*
X12433112Y-59182000D01*
X12448001Y-59256852D01*
X12492097Y-59478537D01*
X12660072Y-59729929D01*
X12723528Y-59772329D01*
X14141673Y-61190476D01*
X14184071Y-61253929D01*
X14247524Y-61296327D01*
X14247526Y-61296329D01*
X14372902Y-61380102D01*
X14435463Y-61421904D01*
X14657148Y-61466000D01*
X14657152Y-61466000D01*
X14731999Y-61480888D01*
X14806846Y-61466000D01*
X16331758Y-61466000D01*
X16944044Y-62078287D01*
X16944044Y-62244359D01*
X17101613Y-62624765D01*
X17392764Y-62915916D01*
X17773170Y-63073485D01*
X18184918Y-63073485D01*
X18565324Y-62915916D01*
X18856475Y-62624765D01*
X19014044Y-62244359D01*
X19014044Y-61832611D01*
X18856475Y-61452205D01*
X18565324Y-61161054D01*
X18269416Y-61038485D01*
X18565324Y-60915916D01*
X18856475Y-60624765D01*
X19014044Y-60244359D01*
X19014044Y-59832611D01*
X18856475Y-59452205D01*
X18565324Y-59161054D01*
X18269416Y-59038485D01*
X18565324Y-58915916D01*
X18856475Y-58624765D01*
X19014044Y-58244359D01*
X19014044Y-57832611D01*
X18856475Y-57452205D01*
X18565324Y-57161054D01*
X18184918Y-57003485D01*
X17773170Y-57003485D01*
X17392764Y-57161054D01*
X17101613Y-57452205D01*
X16944044Y-57832611D01*
X16944044Y-57998683D01*
X16266728Y-58676000D01*
X15300802Y-58676000D01*
X14984000Y-58359199D01*
X14984000Y-50860801D01*
X15221000Y-50623801D01*
X15221000Y-50751874D01*
X15378569Y-51132280D01*
X15669720Y-51423431D01*
X16050126Y-51581000D01*
X16461874Y-51581000D01*
X16842280Y-51423431D01*
X16975397Y-51290314D01*
X17118222Y-51261904D01*
X17369614Y-51093929D01*
X17412016Y-51030470D01*
X17898487Y-50544000D01*
X34215153Y-50544000D01*
X34290000Y-50558888D01*
X34364847Y-50544000D01*
X34364852Y-50544000D01*
X34586537Y-50499904D01*
X34837929Y-50331929D01*
X34880331Y-50268470D01*
X38076473Y-47072329D01*
X38139929Y-47029929D01*
X38307904Y-46778537D01*
X38352000Y-46556852D01*
X38352000Y-46556848D01*
X38366888Y-46482001D01*
X38352000Y-46407154D01*
X38352000Y-33341945D01*
X38393929Y-33313929D01*
X38561904Y-33062537D01*
X38606000Y-32840852D01*
X38606000Y-32840848D01*
X38620888Y-32766001D01*
X38606000Y-32691154D01*
X38606000Y-31817945D01*
X38647929Y-31789929D01*
X38815904Y-31538537D01*
X38860000Y-31316852D01*
X38860000Y-31316848D01*
X38874888Y-31242001D01*
X38860000Y-31167154D01*
X38860000Y-29284846D01*
X38874888Y-29209999D01*
X38860000Y-29135152D01*
X38860000Y-29135148D01*
X38815904Y-28913463D01*
X38730103Y-28785053D01*
X38690329Y-28725526D01*
X38690327Y-28725524D01*
X38647929Y-28662071D01*
X38584475Y-28619672D01*
X38352000Y-28387198D01*
X38352000Y-15119358D01*
X38395280Y-15101431D01*
X38686431Y-14810280D01*
X38844000Y-14429874D01*
X38844000Y-14018126D01*
X38686431Y-13637720D01*
X38395280Y-13346569D01*
X38014874Y-13189000D01*
X37844000Y-13189000D01*
X37844000Y-12760802D01*
X38182329Y-12422474D01*
X38182333Y-12422468D01*
X38901802Y-11703000D01*
X39067874Y-11703000D01*
X39448280Y-11545431D01*
X39739431Y-11254280D01*
X39833159Y-11028001D01*
X51125152Y-11028001D01*
X51199999Y-11042889D01*
X51274846Y-11028001D01*
X51274851Y-11028001D01*
X51496536Y-10983905D01*
X51747928Y-10815930D01*
X51790330Y-10752471D01*
X52914473Y-9628329D01*
X52977929Y-9585929D01*
X53145904Y-9334537D01*
X53190000Y-9112852D01*
X53190000Y-9112848D01*
X53204888Y-9038001D01*
X53190000Y-8963154D01*
X53190000Y-6818178D01*
X53500625Y-6610625D01*
X53828839Y-6119418D01*
X53944092Y-5540000D01*
X53828839Y-4960582D01*
X53500625Y-4469375D01*
X53202239Y-4270000D01*
X53500625Y-4070625D01*
X53828839Y-3579418D01*
X53944092Y-3000000D01*
X53828839Y-2420582D01*
X53500625Y-1929375D01*
X53009418Y-1601161D01*
X52576256Y-1515000D01*
X52283744Y-1515000D01*
X51850582Y-1601161D01*
X51359375Y-1929375D01*
X51160000Y-2227761D01*
X50960625Y-1929375D01*
X50469418Y-1601161D01*
X50036256Y-1515000D01*
X49743744Y-1515000D01*
X49310582Y-1601161D01*
X48819375Y-1929375D01*
X48620000Y-2227761D01*
X48420625Y-1929375D01*
X47929418Y-1601161D01*
X47496256Y-1515000D01*
X47203744Y-1515000D01*
X46770582Y-1601161D01*
X46279375Y-1929375D01*
X46080000Y-2227761D01*
X45880625Y-1929375D01*
X45389418Y-1601161D01*
X44956256Y-1515000D01*
X44663744Y-1515000D01*
X44230582Y-1601161D01*
X43739375Y-1929375D01*
X43540000Y-2227761D01*
X43340625Y-1929375D01*
X42849418Y-1601161D01*
X42416256Y-1515000D01*
X42123744Y-1515000D01*
X41690582Y-1601161D01*
X41199375Y-1929375D01*
X41000000Y-2227761D01*
X40800625Y-1929375D01*
X40309418Y-1601161D01*
X39876256Y-1515000D01*
X39583744Y-1515000D01*
X39150582Y-1601161D01*
X38659375Y-1929375D01*
X38460000Y-2227761D01*
X38260625Y-1929375D01*
X37769418Y-1601161D01*
X37336256Y-1515000D01*
X37043744Y-1515000D01*
X36610582Y-1601161D01*
X36119375Y-1929375D01*
X35920000Y-2227761D01*
X35720625Y-1929375D01*
X35229418Y-1601161D01*
X34796256Y-1515000D01*
X34503744Y-1515000D01*
X34070582Y-1601161D01*
X33579375Y-1929375D01*
X33380000Y-2227761D01*
X33180625Y-1929375D01*
X32689418Y-1601161D01*
X32256256Y-1515000D01*
X31963744Y-1515000D01*
X31530582Y-1601161D01*
X31039375Y-1929375D01*
X30840000Y-2227761D01*
X30640625Y-1929375D01*
X30149418Y-1601161D01*
X29716256Y-1515000D01*
X29423744Y-1515000D01*
X28990582Y-1601161D01*
X28499375Y-1929375D01*
X28171161Y-2420582D01*
X28055908Y-3000000D01*
X28171161Y-3579418D01*
X28499375Y-4070625D01*
X28521032Y-4085096D01*
X28360301Y-4151673D01*
X28181673Y-4330302D01*
X28085000Y-4563691D01*
X28085000Y-5254250D01*
X28243750Y-5413000D01*
X29443000Y-5413000D01*
X29443000Y-5393000D01*
X29697000Y-5393000D01*
X29697000Y-5413000D01*
X29717000Y-5413000D01*
X29717000Y-5667000D01*
X29697000Y-5667000D01*
X29697000Y-6866250D01*
X29855750Y-7025000D01*
X30546310Y-7025000D01*
X30779699Y-6928327D01*
X30958327Y-6749698D01*
X31024904Y-6588967D01*
X31039375Y-6610625D01*
X31530582Y-6938839D01*
X31963744Y-7025000D01*
X32256256Y-7025000D01*
X32689418Y-6938839D01*
X32762790Y-6889813D01*
X32853071Y-7024929D01*
X32916530Y-7067331D01*
X33276001Y-7426803D01*
X33276000Y-10847153D01*
X33261112Y-10922000D01*
X33276000Y-10996847D01*
X33276000Y-10996851D01*
X33320096Y-11218536D01*
X33488071Y-11469929D01*
X33551529Y-11512330D01*
X33784001Y-11744803D01*
X33784000Y-29911198D01*
X33551528Y-30143671D01*
X33488072Y-30186071D01*
X33445672Y-30249527D01*
X33445671Y-30249528D01*
X33320097Y-30437463D01*
X33261112Y-30734000D01*
X33276001Y-30808852D01*
X33276000Y-32945153D01*
X33261112Y-33020000D01*
X33276000Y-33094847D01*
X33276000Y-33094851D01*
X33320096Y-33316536D01*
X33488071Y-33567929D01*
X33551529Y-33610330D01*
X33784001Y-33842803D01*
X33784000Y-43802470D01*
X33755919Y-43821233D01*
X33587943Y-44072625D01*
X33559533Y-44215450D01*
X33426416Y-44348567D01*
X33268847Y-44728973D01*
X33268847Y-45140721D01*
X33426416Y-45521127D01*
X33547244Y-45641955D01*
X32647200Y-46541999D01*
X32467159Y-46541999D01*
X32373431Y-46315720D01*
X32082280Y-46024569D01*
X31701874Y-45867000D01*
X31290126Y-45867000D01*
X30909720Y-46024569D01*
X30618569Y-46315720D01*
X30461000Y-46696126D01*
X30461000Y-46992000D01*
X15568846Y-46992000D01*
X15493999Y-46977112D01*
X15419152Y-46992000D01*
X15419148Y-46992000D01*
X15197463Y-47036096D01*
X14946071Y-47204071D01*
X14903671Y-47267527D01*
X12723530Y-49447669D01*
X12660071Y-49490071D01*
X12492096Y-49741464D01*
X12448000Y-49963149D01*
X12448000Y-49963153D01*
X12433112Y-50038000D01*
X735000Y-50038000D01*
X735000Y-4237171D01*
X1165000Y-4237171D01*
X1165000Y-5762829D01*
X1748844Y-7172353D01*
X2827647Y-8251156D01*
X4237171Y-8835000D01*
X5762829Y-8835000D01*
X7172353Y-8251156D01*
X8251156Y-7172353D01*
X8808937Y-5825750D01*
X28085000Y-5825750D01*
X28085000Y-6516309D01*
X28181673Y-6749698D01*
X28360301Y-6928327D01*
X28593690Y-7025000D01*
X29284250Y-7025000D01*
X29443000Y-6866250D01*
X29443000Y-5667000D01*
X28243750Y-5667000D01*
X28085000Y-5825750D01*
X8808937Y-5825750D01*
X8835000Y-5762829D01*
X8835000Y-4237171D01*
X8251156Y-2827647D01*
X7172353Y-1748844D01*
X5762829Y-1165000D01*
X4237171Y-1165000D01*
X2827647Y-1748844D01*
X1748844Y-2827647D01*
X1165000Y-4237171D01*
X735000Y-4237171D01*
X735000Y-2052364D01*
X793044Y-1647060D01*
X940614Y-1322496D01*
X1173350Y-1052393D01*
X1472539Y-858468D01*
X1838479Y-749030D01*
X2027273Y-735000D01*
X59563000Y-735000D01*
X59563000Y-81265000D01*
X59563000Y-81265000D01*
G37*
X59563000Y-81265000D02*
X2052364Y-81265000D01*
X1647062Y-81206956D01*
X1322496Y-81059385D01*
X1052394Y-80826650D01*
X858468Y-80527459D01*
X749030Y-80161525D01*
X735000Y-79972727D01*
X735000Y-76237171D01*
X1165000Y-76237171D01*
X1165000Y-77762829D01*
X1748844Y-79172353D01*
X2827647Y-80251156D01*
X4237171Y-80835000D01*
X5762829Y-80835000D01*
X7172353Y-80251156D01*
X8251156Y-79172353D01*
X8835000Y-77762829D01*
X8835000Y-76237171D01*
X8251156Y-74827647D01*
X7172353Y-73748844D01*
X5762829Y-73165000D01*
X4237171Y-73165000D01*
X2827647Y-73748844D01*
X1748844Y-74827647D01*
X1165000Y-76237171D01*
X735000Y-76237171D01*
X735000Y-50038000D01*
X12433112Y-50038000D01*
X12448000Y-50112847D01*
X12448001Y-59107148D01*
X12433112Y-59182000D01*
X12448001Y-59256852D01*
X12492097Y-59478537D01*
X12660072Y-59729929D01*
X12723528Y-59772329D01*
X14141673Y-61190476D01*
X14184071Y-61253929D01*
X14247524Y-61296327D01*
X14247526Y-61296329D01*
X14372902Y-61380102D01*
X14435463Y-61421904D01*
X14657148Y-61466000D01*
X14657152Y-61466000D01*
X14731999Y-61480888D01*
X14806846Y-61466000D01*
X16331758Y-61466000D01*
X16944044Y-62078287D01*
X16944044Y-62244359D01*
X17101613Y-62624765D01*
X17392764Y-62915916D01*
X17773170Y-63073485D01*
X18184918Y-63073485D01*
X18565324Y-62915916D01*
X18856475Y-62624765D01*
X19014044Y-62244359D01*
X19014044Y-61832611D01*
X18856475Y-61452205D01*
X18565324Y-61161054D01*
X18269416Y-61038485D01*
X18565324Y-60915916D01*
X18856475Y-60624765D01*
X19014044Y-60244359D01*
X19014044Y-59832611D01*
X18856475Y-59452205D01*
X18565324Y-59161054D01*
X18269416Y-59038485D01*
X18565324Y-58915916D01*
X18856475Y-58624765D01*
X19014044Y-58244359D01*
X19014044Y-57832611D01*
X18856475Y-57452205D01*
X18565324Y-57161054D01*
X18184918Y-57003485D01*
X17773170Y-57003485D01*
X17392764Y-57161054D01*
X17101613Y-57452205D01*
X16944044Y-57832611D01*
X16944044Y-57998683D01*
X16266728Y-58676000D01*
X15300802Y-58676000D01*
X14984000Y-58359199D01*
X14984000Y-50860801D01*
X15221000Y-50623801D01*
X15221000Y-50751874D01*
X15378569Y-51132280D01*
X15669720Y-51423431D01*
X16050126Y-51581000D01*
X16461874Y-51581000D01*
X16842280Y-51423431D01*
X16975397Y-51290314D01*
X17118222Y-51261904D01*
X17369614Y-51093929D01*
X17412016Y-51030470D01*
X17898487Y-50544000D01*
X34215153Y-50544000D01*
X34290000Y-50558888D01*
X34364847Y-50544000D01*
X34364852Y-50544000D01*
X34586537Y-50499904D01*
X34837929Y-50331929D01*
X34880331Y-50268470D01*
X38076473Y-47072329D01*
X38139929Y-47029929D01*
X38307904Y-46778537D01*
X38352000Y-46556852D01*
X38352000Y-46556848D01*
X38366888Y-46482001D01*
X38352000Y-46407154D01*
X38352000Y-33341945D01*
X38393929Y-33313929D01*
X38561904Y-33062537D01*
X38606000Y-32840852D01*
X38606000Y-32840848D01*
X38620888Y-32766001D01*
X38606000Y-32691154D01*
X38606000Y-31817945D01*
X38647929Y-31789929D01*
X38815904Y-31538537D01*
X38860000Y-31316852D01*
X38860000Y-31316848D01*
X38874888Y-31242001D01*
X38860000Y-31167154D01*
X38860000Y-29284846D01*
X38874888Y-29209999D01*
X38860000Y-29135152D01*
X38860000Y-29135148D01*
X38815904Y-28913463D01*
X38730103Y-28785053D01*
X38690329Y-28725526D01*
X38690327Y-28725524D01*
X38647929Y-28662071D01*
X38584475Y-28619672D01*
X38352000Y-28387198D01*
X38352000Y-15119358D01*
X38395280Y-15101431D01*
X38686431Y-14810280D01*
X38844000Y-14429874D01*
X38844000Y-14018126D01*
X38686431Y-13637720D01*
X38395280Y-13346569D01*
X38014874Y-13189000D01*
X37844000Y-13189000D01*
X37844000Y-12760802D01*
X38182329Y-12422474D01*
X38182333Y-12422468D01*
X38901802Y-11703000D01*
X39067874Y-11703000D01*
X39448280Y-11545431D01*
X39739431Y-11254280D01*
X39833159Y-11028001D01*
X51125152Y-11028001D01*
X51199999Y-11042889D01*
X51274846Y-11028001D01*
X51274851Y-11028001D01*
X51496536Y-10983905D01*
X51747928Y-10815930D01*
X51790330Y-10752471D01*
X52914473Y-9628329D01*
X52977929Y-9585929D01*
X53145904Y-9334537D01*
X53190000Y-9112852D01*
X53190000Y-9112848D01*
X53204888Y-9038001D01*
X53190000Y-8963154D01*
X53190000Y-6818178D01*
X53500625Y-6610625D01*
X53828839Y-6119418D01*
X53944092Y-5540000D01*
X53828839Y-4960582D01*
X53500625Y-4469375D01*
X53202239Y-4270000D01*
X53500625Y-4070625D01*
X53828839Y-3579418D01*
X53944092Y-3000000D01*
X53828839Y-2420582D01*
X53500625Y-1929375D01*
X53009418Y-1601161D01*
X52576256Y-1515000D01*
X52283744Y-1515000D01*
X51850582Y-1601161D01*
X51359375Y-1929375D01*
X51160000Y-2227761D01*
X50960625Y-1929375D01*
X50469418Y-1601161D01*
X50036256Y-1515000D01*
X49743744Y-1515000D01*
X49310582Y-1601161D01*
X48819375Y-1929375D01*
X48620000Y-2227761D01*
X48420625Y-1929375D01*
X47929418Y-1601161D01*
X47496256Y-1515000D01*
X47203744Y-1515000D01*
X46770582Y-1601161D01*
X46279375Y-1929375D01*
X46080000Y-2227761D01*
X45880625Y-1929375D01*
X45389418Y-1601161D01*
X44956256Y-1515000D01*
X44663744Y-1515000D01*
X44230582Y-1601161D01*
X43739375Y-1929375D01*
X43540000Y-2227761D01*
X43340625Y-1929375D01*
X42849418Y-1601161D01*
X42416256Y-1515000D01*
X42123744Y-1515000D01*
X41690582Y-1601161D01*
X41199375Y-1929375D01*
X41000000Y-2227761D01*
X40800625Y-1929375D01*
X40309418Y-1601161D01*
X39876256Y-1515000D01*
X39583744Y-1515000D01*
X39150582Y-1601161D01*
X38659375Y-1929375D01*
X38460000Y-2227761D01*
X38260625Y-1929375D01*
X37769418Y-1601161D01*
X37336256Y-1515000D01*
X37043744Y-1515000D01*
X36610582Y-1601161D01*
X36119375Y-1929375D01*
X35920000Y-2227761D01*
X35720625Y-1929375D01*
X35229418Y-1601161D01*
X34796256Y-1515000D01*
X34503744Y-1515000D01*
X34070582Y-1601161D01*
X33579375Y-1929375D01*
X33380000Y-2227761D01*
X33180625Y-1929375D01*
X32689418Y-1601161D01*
X32256256Y-1515000D01*
X31963744Y-1515000D01*
X31530582Y-1601161D01*
X31039375Y-1929375D01*
X30840000Y-2227761D01*
X30640625Y-1929375D01*
X30149418Y-1601161D01*
X29716256Y-1515000D01*
X29423744Y-1515000D01*
X28990582Y-1601161D01*
X28499375Y-1929375D01*
X28171161Y-2420582D01*
X28055908Y-3000000D01*
X28171161Y-3579418D01*
X28499375Y-4070625D01*
X28521032Y-4085096D01*
X28360301Y-4151673D01*
X28181673Y-4330302D01*
X28085000Y-4563691D01*
X28085000Y-5254250D01*
X28243750Y-5413000D01*
X29443000Y-5413000D01*
X29443000Y-5393000D01*
X29697000Y-5393000D01*
X29697000Y-5413000D01*
X29717000Y-5413000D01*
X29717000Y-5667000D01*
X29697000Y-5667000D01*
X29697000Y-6866250D01*
X29855750Y-7025000D01*
X30546310Y-7025000D01*
X30779699Y-6928327D01*
X30958327Y-6749698D01*
X31024904Y-6588967D01*
X31039375Y-6610625D01*
X31530582Y-6938839D01*
X31963744Y-7025000D01*
X32256256Y-7025000D01*
X32689418Y-6938839D01*
X32762790Y-6889813D01*
X32853071Y-7024929D01*
X32916530Y-7067331D01*
X33276001Y-7426803D01*
X33276000Y-10847153D01*
X33261112Y-10922000D01*
X33276000Y-10996847D01*
X33276000Y-10996851D01*
X33320096Y-11218536D01*
X33488071Y-11469929D01*
X33551529Y-11512330D01*
X33784001Y-11744803D01*
X33784000Y-29911198D01*
X33551528Y-30143671D01*
X33488072Y-30186071D01*
X33445672Y-30249527D01*
X33445671Y-30249528D01*
X33320097Y-30437463D01*
X33261112Y-30734000D01*
X33276001Y-30808852D01*
X33276000Y-32945153D01*
X33261112Y-33020000D01*
X33276000Y-33094847D01*
X33276000Y-33094851D01*
X33320096Y-33316536D01*
X33488071Y-33567929D01*
X33551529Y-33610330D01*
X33784001Y-33842803D01*
X33784000Y-43802470D01*
X33755919Y-43821233D01*
X33587943Y-44072625D01*
X33559533Y-44215450D01*
X33426416Y-44348567D01*
X33268847Y-44728973D01*
X33268847Y-45140721D01*
X33426416Y-45521127D01*
X33547244Y-45641955D01*
X32647200Y-46541999D01*
X32467159Y-46541999D01*
X32373431Y-46315720D01*
X32082280Y-46024569D01*
X31701874Y-45867000D01*
X31290126Y-45867000D01*
X30909720Y-46024569D01*
X30618569Y-46315720D01*
X30461000Y-46696126D01*
X30461000Y-46992000D01*
X15568846Y-46992000D01*
X15493999Y-46977112D01*
X15419152Y-46992000D01*
X15419148Y-46992000D01*
X15197463Y-47036096D01*
X14946071Y-47204071D01*
X14903671Y-47267527D01*
X12723530Y-49447669D01*
X12660071Y-49490071D01*
X12492096Y-49741464D01*
X12448000Y-49963149D01*
X12448000Y-49963153D01*
X12433112Y-50038000D01*
X735000Y-50038000D01*
X735000Y-4237171D01*
X1165000Y-4237171D01*
X1165000Y-5762829D01*
X1748844Y-7172353D01*
X2827647Y-8251156D01*
X4237171Y-8835000D01*
X5762829Y-8835000D01*
X7172353Y-8251156D01*
X8251156Y-7172353D01*
X8808937Y-5825750D01*
X28085000Y-5825750D01*
X28085000Y-6516309D01*
X28181673Y-6749698D01*
X28360301Y-6928327D01*
X28593690Y-7025000D01*
X29284250Y-7025000D01*
X29443000Y-6866250D01*
X29443000Y-5667000D01*
X28243750Y-5667000D01*
X28085000Y-5825750D01*
X8808937Y-5825750D01*
X8835000Y-5762829D01*
X8835000Y-4237171D01*
X8251156Y-2827647D01*
X7172353Y-1748844D01*
X5762829Y-1165000D01*
X4237171Y-1165000D01*
X2827647Y-1748844D01*
X1748844Y-2827647D01*
X1165000Y-4237171D01*
X735000Y-4237171D01*
X735000Y-2052364D01*
X793044Y-1647060D01*
X940614Y-1322496D01*
X1173350Y-1052393D01*
X1472539Y-858468D01*
X1838479Y-749030D01*
X2027273Y-735000D01*
X59563000Y-735000D01*
X59563000Y-81265000D01*
G04 #@! TD*
M02*
