G04 #@! TF.GenerationSoftware,KiCad,Pcbnew,(5.0.0)*
G04 #@! TF.CreationDate,2019-04-05T11:11:38-04:00*
G04 #@! TF.ProjectId,Radio Board,526164696F20426F6172642E6B696361,rev?*
G04 #@! TF.SameCoordinates,Original*
G04 #@! TF.FileFunction,Copper,L1,Top,Signal*
G04 #@! TF.FilePolarity,Positive*
%FSLAX46Y46*%
G04 Gerber Fmt 4.6, Leading zero omitted, Abs format (unit mm)*
G04 Created by KiCad (PCBNEW (5.0.0)) date 04/05/19 11:11:38*
%MOMM*%
%LPD*%
G01*
G04 APERTURE LIST*
G04 #@! TA.AperFunction,SMDPad,CuDef*
%ADD10R,2.000000X1.000000*%
G04 #@! TD*
G04 #@! TA.AperFunction,ComponentPad*
%ADD11C,6.400000*%
G04 #@! TD*
G04 #@! TA.AperFunction,SMDPad,CuDef*
%ADD12R,1.200000X0.750000*%
G04 #@! TD*
G04 #@! TA.AperFunction,SMDPad,CuDef*
%ADD13R,0.750000X1.200000*%
G04 #@! TD*
G04 #@! TA.AperFunction,SMDPad,CuDef*
%ADD14R,2.200000X1.050000*%
G04 #@! TD*
G04 #@! TA.AperFunction,SMDPad,CuDef*
%ADD15R,1.050000X1.000000*%
G04 #@! TD*
G04 #@! TA.AperFunction,SMDPad,CuDef*
%ADD16R,0.900000X1.200000*%
G04 #@! TD*
G04 #@! TA.AperFunction,SMDPad,CuDef*
%ADD17R,1.200000X0.900000*%
G04 #@! TD*
G04 #@! TA.AperFunction,SMDPad,CuDef*
%ADD18R,1.000000X2.000000*%
G04 #@! TD*
G04 #@! TA.AperFunction,ComponentPad*
%ADD19O,1.700000X1.700000*%
G04 #@! TD*
G04 #@! TA.AperFunction,ComponentPad*
%ADD20R,1.700000X1.700000*%
G04 #@! TD*
G04 #@! TA.AperFunction,ViaPad*
%ADD21C,0.800000*%
G04 #@! TD*
G04 #@! TA.AperFunction,Conductor*
%ADD22C,0.250000*%
G04 #@! TD*
G04 #@! TA.AperFunction,Conductor*
%ADD23C,1.100000*%
G04 #@! TD*
G04 #@! TA.AperFunction,Conductor*
%ADD24C,0.254000*%
G04 #@! TD*
G04 APERTURE END LIST*
D10*
G04 #@! TO.P,U2,1*
G04 #@! TO.N,GND*
X19814000Y-56104000D03*
G04 #@! TO.P,U2,2*
G04 #@! TO.N,/MISO*
X19814000Y-58104000D03*
G04 #@! TO.P,U2,3*
G04 #@! TO.N,/MOSI*
X19814000Y-60104000D03*
G04 #@! TO.P,U2,4*
G04 #@! TO.N,/SCK*
X19814000Y-62104000D03*
G04 #@! TO.P,U2,5*
G04 #@! TO.N,/~CS2*
X19814000Y-64104000D03*
G04 #@! TO.P,U2,6*
G04 #@! TO.N,Net-(R2-Pad2)*
X19814000Y-66104000D03*
G04 #@! TO.P,U2,7*
G04 #@! TO.N,Net-(U2-Pad7)*
X19814000Y-68104000D03*
G04 #@! TO.P,U2,8*
G04 #@! TO.N,GND*
X19814000Y-70104000D03*
G04 #@! TO.P,U2,9*
G04 #@! TO.N,Net-(J3-Pad1)*
X35814000Y-70104000D03*
G04 #@! TO.P,U2,10*
G04 #@! TO.N,GND*
X35814000Y-68104000D03*
G04 #@! TO.P,U2,11*
G04 #@! TO.N,Net-(R8-Pad2)*
X35814000Y-66104000D03*
G04 #@! TO.P,U2,12*
G04 #@! TO.N,Net-(U2-Pad12)*
X35814000Y-64104000D03*
G04 #@! TO.P,U2,13*
G04 #@! TO.N,+3V3*
X35814000Y-62104000D03*
G04 #@! TO.P,U2,14*
G04 #@! TO.N,/INT2*
X35814000Y-60104000D03*
G04 #@! TO.P,U2,15*
G04 #@! TO.N,Net-(U2-Pad15)*
X35814000Y-58104000D03*
G04 #@! TO.P,U2,16*
G04 #@! TO.N,Net-(U2-Pad16)*
X35814000Y-56104000D03*
G04 #@! TD*
D11*
G04 #@! TO.P,REF\002A\002A,1*
G04 #@! TO.N,N/C*
X5000000Y-77000000D03*
G04 #@! TD*
G04 #@! TO.P,REF\002A\002A,1*
G04 #@! TO.N,N/C*
X5000000Y-5000000D03*
G04 #@! TD*
G04 #@! TO.P,REF\002A\002A,1*
G04 #@! TO.N,N/C*
X77000000Y-77000000D03*
G04 #@! TD*
G04 #@! TO.P,REF\002A\002A,1*
G04 #@! TO.N,N/C*
X77000000Y-5000000D03*
G04 #@! TD*
D12*
G04 #@! TO.P,C1,2*
G04 #@! TO.N,GND*
X26604000Y-44958000D03*
G04 #@! TO.P,C1,1*
G04 #@! TO.N,+3V3*
X24704000Y-44958000D03*
G04 #@! TD*
D13*
G04 #@! TO.P,C2,1*
G04 #@! TO.N,+3V3*
X41656000Y-62296000D03*
G04 #@! TO.P,C2,2*
G04 #@! TO.N,GND*
X41656000Y-64196000D03*
G04 #@! TD*
D14*
G04 #@! TO.P,J2,2*
G04 #@! TO.N,GND*
X11463000Y-40054000D03*
D15*
G04 #@! TO.P,J2,1*
G04 #@! TO.N,Net-(J2-Pad1)*
X12988000Y-41529000D03*
D14*
G04 #@! TO.P,J2,2*
G04 #@! TO.N,GND*
X11463000Y-43004000D03*
G04 #@! TD*
G04 #@! TO.P,J3,2*
G04 #@! TO.N,GND*
X41475000Y-68629000D03*
D15*
G04 #@! TO.P,J3,1*
G04 #@! TO.N,Net-(J3-Pad1)*
X39950000Y-70104000D03*
D14*
G04 #@! TO.P,J3,2*
G04 #@! TO.N,GND*
X41475000Y-71579000D03*
G04 #@! TD*
D16*
G04 #@! TO.P,R1,2*
G04 #@! TO.N,Net-(R1-Pad2)*
X18796000Y-21674000D03*
G04 #@! TO.P,R1,1*
G04 #@! TO.N,+3V3*
X18796000Y-19474000D03*
G04 #@! TD*
D17*
G04 #@! TO.P,R2,2*
G04 #@! TO.N,Net-(R2-Pad2)*
X11191044Y-67087485D03*
G04 #@! TO.P,R2,1*
G04 #@! TO.N,+3V3*
X8991044Y-67087485D03*
G04 #@! TD*
D16*
G04 #@! TO.P,R3,1*
G04 #@! TO.N,+3V3*
X21336000Y-19474000D03*
G04 #@! TO.P,R3,2*
G04 #@! TO.N,/~CS1*
X21336000Y-21674000D03*
G04 #@! TD*
D17*
G04 #@! TO.P,R4,1*
G04 #@! TO.N,+3V3*
X8991044Y-62769485D03*
G04 #@! TO.P,R4,2*
G04 #@! TO.N,/~CS2*
X11191044Y-62769485D03*
G04 #@! TD*
G04 #@! TO.P,D1,1*
G04 #@! TO.N,GND*
X53678000Y-46482000D03*
G04 #@! TO.P,D1,2*
G04 #@! TO.N,Net-(D1-Pad2)*
X51478000Y-46482000D03*
G04 #@! TD*
G04 #@! TO.P,D2,1*
G04 #@! TO.N,GND*
X53594000Y-50546000D03*
G04 #@! TO.P,D2,2*
G04 #@! TO.N,Net-(D2-Pad2)*
X51394000Y-50546000D03*
G04 #@! TD*
G04 #@! TO.P,D3,2*
G04 #@! TO.N,Net-(D3-Pad2)*
X51394000Y-42418000D03*
G04 #@! TO.P,D3,1*
G04 #@! TO.N,GND*
X53594000Y-42418000D03*
G04 #@! TD*
G04 #@! TO.P,D4,2*
G04 #@! TO.N,Net-(D4-Pad2)*
X51478000Y-54610000D03*
G04 #@! TO.P,D4,1*
G04 #@! TO.N,GND*
X53678000Y-54610000D03*
G04 #@! TD*
G04 #@! TO.P,R5,1*
G04 #@! TO.N,Net-(D1-Pad2)*
X47201000Y-46482000D03*
G04 #@! TO.P,R5,2*
G04 #@! TO.N,/INT1*
X45001000Y-46482000D03*
G04 #@! TD*
G04 #@! TO.P,R6,2*
G04 #@! TO.N,/INT2*
X45001000Y-50546000D03*
G04 #@! TO.P,R6,1*
G04 #@! TO.N,Net-(D2-Pad2)*
X47201000Y-50546000D03*
G04 #@! TD*
G04 #@! TO.P,R7,2*
G04 #@! TO.N,Net-(R7-Pad2)*
X45001000Y-42418000D03*
G04 #@! TO.P,R7,1*
G04 #@! TO.N,Net-(D3-Pad2)*
X47201000Y-42418000D03*
G04 #@! TD*
G04 #@! TO.P,R8,1*
G04 #@! TO.N,Net-(D4-Pad2)*
X47201000Y-54610000D03*
G04 #@! TO.P,R8,2*
G04 #@! TO.N,Net-(R8-Pad2)*
X45001000Y-54610000D03*
G04 #@! TD*
D18*
G04 #@! TO.P,U1,16*
G04 #@! TO.N,Net-(U1-Pad16)*
X30622000Y-41528000D03*
G04 #@! TO.P,U1,15*
G04 #@! TO.N,Net-(U1-Pad15)*
X28622000Y-41528000D03*
G04 #@! TO.P,U1,14*
G04 #@! TO.N,/INT1*
X26622000Y-41528000D03*
G04 #@! TO.P,U1,13*
G04 #@! TO.N,+3V3*
X24622000Y-41528000D03*
G04 #@! TO.P,U1,12*
G04 #@! TO.N,Net-(U1-Pad12)*
X22622000Y-41528000D03*
G04 #@! TO.P,U1,11*
G04 #@! TO.N,Net-(R7-Pad2)*
X20622000Y-41528000D03*
G04 #@! TO.P,U1,10*
G04 #@! TO.N,GND*
X18622000Y-41528000D03*
G04 #@! TO.P,U1,9*
G04 #@! TO.N,Net-(J2-Pad1)*
X16622000Y-41528000D03*
G04 #@! TO.P,U1,8*
G04 #@! TO.N,GND*
X16622000Y-25528000D03*
G04 #@! TO.P,U1,7*
G04 #@! TO.N,Net-(U1-Pad7)*
X18622000Y-25528000D03*
G04 #@! TO.P,U1,6*
G04 #@! TO.N,Net-(R1-Pad2)*
X20622000Y-25528000D03*
G04 #@! TO.P,U1,5*
G04 #@! TO.N,/~CS1*
X22622000Y-25528000D03*
G04 #@! TO.P,U1,4*
G04 #@! TO.N,/SCK*
X24622000Y-25528000D03*
G04 #@! TO.P,U1,3*
G04 #@! TO.N,/MOSI*
X26622000Y-25528000D03*
G04 #@! TO.P,U1,2*
G04 #@! TO.N,/MISO*
X28622000Y-25528000D03*
G04 #@! TO.P,U1,1*
G04 #@! TO.N,GND*
X30622000Y-25528000D03*
G04 #@! TD*
D19*
G04 #@! TO.P,J1,20*
G04 #@! TO.N,Net-(J1-Pad20)*
X52430000Y-3000000D03*
G04 #@! TO.P,J1,19*
G04 #@! TO.N,+3V3*
X52430000Y-5540000D03*
G04 #@! TO.P,J1,18*
G04 #@! TO.N,Net-(J1-Pad18)*
X49890000Y-3000000D03*
G04 #@! TO.P,J1,17*
G04 #@! TO.N,Net-(J1-Pad17)*
X49890000Y-5540000D03*
G04 #@! TO.P,J1,16*
G04 #@! TO.N,Net-(J1-Pad16)*
X47350000Y-3000000D03*
G04 #@! TO.P,J1,15*
G04 #@! TO.N,Net-(J1-Pad15)*
X47350000Y-5540000D03*
G04 #@! TO.P,J1,14*
G04 #@! TO.N,Net-(J1-Pad14)*
X44810000Y-3000000D03*
G04 #@! TO.P,J1,13*
G04 #@! TO.N,Net-(J1-Pad13)*
X44810000Y-5540000D03*
G04 #@! TO.P,J1,12*
G04 #@! TO.N,Net-(J1-Pad12)*
X42270000Y-3000000D03*
G04 #@! TO.P,J1,11*
G04 #@! TO.N,Net-(J1-Pad11)*
X42270000Y-5540000D03*
G04 #@! TO.P,J1,10*
G04 #@! TO.N,/~CS2*
X39730000Y-3000000D03*
G04 #@! TO.P,J1,9*
G04 #@! TO.N,/~CS1*
X39730000Y-5540000D03*
G04 #@! TO.P,J1,8*
G04 #@! TO.N,/SCK*
X37190000Y-3000000D03*
G04 #@! TO.P,J1,7*
G04 #@! TO.N,/MOSI*
X37190000Y-5540000D03*
G04 #@! TO.P,J1,6*
G04 #@! TO.N,/MISO*
X34650000Y-3000000D03*
G04 #@! TO.P,J1,5*
G04 #@! TO.N,/INT1*
X34650000Y-5540000D03*
G04 #@! TO.P,J1,4*
G04 #@! TO.N,/INT2*
X32110000Y-3000000D03*
G04 #@! TO.P,J1,3*
G04 #@! TO.N,Net-(J1-Pad3)*
X32110000Y-5540000D03*
G04 #@! TO.P,J1,2*
G04 #@! TO.N,Net-(J1-Pad2)*
X29570000Y-3000000D03*
D20*
G04 #@! TO.P,J1,1*
G04 #@! TO.N,GND*
X29570000Y-5540000D03*
G04 #@! TD*
D21*
G04 #@! TO.N,GND*
X58420000Y-80010000D03*
X55880000Y-80010000D03*
X53340000Y-80010000D03*
X50800000Y-80010000D03*
X48260000Y-80010000D03*
X45720000Y-80010000D03*
X43180000Y-80010000D03*
X40640000Y-80010000D03*
X38100000Y-80010000D03*
X35560000Y-80010000D03*
X33020000Y-80010000D03*
X30480000Y-80010000D03*
X27940000Y-80010000D03*
X25400000Y-80010000D03*
X22860000Y-80010000D03*
X20320000Y-80010000D03*
X17780000Y-80010000D03*
X15240000Y-80010000D03*
X12700000Y-80010000D03*
X10160000Y-80010000D03*
X15240000Y-40132000D03*
X13970000Y-40132000D03*
X13970000Y-42926000D03*
X15240000Y-42926000D03*
X37846000Y-68834000D03*
X39116000Y-68834000D03*
X39116000Y-71374000D03*
X37846000Y-71374000D03*
X10160000Y-2540000D03*
X12700000Y-2540000D03*
X15240000Y-2540000D03*
X17780000Y-2540000D03*
X20320000Y-2540000D03*
X22860000Y-2540000D03*
X55880000Y-2540000D03*
X58420000Y-2540000D03*
X58420000Y-5080000D03*
X58420000Y-7620000D03*
X58420000Y-10160000D03*
X58420000Y-12700000D03*
X58420000Y-15240000D03*
X58420000Y-17780000D03*
X58420000Y-20320000D03*
X58420000Y-22860000D03*
X58420000Y-25400000D03*
X58420000Y-27940000D03*
X58420000Y-30480000D03*
X58420000Y-33020000D03*
X58420000Y-35560000D03*
X58420000Y-38100000D03*
X58420000Y-40640000D03*
X58420000Y-43180000D03*
X58420000Y-45720000D03*
X58420000Y-48260000D03*
X58420000Y-50800000D03*
X58420000Y-53340000D03*
X58420000Y-55880000D03*
X58420000Y-58420000D03*
X58420000Y-60960000D03*
X58420000Y-63500000D03*
X58420000Y-66040000D03*
X58420000Y-68580000D03*
X58420000Y-71120000D03*
X58420000Y-73660000D03*
X58420000Y-76200000D03*
X58420000Y-80010000D03*
X2540000Y-73660000D03*
X2540000Y-71120000D03*
X2540000Y-68580000D03*
X2540000Y-66040000D03*
X2540000Y-63500000D03*
X2540000Y-60960000D03*
X2540000Y-58420000D03*
X2540000Y-55880000D03*
X2540000Y-53340000D03*
X2540000Y-50800000D03*
X2540000Y-48260000D03*
X2540000Y-45720000D03*
X2540000Y-43180000D03*
X2540000Y-40640000D03*
X2540000Y-38100000D03*
X2540000Y-35560000D03*
X2540000Y-33020000D03*
X2540000Y-30480000D03*
X2540000Y-27940000D03*
X2540000Y-25400000D03*
X2540000Y-22860000D03*
X2540000Y-20320000D03*
X2540000Y-17780000D03*
X2540000Y-15240000D03*
X2540000Y-12700000D03*
X2540000Y-10160000D03*
X28448000Y-46228000D03*
X39624000Y-64262000D03*
X27178000Y-62992000D03*
X28194000Y-62992000D03*
X26162000Y-62992000D03*
X26670000Y-61976000D03*
X27686000Y-61976000D03*
X26670000Y-64008000D03*
X27686000Y-64008000D03*
X47244000Y-39624000D03*
X46228000Y-39624000D03*
X47244000Y-37592000D03*
X45720000Y-38608000D03*
X46736000Y-38608000D03*
X47752000Y-38608000D03*
X46228000Y-37592000D03*
X23368000Y-35052000D03*
X22352000Y-35052000D03*
X22860000Y-34036000D03*
X23876000Y-34036000D03*
X21844000Y-34036000D03*
X22352000Y-33020000D03*
X23368000Y-33020000D03*
X45974000Y-13462000D03*
X46990000Y-13462000D03*
X47498000Y-14478000D03*
X46482000Y-14478000D03*
X46482000Y-12446000D03*
X48006000Y-13462000D03*
X47498000Y-12446000D03*
X16256000Y-8128000D03*
X15748000Y-9144000D03*
X15240000Y-8128000D03*
X14732000Y-9144000D03*
X16256000Y-10160000D03*
X15240000Y-10160000D03*
X16764000Y-9144000D03*
X48387000Y-62865000D03*
X47371000Y-62865000D03*
X47879000Y-61849000D03*
X48895000Y-61849000D03*
X46863000Y-61849000D03*
X47371000Y-60833000D03*
X48387000Y-60833000D03*
X29210000Y-19812000D03*
X28194000Y-19812000D03*
X28702000Y-18796000D03*
X29718000Y-18796000D03*
X27686000Y-18796000D03*
X28194000Y-17780000D03*
X29210000Y-17780000D03*
X45720000Y-27051000D03*
X46736000Y-27051000D03*
X46228000Y-28067000D03*
X46228000Y-26035000D03*
X47752000Y-27051000D03*
X47244000Y-28067000D03*
X47244000Y-26035000D03*
X25400000Y-2540000D03*
X58420000Y-78105000D03*
X8255000Y-80010000D03*
G04 #@! TO.N,+3V3*
X38862000Y-10668000D03*
X16387653Y-49493000D03*
G04 #@! TO.N,/INT2*
X34303847Y-44934847D03*
G04 #@! TO.N,/INT1*
X31496000Y-46902000D03*
G04 #@! TO.N,/~CS2*
X16256000Y-50546000D03*
X37809000Y-14224000D03*
G04 #@! TO.N,/SCK*
X17979044Y-62038485D03*
X35306000Y-32258000D03*
X35306000Y-9652000D03*
G04 #@! TO.N,/MOSI*
X17979044Y-60038485D03*
X36068000Y-31496000D03*
X35851000Y-8005653D03*
G04 #@! TO.N,/MISO*
X17979044Y-58038485D03*
X36830000Y-30480000D03*
G04 #@! TD*
D22*
G04 #@! TO.N,GND*
X26604000Y-44958000D02*
X27178000Y-44958000D01*
X27178000Y-44958000D02*
X28448000Y-46228000D01*
X41656000Y-64196000D02*
X39690000Y-64196000D01*
X39690000Y-64196000D02*
X39624000Y-64262000D01*
G04 #@! TO.N,+3V3*
X13339559Y-72136000D02*
X13462000Y-72136000D01*
X13462000Y-72136000D02*
X26924000Y-72136000D01*
X41464000Y-62104000D02*
X41656000Y-62296000D01*
X35814000Y-62104000D02*
X41464000Y-62104000D01*
X26924000Y-72136000D02*
X32512000Y-72136000D01*
X32512000Y-72136000D02*
X33274000Y-71374000D01*
X33274000Y-71374000D02*
X33274000Y-62738000D01*
X33908000Y-62104000D02*
X35814000Y-62104000D01*
X33274000Y-62738000D02*
X33908000Y-62104000D01*
X12192000Y-72136000D02*
X13462000Y-72136000D01*
X9141044Y-62769485D02*
X8991044Y-62769485D01*
X10160000Y-61750529D02*
X9141044Y-62769485D01*
X10160000Y-61214000D02*
X10160000Y-61750529D01*
X9141044Y-67087485D02*
X8991044Y-67087485D01*
X10160000Y-66068529D02*
X9141044Y-67087485D01*
X10160000Y-61214000D02*
X10160000Y-66068529D01*
X10160000Y-71374000D02*
X10922000Y-72136000D01*
X10160000Y-66068529D02*
X10160000Y-71374000D01*
X10922000Y-72136000D02*
X12192000Y-72136000D01*
X24704000Y-41610000D02*
X24622000Y-41528000D01*
X24704000Y-44958000D02*
X24704000Y-41610000D01*
X24622000Y-42028000D02*
X24622000Y-41528000D01*
X22860000Y-43790000D02*
X24622000Y-42028000D01*
X22098000Y-48260000D02*
X22860000Y-47498000D01*
X22860000Y-47498000D02*
X22860000Y-43790000D01*
X19304000Y-48260000D02*
X22098000Y-48260000D01*
X21336000Y-18624000D02*
X21336000Y-19474000D01*
X38862000Y-10668000D02*
X38862000Y-11684000D01*
X38862000Y-11684000D02*
X37592000Y-12954000D01*
X37592000Y-12954000D02*
X23493590Y-12954000D01*
X23493590Y-12954000D02*
X22098000Y-14349590D01*
X22098000Y-17862000D02*
X21336000Y-18624000D01*
X22098000Y-15322000D02*
X22098000Y-14349590D01*
X22098000Y-14349590D02*
X22098000Y-16510000D01*
X22098000Y-16510000D02*
X22098000Y-17862000D01*
X21590000Y-17018000D02*
X22098000Y-16510000D01*
X19304000Y-17018000D02*
X21590000Y-17018000D01*
X18796000Y-17526000D02*
X19304000Y-17018000D01*
X18796000Y-19474000D02*
X18796000Y-17526000D01*
X10160000Y-54102000D02*
X10160000Y-52070000D01*
X10160000Y-54102000D02*
X10160000Y-61214000D01*
X10160000Y-52070000D02*
X12737000Y-49493000D01*
X12737000Y-49493000D02*
X16387653Y-49493000D01*
X13970000Y-48260000D02*
X14224000Y-48260000D01*
X12737000Y-49493000D02*
X13970000Y-48260000D01*
X19304000Y-48260000D02*
X14224000Y-48260000D01*
G04 #@! TO.N,/INT2*
X37592000Y-60104000D02*
X37940000Y-60104000D01*
X37592000Y-60104000D02*
X37846000Y-60104000D01*
X35814000Y-60104000D02*
X37592000Y-60104000D01*
X37940000Y-60104000D02*
X38354000Y-59690000D01*
X38354000Y-59690000D02*
X38354000Y-51816000D01*
X38354000Y-48985000D02*
X34303847Y-44934847D01*
X38354000Y-51308000D02*
X38354000Y-48985000D01*
X38354000Y-51816000D02*
X38354000Y-51308000D01*
G04 #@! TO.N,/INT1*
X26622000Y-41528000D02*
X26622000Y-42028000D01*
X26622000Y-40278000D02*
X27333990Y-39566010D01*
X26622000Y-41528000D02*
X26622000Y-40278000D01*
X27333990Y-39566010D02*
X33782000Y-39566010D01*
X33782000Y-39566010D02*
X35248010Y-39566010D01*
X33020000Y-40328010D02*
X33782000Y-39566010D01*
X33020000Y-42418000D02*
X33020000Y-40328010D01*
X30822000Y-44616000D02*
X33020000Y-42418000D01*
X31496000Y-46902000D02*
X30822000Y-46228000D01*
X30822000Y-46228000D02*
X30822000Y-44616000D01*
G04 #@! TO.N,/~CS2*
X11191044Y-62769485D02*
X13716000Y-62769485D01*
X13716000Y-62769485D02*
X13716000Y-62738000D01*
X15082000Y-64104000D02*
X19814000Y-64104000D01*
X13716000Y-62738000D02*
X15082000Y-64104000D01*
X13716000Y-62738000D02*
X11684000Y-60706000D01*
X11684000Y-60706000D02*
X11176000Y-60198000D01*
X11176000Y-60198000D02*
X10668000Y-59690000D01*
X10668000Y-59690000D02*
X10668000Y-52198410D01*
X10668000Y-52198410D02*
X12828410Y-50038000D01*
X12828410Y-50038000D02*
X15240000Y-50038000D01*
X15240000Y-50038000D02*
X15748000Y-50546000D01*
X15748000Y-50546000D02*
X16256000Y-50546000D01*
X37809000Y-14224000D02*
X38100000Y-14224000D01*
X37809000Y-14224000D02*
X37809000Y-14135410D01*
X40180010Y-7571990D02*
X40640000Y-7112000D01*
X40328010Y-7423990D02*
X40640000Y-7112000D01*
X40180010Y-11852990D02*
X39878000Y-12155000D01*
X40180010Y-11430000D02*
X40180010Y-11852990D01*
X39878000Y-12155000D02*
X40095000Y-11938000D01*
X37809000Y-14224000D02*
X39878000Y-12155000D01*
X40180010Y-11430000D02*
X40180010Y-7571990D01*
X40180010Y-11764400D02*
X40180010Y-11430000D01*
G04 #@! TO.N,/~CS1*
X39730000Y-5540000D02*
X39730000Y-6742081D01*
X39730000Y-11578000D02*
X39730000Y-5540000D01*
X22622000Y-25528000D02*
X22622000Y-24278000D01*
X22606000Y-14478000D02*
X23622000Y-13462000D01*
X22622000Y-24278000D02*
X22606000Y-24262000D01*
X23622000Y-13462000D02*
X37846000Y-13462000D01*
X37846000Y-13462000D02*
X39730000Y-11578000D01*
X22606000Y-23094000D02*
X22606000Y-23368000D01*
X21336000Y-21824000D02*
X22606000Y-23094000D01*
X21336000Y-21674000D02*
X21336000Y-21824000D01*
X22606000Y-24262000D02*
X22606000Y-23368000D01*
X22606000Y-23368000D02*
X22606000Y-14478000D01*
G04 #@! TO.N,/SCK*
X19748485Y-62038485D02*
X19814000Y-62104000D01*
X17979044Y-62038485D02*
X19748485Y-62038485D01*
X24622000Y-26924000D02*
X24622000Y-25528000D01*
X26162000Y-28464000D02*
X24622000Y-26924000D01*
X26162000Y-29466820D02*
X26162000Y-28464000D01*
X27059198Y-30364018D02*
X26162000Y-29466820D01*
X33412019Y-30364019D02*
X27059198Y-30364018D01*
X35306000Y-32258000D02*
X33412019Y-30364019D01*
G04 #@! TO.N,/MOSI*
X19748485Y-60038485D02*
X19814000Y-60104000D01*
X17979044Y-60038485D02*
X19748485Y-60038485D01*
X37190000Y-6666653D02*
X37190000Y-5540000D01*
X35851000Y-8005653D02*
X37190000Y-6666653D01*
X26622000Y-28956000D02*
X26622000Y-25528000D01*
X26622000Y-29290410D02*
X26622000Y-28956000D01*
X27245599Y-29914009D02*
X26622000Y-29290410D01*
X34486010Y-29914010D02*
X27245599Y-29914009D01*
X36068000Y-31496000D02*
X34486010Y-29914010D01*
G04 #@! TO.N,/MISO*
X19748485Y-58038485D02*
X19814000Y-58104000D01*
X17979044Y-58038485D02*
X19748485Y-58038485D01*
X36830000Y-30480000D02*
X36576000Y-30480000D01*
X28622000Y-27004000D02*
X28622000Y-25528000D01*
X27178000Y-28448000D02*
X28622000Y-27004000D01*
X27178000Y-29210000D02*
X27178000Y-28448000D01*
X27432000Y-29464000D02*
X27178000Y-29210000D01*
X36830000Y-30480000D02*
X35814000Y-29464000D01*
X35814000Y-29464000D02*
X27432000Y-29464000D01*
G04 #@! TO.N,Net-(J2-Pad1)*
X13019255Y-41497745D02*
X12988000Y-41529000D01*
X16621000Y-41529000D02*
X16622000Y-41528000D01*
D23*
X12988000Y-41529000D02*
X16621000Y-41529000D01*
D22*
G04 #@! TO.N,Net-(J3-Pad1)*
X39911515Y-70038485D02*
X39950000Y-70000000D01*
D23*
X35814000Y-70104000D02*
X39950000Y-70104000D01*
D22*
G04 #@! TO.N,Net-(R1-Pad2)*
X18796000Y-21824000D02*
X18796000Y-21674000D01*
X20622000Y-23650000D02*
X18796000Y-21824000D01*
X20622000Y-25528000D02*
X20622000Y-23650000D01*
G04 #@! TO.N,Net-(R2-Pad2)*
X11191044Y-67087485D02*
X16930044Y-67087485D01*
X17913529Y-66104000D02*
X16930044Y-67087485D01*
X19814000Y-66104000D02*
X17913529Y-66104000D01*
G04 #@! TO.N,Net-(D1-Pad2)*
X47201000Y-46482000D02*
X49403000Y-46482000D01*
X49106000Y-46482000D02*
X49403000Y-46482000D01*
X49403000Y-46482000D02*
X51478000Y-46482000D01*
G04 #@! TO.N,Net-(D2-Pad2)*
X49276000Y-50546000D02*
X47201000Y-50546000D01*
X49276000Y-50546000D02*
X51394000Y-50546000D01*
X49106000Y-50546000D02*
X49276000Y-50546000D01*
G04 #@! TO.N,Net-(D3-Pad2)*
X48051000Y-42418000D02*
X50165000Y-42418000D01*
X47201000Y-42418000D02*
X48051000Y-42418000D01*
X49106000Y-42418000D02*
X50165000Y-42418000D01*
X50165000Y-42418000D02*
X51394000Y-42418000D01*
G04 #@! TO.N,Net-(D4-Pad2)*
X49403000Y-54610000D02*
X47201000Y-54610000D01*
X49403000Y-54610000D02*
X51478000Y-54610000D01*
X49106000Y-54610000D02*
X49403000Y-54610000D01*
G04 #@! TO.N,/~CS2*
X40767000Y-6985000D02*
X40640000Y-7112000D01*
X41021000Y-6731000D02*
X40767000Y-6985000D01*
X41021000Y-4291000D02*
X41021000Y-6731000D01*
X39730000Y-3000000D02*
X41021000Y-4291000D01*
G04 #@! TO.N,/SCK*
X38481000Y-4291000D02*
X37190000Y-3000000D01*
X35306000Y-9652000D02*
X38481000Y-6477000D01*
X38481000Y-6477000D02*
X38481000Y-4291000D01*
G04 #@! TO.N,/INT1*
X35248010Y-39566010D02*
X39370000Y-43688000D01*
X39370000Y-43688000D02*
X39624000Y-43942000D01*
X42164000Y-46482000D02*
X41148000Y-45466000D01*
X45212000Y-46482000D02*
X42164000Y-46482000D01*
X41148000Y-45466000D02*
X39370000Y-43688000D01*
X45212000Y-46482000D02*
X42418000Y-46482000D01*
G04 #@! TO.N,/INT2*
X38354000Y-51054000D02*
X38862000Y-50546000D01*
X38354000Y-51308000D02*
X38354000Y-51054000D01*
X39370000Y-50546000D02*
X38862000Y-50546000D01*
X39370000Y-50546000D02*
X39116000Y-50546000D01*
X39370000Y-50546000D02*
X45001000Y-50546000D01*
G04 #@! TO.N,Net-(R7-Pad2)*
X41019590Y-42418000D02*
X45001000Y-42418000D01*
X38736410Y-42418000D02*
X41019590Y-42418000D01*
X35434411Y-39116001D02*
X38736410Y-42418000D01*
X22534000Y-39116000D02*
X35434411Y-39116001D01*
X20622000Y-41528000D02*
X20622000Y-41028000D01*
X20622000Y-41028000D02*
X22534000Y-39116000D01*
G04 #@! TO.N,Net-(R8-Pad2)*
X39370000Y-60198000D02*
X38862000Y-59690000D01*
X42672000Y-60198000D02*
X39370000Y-60198000D01*
X37064000Y-66104000D02*
X37128000Y-66040000D01*
X35814000Y-66104000D02*
X37064000Y-66104000D01*
X37128000Y-66040000D02*
X42672000Y-66040000D01*
X42672000Y-66040000D02*
X43180000Y-65532000D01*
X43180000Y-65532000D02*
X43180000Y-60706000D01*
X43180000Y-60706000D02*
X42672000Y-60198000D01*
X39878000Y-54610000D02*
X38862000Y-55626000D01*
X38862000Y-59690000D02*
X38862000Y-55626000D01*
X39878000Y-54610000D02*
X45001000Y-54610000D01*
G04 #@! TD*
D24*
G04 #@! TO.N,GND*
G36*
X59563000Y-81265000D02*
X2052364Y-81265000D01*
X1647062Y-81206956D01*
X1322496Y-81059385D01*
X1052394Y-80826650D01*
X858468Y-80527459D01*
X749030Y-80161525D01*
X735000Y-79972727D01*
X735000Y-76237171D01*
X1165000Y-76237171D01*
X1165000Y-77762829D01*
X1748844Y-79172353D01*
X2827647Y-80251156D01*
X4237171Y-80835000D01*
X5762829Y-80835000D01*
X7172353Y-80251156D01*
X8251156Y-79172353D01*
X8835000Y-77762829D01*
X8835000Y-76237171D01*
X8251156Y-74827647D01*
X7172353Y-73748844D01*
X5762829Y-73165000D01*
X4237171Y-73165000D01*
X2827647Y-73748844D01*
X1748844Y-74827647D01*
X1165000Y-76237171D01*
X735000Y-76237171D01*
X735000Y-62319485D01*
X7743604Y-62319485D01*
X7743604Y-63219485D01*
X7792887Y-63467250D01*
X7933235Y-63677294D01*
X8143279Y-63817642D01*
X8391044Y-63866925D01*
X9400001Y-63866925D01*
X9400001Y-65753726D01*
X9163682Y-65990045D01*
X8391044Y-65990045D01*
X8143279Y-66039328D01*
X7933235Y-66179676D01*
X7792887Y-66389720D01*
X7743604Y-66637485D01*
X7743604Y-67537485D01*
X7792887Y-67785250D01*
X7933235Y-67995294D01*
X8143279Y-68135642D01*
X8391044Y-68184925D01*
X9400000Y-68184925D01*
X9400001Y-71299148D01*
X9385112Y-71374000D01*
X9400001Y-71448851D01*
X9400001Y-71448852D01*
X9444097Y-71670537D01*
X9612072Y-71921929D01*
X9675528Y-71964329D01*
X10331671Y-72620473D01*
X10374071Y-72683929D01*
X10437527Y-72726329D01*
X10625462Y-72851904D01*
X10673605Y-72861480D01*
X10847148Y-72896000D01*
X10847152Y-72896000D01*
X10922000Y-72910888D01*
X10996848Y-72896000D01*
X32437153Y-72896000D01*
X32512000Y-72910888D01*
X32586847Y-72896000D01*
X32586852Y-72896000D01*
X32808537Y-72851904D01*
X33059929Y-72683929D01*
X33102331Y-72620470D01*
X33758473Y-71964329D01*
X33821929Y-71921929D01*
X33860135Y-71864750D01*
X39740000Y-71864750D01*
X39740000Y-72230310D01*
X39836673Y-72463699D01*
X40015302Y-72642327D01*
X40248691Y-72739000D01*
X41189250Y-72739000D01*
X41348000Y-72580250D01*
X41348000Y-71706000D01*
X41602000Y-71706000D01*
X41602000Y-72580250D01*
X41760750Y-72739000D01*
X42701309Y-72739000D01*
X42934698Y-72642327D01*
X43113327Y-72463699D01*
X43210000Y-72230310D01*
X43210000Y-71864750D01*
X43051250Y-71706000D01*
X41602000Y-71706000D01*
X41348000Y-71706000D01*
X39898750Y-71706000D01*
X39740000Y-71864750D01*
X33860135Y-71864750D01*
X33877032Y-71839462D01*
X33989904Y-71670538D01*
X33999480Y-71622395D01*
X34034000Y-71448852D01*
X34034000Y-71448848D01*
X34048888Y-71374000D01*
X34034000Y-71299152D01*
X34034000Y-69604000D01*
X34166560Y-69604000D01*
X34166560Y-70604000D01*
X34215843Y-70851765D01*
X34356191Y-71061809D01*
X34566235Y-71202157D01*
X34814000Y-71251440D01*
X35508464Y-71251440D01*
X35697290Y-71289000D01*
X39740000Y-71289000D01*
X39740000Y-71293250D01*
X39898750Y-71452000D01*
X41348000Y-71452000D01*
X41348000Y-70577750D01*
X41602000Y-70577750D01*
X41602000Y-71452000D01*
X43051250Y-71452000D01*
X43210000Y-71293250D01*
X43210000Y-70927690D01*
X43113327Y-70694301D01*
X42934698Y-70515673D01*
X42701309Y-70419000D01*
X41760750Y-70419000D01*
X41602000Y-70577750D01*
X41348000Y-70577750D01*
X41189250Y-70419000D01*
X41122440Y-70419000D01*
X41122440Y-70283853D01*
X41158215Y-70104000D01*
X41122440Y-69924147D01*
X41122440Y-69789000D01*
X41189250Y-69789000D01*
X41348000Y-69630250D01*
X41348000Y-68756000D01*
X41602000Y-68756000D01*
X41602000Y-69630250D01*
X41760750Y-69789000D01*
X42701309Y-69789000D01*
X42934698Y-69692327D01*
X43113327Y-69513699D01*
X43210000Y-69280310D01*
X43210000Y-68914750D01*
X43051250Y-68756000D01*
X41602000Y-68756000D01*
X41348000Y-68756000D01*
X39898750Y-68756000D01*
X39740000Y-68914750D01*
X39740000Y-68919000D01*
X37370842Y-68919000D01*
X37449000Y-68730310D01*
X37449000Y-68389750D01*
X37290250Y-68231000D01*
X35941000Y-68231000D01*
X35941000Y-68251000D01*
X35687000Y-68251000D01*
X35687000Y-68231000D01*
X34337750Y-68231000D01*
X34179000Y-68389750D01*
X34179000Y-68730310D01*
X34275673Y-68963699D01*
X34417320Y-69105345D01*
X34356191Y-69146191D01*
X34215843Y-69356235D01*
X34166560Y-69604000D01*
X34034000Y-69604000D01*
X34034000Y-67977690D01*
X39740000Y-67977690D01*
X39740000Y-68343250D01*
X39898750Y-68502000D01*
X41348000Y-68502000D01*
X41348000Y-67627750D01*
X41602000Y-67627750D01*
X41602000Y-68502000D01*
X43051250Y-68502000D01*
X43210000Y-68343250D01*
X43210000Y-67977690D01*
X43113327Y-67744301D01*
X42934698Y-67565673D01*
X42701309Y-67469000D01*
X41760750Y-67469000D01*
X41602000Y-67627750D01*
X41348000Y-67627750D01*
X41189250Y-67469000D01*
X40248691Y-67469000D01*
X40015302Y-67565673D01*
X39836673Y-67744301D01*
X39740000Y-67977690D01*
X34034000Y-67977690D01*
X34034000Y-63052802D01*
X34222802Y-62864000D01*
X34224018Y-62864000D01*
X34356191Y-63061809D01*
X34419334Y-63104000D01*
X34356191Y-63146191D01*
X34215843Y-63356235D01*
X34166560Y-63604000D01*
X34166560Y-64604000D01*
X34215843Y-64851765D01*
X34356191Y-65061809D01*
X34419334Y-65104000D01*
X34356191Y-65146191D01*
X34215843Y-65356235D01*
X34166560Y-65604000D01*
X34166560Y-66604000D01*
X34215843Y-66851765D01*
X34356191Y-67061809D01*
X34417320Y-67102655D01*
X34275673Y-67244301D01*
X34179000Y-67477690D01*
X34179000Y-67818250D01*
X34337750Y-67977000D01*
X35687000Y-67977000D01*
X35687000Y-67957000D01*
X35941000Y-67957000D01*
X35941000Y-67977000D01*
X37290250Y-67977000D01*
X37449000Y-67818250D01*
X37449000Y-67477690D01*
X37352327Y-67244301D01*
X37210680Y-67102655D01*
X37271809Y-67061809D01*
X37412157Y-66851765D01*
X37422454Y-66800000D01*
X42597153Y-66800000D01*
X42672000Y-66814888D01*
X42746847Y-66800000D01*
X42746852Y-66800000D01*
X42968537Y-66755904D01*
X43219929Y-66587929D01*
X43262330Y-66524471D01*
X43664475Y-66122327D01*
X43727929Y-66079929D01*
X43770327Y-66016476D01*
X43770329Y-66016474D01*
X43895903Y-65828538D01*
X43895904Y-65828537D01*
X43940000Y-65606852D01*
X43940000Y-65606848D01*
X43954888Y-65532001D01*
X43940000Y-65457154D01*
X43940000Y-60780846D01*
X43954888Y-60705999D01*
X43940000Y-60631152D01*
X43940000Y-60631148D01*
X43895904Y-60409463D01*
X43785585Y-60244359D01*
X43770329Y-60221526D01*
X43770327Y-60221524D01*
X43727929Y-60158071D01*
X43664475Y-60115672D01*
X43262330Y-59713529D01*
X43219929Y-59650071D01*
X42968537Y-59482096D01*
X42746852Y-59438000D01*
X42746847Y-59438000D01*
X42672000Y-59423112D01*
X42597153Y-59438000D01*
X39684802Y-59438000D01*
X39622000Y-59375198D01*
X39622000Y-55940801D01*
X40192802Y-55370000D01*
X43844427Y-55370000D01*
X43943191Y-55517809D01*
X44153235Y-55658157D01*
X44401000Y-55707440D01*
X45601000Y-55707440D01*
X45848765Y-55658157D01*
X46058809Y-55517809D01*
X46101000Y-55454666D01*
X46143191Y-55517809D01*
X46353235Y-55658157D01*
X46601000Y-55707440D01*
X47801000Y-55707440D01*
X48048765Y-55658157D01*
X48258809Y-55517809D01*
X48357573Y-55370000D01*
X50321427Y-55370000D01*
X50420191Y-55517809D01*
X50630235Y-55658157D01*
X50878000Y-55707440D01*
X52078000Y-55707440D01*
X52325765Y-55658157D01*
X52535809Y-55517809D01*
X52576654Y-55456680D01*
X52718302Y-55598327D01*
X52951691Y-55695000D01*
X53392250Y-55695000D01*
X53551000Y-55536250D01*
X53551000Y-54737000D01*
X53805000Y-54737000D01*
X53805000Y-55536250D01*
X53963750Y-55695000D01*
X54404309Y-55695000D01*
X54637698Y-55598327D01*
X54816327Y-55419699D01*
X54913000Y-55186310D01*
X54913000Y-54895750D01*
X54754250Y-54737000D01*
X53805000Y-54737000D01*
X53551000Y-54737000D01*
X53531000Y-54737000D01*
X53531000Y-54483000D01*
X53551000Y-54483000D01*
X53551000Y-53683750D01*
X53805000Y-53683750D01*
X53805000Y-54483000D01*
X54754250Y-54483000D01*
X54913000Y-54324250D01*
X54913000Y-54033690D01*
X54816327Y-53800301D01*
X54637698Y-53621673D01*
X54404309Y-53525000D01*
X53963750Y-53525000D01*
X53805000Y-53683750D01*
X53551000Y-53683750D01*
X53392250Y-53525000D01*
X52951691Y-53525000D01*
X52718302Y-53621673D01*
X52576654Y-53763320D01*
X52535809Y-53702191D01*
X52325765Y-53561843D01*
X52078000Y-53512560D01*
X50878000Y-53512560D01*
X50630235Y-53561843D01*
X50420191Y-53702191D01*
X50321427Y-53850000D01*
X48357573Y-53850000D01*
X48258809Y-53702191D01*
X48048765Y-53561843D01*
X47801000Y-53512560D01*
X46601000Y-53512560D01*
X46353235Y-53561843D01*
X46143191Y-53702191D01*
X46101000Y-53765334D01*
X46058809Y-53702191D01*
X45848765Y-53561843D01*
X45601000Y-53512560D01*
X44401000Y-53512560D01*
X44153235Y-53561843D01*
X43943191Y-53702191D01*
X43844427Y-53850000D01*
X39952847Y-53850000D01*
X39878000Y-53835112D01*
X39803153Y-53850000D01*
X39803148Y-53850000D01*
X39581463Y-53894096D01*
X39330071Y-54062071D01*
X39287671Y-54125527D01*
X39114000Y-54299198D01*
X39114000Y-51368802D01*
X39176802Y-51306000D01*
X43844427Y-51306000D01*
X43943191Y-51453809D01*
X44153235Y-51594157D01*
X44401000Y-51643440D01*
X45601000Y-51643440D01*
X45848765Y-51594157D01*
X46058809Y-51453809D01*
X46101000Y-51390666D01*
X46143191Y-51453809D01*
X46353235Y-51594157D01*
X46601000Y-51643440D01*
X47801000Y-51643440D01*
X48048765Y-51594157D01*
X48258809Y-51453809D01*
X48357573Y-51306000D01*
X50237427Y-51306000D01*
X50336191Y-51453809D01*
X50546235Y-51594157D01*
X50794000Y-51643440D01*
X51994000Y-51643440D01*
X52241765Y-51594157D01*
X52451809Y-51453809D01*
X52492654Y-51392680D01*
X52634302Y-51534327D01*
X52867691Y-51631000D01*
X53308250Y-51631000D01*
X53467000Y-51472250D01*
X53467000Y-50673000D01*
X53721000Y-50673000D01*
X53721000Y-51472250D01*
X53879750Y-51631000D01*
X54320309Y-51631000D01*
X54553698Y-51534327D01*
X54732327Y-51355699D01*
X54829000Y-51122310D01*
X54829000Y-50831750D01*
X54670250Y-50673000D01*
X53721000Y-50673000D01*
X53467000Y-50673000D01*
X53447000Y-50673000D01*
X53447000Y-50419000D01*
X53467000Y-50419000D01*
X53467000Y-49619750D01*
X53721000Y-49619750D01*
X53721000Y-50419000D01*
X54670250Y-50419000D01*
X54829000Y-50260250D01*
X54829000Y-49969690D01*
X54732327Y-49736301D01*
X54553698Y-49557673D01*
X54320309Y-49461000D01*
X53879750Y-49461000D01*
X53721000Y-49619750D01*
X53467000Y-49619750D01*
X53308250Y-49461000D01*
X52867691Y-49461000D01*
X52634302Y-49557673D01*
X52492654Y-49699320D01*
X52451809Y-49638191D01*
X52241765Y-49497843D01*
X51994000Y-49448560D01*
X50794000Y-49448560D01*
X50546235Y-49497843D01*
X50336191Y-49638191D01*
X50237427Y-49786000D01*
X48357573Y-49786000D01*
X48258809Y-49638191D01*
X48048765Y-49497843D01*
X47801000Y-49448560D01*
X46601000Y-49448560D01*
X46353235Y-49497843D01*
X46143191Y-49638191D01*
X46101000Y-49701334D01*
X46058809Y-49638191D01*
X45848765Y-49497843D01*
X45601000Y-49448560D01*
X44401000Y-49448560D01*
X44153235Y-49497843D01*
X43943191Y-49638191D01*
X43844427Y-49786000D01*
X39114000Y-49786000D01*
X39114000Y-49059846D01*
X39128888Y-48984999D01*
X39114000Y-48910152D01*
X39114000Y-48910148D01*
X39069904Y-48688463D01*
X38992345Y-48572388D01*
X38944329Y-48500526D01*
X38944327Y-48500524D01*
X38901929Y-48437071D01*
X38838476Y-48394673D01*
X35338847Y-44895046D01*
X35338847Y-44728973D01*
X35181278Y-44348567D01*
X34890127Y-44057416D01*
X34509721Y-43899847D01*
X34097973Y-43899847D01*
X33717567Y-44057416D01*
X33426416Y-44348567D01*
X33268847Y-44728973D01*
X33268847Y-45140721D01*
X33426416Y-45521127D01*
X33717567Y-45812278D01*
X34097973Y-45969847D01*
X34264046Y-45969847D01*
X37594001Y-49299804D01*
X37594000Y-50979152D01*
X37579112Y-51054000D01*
X37594000Y-51128847D01*
X37594000Y-51890851D01*
X37594001Y-51890856D01*
X37594000Y-59344000D01*
X37403982Y-59344000D01*
X37271809Y-59146191D01*
X37208666Y-59104000D01*
X37271809Y-59061809D01*
X37412157Y-58851765D01*
X37461440Y-58604000D01*
X37461440Y-57604000D01*
X37412157Y-57356235D01*
X37271809Y-57146191D01*
X37208666Y-57104000D01*
X37271809Y-57061809D01*
X37412157Y-56851765D01*
X37461440Y-56604000D01*
X37461440Y-55604000D01*
X37412157Y-55356235D01*
X37271809Y-55146191D01*
X37061765Y-55005843D01*
X36814000Y-54956560D01*
X34814000Y-54956560D01*
X34566235Y-55005843D01*
X34356191Y-55146191D01*
X34215843Y-55356235D01*
X34166560Y-55604000D01*
X34166560Y-56604000D01*
X34215843Y-56851765D01*
X34356191Y-57061809D01*
X34419334Y-57104000D01*
X34356191Y-57146191D01*
X34215843Y-57356235D01*
X34166560Y-57604000D01*
X34166560Y-58604000D01*
X34215843Y-58851765D01*
X34356191Y-59061809D01*
X34419334Y-59104000D01*
X34356191Y-59146191D01*
X34215843Y-59356235D01*
X34166560Y-59604000D01*
X34166560Y-60604000D01*
X34215843Y-60851765D01*
X34356191Y-61061809D01*
X34419334Y-61104000D01*
X34356191Y-61146191D01*
X34224018Y-61344000D01*
X33982846Y-61344000D01*
X33907999Y-61329112D01*
X33833152Y-61344000D01*
X33833148Y-61344000D01*
X33611463Y-61388096D01*
X33611461Y-61388097D01*
X33611462Y-61388097D01*
X33423526Y-61513671D01*
X33423524Y-61513673D01*
X33360071Y-61556071D01*
X33317672Y-61619525D01*
X32789528Y-62147671D01*
X32726072Y-62190071D01*
X32683672Y-62253527D01*
X32683671Y-62253528D01*
X32558097Y-62441463D01*
X32499112Y-62738000D01*
X32514001Y-62812852D01*
X32514000Y-71059198D01*
X32197199Y-71376000D01*
X11236802Y-71376000D01*
X10920000Y-71059199D01*
X10920000Y-70389750D01*
X18179000Y-70389750D01*
X18179000Y-70730310D01*
X18275673Y-70963699D01*
X18454302Y-71142327D01*
X18687691Y-71239000D01*
X19528250Y-71239000D01*
X19687000Y-71080250D01*
X19687000Y-70231000D01*
X19941000Y-70231000D01*
X19941000Y-71080250D01*
X20099750Y-71239000D01*
X20940309Y-71239000D01*
X21173698Y-71142327D01*
X21352327Y-70963699D01*
X21449000Y-70730310D01*
X21449000Y-70389750D01*
X21290250Y-70231000D01*
X19941000Y-70231000D01*
X19687000Y-70231000D01*
X18337750Y-70231000D01*
X18179000Y-70389750D01*
X10920000Y-70389750D01*
X10920000Y-68184925D01*
X11791044Y-68184925D01*
X12038809Y-68135642D01*
X12248853Y-67995294D01*
X12347617Y-67847485D01*
X16855197Y-67847485D01*
X16930044Y-67862373D01*
X17004891Y-67847485D01*
X17004896Y-67847485D01*
X17226581Y-67803389D01*
X17477973Y-67635414D01*
X17520375Y-67571955D01*
X18225746Y-66866585D01*
X18356191Y-67061809D01*
X18419334Y-67104000D01*
X18356191Y-67146191D01*
X18215843Y-67356235D01*
X18166560Y-67604000D01*
X18166560Y-68604000D01*
X18215843Y-68851765D01*
X18356191Y-69061809D01*
X18417320Y-69102655D01*
X18275673Y-69244301D01*
X18179000Y-69477690D01*
X18179000Y-69818250D01*
X18337750Y-69977000D01*
X19687000Y-69977000D01*
X19687000Y-69957000D01*
X19941000Y-69957000D01*
X19941000Y-69977000D01*
X21290250Y-69977000D01*
X21449000Y-69818250D01*
X21449000Y-69477690D01*
X21352327Y-69244301D01*
X21210680Y-69102655D01*
X21271809Y-69061809D01*
X21412157Y-68851765D01*
X21461440Y-68604000D01*
X21461440Y-67604000D01*
X21412157Y-67356235D01*
X21271809Y-67146191D01*
X21208666Y-67104000D01*
X21271809Y-67061809D01*
X21412157Y-66851765D01*
X21461440Y-66604000D01*
X21461440Y-65604000D01*
X21412157Y-65356235D01*
X21271809Y-65146191D01*
X21208666Y-65104000D01*
X21271809Y-65061809D01*
X21412157Y-64851765D01*
X21461440Y-64604000D01*
X21461440Y-63604000D01*
X21412157Y-63356235D01*
X21271809Y-63146191D01*
X21208666Y-63104000D01*
X21271809Y-63061809D01*
X21412157Y-62851765D01*
X21461440Y-62604000D01*
X21461440Y-61604000D01*
X21412157Y-61356235D01*
X21271809Y-61146191D01*
X21208666Y-61104000D01*
X21271809Y-61061809D01*
X21412157Y-60851765D01*
X21461440Y-60604000D01*
X21461440Y-59604000D01*
X21412157Y-59356235D01*
X21271809Y-59146191D01*
X21208666Y-59104000D01*
X21271809Y-59061809D01*
X21412157Y-58851765D01*
X21461440Y-58604000D01*
X21461440Y-57604000D01*
X21412157Y-57356235D01*
X21271809Y-57146191D01*
X21210680Y-57105345D01*
X21352327Y-56963699D01*
X21449000Y-56730310D01*
X21449000Y-56389750D01*
X21290250Y-56231000D01*
X19941000Y-56231000D01*
X19941000Y-56251000D01*
X19687000Y-56251000D01*
X19687000Y-56231000D01*
X18337750Y-56231000D01*
X18179000Y-56389750D01*
X18179000Y-56730310D01*
X18275673Y-56963699D01*
X18407766Y-57095792D01*
X18184918Y-57003485D01*
X17773170Y-57003485D01*
X17392764Y-57161054D01*
X17101613Y-57452205D01*
X16944044Y-57832611D01*
X16944044Y-58244359D01*
X17101613Y-58624765D01*
X17392764Y-58915916D01*
X17688672Y-59038485D01*
X17392764Y-59161054D01*
X17101613Y-59452205D01*
X16944044Y-59832611D01*
X16944044Y-60244359D01*
X17101613Y-60624765D01*
X17392764Y-60915916D01*
X17688672Y-61038485D01*
X17392764Y-61161054D01*
X17101613Y-61452205D01*
X16944044Y-61832611D01*
X16944044Y-62244359D01*
X17101613Y-62624765D01*
X17392764Y-62915916D01*
X17773170Y-63073485D01*
X18184918Y-63073485D01*
X18325174Y-63015389D01*
X18356191Y-63061809D01*
X18419334Y-63104000D01*
X18356191Y-63146191D01*
X18224018Y-63344000D01*
X15396802Y-63344000D01*
X14306331Y-62253530D01*
X14306329Y-62253527D01*
X14263929Y-62190071D01*
X14200473Y-62147671D01*
X12274333Y-60221532D01*
X12274329Y-60221526D01*
X11766332Y-59713531D01*
X11766329Y-59713526D01*
X11428000Y-59375198D01*
X11428000Y-55477690D01*
X18179000Y-55477690D01*
X18179000Y-55818250D01*
X18337750Y-55977000D01*
X19687000Y-55977000D01*
X19687000Y-55127750D01*
X19941000Y-55127750D01*
X19941000Y-55977000D01*
X21290250Y-55977000D01*
X21449000Y-55818250D01*
X21449000Y-55477690D01*
X21352327Y-55244301D01*
X21173698Y-55065673D01*
X20940309Y-54969000D01*
X20099750Y-54969000D01*
X19941000Y-55127750D01*
X19687000Y-55127750D01*
X19528250Y-54969000D01*
X18687691Y-54969000D01*
X18454302Y-55065673D01*
X18275673Y-55244301D01*
X18179000Y-55477690D01*
X11428000Y-55477690D01*
X11428000Y-52513211D01*
X13143212Y-50798000D01*
X14925198Y-50798000D01*
X15157672Y-51030475D01*
X15200071Y-51093929D01*
X15263524Y-51136327D01*
X15263526Y-51136329D01*
X15388902Y-51220102D01*
X15451463Y-51261904D01*
X15522279Y-51275990D01*
X15669720Y-51423431D01*
X16050126Y-51581000D01*
X16461874Y-51581000D01*
X16842280Y-51423431D01*
X17133431Y-51132280D01*
X17291000Y-50751874D01*
X17291000Y-50340126D01*
X17207009Y-50137355D01*
X17265084Y-50079280D01*
X17422653Y-49698874D01*
X17422653Y-49287126D01*
X17312006Y-49020000D01*
X22023153Y-49020000D01*
X22098000Y-49034888D01*
X22172847Y-49020000D01*
X22172852Y-49020000D01*
X22394537Y-48975904D01*
X22645929Y-48807929D01*
X22688331Y-48744470D01*
X23344473Y-48088329D01*
X23407929Y-48045929D01*
X23567145Y-47807646D01*
X23575904Y-47794538D01*
X23585480Y-47746395D01*
X23620000Y-47572852D01*
X23620000Y-47572848D01*
X23634888Y-47498000D01*
X23620000Y-47423152D01*
X23620000Y-45751612D01*
X23646191Y-45790809D01*
X23856235Y-45931157D01*
X24104000Y-45980440D01*
X25304000Y-45980440D01*
X25551765Y-45931157D01*
X25643102Y-45870127D01*
X25644302Y-45871327D01*
X25877691Y-45968000D01*
X26318250Y-45968000D01*
X26477000Y-45809250D01*
X26477000Y-45085000D01*
X26731000Y-45085000D01*
X26731000Y-45809250D01*
X26889750Y-45968000D01*
X27330309Y-45968000D01*
X27563698Y-45871327D01*
X27742327Y-45692699D01*
X27839000Y-45459310D01*
X27839000Y-45243750D01*
X27680250Y-45085000D01*
X26731000Y-45085000D01*
X26477000Y-45085000D01*
X26457000Y-45085000D01*
X26457000Y-44831000D01*
X26477000Y-44831000D01*
X26477000Y-44106750D01*
X26731000Y-44106750D01*
X26731000Y-44831000D01*
X27680250Y-44831000D01*
X27839000Y-44672250D01*
X27839000Y-44456690D01*
X27742327Y-44223301D01*
X27563698Y-44044673D01*
X27330309Y-43948000D01*
X26889750Y-43948000D01*
X26731000Y-44106750D01*
X26477000Y-44106750D01*
X26318250Y-43948000D01*
X25877691Y-43948000D01*
X25644302Y-44044673D01*
X25643102Y-44045873D01*
X25551765Y-43984843D01*
X25464000Y-43967386D01*
X25464000Y-43063191D01*
X25579809Y-42985809D01*
X25622000Y-42922666D01*
X25664191Y-42985809D01*
X25874235Y-43126157D01*
X26122000Y-43175440D01*
X27122000Y-43175440D01*
X27369765Y-43126157D01*
X27579809Y-42985809D01*
X27622000Y-42922666D01*
X27664191Y-42985809D01*
X27874235Y-43126157D01*
X28122000Y-43175440D01*
X29122000Y-43175440D01*
X29369765Y-43126157D01*
X29579809Y-42985809D01*
X29622000Y-42922666D01*
X29664191Y-42985809D01*
X29874235Y-43126157D01*
X30122000Y-43175440D01*
X31122000Y-43175440D01*
X31204086Y-43159112D01*
X30337528Y-44025671D01*
X30274072Y-44068071D01*
X30231672Y-44131527D01*
X30231671Y-44131528D01*
X30106097Y-44319463D01*
X30047112Y-44616000D01*
X30062001Y-44690851D01*
X30062000Y-46153153D01*
X30047112Y-46228000D01*
X30062000Y-46302847D01*
X30062000Y-46302851D01*
X30106096Y-46524536D01*
X30274071Y-46775929D01*
X30337530Y-46818331D01*
X30461000Y-46941801D01*
X30461000Y-47107874D01*
X30618569Y-47488280D01*
X30909720Y-47779431D01*
X31290126Y-47937000D01*
X31701874Y-47937000D01*
X32082280Y-47779431D01*
X32373431Y-47488280D01*
X32531000Y-47107874D01*
X32531000Y-46696126D01*
X32373431Y-46315720D01*
X32082280Y-46024569D01*
X31701874Y-45867000D01*
X31582000Y-45867000D01*
X31582000Y-44930801D01*
X33504476Y-43008327D01*
X33567929Y-42965929D01*
X33610327Y-42902476D01*
X33610329Y-42902474D01*
X33694993Y-42775765D01*
X33735904Y-42714537D01*
X33780000Y-42492852D01*
X33780000Y-42492848D01*
X33794888Y-42418001D01*
X33780000Y-42343154D01*
X33780000Y-40642811D01*
X34096802Y-40326010D01*
X34933209Y-40326010D01*
X38885527Y-44278329D01*
X38885530Y-44278331D01*
X40663527Y-46056329D01*
X40663530Y-46056331D01*
X41573671Y-46966473D01*
X41616071Y-47029929D01*
X41867463Y-47197904D01*
X42089148Y-47242000D01*
X42089153Y-47242000D01*
X42164000Y-47256888D01*
X42238847Y-47242000D01*
X43844427Y-47242000D01*
X43943191Y-47389809D01*
X44153235Y-47530157D01*
X44401000Y-47579440D01*
X45601000Y-47579440D01*
X45848765Y-47530157D01*
X46058809Y-47389809D01*
X46101000Y-47326666D01*
X46143191Y-47389809D01*
X46353235Y-47530157D01*
X46601000Y-47579440D01*
X47801000Y-47579440D01*
X48048765Y-47530157D01*
X48258809Y-47389809D01*
X48357573Y-47242000D01*
X50321427Y-47242000D01*
X50420191Y-47389809D01*
X50630235Y-47530157D01*
X50878000Y-47579440D01*
X52078000Y-47579440D01*
X52325765Y-47530157D01*
X52535809Y-47389809D01*
X52576654Y-47328680D01*
X52718302Y-47470327D01*
X52951691Y-47567000D01*
X53392250Y-47567000D01*
X53551000Y-47408250D01*
X53551000Y-46609000D01*
X53805000Y-46609000D01*
X53805000Y-47408250D01*
X53963750Y-47567000D01*
X54404309Y-47567000D01*
X54637698Y-47470327D01*
X54816327Y-47291699D01*
X54913000Y-47058310D01*
X54913000Y-46767750D01*
X54754250Y-46609000D01*
X53805000Y-46609000D01*
X53551000Y-46609000D01*
X53531000Y-46609000D01*
X53531000Y-46355000D01*
X53551000Y-46355000D01*
X53551000Y-45555750D01*
X53805000Y-45555750D01*
X53805000Y-46355000D01*
X54754250Y-46355000D01*
X54913000Y-46196250D01*
X54913000Y-45905690D01*
X54816327Y-45672301D01*
X54637698Y-45493673D01*
X54404309Y-45397000D01*
X53963750Y-45397000D01*
X53805000Y-45555750D01*
X53551000Y-45555750D01*
X53392250Y-45397000D01*
X52951691Y-45397000D01*
X52718302Y-45493673D01*
X52576654Y-45635320D01*
X52535809Y-45574191D01*
X52325765Y-45433843D01*
X52078000Y-45384560D01*
X50878000Y-45384560D01*
X50630235Y-45433843D01*
X50420191Y-45574191D01*
X50321427Y-45722000D01*
X48357573Y-45722000D01*
X48258809Y-45574191D01*
X48048765Y-45433843D01*
X47801000Y-45384560D01*
X46601000Y-45384560D01*
X46353235Y-45433843D01*
X46143191Y-45574191D01*
X46101000Y-45637334D01*
X46058809Y-45574191D01*
X45848765Y-45433843D01*
X45601000Y-45384560D01*
X44401000Y-45384560D01*
X44153235Y-45433843D01*
X43943191Y-45574191D01*
X43844427Y-45722000D01*
X42478802Y-45722000D01*
X41738331Y-44981530D01*
X41738329Y-44981527D01*
X39960331Y-43203530D01*
X39960329Y-43203527D01*
X39934802Y-43178000D01*
X43844427Y-43178000D01*
X43943191Y-43325809D01*
X44153235Y-43466157D01*
X44401000Y-43515440D01*
X45601000Y-43515440D01*
X45848765Y-43466157D01*
X46058809Y-43325809D01*
X46101000Y-43262666D01*
X46143191Y-43325809D01*
X46353235Y-43466157D01*
X46601000Y-43515440D01*
X47801000Y-43515440D01*
X48048765Y-43466157D01*
X48258809Y-43325809D01*
X48357573Y-43178000D01*
X50237427Y-43178000D01*
X50336191Y-43325809D01*
X50546235Y-43466157D01*
X50794000Y-43515440D01*
X51994000Y-43515440D01*
X52241765Y-43466157D01*
X52451809Y-43325809D01*
X52492654Y-43264680D01*
X52634302Y-43406327D01*
X52867691Y-43503000D01*
X53308250Y-43503000D01*
X53467000Y-43344250D01*
X53467000Y-42545000D01*
X53721000Y-42545000D01*
X53721000Y-43344250D01*
X53879750Y-43503000D01*
X54320309Y-43503000D01*
X54553698Y-43406327D01*
X54732327Y-43227699D01*
X54829000Y-42994310D01*
X54829000Y-42703750D01*
X54670250Y-42545000D01*
X53721000Y-42545000D01*
X53467000Y-42545000D01*
X53447000Y-42545000D01*
X53447000Y-42291000D01*
X53467000Y-42291000D01*
X53467000Y-41491750D01*
X53721000Y-41491750D01*
X53721000Y-42291000D01*
X54670250Y-42291000D01*
X54829000Y-42132250D01*
X54829000Y-41841690D01*
X54732327Y-41608301D01*
X54553698Y-41429673D01*
X54320309Y-41333000D01*
X53879750Y-41333000D01*
X53721000Y-41491750D01*
X53467000Y-41491750D01*
X53308250Y-41333000D01*
X52867691Y-41333000D01*
X52634302Y-41429673D01*
X52492654Y-41571320D01*
X52451809Y-41510191D01*
X52241765Y-41369843D01*
X51994000Y-41320560D01*
X50794000Y-41320560D01*
X50546235Y-41369843D01*
X50336191Y-41510191D01*
X50237427Y-41658000D01*
X48357573Y-41658000D01*
X48258809Y-41510191D01*
X48048765Y-41369843D01*
X47801000Y-41320560D01*
X46601000Y-41320560D01*
X46353235Y-41369843D01*
X46143191Y-41510191D01*
X46101000Y-41573334D01*
X46058809Y-41510191D01*
X45848765Y-41369843D01*
X45601000Y-41320560D01*
X44401000Y-41320560D01*
X44153235Y-41369843D01*
X43943191Y-41510191D01*
X43844427Y-41658000D01*
X39051212Y-41658000D01*
X36024740Y-38631529D01*
X35982340Y-38568073D01*
X35918882Y-38525671D01*
X35730948Y-38400098D01*
X35434411Y-38341113D01*
X35359559Y-38356002D01*
X22608846Y-38356000D01*
X22533999Y-38341112D01*
X22459152Y-38356000D01*
X22459149Y-38356000D01*
X22237464Y-38400096D01*
X22237463Y-38400097D01*
X22237462Y-38400097D01*
X22049526Y-38525671D01*
X22049522Y-38525675D01*
X21986072Y-38568071D01*
X21943676Y-38631521D01*
X20694638Y-39880560D01*
X20122000Y-39880560D01*
X19874235Y-39929843D01*
X19664191Y-40070191D01*
X19623345Y-40131320D01*
X19481699Y-39989673D01*
X19248310Y-39893000D01*
X18907750Y-39893000D01*
X18749000Y-40051750D01*
X18749000Y-41401000D01*
X18769000Y-41401000D01*
X18769000Y-41655000D01*
X18749000Y-41655000D01*
X18749000Y-43004250D01*
X18907750Y-43163000D01*
X19248310Y-43163000D01*
X19481699Y-43066327D01*
X19623345Y-42924680D01*
X19664191Y-42985809D01*
X19874235Y-43126157D01*
X20122000Y-43175440D01*
X21122000Y-43175440D01*
X21369765Y-43126157D01*
X21579809Y-42985809D01*
X21622000Y-42922666D01*
X21664191Y-42985809D01*
X21874235Y-43126157D01*
X22122000Y-43175440D01*
X22399759Y-43175440D01*
X22375528Y-43199671D01*
X22312072Y-43242071D01*
X22269672Y-43305527D01*
X22269671Y-43305528D01*
X22144097Y-43493463D01*
X22085112Y-43790000D01*
X22100001Y-43864852D01*
X22100000Y-47183198D01*
X21783199Y-47500000D01*
X14044846Y-47500000D01*
X13969999Y-47485112D01*
X13895152Y-47500000D01*
X13895148Y-47500000D01*
X13673463Y-47544096D01*
X13673461Y-47544097D01*
X13673462Y-47544097D01*
X13485526Y-47669671D01*
X13485524Y-47669673D01*
X13422071Y-47712071D01*
X13379673Y-47775524D01*
X12252532Y-48902667D01*
X12252526Y-48902671D01*
X12252524Y-48902673D01*
X12189071Y-48945071D01*
X12146673Y-49008524D01*
X9675528Y-51479671D01*
X9612072Y-51522071D01*
X9569672Y-51585527D01*
X9569671Y-51585528D01*
X9444097Y-51773463D01*
X9385112Y-52070000D01*
X9400001Y-52144852D01*
X9400000Y-54027148D01*
X9400000Y-54027149D01*
X9400001Y-61139144D01*
X9400000Y-61139149D01*
X9400000Y-61435726D01*
X9163682Y-61672045D01*
X8391044Y-61672045D01*
X8143279Y-61721328D01*
X7933235Y-61861676D01*
X7792887Y-62071720D01*
X7743604Y-62319485D01*
X735000Y-62319485D01*
X735000Y-43289750D01*
X9728000Y-43289750D01*
X9728000Y-43655310D01*
X9824673Y-43888699D01*
X10003302Y-44067327D01*
X10236691Y-44164000D01*
X11177250Y-44164000D01*
X11336000Y-44005250D01*
X11336000Y-43131000D01*
X11590000Y-43131000D01*
X11590000Y-44005250D01*
X11748750Y-44164000D01*
X12689309Y-44164000D01*
X12922698Y-44067327D01*
X13101327Y-43888699D01*
X13198000Y-43655310D01*
X13198000Y-43289750D01*
X13039250Y-43131000D01*
X11590000Y-43131000D01*
X11336000Y-43131000D01*
X9886750Y-43131000D01*
X9728000Y-43289750D01*
X735000Y-43289750D01*
X735000Y-42352690D01*
X9728000Y-42352690D01*
X9728000Y-42718250D01*
X9886750Y-42877000D01*
X11336000Y-42877000D01*
X11336000Y-42002750D01*
X11177250Y-41844000D01*
X10236691Y-41844000D01*
X10003302Y-41940673D01*
X9824673Y-42119301D01*
X9728000Y-42352690D01*
X735000Y-42352690D01*
X735000Y-40339750D01*
X9728000Y-40339750D01*
X9728000Y-40705310D01*
X9824673Y-40938699D01*
X10003302Y-41117327D01*
X10236691Y-41214000D01*
X11177250Y-41214000D01*
X11336000Y-41055250D01*
X11336000Y-40181000D01*
X11590000Y-40181000D01*
X11590000Y-41055250D01*
X11748750Y-41214000D01*
X11815560Y-41214000D01*
X11815560Y-41349147D01*
X11779785Y-41529000D01*
X11815560Y-41708853D01*
X11815560Y-41844000D01*
X11748750Y-41844000D01*
X11590000Y-42002750D01*
X11590000Y-42877000D01*
X13039250Y-42877000D01*
X13198000Y-42718250D01*
X13198000Y-42714000D01*
X15511557Y-42714000D01*
X15523843Y-42775765D01*
X15664191Y-42985809D01*
X15874235Y-43126157D01*
X16122000Y-43175440D01*
X17122000Y-43175440D01*
X17369765Y-43126157D01*
X17579809Y-42985809D01*
X17620655Y-42924680D01*
X17762301Y-43066327D01*
X17995690Y-43163000D01*
X18336250Y-43163000D01*
X18495000Y-43004250D01*
X18495000Y-41655000D01*
X18475000Y-41655000D01*
X18475000Y-41401000D01*
X18495000Y-41401000D01*
X18495000Y-40051750D01*
X18336250Y-39893000D01*
X17995690Y-39893000D01*
X17762301Y-39989673D01*
X17620655Y-40131320D01*
X17579809Y-40070191D01*
X17369765Y-39929843D01*
X17122000Y-39880560D01*
X16122000Y-39880560D01*
X15874235Y-39929843D01*
X15664191Y-40070191D01*
X15523843Y-40280235D01*
X15511159Y-40344000D01*
X13198000Y-40344000D01*
X13198000Y-40339750D01*
X13039250Y-40181000D01*
X11590000Y-40181000D01*
X11336000Y-40181000D01*
X9886750Y-40181000D01*
X9728000Y-40339750D01*
X735000Y-40339750D01*
X735000Y-39402690D01*
X9728000Y-39402690D01*
X9728000Y-39768250D01*
X9886750Y-39927000D01*
X11336000Y-39927000D01*
X11336000Y-39052750D01*
X11590000Y-39052750D01*
X11590000Y-39927000D01*
X13039250Y-39927000D01*
X13198000Y-39768250D01*
X13198000Y-39402690D01*
X13101327Y-39169301D01*
X12922698Y-38990673D01*
X12689309Y-38894000D01*
X11748750Y-38894000D01*
X11590000Y-39052750D01*
X11336000Y-39052750D01*
X11177250Y-38894000D01*
X10236691Y-38894000D01*
X10003302Y-38990673D01*
X9824673Y-39169301D01*
X9728000Y-39402690D01*
X735000Y-39402690D01*
X735000Y-25813750D01*
X15487000Y-25813750D01*
X15487000Y-26654309D01*
X15583673Y-26887698D01*
X15762301Y-27066327D01*
X15995690Y-27163000D01*
X16336250Y-27163000D01*
X16495000Y-27004250D01*
X16495000Y-25655000D01*
X15645750Y-25655000D01*
X15487000Y-25813750D01*
X735000Y-25813750D01*
X735000Y-24401691D01*
X15487000Y-24401691D01*
X15487000Y-25242250D01*
X15645750Y-25401000D01*
X16495000Y-25401000D01*
X16495000Y-24051750D01*
X16749000Y-24051750D01*
X16749000Y-25401000D01*
X16769000Y-25401000D01*
X16769000Y-25655000D01*
X16749000Y-25655000D01*
X16749000Y-27004250D01*
X16907750Y-27163000D01*
X17248310Y-27163000D01*
X17481699Y-27066327D01*
X17623345Y-26924680D01*
X17664191Y-26985809D01*
X17874235Y-27126157D01*
X18122000Y-27175440D01*
X19122000Y-27175440D01*
X19369765Y-27126157D01*
X19579809Y-26985809D01*
X19622000Y-26922666D01*
X19664191Y-26985809D01*
X19874235Y-27126157D01*
X20122000Y-27175440D01*
X21122000Y-27175440D01*
X21369765Y-27126157D01*
X21579809Y-26985809D01*
X21622000Y-26922666D01*
X21664191Y-26985809D01*
X21874235Y-27126157D01*
X22122000Y-27175440D01*
X23122000Y-27175440D01*
X23369765Y-27126157D01*
X23579809Y-26985809D01*
X23622000Y-26922666D01*
X23664191Y-26985809D01*
X23874235Y-27126157D01*
X23887862Y-27128868D01*
X23906096Y-27220536D01*
X24074071Y-27471929D01*
X24137530Y-27514331D01*
X25402001Y-28778802D01*
X25402000Y-29391972D01*
X25387112Y-29466820D01*
X25402000Y-29541667D01*
X25402000Y-29541671D01*
X25446096Y-29763356D01*
X25614071Y-30014749D01*
X25677530Y-30057151D01*
X26468871Y-30848493D01*
X26511269Y-30911946D01*
X26574722Y-30954344D01*
X26574725Y-30954347D01*
X26762661Y-31079922D01*
X27059198Y-31138906D01*
X27134051Y-31124017D01*
X33097218Y-31124019D01*
X34271000Y-32297802D01*
X34271000Y-32463874D01*
X34428569Y-32844280D01*
X34719720Y-33135431D01*
X35100126Y-33293000D01*
X35511874Y-33293000D01*
X35892280Y-33135431D01*
X36183431Y-32844280D01*
X36321339Y-32511339D01*
X36654280Y-32373431D01*
X36945431Y-32082280D01*
X37103000Y-31701874D01*
X37103000Y-31487196D01*
X37416280Y-31357431D01*
X37707431Y-31066280D01*
X37865000Y-30685874D01*
X37865000Y-30274126D01*
X37707431Y-29893720D01*
X37416280Y-29602569D01*
X37035874Y-29445000D01*
X36869802Y-29445000D01*
X36404331Y-28979530D01*
X36361929Y-28916071D01*
X36110537Y-28748096D01*
X35888852Y-28704000D01*
X35888847Y-28704000D01*
X35814000Y-28689112D01*
X35739153Y-28704000D01*
X27996801Y-28704000D01*
X29106476Y-27594327D01*
X29169929Y-27551929D01*
X29212327Y-27488476D01*
X29212329Y-27488474D01*
X29337903Y-27300538D01*
X29337904Y-27300537D01*
X29373024Y-27123980D01*
X29579809Y-26985809D01*
X29620655Y-26924680D01*
X29762301Y-27066327D01*
X29995690Y-27163000D01*
X30336250Y-27163000D01*
X30495000Y-27004250D01*
X30495000Y-25655000D01*
X30749000Y-25655000D01*
X30749000Y-27004250D01*
X30907750Y-27163000D01*
X31248310Y-27163000D01*
X31481699Y-27066327D01*
X31660327Y-26887698D01*
X31757000Y-26654309D01*
X31757000Y-25813750D01*
X31598250Y-25655000D01*
X30749000Y-25655000D01*
X30495000Y-25655000D01*
X30475000Y-25655000D01*
X30475000Y-25401000D01*
X30495000Y-25401000D01*
X30495000Y-24051750D01*
X30749000Y-24051750D01*
X30749000Y-25401000D01*
X31598250Y-25401000D01*
X31757000Y-25242250D01*
X31757000Y-24401691D01*
X31660327Y-24168302D01*
X31481699Y-23989673D01*
X31248310Y-23893000D01*
X30907750Y-23893000D01*
X30749000Y-24051750D01*
X30495000Y-24051750D01*
X30336250Y-23893000D01*
X29995690Y-23893000D01*
X29762301Y-23989673D01*
X29620655Y-24131320D01*
X29579809Y-24070191D01*
X29369765Y-23929843D01*
X29122000Y-23880560D01*
X28122000Y-23880560D01*
X27874235Y-23929843D01*
X27664191Y-24070191D01*
X27622000Y-24133334D01*
X27579809Y-24070191D01*
X27369765Y-23929843D01*
X27122000Y-23880560D01*
X26122000Y-23880560D01*
X25874235Y-23929843D01*
X25664191Y-24070191D01*
X25622000Y-24133334D01*
X25579809Y-24070191D01*
X25369765Y-23929843D01*
X25122000Y-23880560D01*
X24122000Y-23880560D01*
X23874235Y-23929843D01*
X23664191Y-24070191D01*
X23622000Y-24133334D01*
X23579809Y-24070191D01*
X23369765Y-23929843D01*
X23366000Y-23929094D01*
X23366000Y-23168846D01*
X23380888Y-23093999D01*
X23366000Y-23019152D01*
X23366000Y-14792801D01*
X23936802Y-14222000D01*
X36774000Y-14222000D01*
X36774000Y-14429874D01*
X36931569Y-14810280D01*
X37222720Y-15101431D01*
X37603126Y-15259000D01*
X38014874Y-15259000D01*
X38395280Y-15101431D01*
X38686431Y-14810280D01*
X38791021Y-14557777D01*
X38815904Y-14520537D01*
X38824642Y-14476609D01*
X38844000Y-14429874D01*
X38844000Y-14379289D01*
X38872676Y-14235125D01*
X40468329Y-12639473D01*
X40468330Y-12639471D01*
X40664483Y-12443319D01*
X40727939Y-12400919D01*
X40895914Y-12149527D01*
X40940010Y-11927841D01*
X40940010Y-11927838D01*
X40954898Y-11852990D01*
X40940010Y-11778142D01*
X40940010Y-7886791D01*
X40998898Y-7827903D01*
X41230329Y-7596473D01*
X41230331Y-7596470D01*
X41505470Y-7321331D01*
X41568929Y-7278929D01*
X41736904Y-7027537D01*
X41752113Y-6951078D01*
X42123744Y-7025000D01*
X42416256Y-7025000D01*
X42849418Y-6938839D01*
X43340625Y-6610625D01*
X43540000Y-6312239D01*
X43739375Y-6610625D01*
X44230582Y-6938839D01*
X44663744Y-7025000D01*
X44956256Y-7025000D01*
X45389418Y-6938839D01*
X45880625Y-6610625D01*
X46080000Y-6312239D01*
X46279375Y-6610625D01*
X46770582Y-6938839D01*
X47203744Y-7025000D01*
X47496256Y-7025000D01*
X47929418Y-6938839D01*
X48420625Y-6610625D01*
X48620000Y-6312239D01*
X48819375Y-6610625D01*
X49310582Y-6938839D01*
X49743744Y-7025000D01*
X50036256Y-7025000D01*
X50469418Y-6938839D01*
X50960625Y-6610625D01*
X51160000Y-6312239D01*
X51359375Y-6610625D01*
X51850582Y-6938839D01*
X52283744Y-7025000D01*
X52576256Y-7025000D01*
X53009418Y-6938839D01*
X53500625Y-6610625D01*
X53828839Y-6119418D01*
X53944092Y-5540000D01*
X53828839Y-4960582D01*
X53500625Y-4469375D01*
X53202239Y-4270000D01*
X53500625Y-4070625D01*
X53828839Y-3579418D01*
X53944092Y-3000000D01*
X53828839Y-2420582D01*
X53500625Y-1929375D01*
X53009418Y-1601161D01*
X52576256Y-1515000D01*
X52283744Y-1515000D01*
X51850582Y-1601161D01*
X51359375Y-1929375D01*
X51160000Y-2227761D01*
X50960625Y-1929375D01*
X50469418Y-1601161D01*
X50036256Y-1515000D01*
X49743744Y-1515000D01*
X49310582Y-1601161D01*
X48819375Y-1929375D01*
X48620000Y-2227761D01*
X48420625Y-1929375D01*
X47929418Y-1601161D01*
X47496256Y-1515000D01*
X47203744Y-1515000D01*
X46770582Y-1601161D01*
X46279375Y-1929375D01*
X46080000Y-2227761D01*
X45880625Y-1929375D01*
X45389418Y-1601161D01*
X44956256Y-1515000D01*
X44663744Y-1515000D01*
X44230582Y-1601161D01*
X43739375Y-1929375D01*
X43540000Y-2227761D01*
X43340625Y-1929375D01*
X42849418Y-1601161D01*
X42416256Y-1515000D01*
X42123744Y-1515000D01*
X41690582Y-1601161D01*
X41199375Y-1929375D01*
X41000000Y-2227761D01*
X40800625Y-1929375D01*
X40309418Y-1601161D01*
X39876256Y-1515000D01*
X39583744Y-1515000D01*
X39150582Y-1601161D01*
X38659375Y-1929375D01*
X38460000Y-2227761D01*
X38260625Y-1929375D01*
X37769418Y-1601161D01*
X37336256Y-1515000D01*
X37043744Y-1515000D01*
X36610582Y-1601161D01*
X36119375Y-1929375D01*
X35920000Y-2227761D01*
X35720625Y-1929375D01*
X35229418Y-1601161D01*
X34796256Y-1515000D01*
X34503744Y-1515000D01*
X34070582Y-1601161D01*
X33579375Y-1929375D01*
X33380000Y-2227761D01*
X33180625Y-1929375D01*
X32689418Y-1601161D01*
X32256256Y-1515000D01*
X31963744Y-1515000D01*
X31530582Y-1601161D01*
X31039375Y-1929375D01*
X30840000Y-2227761D01*
X30640625Y-1929375D01*
X30149418Y-1601161D01*
X29716256Y-1515000D01*
X29423744Y-1515000D01*
X28990582Y-1601161D01*
X28499375Y-1929375D01*
X28171161Y-2420582D01*
X28055908Y-3000000D01*
X28171161Y-3579418D01*
X28499375Y-4070625D01*
X28521032Y-4085096D01*
X28360301Y-4151673D01*
X28181673Y-4330302D01*
X28085000Y-4563691D01*
X28085000Y-5254250D01*
X28243750Y-5413000D01*
X29443000Y-5413000D01*
X29443000Y-5393000D01*
X29697000Y-5393000D01*
X29697000Y-5413000D01*
X29717000Y-5413000D01*
X29717000Y-5667000D01*
X29697000Y-5667000D01*
X29697000Y-6866250D01*
X29855750Y-7025000D01*
X30546310Y-7025000D01*
X30779699Y-6928327D01*
X30958327Y-6749698D01*
X31024904Y-6588967D01*
X31039375Y-6610625D01*
X31530582Y-6938839D01*
X31963744Y-7025000D01*
X32256256Y-7025000D01*
X32689418Y-6938839D01*
X33180625Y-6610625D01*
X33380000Y-6312239D01*
X33579375Y-6610625D01*
X34070582Y-6938839D01*
X34503744Y-7025000D01*
X34796256Y-7025000D01*
X35229418Y-6938839D01*
X35720625Y-6610625D01*
X35920000Y-6312239D01*
X36119375Y-6610625D01*
X36150458Y-6631394D01*
X35811199Y-6970653D01*
X35645126Y-6970653D01*
X35264720Y-7128222D01*
X34973569Y-7419373D01*
X34816000Y-7799779D01*
X34816000Y-8211527D01*
X34973569Y-8591933D01*
X35028362Y-8646726D01*
X34719720Y-8774569D01*
X34428569Y-9065720D01*
X34271000Y-9446126D01*
X34271000Y-9857874D01*
X34428569Y-10238280D01*
X34719720Y-10529431D01*
X35100126Y-10687000D01*
X35511874Y-10687000D01*
X35892280Y-10529431D01*
X36183431Y-10238280D01*
X36341000Y-9857874D01*
X36341000Y-9691801D01*
X38965473Y-7067329D01*
X38970001Y-7064304D01*
X38970000Y-9633000D01*
X38656126Y-9633000D01*
X38275720Y-9790569D01*
X37984569Y-10081720D01*
X37827000Y-10462126D01*
X37827000Y-10873874D01*
X37984569Y-11254280D01*
X38100744Y-11370455D01*
X37277199Y-12194000D01*
X23568436Y-12194000D01*
X23493589Y-12179112D01*
X23418742Y-12194000D01*
X23418738Y-12194000D01*
X23197053Y-12238096D01*
X23197051Y-12238097D01*
X23197052Y-12238097D01*
X23009116Y-12363671D01*
X23009114Y-12363673D01*
X22945661Y-12406071D01*
X22903263Y-12469524D01*
X21613530Y-13759259D01*
X21550071Y-13801661D01*
X21382096Y-14053054D01*
X21338000Y-14274739D01*
X21338000Y-14274743D01*
X21323112Y-14349590D01*
X21338000Y-14424437D01*
X21338001Y-16195197D01*
X21275198Y-16258000D01*
X19378846Y-16258000D01*
X19303999Y-16243112D01*
X19229152Y-16258000D01*
X19229148Y-16258000D01*
X19007463Y-16302096D01*
X19007461Y-16302097D01*
X19007462Y-16302097D01*
X18819526Y-16427671D01*
X18819524Y-16427673D01*
X18756071Y-16470071D01*
X18713672Y-16533525D01*
X18311527Y-16935672D01*
X18248072Y-16978071D01*
X18205672Y-17041527D01*
X18205671Y-17041528D01*
X18080097Y-17229463D01*
X18021112Y-17526000D01*
X18036001Y-17600852D01*
X18036001Y-18317427D01*
X17888191Y-18416191D01*
X17747843Y-18626235D01*
X17698560Y-18874000D01*
X17698560Y-20074000D01*
X17747843Y-20321765D01*
X17888191Y-20531809D01*
X17951334Y-20574000D01*
X17888191Y-20616191D01*
X17747843Y-20826235D01*
X17698560Y-21074000D01*
X17698560Y-22274000D01*
X17747843Y-22521765D01*
X17888191Y-22731809D01*
X18098235Y-22872157D01*
X18346000Y-22921440D01*
X18818639Y-22921440D01*
X19845944Y-23948746D01*
X19664191Y-24070191D01*
X19622000Y-24133334D01*
X19579809Y-24070191D01*
X19369765Y-23929843D01*
X19122000Y-23880560D01*
X18122000Y-23880560D01*
X17874235Y-23929843D01*
X17664191Y-24070191D01*
X17623345Y-24131320D01*
X17481699Y-23989673D01*
X17248310Y-23893000D01*
X16907750Y-23893000D01*
X16749000Y-24051750D01*
X16495000Y-24051750D01*
X16336250Y-23893000D01*
X15995690Y-23893000D01*
X15762301Y-23989673D01*
X15583673Y-24168302D01*
X15487000Y-24401691D01*
X735000Y-24401691D01*
X735000Y-4237171D01*
X1165000Y-4237171D01*
X1165000Y-5762829D01*
X1748844Y-7172353D01*
X2827647Y-8251156D01*
X4237171Y-8835000D01*
X5762829Y-8835000D01*
X7172353Y-8251156D01*
X8251156Y-7172353D01*
X8808937Y-5825750D01*
X28085000Y-5825750D01*
X28085000Y-6516309D01*
X28181673Y-6749698D01*
X28360301Y-6928327D01*
X28593690Y-7025000D01*
X29284250Y-7025000D01*
X29443000Y-6866250D01*
X29443000Y-5667000D01*
X28243750Y-5667000D01*
X28085000Y-5825750D01*
X8808937Y-5825750D01*
X8835000Y-5762829D01*
X8835000Y-4237171D01*
X8251156Y-2827647D01*
X7172353Y-1748844D01*
X5762829Y-1165000D01*
X4237171Y-1165000D01*
X2827647Y-1748844D01*
X1748844Y-2827647D01*
X1165000Y-4237171D01*
X735000Y-4237171D01*
X735000Y-2052364D01*
X793044Y-1647060D01*
X940614Y-1322496D01*
X1173350Y-1052393D01*
X1472539Y-858468D01*
X1838479Y-749030D01*
X2027273Y-735000D01*
X59563000Y-735000D01*
X59563000Y-81265000D01*
X59563000Y-81265000D01*
G37*
X59563000Y-81265000D02*
X2052364Y-81265000D01*
X1647062Y-81206956D01*
X1322496Y-81059385D01*
X1052394Y-80826650D01*
X858468Y-80527459D01*
X749030Y-80161525D01*
X735000Y-79972727D01*
X735000Y-76237171D01*
X1165000Y-76237171D01*
X1165000Y-77762829D01*
X1748844Y-79172353D01*
X2827647Y-80251156D01*
X4237171Y-80835000D01*
X5762829Y-80835000D01*
X7172353Y-80251156D01*
X8251156Y-79172353D01*
X8835000Y-77762829D01*
X8835000Y-76237171D01*
X8251156Y-74827647D01*
X7172353Y-73748844D01*
X5762829Y-73165000D01*
X4237171Y-73165000D01*
X2827647Y-73748844D01*
X1748844Y-74827647D01*
X1165000Y-76237171D01*
X735000Y-76237171D01*
X735000Y-62319485D01*
X7743604Y-62319485D01*
X7743604Y-63219485D01*
X7792887Y-63467250D01*
X7933235Y-63677294D01*
X8143279Y-63817642D01*
X8391044Y-63866925D01*
X9400001Y-63866925D01*
X9400001Y-65753726D01*
X9163682Y-65990045D01*
X8391044Y-65990045D01*
X8143279Y-66039328D01*
X7933235Y-66179676D01*
X7792887Y-66389720D01*
X7743604Y-66637485D01*
X7743604Y-67537485D01*
X7792887Y-67785250D01*
X7933235Y-67995294D01*
X8143279Y-68135642D01*
X8391044Y-68184925D01*
X9400000Y-68184925D01*
X9400001Y-71299148D01*
X9385112Y-71374000D01*
X9400001Y-71448851D01*
X9400001Y-71448852D01*
X9444097Y-71670537D01*
X9612072Y-71921929D01*
X9675528Y-71964329D01*
X10331671Y-72620473D01*
X10374071Y-72683929D01*
X10437527Y-72726329D01*
X10625462Y-72851904D01*
X10673605Y-72861480D01*
X10847148Y-72896000D01*
X10847152Y-72896000D01*
X10922000Y-72910888D01*
X10996848Y-72896000D01*
X32437153Y-72896000D01*
X32512000Y-72910888D01*
X32586847Y-72896000D01*
X32586852Y-72896000D01*
X32808537Y-72851904D01*
X33059929Y-72683929D01*
X33102331Y-72620470D01*
X33758473Y-71964329D01*
X33821929Y-71921929D01*
X33860135Y-71864750D01*
X39740000Y-71864750D01*
X39740000Y-72230310D01*
X39836673Y-72463699D01*
X40015302Y-72642327D01*
X40248691Y-72739000D01*
X41189250Y-72739000D01*
X41348000Y-72580250D01*
X41348000Y-71706000D01*
X41602000Y-71706000D01*
X41602000Y-72580250D01*
X41760750Y-72739000D01*
X42701309Y-72739000D01*
X42934698Y-72642327D01*
X43113327Y-72463699D01*
X43210000Y-72230310D01*
X43210000Y-71864750D01*
X43051250Y-71706000D01*
X41602000Y-71706000D01*
X41348000Y-71706000D01*
X39898750Y-71706000D01*
X39740000Y-71864750D01*
X33860135Y-71864750D01*
X33877032Y-71839462D01*
X33989904Y-71670538D01*
X33999480Y-71622395D01*
X34034000Y-71448852D01*
X34034000Y-71448848D01*
X34048888Y-71374000D01*
X34034000Y-71299152D01*
X34034000Y-69604000D01*
X34166560Y-69604000D01*
X34166560Y-70604000D01*
X34215843Y-70851765D01*
X34356191Y-71061809D01*
X34566235Y-71202157D01*
X34814000Y-71251440D01*
X35508464Y-71251440D01*
X35697290Y-71289000D01*
X39740000Y-71289000D01*
X39740000Y-71293250D01*
X39898750Y-71452000D01*
X41348000Y-71452000D01*
X41348000Y-70577750D01*
X41602000Y-70577750D01*
X41602000Y-71452000D01*
X43051250Y-71452000D01*
X43210000Y-71293250D01*
X43210000Y-70927690D01*
X43113327Y-70694301D01*
X42934698Y-70515673D01*
X42701309Y-70419000D01*
X41760750Y-70419000D01*
X41602000Y-70577750D01*
X41348000Y-70577750D01*
X41189250Y-70419000D01*
X41122440Y-70419000D01*
X41122440Y-70283853D01*
X41158215Y-70104000D01*
X41122440Y-69924147D01*
X41122440Y-69789000D01*
X41189250Y-69789000D01*
X41348000Y-69630250D01*
X41348000Y-68756000D01*
X41602000Y-68756000D01*
X41602000Y-69630250D01*
X41760750Y-69789000D01*
X42701309Y-69789000D01*
X42934698Y-69692327D01*
X43113327Y-69513699D01*
X43210000Y-69280310D01*
X43210000Y-68914750D01*
X43051250Y-68756000D01*
X41602000Y-68756000D01*
X41348000Y-68756000D01*
X39898750Y-68756000D01*
X39740000Y-68914750D01*
X39740000Y-68919000D01*
X37370842Y-68919000D01*
X37449000Y-68730310D01*
X37449000Y-68389750D01*
X37290250Y-68231000D01*
X35941000Y-68231000D01*
X35941000Y-68251000D01*
X35687000Y-68251000D01*
X35687000Y-68231000D01*
X34337750Y-68231000D01*
X34179000Y-68389750D01*
X34179000Y-68730310D01*
X34275673Y-68963699D01*
X34417320Y-69105345D01*
X34356191Y-69146191D01*
X34215843Y-69356235D01*
X34166560Y-69604000D01*
X34034000Y-69604000D01*
X34034000Y-67977690D01*
X39740000Y-67977690D01*
X39740000Y-68343250D01*
X39898750Y-68502000D01*
X41348000Y-68502000D01*
X41348000Y-67627750D01*
X41602000Y-67627750D01*
X41602000Y-68502000D01*
X43051250Y-68502000D01*
X43210000Y-68343250D01*
X43210000Y-67977690D01*
X43113327Y-67744301D01*
X42934698Y-67565673D01*
X42701309Y-67469000D01*
X41760750Y-67469000D01*
X41602000Y-67627750D01*
X41348000Y-67627750D01*
X41189250Y-67469000D01*
X40248691Y-67469000D01*
X40015302Y-67565673D01*
X39836673Y-67744301D01*
X39740000Y-67977690D01*
X34034000Y-67977690D01*
X34034000Y-63052802D01*
X34222802Y-62864000D01*
X34224018Y-62864000D01*
X34356191Y-63061809D01*
X34419334Y-63104000D01*
X34356191Y-63146191D01*
X34215843Y-63356235D01*
X34166560Y-63604000D01*
X34166560Y-64604000D01*
X34215843Y-64851765D01*
X34356191Y-65061809D01*
X34419334Y-65104000D01*
X34356191Y-65146191D01*
X34215843Y-65356235D01*
X34166560Y-65604000D01*
X34166560Y-66604000D01*
X34215843Y-66851765D01*
X34356191Y-67061809D01*
X34417320Y-67102655D01*
X34275673Y-67244301D01*
X34179000Y-67477690D01*
X34179000Y-67818250D01*
X34337750Y-67977000D01*
X35687000Y-67977000D01*
X35687000Y-67957000D01*
X35941000Y-67957000D01*
X35941000Y-67977000D01*
X37290250Y-67977000D01*
X37449000Y-67818250D01*
X37449000Y-67477690D01*
X37352327Y-67244301D01*
X37210680Y-67102655D01*
X37271809Y-67061809D01*
X37412157Y-66851765D01*
X37422454Y-66800000D01*
X42597153Y-66800000D01*
X42672000Y-66814888D01*
X42746847Y-66800000D01*
X42746852Y-66800000D01*
X42968537Y-66755904D01*
X43219929Y-66587929D01*
X43262330Y-66524471D01*
X43664475Y-66122327D01*
X43727929Y-66079929D01*
X43770327Y-66016476D01*
X43770329Y-66016474D01*
X43895903Y-65828538D01*
X43895904Y-65828537D01*
X43940000Y-65606852D01*
X43940000Y-65606848D01*
X43954888Y-65532001D01*
X43940000Y-65457154D01*
X43940000Y-60780846D01*
X43954888Y-60705999D01*
X43940000Y-60631152D01*
X43940000Y-60631148D01*
X43895904Y-60409463D01*
X43785585Y-60244359D01*
X43770329Y-60221526D01*
X43770327Y-60221524D01*
X43727929Y-60158071D01*
X43664475Y-60115672D01*
X43262330Y-59713529D01*
X43219929Y-59650071D01*
X42968537Y-59482096D01*
X42746852Y-59438000D01*
X42746847Y-59438000D01*
X42672000Y-59423112D01*
X42597153Y-59438000D01*
X39684802Y-59438000D01*
X39622000Y-59375198D01*
X39622000Y-55940801D01*
X40192802Y-55370000D01*
X43844427Y-55370000D01*
X43943191Y-55517809D01*
X44153235Y-55658157D01*
X44401000Y-55707440D01*
X45601000Y-55707440D01*
X45848765Y-55658157D01*
X46058809Y-55517809D01*
X46101000Y-55454666D01*
X46143191Y-55517809D01*
X46353235Y-55658157D01*
X46601000Y-55707440D01*
X47801000Y-55707440D01*
X48048765Y-55658157D01*
X48258809Y-55517809D01*
X48357573Y-55370000D01*
X50321427Y-55370000D01*
X50420191Y-55517809D01*
X50630235Y-55658157D01*
X50878000Y-55707440D01*
X52078000Y-55707440D01*
X52325765Y-55658157D01*
X52535809Y-55517809D01*
X52576654Y-55456680D01*
X52718302Y-55598327D01*
X52951691Y-55695000D01*
X53392250Y-55695000D01*
X53551000Y-55536250D01*
X53551000Y-54737000D01*
X53805000Y-54737000D01*
X53805000Y-55536250D01*
X53963750Y-55695000D01*
X54404309Y-55695000D01*
X54637698Y-55598327D01*
X54816327Y-55419699D01*
X54913000Y-55186310D01*
X54913000Y-54895750D01*
X54754250Y-54737000D01*
X53805000Y-54737000D01*
X53551000Y-54737000D01*
X53531000Y-54737000D01*
X53531000Y-54483000D01*
X53551000Y-54483000D01*
X53551000Y-53683750D01*
X53805000Y-53683750D01*
X53805000Y-54483000D01*
X54754250Y-54483000D01*
X54913000Y-54324250D01*
X54913000Y-54033690D01*
X54816327Y-53800301D01*
X54637698Y-53621673D01*
X54404309Y-53525000D01*
X53963750Y-53525000D01*
X53805000Y-53683750D01*
X53551000Y-53683750D01*
X53392250Y-53525000D01*
X52951691Y-53525000D01*
X52718302Y-53621673D01*
X52576654Y-53763320D01*
X52535809Y-53702191D01*
X52325765Y-53561843D01*
X52078000Y-53512560D01*
X50878000Y-53512560D01*
X50630235Y-53561843D01*
X50420191Y-53702191D01*
X50321427Y-53850000D01*
X48357573Y-53850000D01*
X48258809Y-53702191D01*
X48048765Y-53561843D01*
X47801000Y-53512560D01*
X46601000Y-53512560D01*
X46353235Y-53561843D01*
X46143191Y-53702191D01*
X46101000Y-53765334D01*
X46058809Y-53702191D01*
X45848765Y-53561843D01*
X45601000Y-53512560D01*
X44401000Y-53512560D01*
X44153235Y-53561843D01*
X43943191Y-53702191D01*
X43844427Y-53850000D01*
X39952847Y-53850000D01*
X39878000Y-53835112D01*
X39803153Y-53850000D01*
X39803148Y-53850000D01*
X39581463Y-53894096D01*
X39330071Y-54062071D01*
X39287671Y-54125527D01*
X39114000Y-54299198D01*
X39114000Y-51368802D01*
X39176802Y-51306000D01*
X43844427Y-51306000D01*
X43943191Y-51453809D01*
X44153235Y-51594157D01*
X44401000Y-51643440D01*
X45601000Y-51643440D01*
X45848765Y-51594157D01*
X46058809Y-51453809D01*
X46101000Y-51390666D01*
X46143191Y-51453809D01*
X46353235Y-51594157D01*
X46601000Y-51643440D01*
X47801000Y-51643440D01*
X48048765Y-51594157D01*
X48258809Y-51453809D01*
X48357573Y-51306000D01*
X50237427Y-51306000D01*
X50336191Y-51453809D01*
X50546235Y-51594157D01*
X50794000Y-51643440D01*
X51994000Y-51643440D01*
X52241765Y-51594157D01*
X52451809Y-51453809D01*
X52492654Y-51392680D01*
X52634302Y-51534327D01*
X52867691Y-51631000D01*
X53308250Y-51631000D01*
X53467000Y-51472250D01*
X53467000Y-50673000D01*
X53721000Y-50673000D01*
X53721000Y-51472250D01*
X53879750Y-51631000D01*
X54320309Y-51631000D01*
X54553698Y-51534327D01*
X54732327Y-51355699D01*
X54829000Y-51122310D01*
X54829000Y-50831750D01*
X54670250Y-50673000D01*
X53721000Y-50673000D01*
X53467000Y-50673000D01*
X53447000Y-50673000D01*
X53447000Y-50419000D01*
X53467000Y-50419000D01*
X53467000Y-49619750D01*
X53721000Y-49619750D01*
X53721000Y-50419000D01*
X54670250Y-50419000D01*
X54829000Y-50260250D01*
X54829000Y-49969690D01*
X54732327Y-49736301D01*
X54553698Y-49557673D01*
X54320309Y-49461000D01*
X53879750Y-49461000D01*
X53721000Y-49619750D01*
X53467000Y-49619750D01*
X53308250Y-49461000D01*
X52867691Y-49461000D01*
X52634302Y-49557673D01*
X52492654Y-49699320D01*
X52451809Y-49638191D01*
X52241765Y-49497843D01*
X51994000Y-49448560D01*
X50794000Y-49448560D01*
X50546235Y-49497843D01*
X50336191Y-49638191D01*
X50237427Y-49786000D01*
X48357573Y-49786000D01*
X48258809Y-49638191D01*
X48048765Y-49497843D01*
X47801000Y-49448560D01*
X46601000Y-49448560D01*
X46353235Y-49497843D01*
X46143191Y-49638191D01*
X46101000Y-49701334D01*
X46058809Y-49638191D01*
X45848765Y-49497843D01*
X45601000Y-49448560D01*
X44401000Y-49448560D01*
X44153235Y-49497843D01*
X43943191Y-49638191D01*
X43844427Y-49786000D01*
X39114000Y-49786000D01*
X39114000Y-49059846D01*
X39128888Y-48984999D01*
X39114000Y-48910152D01*
X39114000Y-48910148D01*
X39069904Y-48688463D01*
X38992345Y-48572388D01*
X38944329Y-48500526D01*
X38944327Y-48500524D01*
X38901929Y-48437071D01*
X38838476Y-48394673D01*
X35338847Y-44895046D01*
X35338847Y-44728973D01*
X35181278Y-44348567D01*
X34890127Y-44057416D01*
X34509721Y-43899847D01*
X34097973Y-43899847D01*
X33717567Y-44057416D01*
X33426416Y-44348567D01*
X33268847Y-44728973D01*
X33268847Y-45140721D01*
X33426416Y-45521127D01*
X33717567Y-45812278D01*
X34097973Y-45969847D01*
X34264046Y-45969847D01*
X37594001Y-49299804D01*
X37594000Y-50979152D01*
X37579112Y-51054000D01*
X37594000Y-51128847D01*
X37594000Y-51890851D01*
X37594001Y-51890856D01*
X37594000Y-59344000D01*
X37403982Y-59344000D01*
X37271809Y-59146191D01*
X37208666Y-59104000D01*
X37271809Y-59061809D01*
X37412157Y-58851765D01*
X37461440Y-58604000D01*
X37461440Y-57604000D01*
X37412157Y-57356235D01*
X37271809Y-57146191D01*
X37208666Y-57104000D01*
X37271809Y-57061809D01*
X37412157Y-56851765D01*
X37461440Y-56604000D01*
X37461440Y-55604000D01*
X37412157Y-55356235D01*
X37271809Y-55146191D01*
X37061765Y-55005843D01*
X36814000Y-54956560D01*
X34814000Y-54956560D01*
X34566235Y-55005843D01*
X34356191Y-55146191D01*
X34215843Y-55356235D01*
X34166560Y-55604000D01*
X34166560Y-56604000D01*
X34215843Y-56851765D01*
X34356191Y-57061809D01*
X34419334Y-57104000D01*
X34356191Y-57146191D01*
X34215843Y-57356235D01*
X34166560Y-57604000D01*
X34166560Y-58604000D01*
X34215843Y-58851765D01*
X34356191Y-59061809D01*
X34419334Y-59104000D01*
X34356191Y-59146191D01*
X34215843Y-59356235D01*
X34166560Y-59604000D01*
X34166560Y-60604000D01*
X34215843Y-60851765D01*
X34356191Y-61061809D01*
X34419334Y-61104000D01*
X34356191Y-61146191D01*
X34224018Y-61344000D01*
X33982846Y-61344000D01*
X33907999Y-61329112D01*
X33833152Y-61344000D01*
X33833148Y-61344000D01*
X33611463Y-61388096D01*
X33611461Y-61388097D01*
X33611462Y-61388097D01*
X33423526Y-61513671D01*
X33423524Y-61513673D01*
X33360071Y-61556071D01*
X33317672Y-61619525D01*
X32789528Y-62147671D01*
X32726072Y-62190071D01*
X32683672Y-62253527D01*
X32683671Y-62253528D01*
X32558097Y-62441463D01*
X32499112Y-62738000D01*
X32514001Y-62812852D01*
X32514000Y-71059198D01*
X32197199Y-71376000D01*
X11236802Y-71376000D01*
X10920000Y-71059199D01*
X10920000Y-70389750D01*
X18179000Y-70389750D01*
X18179000Y-70730310D01*
X18275673Y-70963699D01*
X18454302Y-71142327D01*
X18687691Y-71239000D01*
X19528250Y-71239000D01*
X19687000Y-71080250D01*
X19687000Y-70231000D01*
X19941000Y-70231000D01*
X19941000Y-71080250D01*
X20099750Y-71239000D01*
X20940309Y-71239000D01*
X21173698Y-71142327D01*
X21352327Y-70963699D01*
X21449000Y-70730310D01*
X21449000Y-70389750D01*
X21290250Y-70231000D01*
X19941000Y-70231000D01*
X19687000Y-70231000D01*
X18337750Y-70231000D01*
X18179000Y-70389750D01*
X10920000Y-70389750D01*
X10920000Y-68184925D01*
X11791044Y-68184925D01*
X12038809Y-68135642D01*
X12248853Y-67995294D01*
X12347617Y-67847485D01*
X16855197Y-67847485D01*
X16930044Y-67862373D01*
X17004891Y-67847485D01*
X17004896Y-67847485D01*
X17226581Y-67803389D01*
X17477973Y-67635414D01*
X17520375Y-67571955D01*
X18225746Y-66866585D01*
X18356191Y-67061809D01*
X18419334Y-67104000D01*
X18356191Y-67146191D01*
X18215843Y-67356235D01*
X18166560Y-67604000D01*
X18166560Y-68604000D01*
X18215843Y-68851765D01*
X18356191Y-69061809D01*
X18417320Y-69102655D01*
X18275673Y-69244301D01*
X18179000Y-69477690D01*
X18179000Y-69818250D01*
X18337750Y-69977000D01*
X19687000Y-69977000D01*
X19687000Y-69957000D01*
X19941000Y-69957000D01*
X19941000Y-69977000D01*
X21290250Y-69977000D01*
X21449000Y-69818250D01*
X21449000Y-69477690D01*
X21352327Y-69244301D01*
X21210680Y-69102655D01*
X21271809Y-69061809D01*
X21412157Y-68851765D01*
X21461440Y-68604000D01*
X21461440Y-67604000D01*
X21412157Y-67356235D01*
X21271809Y-67146191D01*
X21208666Y-67104000D01*
X21271809Y-67061809D01*
X21412157Y-66851765D01*
X21461440Y-66604000D01*
X21461440Y-65604000D01*
X21412157Y-65356235D01*
X21271809Y-65146191D01*
X21208666Y-65104000D01*
X21271809Y-65061809D01*
X21412157Y-64851765D01*
X21461440Y-64604000D01*
X21461440Y-63604000D01*
X21412157Y-63356235D01*
X21271809Y-63146191D01*
X21208666Y-63104000D01*
X21271809Y-63061809D01*
X21412157Y-62851765D01*
X21461440Y-62604000D01*
X21461440Y-61604000D01*
X21412157Y-61356235D01*
X21271809Y-61146191D01*
X21208666Y-61104000D01*
X21271809Y-61061809D01*
X21412157Y-60851765D01*
X21461440Y-60604000D01*
X21461440Y-59604000D01*
X21412157Y-59356235D01*
X21271809Y-59146191D01*
X21208666Y-59104000D01*
X21271809Y-59061809D01*
X21412157Y-58851765D01*
X21461440Y-58604000D01*
X21461440Y-57604000D01*
X21412157Y-57356235D01*
X21271809Y-57146191D01*
X21210680Y-57105345D01*
X21352327Y-56963699D01*
X21449000Y-56730310D01*
X21449000Y-56389750D01*
X21290250Y-56231000D01*
X19941000Y-56231000D01*
X19941000Y-56251000D01*
X19687000Y-56251000D01*
X19687000Y-56231000D01*
X18337750Y-56231000D01*
X18179000Y-56389750D01*
X18179000Y-56730310D01*
X18275673Y-56963699D01*
X18407766Y-57095792D01*
X18184918Y-57003485D01*
X17773170Y-57003485D01*
X17392764Y-57161054D01*
X17101613Y-57452205D01*
X16944044Y-57832611D01*
X16944044Y-58244359D01*
X17101613Y-58624765D01*
X17392764Y-58915916D01*
X17688672Y-59038485D01*
X17392764Y-59161054D01*
X17101613Y-59452205D01*
X16944044Y-59832611D01*
X16944044Y-60244359D01*
X17101613Y-60624765D01*
X17392764Y-60915916D01*
X17688672Y-61038485D01*
X17392764Y-61161054D01*
X17101613Y-61452205D01*
X16944044Y-61832611D01*
X16944044Y-62244359D01*
X17101613Y-62624765D01*
X17392764Y-62915916D01*
X17773170Y-63073485D01*
X18184918Y-63073485D01*
X18325174Y-63015389D01*
X18356191Y-63061809D01*
X18419334Y-63104000D01*
X18356191Y-63146191D01*
X18224018Y-63344000D01*
X15396802Y-63344000D01*
X14306331Y-62253530D01*
X14306329Y-62253527D01*
X14263929Y-62190071D01*
X14200473Y-62147671D01*
X12274333Y-60221532D01*
X12274329Y-60221526D01*
X11766332Y-59713531D01*
X11766329Y-59713526D01*
X11428000Y-59375198D01*
X11428000Y-55477690D01*
X18179000Y-55477690D01*
X18179000Y-55818250D01*
X18337750Y-55977000D01*
X19687000Y-55977000D01*
X19687000Y-55127750D01*
X19941000Y-55127750D01*
X19941000Y-55977000D01*
X21290250Y-55977000D01*
X21449000Y-55818250D01*
X21449000Y-55477690D01*
X21352327Y-55244301D01*
X21173698Y-55065673D01*
X20940309Y-54969000D01*
X20099750Y-54969000D01*
X19941000Y-55127750D01*
X19687000Y-55127750D01*
X19528250Y-54969000D01*
X18687691Y-54969000D01*
X18454302Y-55065673D01*
X18275673Y-55244301D01*
X18179000Y-55477690D01*
X11428000Y-55477690D01*
X11428000Y-52513211D01*
X13143212Y-50798000D01*
X14925198Y-50798000D01*
X15157672Y-51030475D01*
X15200071Y-51093929D01*
X15263524Y-51136327D01*
X15263526Y-51136329D01*
X15388902Y-51220102D01*
X15451463Y-51261904D01*
X15522279Y-51275990D01*
X15669720Y-51423431D01*
X16050126Y-51581000D01*
X16461874Y-51581000D01*
X16842280Y-51423431D01*
X17133431Y-51132280D01*
X17291000Y-50751874D01*
X17291000Y-50340126D01*
X17207009Y-50137355D01*
X17265084Y-50079280D01*
X17422653Y-49698874D01*
X17422653Y-49287126D01*
X17312006Y-49020000D01*
X22023153Y-49020000D01*
X22098000Y-49034888D01*
X22172847Y-49020000D01*
X22172852Y-49020000D01*
X22394537Y-48975904D01*
X22645929Y-48807929D01*
X22688331Y-48744470D01*
X23344473Y-48088329D01*
X23407929Y-48045929D01*
X23567145Y-47807646D01*
X23575904Y-47794538D01*
X23585480Y-47746395D01*
X23620000Y-47572852D01*
X23620000Y-47572848D01*
X23634888Y-47498000D01*
X23620000Y-47423152D01*
X23620000Y-45751612D01*
X23646191Y-45790809D01*
X23856235Y-45931157D01*
X24104000Y-45980440D01*
X25304000Y-45980440D01*
X25551765Y-45931157D01*
X25643102Y-45870127D01*
X25644302Y-45871327D01*
X25877691Y-45968000D01*
X26318250Y-45968000D01*
X26477000Y-45809250D01*
X26477000Y-45085000D01*
X26731000Y-45085000D01*
X26731000Y-45809250D01*
X26889750Y-45968000D01*
X27330309Y-45968000D01*
X27563698Y-45871327D01*
X27742327Y-45692699D01*
X27839000Y-45459310D01*
X27839000Y-45243750D01*
X27680250Y-45085000D01*
X26731000Y-45085000D01*
X26477000Y-45085000D01*
X26457000Y-45085000D01*
X26457000Y-44831000D01*
X26477000Y-44831000D01*
X26477000Y-44106750D01*
X26731000Y-44106750D01*
X26731000Y-44831000D01*
X27680250Y-44831000D01*
X27839000Y-44672250D01*
X27839000Y-44456690D01*
X27742327Y-44223301D01*
X27563698Y-44044673D01*
X27330309Y-43948000D01*
X26889750Y-43948000D01*
X26731000Y-44106750D01*
X26477000Y-44106750D01*
X26318250Y-43948000D01*
X25877691Y-43948000D01*
X25644302Y-44044673D01*
X25643102Y-44045873D01*
X25551765Y-43984843D01*
X25464000Y-43967386D01*
X25464000Y-43063191D01*
X25579809Y-42985809D01*
X25622000Y-42922666D01*
X25664191Y-42985809D01*
X25874235Y-43126157D01*
X26122000Y-43175440D01*
X27122000Y-43175440D01*
X27369765Y-43126157D01*
X27579809Y-42985809D01*
X27622000Y-42922666D01*
X27664191Y-42985809D01*
X27874235Y-43126157D01*
X28122000Y-43175440D01*
X29122000Y-43175440D01*
X29369765Y-43126157D01*
X29579809Y-42985809D01*
X29622000Y-42922666D01*
X29664191Y-42985809D01*
X29874235Y-43126157D01*
X30122000Y-43175440D01*
X31122000Y-43175440D01*
X31204086Y-43159112D01*
X30337528Y-44025671D01*
X30274072Y-44068071D01*
X30231672Y-44131527D01*
X30231671Y-44131528D01*
X30106097Y-44319463D01*
X30047112Y-44616000D01*
X30062001Y-44690851D01*
X30062000Y-46153153D01*
X30047112Y-46228000D01*
X30062000Y-46302847D01*
X30062000Y-46302851D01*
X30106096Y-46524536D01*
X30274071Y-46775929D01*
X30337530Y-46818331D01*
X30461000Y-46941801D01*
X30461000Y-47107874D01*
X30618569Y-47488280D01*
X30909720Y-47779431D01*
X31290126Y-47937000D01*
X31701874Y-47937000D01*
X32082280Y-47779431D01*
X32373431Y-47488280D01*
X32531000Y-47107874D01*
X32531000Y-46696126D01*
X32373431Y-46315720D01*
X32082280Y-46024569D01*
X31701874Y-45867000D01*
X31582000Y-45867000D01*
X31582000Y-44930801D01*
X33504476Y-43008327D01*
X33567929Y-42965929D01*
X33610327Y-42902476D01*
X33610329Y-42902474D01*
X33694993Y-42775765D01*
X33735904Y-42714537D01*
X33780000Y-42492852D01*
X33780000Y-42492848D01*
X33794888Y-42418001D01*
X33780000Y-42343154D01*
X33780000Y-40642811D01*
X34096802Y-40326010D01*
X34933209Y-40326010D01*
X38885527Y-44278329D01*
X38885530Y-44278331D01*
X40663527Y-46056329D01*
X40663530Y-46056331D01*
X41573671Y-46966473D01*
X41616071Y-47029929D01*
X41867463Y-47197904D01*
X42089148Y-47242000D01*
X42089153Y-47242000D01*
X42164000Y-47256888D01*
X42238847Y-47242000D01*
X43844427Y-47242000D01*
X43943191Y-47389809D01*
X44153235Y-47530157D01*
X44401000Y-47579440D01*
X45601000Y-47579440D01*
X45848765Y-47530157D01*
X46058809Y-47389809D01*
X46101000Y-47326666D01*
X46143191Y-47389809D01*
X46353235Y-47530157D01*
X46601000Y-47579440D01*
X47801000Y-47579440D01*
X48048765Y-47530157D01*
X48258809Y-47389809D01*
X48357573Y-47242000D01*
X50321427Y-47242000D01*
X50420191Y-47389809D01*
X50630235Y-47530157D01*
X50878000Y-47579440D01*
X52078000Y-47579440D01*
X52325765Y-47530157D01*
X52535809Y-47389809D01*
X52576654Y-47328680D01*
X52718302Y-47470327D01*
X52951691Y-47567000D01*
X53392250Y-47567000D01*
X53551000Y-47408250D01*
X53551000Y-46609000D01*
X53805000Y-46609000D01*
X53805000Y-47408250D01*
X53963750Y-47567000D01*
X54404309Y-47567000D01*
X54637698Y-47470327D01*
X54816327Y-47291699D01*
X54913000Y-47058310D01*
X54913000Y-46767750D01*
X54754250Y-46609000D01*
X53805000Y-46609000D01*
X53551000Y-46609000D01*
X53531000Y-46609000D01*
X53531000Y-46355000D01*
X53551000Y-46355000D01*
X53551000Y-45555750D01*
X53805000Y-45555750D01*
X53805000Y-46355000D01*
X54754250Y-46355000D01*
X54913000Y-46196250D01*
X54913000Y-45905690D01*
X54816327Y-45672301D01*
X54637698Y-45493673D01*
X54404309Y-45397000D01*
X53963750Y-45397000D01*
X53805000Y-45555750D01*
X53551000Y-45555750D01*
X53392250Y-45397000D01*
X52951691Y-45397000D01*
X52718302Y-45493673D01*
X52576654Y-45635320D01*
X52535809Y-45574191D01*
X52325765Y-45433843D01*
X52078000Y-45384560D01*
X50878000Y-45384560D01*
X50630235Y-45433843D01*
X50420191Y-45574191D01*
X50321427Y-45722000D01*
X48357573Y-45722000D01*
X48258809Y-45574191D01*
X48048765Y-45433843D01*
X47801000Y-45384560D01*
X46601000Y-45384560D01*
X46353235Y-45433843D01*
X46143191Y-45574191D01*
X46101000Y-45637334D01*
X46058809Y-45574191D01*
X45848765Y-45433843D01*
X45601000Y-45384560D01*
X44401000Y-45384560D01*
X44153235Y-45433843D01*
X43943191Y-45574191D01*
X43844427Y-45722000D01*
X42478802Y-45722000D01*
X41738331Y-44981530D01*
X41738329Y-44981527D01*
X39960331Y-43203530D01*
X39960329Y-43203527D01*
X39934802Y-43178000D01*
X43844427Y-43178000D01*
X43943191Y-43325809D01*
X44153235Y-43466157D01*
X44401000Y-43515440D01*
X45601000Y-43515440D01*
X45848765Y-43466157D01*
X46058809Y-43325809D01*
X46101000Y-43262666D01*
X46143191Y-43325809D01*
X46353235Y-43466157D01*
X46601000Y-43515440D01*
X47801000Y-43515440D01*
X48048765Y-43466157D01*
X48258809Y-43325809D01*
X48357573Y-43178000D01*
X50237427Y-43178000D01*
X50336191Y-43325809D01*
X50546235Y-43466157D01*
X50794000Y-43515440D01*
X51994000Y-43515440D01*
X52241765Y-43466157D01*
X52451809Y-43325809D01*
X52492654Y-43264680D01*
X52634302Y-43406327D01*
X52867691Y-43503000D01*
X53308250Y-43503000D01*
X53467000Y-43344250D01*
X53467000Y-42545000D01*
X53721000Y-42545000D01*
X53721000Y-43344250D01*
X53879750Y-43503000D01*
X54320309Y-43503000D01*
X54553698Y-43406327D01*
X54732327Y-43227699D01*
X54829000Y-42994310D01*
X54829000Y-42703750D01*
X54670250Y-42545000D01*
X53721000Y-42545000D01*
X53467000Y-42545000D01*
X53447000Y-42545000D01*
X53447000Y-42291000D01*
X53467000Y-42291000D01*
X53467000Y-41491750D01*
X53721000Y-41491750D01*
X53721000Y-42291000D01*
X54670250Y-42291000D01*
X54829000Y-42132250D01*
X54829000Y-41841690D01*
X54732327Y-41608301D01*
X54553698Y-41429673D01*
X54320309Y-41333000D01*
X53879750Y-41333000D01*
X53721000Y-41491750D01*
X53467000Y-41491750D01*
X53308250Y-41333000D01*
X52867691Y-41333000D01*
X52634302Y-41429673D01*
X52492654Y-41571320D01*
X52451809Y-41510191D01*
X52241765Y-41369843D01*
X51994000Y-41320560D01*
X50794000Y-41320560D01*
X50546235Y-41369843D01*
X50336191Y-41510191D01*
X50237427Y-41658000D01*
X48357573Y-41658000D01*
X48258809Y-41510191D01*
X48048765Y-41369843D01*
X47801000Y-41320560D01*
X46601000Y-41320560D01*
X46353235Y-41369843D01*
X46143191Y-41510191D01*
X46101000Y-41573334D01*
X46058809Y-41510191D01*
X45848765Y-41369843D01*
X45601000Y-41320560D01*
X44401000Y-41320560D01*
X44153235Y-41369843D01*
X43943191Y-41510191D01*
X43844427Y-41658000D01*
X39051212Y-41658000D01*
X36024740Y-38631529D01*
X35982340Y-38568073D01*
X35918882Y-38525671D01*
X35730948Y-38400098D01*
X35434411Y-38341113D01*
X35359559Y-38356002D01*
X22608846Y-38356000D01*
X22533999Y-38341112D01*
X22459152Y-38356000D01*
X22459149Y-38356000D01*
X22237464Y-38400096D01*
X22237463Y-38400097D01*
X22237462Y-38400097D01*
X22049526Y-38525671D01*
X22049522Y-38525675D01*
X21986072Y-38568071D01*
X21943676Y-38631521D01*
X20694638Y-39880560D01*
X20122000Y-39880560D01*
X19874235Y-39929843D01*
X19664191Y-40070191D01*
X19623345Y-40131320D01*
X19481699Y-39989673D01*
X19248310Y-39893000D01*
X18907750Y-39893000D01*
X18749000Y-40051750D01*
X18749000Y-41401000D01*
X18769000Y-41401000D01*
X18769000Y-41655000D01*
X18749000Y-41655000D01*
X18749000Y-43004250D01*
X18907750Y-43163000D01*
X19248310Y-43163000D01*
X19481699Y-43066327D01*
X19623345Y-42924680D01*
X19664191Y-42985809D01*
X19874235Y-43126157D01*
X20122000Y-43175440D01*
X21122000Y-43175440D01*
X21369765Y-43126157D01*
X21579809Y-42985809D01*
X21622000Y-42922666D01*
X21664191Y-42985809D01*
X21874235Y-43126157D01*
X22122000Y-43175440D01*
X22399759Y-43175440D01*
X22375528Y-43199671D01*
X22312072Y-43242071D01*
X22269672Y-43305527D01*
X22269671Y-43305528D01*
X22144097Y-43493463D01*
X22085112Y-43790000D01*
X22100001Y-43864852D01*
X22100000Y-47183198D01*
X21783199Y-47500000D01*
X14044846Y-47500000D01*
X13969999Y-47485112D01*
X13895152Y-47500000D01*
X13895148Y-47500000D01*
X13673463Y-47544096D01*
X13673461Y-47544097D01*
X13673462Y-47544097D01*
X13485526Y-47669671D01*
X13485524Y-47669673D01*
X13422071Y-47712071D01*
X13379673Y-47775524D01*
X12252532Y-48902667D01*
X12252526Y-48902671D01*
X12252524Y-48902673D01*
X12189071Y-48945071D01*
X12146673Y-49008524D01*
X9675528Y-51479671D01*
X9612072Y-51522071D01*
X9569672Y-51585527D01*
X9569671Y-51585528D01*
X9444097Y-51773463D01*
X9385112Y-52070000D01*
X9400001Y-52144852D01*
X9400000Y-54027148D01*
X9400000Y-54027149D01*
X9400001Y-61139144D01*
X9400000Y-61139149D01*
X9400000Y-61435726D01*
X9163682Y-61672045D01*
X8391044Y-61672045D01*
X8143279Y-61721328D01*
X7933235Y-61861676D01*
X7792887Y-62071720D01*
X7743604Y-62319485D01*
X735000Y-62319485D01*
X735000Y-43289750D01*
X9728000Y-43289750D01*
X9728000Y-43655310D01*
X9824673Y-43888699D01*
X10003302Y-44067327D01*
X10236691Y-44164000D01*
X11177250Y-44164000D01*
X11336000Y-44005250D01*
X11336000Y-43131000D01*
X11590000Y-43131000D01*
X11590000Y-44005250D01*
X11748750Y-44164000D01*
X12689309Y-44164000D01*
X12922698Y-44067327D01*
X13101327Y-43888699D01*
X13198000Y-43655310D01*
X13198000Y-43289750D01*
X13039250Y-43131000D01*
X11590000Y-43131000D01*
X11336000Y-43131000D01*
X9886750Y-43131000D01*
X9728000Y-43289750D01*
X735000Y-43289750D01*
X735000Y-42352690D01*
X9728000Y-42352690D01*
X9728000Y-42718250D01*
X9886750Y-42877000D01*
X11336000Y-42877000D01*
X11336000Y-42002750D01*
X11177250Y-41844000D01*
X10236691Y-41844000D01*
X10003302Y-41940673D01*
X9824673Y-42119301D01*
X9728000Y-42352690D01*
X735000Y-42352690D01*
X735000Y-40339750D01*
X9728000Y-40339750D01*
X9728000Y-40705310D01*
X9824673Y-40938699D01*
X10003302Y-41117327D01*
X10236691Y-41214000D01*
X11177250Y-41214000D01*
X11336000Y-41055250D01*
X11336000Y-40181000D01*
X11590000Y-40181000D01*
X11590000Y-41055250D01*
X11748750Y-41214000D01*
X11815560Y-41214000D01*
X11815560Y-41349147D01*
X11779785Y-41529000D01*
X11815560Y-41708853D01*
X11815560Y-41844000D01*
X11748750Y-41844000D01*
X11590000Y-42002750D01*
X11590000Y-42877000D01*
X13039250Y-42877000D01*
X13198000Y-42718250D01*
X13198000Y-42714000D01*
X15511557Y-42714000D01*
X15523843Y-42775765D01*
X15664191Y-42985809D01*
X15874235Y-43126157D01*
X16122000Y-43175440D01*
X17122000Y-43175440D01*
X17369765Y-43126157D01*
X17579809Y-42985809D01*
X17620655Y-42924680D01*
X17762301Y-43066327D01*
X17995690Y-43163000D01*
X18336250Y-43163000D01*
X18495000Y-43004250D01*
X18495000Y-41655000D01*
X18475000Y-41655000D01*
X18475000Y-41401000D01*
X18495000Y-41401000D01*
X18495000Y-40051750D01*
X18336250Y-39893000D01*
X17995690Y-39893000D01*
X17762301Y-39989673D01*
X17620655Y-40131320D01*
X17579809Y-40070191D01*
X17369765Y-39929843D01*
X17122000Y-39880560D01*
X16122000Y-39880560D01*
X15874235Y-39929843D01*
X15664191Y-40070191D01*
X15523843Y-40280235D01*
X15511159Y-40344000D01*
X13198000Y-40344000D01*
X13198000Y-40339750D01*
X13039250Y-40181000D01*
X11590000Y-40181000D01*
X11336000Y-40181000D01*
X9886750Y-40181000D01*
X9728000Y-40339750D01*
X735000Y-40339750D01*
X735000Y-39402690D01*
X9728000Y-39402690D01*
X9728000Y-39768250D01*
X9886750Y-39927000D01*
X11336000Y-39927000D01*
X11336000Y-39052750D01*
X11590000Y-39052750D01*
X11590000Y-39927000D01*
X13039250Y-39927000D01*
X13198000Y-39768250D01*
X13198000Y-39402690D01*
X13101327Y-39169301D01*
X12922698Y-38990673D01*
X12689309Y-38894000D01*
X11748750Y-38894000D01*
X11590000Y-39052750D01*
X11336000Y-39052750D01*
X11177250Y-38894000D01*
X10236691Y-38894000D01*
X10003302Y-38990673D01*
X9824673Y-39169301D01*
X9728000Y-39402690D01*
X735000Y-39402690D01*
X735000Y-25813750D01*
X15487000Y-25813750D01*
X15487000Y-26654309D01*
X15583673Y-26887698D01*
X15762301Y-27066327D01*
X15995690Y-27163000D01*
X16336250Y-27163000D01*
X16495000Y-27004250D01*
X16495000Y-25655000D01*
X15645750Y-25655000D01*
X15487000Y-25813750D01*
X735000Y-25813750D01*
X735000Y-24401691D01*
X15487000Y-24401691D01*
X15487000Y-25242250D01*
X15645750Y-25401000D01*
X16495000Y-25401000D01*
X16495000Y-24051750D01*
X16749000Y-24051750D01*
X16749000Y-25401000D01*
X16769000Y-25401000D01*
X16769000Y-25655000D01*
X16749000Y-25655000D01*
X16749000Y-27004250D01*
X16907750Y-27163000D01*
X17248310Y-27163000D01*
X17481699Y-27066327D01*
X17623345Y-26924680D01*
X17664191Y-26985809D01*
X17874235Y-27126157D01*
X18122000Y-27175440D01*
X19122000Y-27175440D01*
X19369765Y-27126157D01*
X19579809Y-26985809D01*
X19622000Y-26922666D01*
X19664191Y-26985809D01*
X19874235Y-27126157D01*
X20122000Y-27175440D01*
X21122000Y-27175440D01*
X21369765Y-27126157D01*
X21579809Y-26985809D01*
X21622000Y-26922666D01*
X21664191Y-26985809D01*
X21874235Y-27126157D01*
X22122000Y-27175440D01*
X23122000Y-27175440D01*
X23369765Y-27126157D01*
X23579809Y-26985809D01*
X23622000Y-26922666D01*
X23664191Y-26985809D01*
X23874235Y-27126157D01*
X23887862Y-27128868D01*
X23906096Y-27220536D01*
X24074071Y-27471929D01*
X24137530Y-27514331D01*
X25402001Y-28778802D01*
X25402000Y-29391972D01*
X25387112Y-29466820D01*
X25402000Y-29541667D01*
X25402000Y-29541671D01*
X25446096Y-29763356D01*
X25614071Y-30014749D01*
X25677530Y-30057151D01*
X26468871Y-30848493D01*
X26511269Y-30911946D01*
X26574722Y-30954344D01*
X26574725Y-30954347D01*
X26762661Y-31079922D01*
X27059198Y-31138906D01*
X27134051Y-31124017D01*
X33097218Y-31124019D01*
X34271000Y-32297802D01*
X34271000Y-32463874D01*
X34428569Y-32844280D01*
X34719720Y-33135431D01*
X35100126Y-33293000D01*
X35511874Y-33293000D01*
X35892280Y-33135431D01*
X36183431Y-32844280D01*
X36321339Y-32511339D01*
X36654280Y-32373431D01*
X36945431Y-32082280D01*
X37103000Y-31701874D01*
X37103000Y-31487196D01*
X37416280Y-31357431D01*
X37707431Y-31066280D01*
X37865000Y-30685874D01*
X37865000Y-30274126D01*
X37707431Y-29893720D01*
X37416280Y-29602569D01*
X37035874Y-29445000D01*
X36869802Y-29445000D01*
X36404331Y-28979530D01*
X36361929Y-28916071D01*
X36110537Y-28748096D01*
X35888852Y-28704000D01*
X35888847Y-28704000D01*
X35814000Y-28689112D01*
X35739153Y-28704000D01*
X27996801Y-28704000D01*
X29106476Y-27594327D01*
X29169929Y-27551929D01*
X29212327Y-27488476D01*
X29212329Y-27488474D01*
X29337903Y-27300538D01*
X29337904Y-27300537D01*
X29373024Y-27123980D01*
X29579809Y-26985809D01*
X29620655Y-26924680D01*
X29762301Y-27066327D01*
X29995690Y-27163000D01*
X30336250Y-27163000D01*
X30495000Y-27004250D01*
X30495000Y-25655000D01*
X30749000Y-25655000D01*
X30749000Y-27004250D01*
X30907750Y-27163000D01*
X31248310Y-27163000D01*
X31481699Y-27066327D01*
X31660327Y-26887698D01*
X31757000Y-26654309D01*
X31757000Y-25813750D01*
X31598250Y-25655000D01*
X30749000Y-25655000D01*
X30495000Y-25655000D01*
X30475000Y-25655000D01*
X30475000Y-25401000D01*
X30495000Y-25401000D01*
X30495000Y-24051750D01*
X30749000Y-24051750D01*
X30749000Y-25401000D01*
X31598250Y-25401000D01*
X31757000Y-25242250D01*
X31757000Y-24401691D01*
X31660327Y-24168302D01*
X31481699Y-23989673D01*
X31248310Y-23893000D01*
X30907750Y-23893000D01*
X30749000Y-24051750D01*
X30495000Y-24051750D01*
X30336250Y-23893000D01*
X29995690Y-23893000D01*
X29762301Y-23989673D01*
X29620655Y-24131320D01*
X29579809Y-24070191D01*
X29369765Y-23929843D01*
X29122000Y-23880560D01*
X28122000Y-23880560D01*
X27874235Y-23929843D01*
X27664191Y-24070191D01*
X27622000Y-24133334D01*
X27579809Y-24070191D01*
X27369765Y-23929843D01*
X27122000Y-23880560D01*
X26122000Y-23880560D01*
X25874235Y-23929843D01*
X25664191Y-24070191D01*
X25622000Y-24133334D01*
X25579809Y-24070191D01*
X25369765Y-23929843D01*
X25122000Y-23880560D01*
X24122000Y-23880560D01*
X23874235Y-23929843D01*
X23664191Y-24070191D01*
X23622000Y-24133334D01*
X23579809Y-24070191D01*
X23369765Y-23929843D01*
X23366000Y-23929094D01*
X23366000Y-23168846D01*
X23380888Y-23093999D01*
X23366000Y-23019152D01*
X23366000Y-14792801D01*
X23936802Y-14222000D01*
X36774000Y-14222000D01*
X36774000Y-14429874D01*
X36931569Y-14810280D01*
X37222720Y-15101431D01*
X37603126Y-15259000D01*
X38014874Y-15259000D01*
X38395280Y-15101431D01*
X38686431Y-14810280D01*
X38791021Y-14557777D01*
X38815904Y-14520537D01*
X38824642Y-14476609D01*
X38844000Y-14429874D01*
X38844000Y-14379289D01*
X38872676Y-14235125D01*
X40468329Y-12639473D01*
X40468330Y-12639471D01*
X40664483Y-12443319D01*
X40727939Y-12400919D01*
X40895914Y-12149527D01*
X40940010Y-11927841D01*
X40940010Y-11927838D01*
X40954898Y-11852990D01*
X40940010Y-11778142D01*
X40940010Y-7886791D01*
X40998898Y-7827903D01*
X41230329Y-7596473D01*
X41230331Y-7596470D01*
X41505470Y-7321331D01*
X41568929Y-7278929D01*
X41736904Y-7027537D01*
X41752113Y-6951078D01*
X42123744Y-7025000D01*
X42416256Y-7025000D01*
X42849418Y-6938839D01*
X43340625Y-6610625D01*
X43540000Y-6312239D01*
X43739375Y-6610625D01*
X44230582Y-6938839D01*
X44663744Y-7025000D01*
X44956256Y-7025000D01*
X45389418Y-6938839D01*
X45880625Y-6610625D01*
X46080000Y-6312239D01*
X46279375Y-6610625D01*
X46770582Y-6938839D01*
X47203744Y-7025000D01*
X47496256Y-7025000D01*
X47929418Y-6938839D01*
X48420625Y-6610625D01*
X48620000Y-6312239D01*
X48819375Y-6610625D01*
X49310582Y-6938839D01*
X49743744Y-7025000D01*
X50036256Y-7025000D01*
X50469418Y-6938839D01*
X50960625Y-6610625D01*
X51160000Y-6312239D01*
X51359375Y-6610625D01*
X51850582Y-6938839D01*
X52283744Y-7025000D01*
X52576256Y-7025000D01*
X53009418Y-6938839D01*
X53500625Y-6610625D01*
X53828839Y-6119418D01*
X53944092Y-5540000D01*
X53828839Y-4960582D01*
X53500625Y-4469375D01*
X53202239Y-4270000D01*
X53500625Y-4070625D01*
X53828839Y-3579418D01*
X53944092Y-3000000D01*
X53828839Y-2420582D01*
X53500625Y-1929375D01*
X53009418Y-1601161D01*
X52576256Y-1515000D01*
X52283744Y-1515000D01*
X51850582Y-1601161D01*
X51359375Y-1929375D01*
X51160000Y-2227761D01*
X50960625Y-1929375D01*
X50469418Y-1601161D01*
X50036256Y-1515000D01*
X49743744Y-1515000D01*
X49310582Y-1601161D01*
X48819375Y-1929375D01*
X48620000Y-2227761D01*
X48420625Y-1929375D01*
X47929418Y-1601161D01*
X47496256Y-1515000D01*
X47203744Y-1515000D01*
X46770582Y-1601161D01*
X46279375Y-1929375D01*
X46080000Y-2227761D01*
X45880625Y-1929375D01*
X45389418Y-1601161D01*
X44956256Y-1515000D01*
X44663744Y-1515000D01*
X44230582Y-1601161D01*
X43739375Y-1929375D01*
X43540000Y-2227761D01*
X43340625Y-1929375D01*
X42849418Y-1601161D01*
X42416256Y-1515000D01*
X42123744Y-1515000D01*
X41690582Y-1601161D01*
X41199375Y-1929375D01*
X41000000Y-2227761D01*
X40800625Y-1929375D01*
X40309418Y-1601161D01*
X39876256Y-1515000D01*
X39583744Y-1515000D01*
X39150582Y-1601161D01*
X38659375Y-1929375D01*
X38460000Y-2227761D01*
X38260625Y-1929375D01*
X37769418Y-1601161D01*
X37336256Y-1515000D01*
X37043744Y-1515000D01*
X36610582Y-1601161D01*
X36119375Y-1929375D01*
X35920000Y-2227761D01*
X35720625Y-1929375D01*
X35229418Y-1601161D01*
X34796256Y-1515000D01*
X34503744Y-1515000D01*
X34070582Y-1601161D01*
X33579375Y-1929375D01*
X33380000Y-2227761D01*
X33180625Y-1929375D01*
X32689418Y-1601161D01*
X32256256Y-1515000D01*
X31963744Y-1515000D01*
X31530582Y-1601161D01*
X31039375Y-1929375D01*
X30840000Y-2227761D01*
X30640625Y-1929375D01*
X30149418Y-1601161D01*
X29716256Y-1515000D01*
X29423744Y-1515000D01*
X28990582Y-1601161D01*
X28499375Y-1929375D01*
X28171161Y-2420582D01*
X28055908Y-3000000D01*
X28171161Y-3579418D01*
X28499375Y-4070625D01*
X28521032Y-4085096D01*
X28360301Y-4151673D01*
X28181673Y-4330302D01*
X28085000Y-4563691D01*
X28085000Y-5254250D01*
X28243750Y-5413000D01*
X29443000Y-5413000D01*
X29443000Y-5393000D01*
X29697000Y-5393000D01*
X29697000Y-5413000D01*
X29717000Y-5413000D01*
X29717000Y-5667000D01*
X29697000Y-5667000D01*
X29697000Y-6866250D01*
X29855750Y-7025000D01*
X30546310Y-7025000D01*
X30779699Y-6928327D01*
X30958327Y-6749698D01*
X31024904Y-6588967D01*
X31039375Y-6610625D01*
X31530582Y-6938839D01*
X31963744Y-7025000D01*
X32256256Y-7025000D01*
X32689418Y-6938839D01*
X33180625Y-6610625D01*
X33380000Y-6312239D01*
X33579375Y-6610625D01*
X34070582Y-6938839D01*
X34503744Y-7025000D01*
X34796256Y-7025000D01*
X35229418Y-6938839D01*
X35720625Y-6610625D01*
X35920000Y-6312239D01*
X36119375Y-6610625D01*
X36150458Y-6631394D01*
X35811199Y-6970653D01*
X35645126Y-6970653D01*
X35264720Y-7128222D01*
X34973569Y-7419373D01*
X34816000Y-7799779D01*
X34816000Y-8211527D01*
X34973569Y-8591933D01*
X35028362Y-8646726D01*
X34719720Y-8774569D01*
X34428569Y-9065720D01*
X34271000Y-9446126D01*
X34271000Y-9857874D01*
X34428569Y-10238280D01*
X34719720Y-10529431D01*
X35100126Y-10687000D01*
X35511874Y-10687000D01*
X35892280Y-10529431D01*
X36183431Y-10238280D01*
X36341000Y-9857874D01*
X36341000Y-9691801D01*
X38965473Y-7067329D01*
X38970001Y-7064304D01*
X38970000Y-9633000D01*
X38656126Y-9633000D01*
X38275720Y-9790569D01*
X37984569Y-10081720D01*
X37827000Y-10462126D01*
X37827000Y-10873874D01*
X37984569Y-11254280D01*
X38100744Y-11370455D01*
X37277199Y-12194000D01*
X23568436Y-12194000D01*
X23493589Y-12179112D01*
X23418742Y-12194000D01*
X23418738Y-12194000D01*
X23197053Y-12238096D01*
X23197051Y-12238097D01*
X23197052Y-12238097D01*
X23009116Y-12363671D01*
X23009114Y-12363673D01*
X22945661Y-12406071D01*
X22903263Y-12469524D01*
X21613530Y-13759259D01*
X21550071Y-13801661D01*
X21382096Y-14053054D01*
X21338000Y-14274739D01*
X21338000Y-14274743D01*
X21323112Y-14349590D01*
X21338000Y-14424437D01*
X21338001Y-16195197D01*
X21275198Y-16258000D01*
X19378846Y-16258000D01*
X19303999Y-16243112D01*
X19229152Y-16258000D01*
X19229148Y-16258000D01*
X19007463Y-16302096D01*
X19007461Y-16302097D01*
X19007462Y-16302097D01*
X18819526Y-16427671D01*
X18819524Y-16427673D01*
X18756071Y-16470071D01*
X18713672Y-16533525D01*
X18311527Y-16935672D01*
X18248072Y-16978071D01*
X18205672Y-17041527D01*
X18205671Y-17041528D01*
X18080097Y-17229463D01*
X18021112Y-17526000D01*
X18036001Y-17600852D01*
X18036001Y-18317427D01*
X17888191Y-18416191D01*
X17747843Y-18626235D01*
X17698560Y-18874000D01*
X17698560Y-20074000D01*
X17747843Y-20321765D01*
X17888191Y-20531809D01*
X17951334Y-20574000D01*
X17888191Y-20616191D01*
X17747843Y-20826235D01*
X17698560Y-21074000D01*
X17698560Y-22274000D01*
X17747843Y-22521765D01*
X17888191Y-22731809D01*
X18098235Y-22872157D01*
X18346000Y-22921440D01*
X18818639Y-22921440D01*
X19845944Y-23948746D01*
X19664191Y-24070191D01*
X19622000Y-24133334D01*
X19579809Y-24070191D01*
X19369765Y-23929843D01*
X19122000Y-23880560D01*
X18122000Y-23880560D01*
X17874235Y-23929843D01*
X17664191Y-24070191D01*
X17623345Y-24131320D01*
X17481699Y-23989673D01*
X17248310Y-23893000D01*
X16907750Y-23893000D01*
X16749000Y-24051750D01*
X16495000Y-24051750D01*
X16336250Y-23893000D01*
X15995690Y-23893000D01*
X15762301Y-23989673D01*
X15583673Y-24168302D01*
X15487000Y-24401691D01*
X735000Y-24401691D01*
X735000Y-4237171D01*
X1165000Y-4237171D01*
X1165000Y-5762829D01*
X1748844Y-7172353D01*
X2827647Y-8251156D01*
X4237171Y-8835000D01*
X5762829Y-8835000D01*
X7172353Y-8251156D01*
X8251156Y-7172353D01*
X8808937Y-5825750D01*
X28085000Y-5825750D01*
X28085000Y-6516309D01*
X28181673Y-6749698D01*
X28360301Y-6928327D01*
X28593690Y-7025000D01*
X29284250Y-7025000D01*
X29443000Y-6866250D01*
X29443000Y-5667000D01*
X28243750Y-5667000D01*
X28085000Y-5825750D01*
X8808937Y-5825750D01*
X8835000Y-5762829D01*
X8835000Y-4237171D01*
X8251156Y-2827647D01*
X7172353Y-1748844D01*
X5762829Y-1165000D01*
X4237171Y-1165000D01*
X2827647Y-1748844D01*
X1748844Y-2827647D01*
X1165000Y-4237171D01*
X735000Y-4237171D01*
X735000Y-2052364D01*
X793044Y-1647060D01*
X940614Y-1322496D01*
X1173350Y-1052393D01*
X1472539Y-858468D01*
X1838479Y-749030D01*
X2027273Y-735000D01*
X59563000Y-735000D01*
X59563000Y-81265000D01*
G36*
X40633560Y-62896000D02*
X40682843Y-63143765D01*
X40743873Y-63235102D01*
X40742673Y-63236302D01*
X40646000Y-63469691D01*
X40646000Y-63910250D01*
X40804750Y-64069000D01*
X41529000Y-64069000D01*
X41529000Y-64049000D01*
X41783000Y-64049000D01*
X41783000Y-64069000D01*
X41803000Y-64069000D01*
X41803000Y-64323000D01*
X41783000Y-64323000D01*
X41783000Y-64343000D01*
X41529000Y-64343000D01*
X41529000Y-64323000D01*
X40804750Y-64323000D01*
X40646000Y-64481750D01*
X40646000Y-64922309D01*
X40742673Y-65155698D01*
X40866974Y-65280000D01*
X37361218Y-65280000D01*
X37271809Y-65146191D01*
X37208666Y-65104000D01*
X37271809Y-65061809D01*
X37412157Y-64851765D01*
X37461440Y-64604000D01*
X37461440Y-63604000D01*
X37412157Y-63356235D01*
X37271809Y-63146191D01*
X37208666Y-63104000D01*
X37271809Y-63061809D01*
X37403982Y-62864000D01*
X40633560Y-62864000D01*
X40633560Y-62896000D01*
X40633560Y-62896000D01*
G37*
X40633560Y-62896000D02*
X40682843Y-63143765D01*
X40743873Y-63235102D01*
X40742673Y-63236302D01*
X40646000Y-63469691D01*
X40646000Y-63910250D01*
X40804750Y-64069000D01*
X41529000Y-64069000D01*
X41529000Y-64049000D01*
X41783000Y-64049000D01*
X41783000Y-64069000D01*
X41803000Y-64069000D01*
X41803000Y-64323000D01*
X41783000Y-64323000D01*
X41783000Y-64343000D01*
X41529000Y-64343000D01*
X41529000Y-64323000D01*
X40804750Y-64323000D01*
X40646000Y-64481750D01*
X40646000Y-64922309D01*
X40742673Y-65155698D01*
X40866974Y-65280000D01*
X37361218Y-65280000D01*
X37271809Y-65146191D01*
X37208666Y-65104000D01*
X37271809Y-65061809D01*
X37412157Y-64851765D01*
X37461440Y-64604000D01*
X37461440Y-63604000D01*
X37412157Y-63356235D01*
X37271809Y-63146191D01*
X37208666Y-63104000D01*
X37271809Y-63061809D01*
X37403982Y-62864000D01*
X40633560Y-62864000D01*
X40633560Y-62896000D01*
G04 #@! TD*
M02*
