G04 #@! TF.GenerationSoftware,KiCad,Pcbnew,(5.0.0)*
G04 #@! TF.CreationDate,2019-04-05T11:11:38-04:00*
G04 #@! TF.ProjectId,Radio Board,526164696F20426F6172642E6B696361,rev?*
G04 #@! TF.SameCoordinates,Original*
G04 #@! TF.FileFunction,Legend,Top*
G04 #@! TF.FilePolarity,Positive*
%FSLAX46Y46*%
G04 Gerber Fmt 4.6, Leading zero omitted, Abs format (unit mm)*
G04 Created by KiCad (PCBNEW (5.0.0)) date 04/05/19 11:11:38*
%MOMM*%
%LPD*%
G01*
G04 APERTURE LIST*
%ADD10C,0.200000*%
%ADD11C,0.300000*%
%ADD12C,0.150000*%
%ADD13C,0.100000*%
%ADD14C,0.120000*%
%ADD15C,0.010000*%
G04 APERTURE END LIST*
D10*
X10454000Y-37677000D02*
X12454000Y-37677000D01*
X13454000Y-36677000D02*
X13454000Y-32677000D01*
X9454000Y-36677000D02*
X9454000Y-32677000D01*
X13454000Y-32677000D02*
X12454000Y-30677000D01*
X13454000Y-36677000D02*
G75*
G02X12454000Y-37677000I-1000000J0D01*
G01*
X10454000Y-37677000D02*
G75*
G02X9454000Y-36677000I0J1000000D01*
G01*
X12854000Y-35177000D02*
G75*
G03X12854000Y-35177000I-1400000J0D01*
G01*
X11708000Y-35177000D02*
G75*
G03X11708000Y-35177000I-254000J0D01*
G01*
X9454000Y-32677000D02*
X10454000Y-30677000D01*
X46508000Y-71874000D02*
G75*
G02X45508000Y-70874000I0J1000000D01*
G01*
X45508000Y-68874000D02*
G75*
G02X46508000Y-67874000I1000000J0D01*
G01*
X50508000Y-67874000D02*
X52508000Y-68874000D01*
X11176000Y-15494000D02*
X2032000Y-15494000D01*
X10160000Y-16510000D02*
X2032000Y-16510000D01*
D11*
X51436285Y-28590761D02*
X50769619Y-27638380D01*
X50293428Y-28590761D02*
X50293428Y-26590761D01*
X51055333Y-26590761D01*
X51245809Y-26686000D01*
X51341047Y-26781238D01*
X51436285Y-26971714D01*
X51436285Y-27257428D01*
X51341047Y-27447904D01*
X51245809Y-27543142D01*
X51055333Y-27638380D01*
X50293428Y-27638380D01*
X52198190Y-28019333D02*
X53150571Y-28019333D01*
X52007714Y-28590761D02*
X52674380Y-26590761D01*
X53341047Y-28590761D01*
X54007714Y-28590761D02*
X54007714Y-26590761D01*
X54483904Y-26590761D01*
X54769619Y-26686000D01*
X54960095Y-26876476D01*
X55055333Y-27066952D01*
X55150571Y-27447904D01*
X55150571Y-27733619D01*
X55055333Y-28114571D01*
X54960095Y-28305047D01*
X54769619Y-28495523D01*
X54483904Y-28590761D01*
X54007714Y-28590761D01*
X56007714Y-28590761D02*
X56007714Y-27257428D01*
X56007714Y-26590761D02*
X55912476Y-26686000D01*
X56007714Y-26781238D01*
X56102952Y-26686000D01*
X56007714Y-26590761D01*
X56007714Y-26781238D01*
X57245809Y-28590761D02*
X57055333Y-28495523D01*
X56960095Y-28400285D01*
X56864857Y-28209809D01*
X56864857Y-27638380D01*
X56960095Y-27447904D01*
X57055333Y-27352666D01*
X57245809Y-27257428D01*
X57531523Y-27257428D01*
X57722000Y-27352666D01*
X57817238Y-27447904D01*
X57912476Y-27638380D01*
X57912476Y-28209809D01*
X57817238Y-28400285D01*
X57722000Y-28495523D01*
X57531523Y-28590761D01*
X57245809Y-28590761D01*
X60960095Y-27543142D02*
X61245809Y-27638380D01*
X61341047Y-27733619D01*
X61436285Y-27924095D01*
X61436285Y-28209809D01*
X61341047Y-28400285D01*
X61245809Y-28495523D01*
X61055333Y-28590761D01*
X60293428Y-28590761D01*
X60293428Y-26590761D01*
X60960095Y-26590761D01*
X61150571Y-26686000D01*
X61245809Y-26781238D01*
X61341047Y-26971714D01*
X61341047Y-27162190D01*
X61245809Y-27352666D01*
X61150571Y-27447904D01*
X60960095Y-27543142D01*
X60293428Y-27543142D01*
X62579142Y-28590761D02*
X62388666Y-28495523D01*
X62293428Y-28400285D01*
X62198190Y-28209809D01*
X62198190Y-27638380D01*
X62293428Y-27447904D01*
X62388666Y-27352666D01*
X62579142Y-27257428D01*
X62864857Y-27257428D01*
X63055333Y-27352666D01*
X63150571Y-27447904D01*
X63245809Y-27638380D01*
X63245809Y-28209809D01*
X63150571Y-28400285D01*
X63055333Y-28495523D01*
X62864857Y-28590761D01*
X62579142Y-28590761D01*
X64960095Y-28590761D02*
X64960095Y-27543142D01*
X64864857Y-27352666D01*
X64674380Y-27257428D01*
X64293428Y-27257428D01*
X64102952Y-27352666D01*
X64960095Y-28495523D02*
X64769619Y-28590761D01*
X64293428Y-28590761D01*
X64102952Y-28495523D01*
X64007714Y-28305047D01*
X64007714Y-28114571D01*
X64102952Y-27924095D01*
X64293428Y-27828857D01*
X64769619Y-27828857D01*
X64960095Y-27733619D01*
X65912476Y-28590761D02*
X65912476Y-27257428D01*
X65912476Y-27638380D02*
X66007714Y-27447904D01*
X66102952Y-27352666D01*
X66293428Y-27257428D01*
X66483904Y-27257428D01*
X68007714Y-28590761D02*
X68007714Y-26590761D01*
X68007714Y-28495523D02*
X67817238Y-28590761D01*
X67436285Y-28590761D01*
X67245809Y-28495523D01*
X67150571Y-28400285D01*
X67055333Y-28209809D01*
X67055333Y-27638380D01*
X67150571Y-27447904D01*
X67245809Y-27352666D01*
X67436285Y-27257428D01*
X67817238Y-27257428D01*
X68007714Y-27352666D01*
X70198190Y-26590761D02*
X70864857Y-28590761D01*
X71531523Y-26590761D01*
X73245809Y-28590761D02*
X72102952Y-28590761D01*
X72674380Y-28590761D02*
X72674380Y-26590761D01*
X72483904Y-26876476D01*
X72293428Y-27066952D01*
X72102952Y-27162190D01*
D12*
X62937238Y-56334380D02*
X63127714Y-56334380D01*
X63222952Y-56286761D01*
X63270571Y-56239142D01*
X63365809Y-56096285D01*
X63413428Y-55905809D01*
X63413428Y-55524857D01*
X63365809Y-55429619D01*
X63318190Y-55382000D01*
X63222952Y-55334380D01*
X63032476Y-55334380D01*
X62937238Y-55382000D01*
X62889619Y-55429619D01*
X62842000Y-55524857D01*
X62842000Y-55762952D01*
X62889619Y-55858190D01*
X62937238Y-55905809D01*
X63032476Y-55953428D01*
X63222952Y-55953428D01*
X63318190Y-55905809D01*
X63365809Y-55858190D01*
X63413428Y-55762952D01*
X64032476Y-55334380D02*
X64127714Y-55334380D01*
X64222952Y-55382000D01*
X64270571Y-55429619D01*
X64318190Y-55524857D01*
X64365809Y-55715333D01*
X64365809Y-55953428D01*
X64318190Y-56143904D01*
X64270571Y-56239142D01*
X64222952Y-56286761D01*
X64127714Y-56334380D01*
X64032476Y-56334380D01*
X63937238Y-56286761D01*
X63889619Y-56239142D01*
X63842000Y-56143904D01*
X63794380Y-55953428D01*
X63794380Y-55715333D01*
X63842000Y-55524857D01*
X63889619Y-55429619D01*
X63937238Y-55382000D01*
X64032476Y-55334380D01*
X64984857Y-55334380D02*
X65080095Y-55334380D01*
X65175333Y-55382000D01*
X65222952Y-55429619D01*
X65270571Y-55524857D01*
X65318190Y-55715333D01*
X65318190Y-55953428D01*
X65270571Y-56143904D01*
X65222952Y-56239142D01*
X65175333Y-56286761D01*
X65080095Y-56334380D01*
X64984857Y-56334380D01*
X64889619Y-56286761D01*
X64842000Y-56239142D01*
X64794380Y-56143904D01*
X64746761Y-55953428D01*
X64746761Y-55715333D01*
X64794380Y-55524857D01*
X64842000Y-55429619D01*
X64889619Y-55382000D01*
X64984857Y-55334380D01*
X65746761Y-56334380D02*
X65746761Y-55334380D01*
X66080095Y-56048666D01*
X66413428Y-55334380D01*
X66413428Y-56334380D01*
X66889619Y-56334380D02*
X66889619Y-55334380D01*
X66889619Y-55810571D02*
X67461047Y-55810571D01*
X67461047Y-56334380D02*
X67461047Y-55334380D01*
X67842000Y-55667714D02*
X68365809Y-55667714D01*
X67842000Y-56334380D01*
X68365809Y-56334380D01*
X69937238Y-56334380D02*
X69937238Y-55810571D01*
X69889619Y-55715333D01*
X69794380Y-55667714D01*
X69603904Y-55667714D01*
X69508666Y-55715333D01*
X69937238Y-56286761D02*
X69842000Y-56334380D01*
X69603904Y-56334380D01*
X69508666Y-56286761D01*
X69461047Y-56191523D01*
X69461047Y-56096285D01*
X69508666Y-56001047D01*
X69603904Y-55953428D01*
X69842000Y-55953428D01*
X69937238Y-55905809D01*
X70413428Y-55667714D02*
X70413428Y-56334380D01*
X70413428Y-55762952D02*
X70461047Y-55715333D01*
X70556285Y-55667714D01*
X70699142Y-55667714D01*
X70794380Y-55715333D01*
X70842000Y-55810571D01*
X70842000Y-56334380D01*
X71175333Y-55667714D02*
X71556285Y-55667714D01*
X71318190Y-55334380D02*
X71318190Y-56191523D01*
X71365809Y-56286761D01*
X71461047Y-56334380D01*
X71556285Y-56334380D01*
X72270571Y-56286761D02*
X72175333Y-56334380D01*
X71984857Y-56334380D01*
X71889619Y-56286761D01*
X71842000Y-56191523D01*
X71842000Y-55810571D01*
X71889619Y-55715333D01*
X71984857Y-55667714D01*
X72175333Y-55667714D01*
X72270571Y-55715333D01*
X72318190Y-55810571D01*
X72318190Y-55905809D01*
X71842000Y-56001047D01*
X72746761Y-55667714D02*
X72746761Y-56334380D01*
X72746761Y-55762952D02*
X72794380Y-55715333D01*
X72889619Y-55667714D01*
X73032476Y-55667714D01*
X73127714Y-55715333D01*
X73175333Y-55810571D01*
X73175333Y-56334380D01*
X73651523Y-55667714D02*
X73651523Y-56334380D01*
X73651523Y-55762952D02*
X73699142Y-55715333D01*
X73794380Y-55667714D01*
X73937238Y-55667714D01*
X74032476Y-55715333D01*
X74080095Y-55810571D01*
X74080095Y-56334380D01*
X74984857Y-56334380D02*
X74984857Y-55810571D01*
X74937238Y-55715333D01*
X74842000Y-55667714D01*
X74651523Y-55667714D01*
X74556285Y-55715333D01*
X74984857Y-56286761D02*
X74889619Y-56334380D01*
X74651523Y-56334380D01*
X74556285Y-56286761D01*
X74508666Y-56191523D01*
X74508666Y-56096285D01*
X74556285Y-56001047D01*
X74651523Y-55953428D01*
X74889619Y-55953428D01*
X74984857Y-55905809D01*
X75413428Y-56286761D02*
X75508666Y-56334380D01*
X75699142Y-56334380D01*
X75794380Y-56286761D01*
X75842000Y-56191523D01*
X75842000Y-56143904D01*
X75794380Y-56048666D01*
X75699142Y-56001047D01*
X75556285Y-56001047D01*
X75461047Y-55953428D01*
X75413428Y-55858190D01*
X75413428Y-55810571D01*
X75461047Y-55715333D01*
X75556285Y-55667714D01*
X75699142Y-55667714D01*
X75794380Y-55715333D01*
X60484857Y-56984380D02*
X60008666Y-56984380D01*
X59961047Y-57460571D01*
X60008666Y-57412952D01*
X60103904Y-57365333D01*
X60342000Y-57365333D01*
X60437238Y-57412952D01*
X60484857Y-57460571D01*
X60532476Y-57555809D01*
X60532476Y-57793904D01*
X60484857Y-57889142D01*
X60437238Y-57936761D01*
X60342000Y-57984380D01*
X60103904Y-57984380D01*
X60008666Y-57936761D01*
X59961047Y-57889142D01*
X61151523Y-56984380D02*
X61246761Y-56984380D01*
X61342000Y-57032000D01*
X61389619Y-57079619D01*
X61437238Y-57174857D01*
X61484857Y-57365333D01*
X61484857Y-57603428D01*
X61437238Y-57793904D01*
X61389619Y-57889142D01*
X61342000Y-57936761D01*
X61246761Y-57984380D01*
X61151523Y-57984380D01*
X61056285Y-57936761D01*
X61008666Y-57889142D01*
X60961047Y-57793904D01*
X60913428Y-57603428D01*
X60913428Y-57365333D01*
X60961047Y-57174857D01*
X61008666Y-57079619D01*
X61056285Y-57032000D01*
X61151523Y-56984380D01*
X62056285Y-57984380D02*
X61961047Y-57936761D01*
X61913428Y-57889142D01*
X61865809Y-57793904D01*
X61865809Y-57508190D01*
X61913428Y-57412952D01*
X61961047Y-57365333D01*
X62056285Y-57317714D01*
X62199142Y-57317714D01*
X62294380Y-57365333D01*
X62342000Y-57412952D01*
X62389619Y-57508190D01*
X62389619Y-57793904D01*
X62342000Y-57889142D01*
X62294380Y-57936761D01*
X62199142Y-57984380D01*
X62056285Y-57984380D01*
X62818190Y-57984380D02*
X62818190Y-56984380D01*
X63246761Y-57984380D02*
X63246761Y-57460571D01*
X63199142Y-57365333D01*
X63103904Y-57317714D01*
X62961047Y-57317714D01*
X62865809Y-57365333D01*
X62818190Y-57412952D01*
X63722952Y-57984380D02*
X63722952Y-57317714D01*
X63722952Y-57412952D02*
X63770571Y-57365333D01*
X63865809Y-57317714D01*
X64008666Y-57317714D01*
X64103904Y-57365333D01*
X64151523Y-57460571D01*
X64151523Y-57984380D01*
X64151523Y-57460571D02*
X64199142Y-57365333D01*
X64294380Y-57317714D01*
X64437238Y-57317714D01*
X64532476Y-57365333D01*
X64580095Y-57460571D01*
X64580095Y-57984380D01*
X65818190Y-57984380D02*
X65818190Y-57317714D01*
X65818190Y-56984380D02*
X65770571Y-57032000D01*
X65818190Y-57079619D01*
X65865809Y-57032000D01*
X65818190Y-56984380D01*
X65818190Y-57079619D01*
X66294380Y-57984380D02*
X66294380Y-57317714D01*
X66294380Y-57412952D02*
X66341999Y-57365333D01*
X66437238Y-57317714D01*
X66580095Y-57317714D01*
X66675333Y-57365333D01*
X66722952Y-57460571D01*
X66722952Y-57984380D01*
X66722952Y-57460571D02*
X66770571Y-57365333D01*
X66865809Y-57317714D01*
X67008666Y-57317714D01*
X67103904Y-57365333D01*
X67151523Y-57460571D01*
X67151523Y-57984380D01*
X67627714Y-57317714D02*
X67627714Y-58317714D01*
X67627714Y-57365333D02*
X67722952Y-57317714D01*
X67913428Y-57317714D01*
X68008666Y-57365333D01*
X68056285Y-57412952D01*
X68103904Y-57508190D01*
X68103904Y-57793904D01*
X68056285Y-57889142D01*
X68008666Y-57936761D01*
X67913428Y-57984380D01*
X67722952Y-57984380D01*
X67627714Y-57936761D01*
X68913428Y-57936761D02*
X68818190Y-57984380D01*
X68627714Y-57984380D01*
X68532476Y-57936761D01*
X68484857Y-57841523D01*
X68484857Y-57460571D01*
X68532476Y-57365333D01*
X68627714Y-57317714D01*
X68818190Y-57317714D01*
X68913428Y-57365333D01*
X68961047Y-57460571D01*
X68961047Y-57555809D01*
X68484857Y-57651047D01*
X69818190Y-57984380D02*
X69818190Y-56984380D01*
X69818190Y-57936761D02*
X69722952Y-57984380D01*
X69532476Y-57984380D01*
X69437238Y-57936761D01*
X69389619Y-57889142D01*
X69342000Y-57793904D01*
X69342000Y-57508190D01*
X69389619Y-57412952D01*
X69437238Y-57365333D01*
X69532476Y-57317714D01*
X69722952Y-57317714D01*
X69818190Y-57365333D01*
X70722952Y-57984380D02*
X70722952Y-57460571D01*
X70675333Y-57365333D01*
X70580095Y-57317714D01*
X70389619Y-57317714D01*
X70294380Y-57365333D01*
X70722952Y-57936761D02*
X70627714Y-57984380D01*
X70389619Y-57984380D01*
X70294380Y-57936761D01*
X70246761Y-57841523D01*
X70246761Y-57746285D01*
X70294380Y-57651047D01*
X70389619Y-57603428D01*
X70627714Y-57603428D01*
X70722952Y-57555809D01*
X71199142Y-57317714D02*
X71199142Y-57984380D01*
X71199142Y-57412952D02*
X71246761Y-57365333D01*
X71342000Y-57317714D01*
X71484857Y-57317714D01*
X71580095Y-57365333D01*
X71627714Y-57460571D01*
X71627714Y-57984380D01*
X72532476Y-57936761D02*
X72437238Y-57984380D01*
X72246761Y-57984380D01*
X72151523Y-57936761D01*
X72103904Y-57889142D01*
X72056285Y-57793904D01*
X72056285Y-57508190D01*
X72103904Y-57412952D01*
X72151523Y-57365333D01*
X72246761Y-57317714D01*
X72437238Y-57317714D01*
X72532476Y-57365333D01*
X73342000Y-57936761D02*
X73246761Y-57984380D01*
X73056285Y-57984380D01*
X72961047Y-57936761D01*
X72913428Y-57841523D01*
X72913428Y-57460571D01*
X72961047Y-57365333D01*
X73056285Y-57317714D01*
X73246761Y-57317714D01*
X73342000Y-57365333D01*
X73389619Y-57460571D01*
X73389619Y-57555809D01*
X72913428Y-57651047D01*
X74580095Y-57984380D02*
X74580095Y-57317714D01*
X74580095Y-57412952D02*
X74627714Y-57365333D01*
X74722952Y-57317714D01*
X74865809Y-57317714D01*
X74961047Y-57365333D01*
X75008666Y-57460571D01*
X75008666Y-57984380D01*
X75008666Y-57460571D02*
X75056285Y-57365333D01*
X75151523Y-57317714D01*
X75294380Y-57317714D01*
X75389619Y-57365333D01*
X75437238Y-57460571D01*
X75437238Y-57984380D01*
X76342000Y-57984380D02*
X76342000Y-57460571D01*
X76294380Y-57365333D01*
X76199142Y-57317714D01*
X76008666Y-57317714D01*
X75913428Y-57365333D01*
X76342000Y-57936761D02*
X76246761Y-57984380D01*
X76008666Y-57984380D01*
X75913428Y-57936761D01*
X75865809Y-57841523D01*
X75865809Y-57746285D01*
X75913428Y-57651047D01*
X76008666Y-57603428D01*
X76246761Y-57603428D01*
X76342000Y-57555809D01*
X76675333Y-57317714D02*
X77056285Y-57317714D01*
X76818190Y-56984380D02*
X76818190Y-57841523D01*
X76865809Y-57936761D01*
X76961047Y-57984380D01*
X77056285Y-57984380D01*
X77818190Y-57936761D02*
X77722952Y-57984380D01*
X77532476Y-57984380D01*
X77437238Y-57936761D01*
X77389619Y-57889142D01*
X77342000Y-57793904D01*
X77342000Y-57508190D01*
X77389619Y-57412952D01*
X77437238Y-57365333D01*
X77532476Y-57317714D01*
X77722952Y-57317714D01*
X77818190Y-57365333D01*
X78246761Y-57984380D02*
X78246761Y-56984380D01*
X78675333Y-57984380D02*
X78675333Y-57460571D01*
X78627714Y-57365333D01*
X78532476Y-57317714D01*
X78389619Y-57317714D01*
X78294380Y-57365333D01*
X78246761Y-57412952D01*
X63842000Y-58967714D02*
X63842000Y-59634380D01*
X63603904Y-58586761D02*
X63365809Y-59301047D01*
X63984857Y-59301047D01*
X64365809Y-59539142D02*
X64413428Y-59586761D01*
X64365809Y-59634380D01*
X64318190Y-59586761D01*
X64365809Y-59539142D01*
X64365809Y-59634380D01*
X65270571Y-58967714D02*
X65270571Y-59634380D01*
X65032476Y-58586761D02*
X64794380Y-59301047D01*
X65413428Y-59301047D01*
X66556285Y-58967714D02*
X66556285Y-59967714D01*
X66556285Y-59015333D02*
X66651523Y-58967714D01*
X66842000Y-58967714D01*
X66937238Y-59015333D01*
X66984857Y-59062952D01*
X67032476Y-59158190D01*
X67032476Y-59443904D01*
X66984857Y-59539142D01*
X66937238Y-59586761D01*
X66842000Y-59634380D01*
X66651523Y-59634380D01*
X66556285Y-59586761D01*
X67842000Y-59586761D02*
X67746761Y-59634380D01*
X67556285Y-59634380D01*
X67461047Y-59586761D01*
X67413428Y-59491523D01*
X67413428Y-59110571D01*
X67461047Y-59015333D01*
X67556285Y-58967714D01*
X67746761Y-58967714D01*
X67842000Y-59015333D01*
X67889619Y-59110571D01*
X67889619Y-59205809D01*
X67413428Y-59301047D01*
X68318190Y-59634380D02*
X68318190Y-58967714D01*
X68318190Y-59158190D02*
X68365809Y-59062952D01*
X68413428Y-59015333D01*
X68508666Y-58967714D01*
X68603904Y-58967714D01*
X68937238Y-59634380D02*
X68937238Y-58967714D01*
X68937238Y-59062952D02*
X68984857Y-59015333D01*
X69080095Y-58967714D01*
X69222952Y-58967714D01*
X69318190Y-59015333D01*
X69365809Y-59110571D01*
X69365809Y-59634380D01*
X69365809Y-59110571D02*
X69413428Y-59015333D01*
X69508666Y-58967714D01*
X69651523Y-58967714D01*
X69746761Y-59015333D01*
X69794380Y-59110571D01*
X69794380Y-59634380D01*
X70651523Y-59586761D02*
X70556285Y-59634380D01*
X70365809Y-59634380D01*
X70270571Y-59586761D01*
X70222952Y-59491523D01*
X70222952Y-59110571D01*
X70270571Y-59015333D01*
X70365809Y-58967714D01*
X70556285Y-58967714D01*
X70651523Y-59015333D01*
X70699142Y-59110571D01*
X70699142Y-59205809D01*
X70222952Y-59301047D01*
X71556285Y-59634380D02*
X71556285Y-59110571D01*
X71508666Y-59015333D01*
X71413428Y-58967714D01*
X71222952Y-58967714D01*
X71127714Y-59015333D01*
X71556285Y-59586761D02*
X71461047Y-59634380D01*
X71222952Y-59634380D01*
X71127714Y-59586761D01*
X71080095Y-59491523D01*
X71080095Y-59396285D01*
X71127714Y-59301047D01*
X71222952Y-59253428D01*
X71461047Y-59253428D01*
X71556285Y-59205809D01*
X72032476Y-59634380D02*
X72032476Y-58634380D01*
X72032476Y-59015333D02*
X72127714Y-58967714D01*
X72318190Y-58967714D01*
X72413428Y-59015333D01*
X72461047Y-59062952D01*
X72508666Y-59158190D01*
X72508666Y-59443904D01*
X72461047Y-59539142D01*
X72413428Y-59586761D01*
X72318190Y-59634380D01*
X72127714Y-59634380D01*
X72032476Y-59586761D01*
X72937238Y-59634380D02*
X72937238Y-58967714D01*
X72937238Y-58634380D02*
X72889619Y-58682000D01*
X72937238Y-58729619D01*
X72984857Y-58682000D01*
X72937238Y-58634380D01*
X72937238Y-58729619D01*
X73556285Y-59634380D02*
X73461047Y-59586761D01*
X73413428Y-59491523D01*
X73413428Y-58634380D01*
X73937238Y-59634380D02*
X73937238Y-58967714D01*
X73937238Y-58634380D02*
X73889619Y-58682000D01*
X73937238Y-58729619D01*
X73984857Y-58682000D01*
X73937238Y-58634380D01*
X73937238Y-58729619D01*
X74270571Y-58967714D02*
X74651523Y-58967714D01*
X74413428Y-58634380D02*
X74413428Y-59491523D01*
X74461047Y-59586761D01*
X74556285Y-59634380D01*
X74651523Y-59634380D01*
X74889619Y-58967714D02*
X75127714Y-59634380D01*
X75365809Y-58967714D02*
X75127714Y-59634380D01*
X75032476Y-59872476D01*
X74984857Y-59920095D01*
X74889619Y-59967714D01*
X64556285Y-60284380D02*
X64651523Y-60284380D01*
X64746761Y-60332000D01*
X64794380Y-60379619D01*
X64842000Y-60474857D01*
X64889619Y-60665333D01*
X64889619Y-60903428D01*
X64842000Y-61093904D01*
X64794380Y-61189142D01*
X64746761Y-61236761D01*
X64651523Y-61284380D01*
X64556285Y-61284380D01*
X64461047Y-61236761D01*
X64413428Y-61189142D01*
X64365809Y-61093904D01*
X64318190Y-60903428D01*
X64318190Y-60665333D01*
X64365809Y-60474857D01*
X64413428Y-60379619D01*
X64461047Y-60332000D01*
X64556285Y-60284380D01*
X65318190Y-61189142D02*
X65365809Y-61236761D01*
X65318190Y-61284380D01*
X65270571Y-61236761D01*
X65318190Y-61189142D01*
X65318190Y-61284380D01*
X66222952Y-60284380D02*
X66032476Y-60284380D01*
X65937238Y-60332000D01*
X65889619Y-60379619D01*
X65794380Y-60522476D01*
X65746761Y-60712952D01*
X65746761Y-61093904D01*
X65794380Y-61189142D01*
X65842000Y-61236761D01*
X65937238Y-61284380D01*
X66127714Y-61284380D01*
X66222952Y-61236761D01*
X66270571Y-61189142D01*
X66318190Y-61093904D01*
X66318190Y-60855809D01*
X66270571Y-60760571D01*
X66222952Y-60712952D01*
X66127714Y-60665333D01*
X65937238Y-60665333D01*
X65842000Y-60712952D01*
X65794380Y-60760571D01*
X65746761Y-60855809D01*
X66746761Y-61284380D02*
X66746761Y-60617714D01*
X66746761Y-60712952D02*
X66794380Y-60665333D01*
X66889619Y-60617714D01*
X67032476Y-60617714D01*
X67127714Y-60665333D01*
X67175333Y-60760571D01*
X67175333Y-61284380D01*
X67175333Y-60760571D02*
X67222952Y-60665333D01*
X67318190Y-60617714D01*
X67461047Y-60617714D01*
X67556285Y-60665333D01*
X67603904Y-60760571D01*
X67603904Y-61284380D01*
X68080095Y-61284380D02*
X68080095Y-60617714D01*
X68080095Y-60712952D02*
X68127714Y-60665333D01*
X68222952Y-60617714D01*
X68365809Y-60617714D01*
X68461047Y-60665333D01*
X68508666Y-60760571D01*
X68508666Y-61284380D01*
X68508666Y-60760571D02*
X68556285Y-60665333D01*
X68651523Y-60617714D01*
X68794380Y-60617714D01*
X68889619Y-60665333D01*
X68937238Y-60760571D01*
X68937238Y-61284380D01*
X70175333Y-61284380D02*
X70175333Y-60284380D01*
X70603904Y-61284380D02*
X70603904Y-60760571D01*
X70556285Y-60665333D01*
X70461047Y-60617714D01*
X70318190Y-60617714D01*
X70222952Y-60665333D01*
X70175333Y-60712952D01*
X71461047Y-61236761D02*
X71365809Y-61284380D01*
X71175333Y-61284380D01*
X71080095Y-61236761D01*
X71032476Y-61141523D01*
X71032476Y-60760571D01*
X71080095Y-60665333D01*
X71175333Y-60617714D01*
X71365809Y-60617714D01*
X71461047Y-60665333D01*
X71508666Y-60760571D01*
X71508666Y-60855809D01*
X71032476Y-60951047D01*
X71937238Y-61284380D02*
X71937238Y-60617714D01*
X71937238Y-60284380D02*
X71889619Y-60332000D01*
X71937238Y-60379619D01*
X71984857Y-60332000D01*
X71937238Y-60284380D01*
X71937238Y-60379619D01*
X72842000Y-60617714D02*
X72842000Y-61427238D01*
X72794380Y-61522476D01*
X72746761Y-61570095D01*
X72651523Y-61617714D01*
X72508666Y-61617714D01*
X72413428Y-61570095D01*
X72842000Y-61236761D02*
X72746761Y-61284380D01*
X72556285Y-61284380D01*
X72461047Y-61236761D01*
X72413428Y-61189142D01*
X72365809Y-61093904D01*
X72365809Y-60808190D01*
X72413428Y-60712952D01*
X72461047Y-60665333D01*
X72556285Y-60617714D01*
X72746761Y-60617714D01*
X72842000Y-60665333D01*
X73318190Y-61284380D02*
X73318190Y-60284380D01*
X73746761Y-61284380D02*
X73746761Y-60760571D01*
X73699142Y-60665333D01*
X73603904Y-60617714D01*
X73461047Y-60617714D01*
X73365809Y-60665333D01*
X73318190Y-60712952D01*
X74080095Y-60617714D02*
X74461047Y-60617714D01*
X74222952Y-60284380D02*
X74222952Y-61141523D01*
X74270571Y-61236761D01*
X74365809Y-61284380D01*
X74461047Y-61284380D01*
X65294380Y-62934380D02*
X64722952Y-62934380D01*
X65008666Y-62934380D02*
X65008666Y-61934380D01*
X64913428Y-62077238D01*
X64818190Y-62172476D01*
X64722952Y-62220095D01*
X65722952Y-62839142D02*
X65770571Y-62886761D01*
X65722952Y-62934380D01*
X65675333Y-62886761D01*
X65722952Y-62839142D01*
X65722952Y-62934380D01*
X66722952Y-62934380D02*
X66151523Y-62934380D01*
X66437238Y-62934380D02*
X66437238Y-61934380D01*
X66342000Y-62077238D01*
X66246761Y-62172476D01*
X66151523Y-62220095D01*
X67151523Y-62934380D02*
X67151523Y-62267714D01*
X67151523Y-62362952D02*
X67199142Y-62315333D01*
X67294380Y-62267714D01*
X67437238Y-62267714D01*
X67532476Y-62315333D01*
X67580095Y-62410571D01*
X67580095Y-62934380D01*
X67580095Y-62410571D02*
X67627714Y-62315333D01*
X67722952Y-62267714D01*
X67865809Y-62267714D01*
X67961047Y-62315333D01*
X68008666Y-62410571D01*
X68008666Y-62934380D01*
X68484857Y-62934380D02*
X68484857Y-62267714D01*
X68484857Y-62362952D02*
X68532476Y-62315333D01*
X68627714Y-62267714D01*
X68770571Y-62267714D01*
X68865809Y-62315333D01*
X68913428Y-62410571D01*
X68913428Y-62934380D01*
X68913428Y-62410571D02*
X68961047Y-62315333D01*
X69056285Y-62267714D01*
X69199142Y-62267714D01*
X69294380Y-62315333D01*
X69342000Y-62410571D01*
X69342000Y-62934380D01*
X70437238Y-62267714D02*
X70818190Y-62267714D01*
X70580095Y-61934380D02*
X70580095Y-62791523D01*
X70627714Y-62886761D01*
X70722952Y-62934380D01*
X70818190Y-62934380D01*
X71151523Y-62934380D02*
X71151523Y-62267714D01*
X71151523Y-62458190D02*
X71199142Y-62362952D01*
X71246761Y-62315333D01*
X71342000Y-62267714D01*
X71437238Y-62267714D01*
X72199142Y-62934380D02*
X72199142Y-62410571D01*
X72151523Y-62315333D01*
X72056285Y-62267714D01*
X71865809Y-62267714D01*
X71770571Y-62315333D01*
X72199142Y-62886761D02*
X72103904Y-62934380D01*
X71865809Y-62934380D01*
X71770571Y-62886761D01*
X71722952Y-62791523D01*
X71722952Y-62696285D01*
X71770571Y-62601047D01*
X71865809Y-62553428D01*
X72103904Y-62553428D01*
X72199142Y-62505809D01*
X73103904Y-62886761D02*
X73008666Y-62934380D01*
X72818190Y-62934380D01*
X72722952Y-62886761D01*
X72675333Y-62839142D01*
X72627714Y-62743904D01*
X72627714Y-62458190D01*
X72675333Y-62362952D01*
X72722952Y-62315333D01*
X72818190Y-62267714D01*
X73008666Y-62267714D01*
X73103904Y-62315333D01*
X73913428Y-62886761D02*
X73818190Y-62934380D01*
X73627714Y-62934380D01*
X73532476Y-62886761D01*
X73484857Y-62791523D01*
X73484857Y-62410571D01*
X73532476Y-62315333D01*
X73627714Y-62267714D01*
X73818190Y-62267714D01*
X73913428Y-62315333D01*
X73961047Y-62410571D01*
X73961047Y-62505809D01*
X73484857Y-62601047D01*
D11*
X60147142Y-68322000D02*
X60861428Y-68322000D01*
X60004285Y-68750571D02*
X60504285Y-67250571D01*
X61004285Y-68750571D01*
X61504285Y-68750571D02*
X61504285Y-67250571D01*
X62361428Y-68750571D01*
X62361428Y-67250571D01*
X62861428Y-67250571D02*
X63718571Y-67250571D01*
X63290000Y-68750571D02*
X63290000Y-67250571D01*
X64218571Y-67964857D02*
X64718571Y-67964857D01*
X64932857Y-68750571D02*
X64218571Y-68750571D01*
X64218571Y-67250571D01*
X64932857Y-67250571D01*
X65575714Y-68750571D02*
X65575714Y-67250571D01*
X66432857Y-68750571D01*
X66432857Y-67250571D01*
X67147142Y-68750571D02*
X67147142Y-67250571D01*
X68004285Y-68750571D01*
X68004285Y-67250571D01*
X68647142Y-68322000D02*
X69361428Y-68322000D01*
X68504285Y-68750571D02*
X69004285Y-67250571D01*
X69504285Y-68750571D01*
X71075714Y-67393428D02*
X71147142Y-67322000D01*
X71290000Y-67250571D01*
X71647142Y-67250571D01*
X71790000Y-67322000D01*
X71861428Y-67393428D01*
X71932857Y-67536285D01*
X71932857Y-67679142D01*
X71861428Y-67893428D01*
X71004285Y-68750571D01*
X71932857Y-68750571D01*
X13212000Y-15697142D02*
X13212000Y-16411428D01*
X12783428Y-15554285D02*
X14283428Y-16054285D01*
X12783428Y-16554285D01*
X12783428Y-17054285D02*
X14283428Y-17054285D01*
X12783428Y-17911428D01*
X14283428Y-17911428D01*
X14283428Y-18411428D02*
X14283428Y-19268571D01*
X12783428Y-18840000D02*
X14283428Y-18840000D01*
X13569142Y-19768571D02*
X13569142Y-20268571D01*
X12783428Y-20482857D02*
X12783428Y-19768571D01*
X14283428Y-19768571D01*
X14283428Y-20482857D01*
X12783428Y-21125714D02*
X14283428Y-21125714D01*
X12783428Y-21982857D01*
X14283428Y-21982857D01*
X12783428Y-22697142D02*
X14283428Y-22697142D01*
X12783428Y-23554285D01*
X14283428Y-23554285D01*
X13212000Y-24197142D02*
X13212000Y-24911428D01*
X12783428Y-24054285D02*
X14283428Y-24554285D01*
X12783428Y-25054285D01*
X12783428Y-27482857D02*
X12783428Y-26625714D01*
X12783428Y-27054285D02*
X14283428Y-27054285D01*
X14069142Y-26911428D01*
X13926285Y-26768571D01*
X13854857Y-26625714D01*
D10*
X11938000Y-29718000D02*
X11938000Y-16256000D01*
X10922000Y-29718000D02*
X10922000Y-17272000D01*
X53340000Y-70358000D02*
X80264000Y-70358000D01*
X53340000Y-69342000D02*
X80264000Y-69342000D01*
X48262000Y-69874000D02*
G75*
G03X48262000Y-69874000I-254000J0D01*
G01*
X49408000Y-69874000D02*
G75*
G03X49408000Y-69874000I-1400000J0D01*
G01*
X46508000Y-67874000D02*
X50508000Y-67874000D01*
X50508000Y-71874000D02*
X52508000Y-70874000D01*
X46508000Y-71874000D02*
X50508000Y-71874000D01*
X45508000Y-68874000D02*
X45508000Y-70874000D01*
D13*
G04 #@! TO.C,U2*
X19694000Y-54984000D02*
X27814000Y-54984000D01*
X33814000Y-71224000D02*
X35934000Y-71224000D01*
X35934000Y-71224000D02*
X35934000Y-71054000D01*
X19694000Y-71224000D02*
X21814000Y-71224000D01*
X19694000Y-71224000D02*
X19694000Y-71054000D01*
X33814000Y-54984000D02*
X35934000Y-54984000D01*
X35934000Y-54984000D02*
X35934000Y-55154000D01*
D14*
G04 #@! TO.C,C1*
X26004000Y-45558000D02*
X25304000Y-45558000D01*
X25304000Y-44358000D02*
X26004000Y-44358000D01*
G04 #@! TO.C,C2*
X42256000Y-62896000D02*
X42256000Y-63596000D01*
X41056000Y-63596000D02*
X41056000Y-62896000D01*
G04 #@! TO.C,J2*
X10103000Y-42879000D02*
X10103000Y-40179000D01*
X12823000Y-42289000D02*
X13453000Y-42289000D01*
X12823000Y-40129000D02*
X12823000Y-40769000D01*
X12823000Y-42929000D02*
X12823000Y-42289000D01*
G04 #@! TO.C,J3*
X40115000Y-68704000D02*
X40115000Y-69344000D01*
X40115000Y-71504000D02*
X40115000Y-70864000D01*
X40115000Y-69344000D02*
X39485000Y-69344000D01*
X42835000Y-68754000D02*
X42835000Y-71454000D01*
G04 #@! TO.C,R1*
X19476000Y-20074000D02*
X19476000Y-21074000D01*
X18116000Y-21074000D02*
X18116000Y-20074000D01*
G04 #@! TO.C,R2*
X9591044Y-66407485D02*
X10591044Y-66407485D01*
X10591044Y-67767485D02*
X9591044Y-67767485D01*
G04 #@! TO.C,R3*
X20656000Y-21074000D02*
X20656000Y-20074000D01*
X22016000Y-20074000D02*
X22016000Y-21074000D01*
G04 #@! TO.C,R4*
X10591044Y-63449485D02*
X9591044Y-63449485D01*
X9591044Y-62089485D02*
X10591044Y-62089485D01*
D15*
G04 #@! TO.C,G\002A\002A\002A*
G36*
X69878804Y-19324243D02*
X71348575Y-19324243D01*
X71348575Y-19923977D01*
X69219942Y-19923977D01*
X69219942Y-16959095D01*
X69878804Y-16959095D01*
X69878804Y-19324243D01*
X69878804Y-19324243D01*
G37*
X69878804Y-19324243D02*
X71348575Y-19324243D01*
X71348575Y-19923977D01*
X69219942Y-19923977D01*
X69219942Y-16959095D01*
X69878804Y-16959095D01*
X69878804Y-19324243D01*
G36*
X67025489Y-16959142D02*
X67147608Y-16959310D01*
X67255257Y-16959640D01*
X67349645Y-16960175D01*
X67431984Y-16960956D01*
X67503486Y-16962026D01*
X67565361Y-16963427D01*
X67618821Y-16965199D01*
X67665076Y-16967385D01*
X67705339Y-16970027D01*
X67740819Y-16973167D01*
X67772729Y-16976847D01*
X67802280Y-16981108D01*
X67830683Y-16985992D01*
X67859149Y-16991541D01*
X67865749Y-16992899D01*
X67993927Y-17026787D01*
X68112771Y-17073096D01*
X68221424Y-17131234D01*
X68319029Y-17200606D01*
X68404730Y-17280620D01*
X68477667Y-17370683D01*
X68526757Y-17450506D01*
X68562486Y-17523133D01*
X68589903Y-17593949D01*
X68609974Y-17666926D01*
X68623662Y-17746035D01*
X68631932Y-17835247D01*
X68634682Y-17894880D01*
X68635136Y-18011277D01*
X68628146Y-18114997D01*
X68613231Y-18208756D01*
X68589912Y-18295270D01*
X68557707Y-18377256D01*
X68544343Y-18405190D01*
X68517630Y-18455875D01*
X68491446Y-18498597D01*
X68462042Y-18538663D01*
X68425670Y-18581377D01*
X68400451Y-18608872D01*
X68310493Y-18693661D01*
X68209817Y-18766482D01*
X68108424Y-18822912D01*
X68012594Y-18869870D01*
X68047732Y-18921783D01*
X68058541Y-18937680D01*
X68077984Y-18966203D01*
X68105161Y-19006029D01*
X68139170Y-19055840D01*
X68179108Y-19114314D01*
X68224074Y-19180132D01*
X68273167Y-19251974D01*
X68325484Y-19328519D01*
X68380124Y-19408447D01*
X68400519Y-19438277D01*
X68454816Y-19517708D01*
X68506373Y-19593164D01*
X68554388Y-19663468D01*
X68598057Y-19727441D01*
X68636575Y-19783905D01*
X68669140Y-19831683D01*
X68694947Y-19869594D01*
X68713193Y-19896463D01*
X68723075Y-19911109D01*
X68724591Y-19913419D01*
X68723020Y-19915981D01*
X68714117Y-19918112D01*
X68696692Y-19919843D01*
X68669553Y-19921206D01*
X68631507Y-19922233D01*
X68581362Y-19922956D01*
X68517928Y-19923407D01*
X68440011Y-19923618D01*
X68346421Y-19923620D01*
X68344068Y-19923618D01*
X67957122Y-19923259D01*
X67640777Y-19450589D01*
X67324433Y-18977918D01*
X66821006Y-18977918D01*
X66821006Y-19923977D01*
X66162143Y-19923977D01*
X66162143Y-17558829D01*
X66821006Y-17558829D01*
X66821006Y-18395998D01*
X67215901Y-18393039D01*
X67310141Y-18392268D01*
X67389073Y-18391449D01*
X67454284Y-18390519D01*
X67507359Y-18389417D01*
X67549884Y-18388079D01*
X67583446Y-18386445D01*
X67609630Y-18384451D01*
X67630023Y-18382036D01*
X67646211Y-18379137D01*
X67659780Y-18375693D01*
X67660025Y-18375621D01*
X67739701Y-18346224D01*
X67806259Y-18308356D01*
X67845180Y-18277120D01*
X67897088Y-18219944D01*
X67934619Y-18156281D01*
X67958398Y-18084604D01*
X67969050Y-18003387D01*
X67969792Y-17972730D01*
X67963244Y-17885658D01*
X67943483Y-17809035D01*
X67910335Y-17742568D01*
X67863627Y-17685966D01*
X67803183Y-17638933D01*
X67756097Y-17613189D01*
X67729666Y-17601110D01*
X67704382Y-17590955D01*
X67678528Y-17582559D01*
X67650388Y-17575756D01*
X67618247Y-17570381D01*
X67580389Y-17566268D01*
X67535097Y-17563253D01*
X67480656Y-17561170D01*
X67415349Y-17559853D01*
X67337461Y-17559137D01*
X67245276Y-17558858D01*
X67191929Y-17558829D01*
X66821006Y-17558829D01*
X66162143Y-17558829D01*
X66162143Y-16959095D01*
X66887686Y-16959095D01*
X67025489Y-16959142D01*
X67025489Y-16959142D01*
G37*
X67025489Y-16959142D02*
X67147608Y-16959310D01*
X67255257Y-16959640D01*
X67349645Y-16960175D01*
X67431984Y-16960956D01*
X67503486Y-16962026D01*
X67565361Y-16963427D01*
X67618821Y-16965199D01*
X67665076Y-16967385D01*
X67705339Y-16970027D01*
X67740819Y-16973167D01*
X67772729Y-16976847D01*
X67802280Y-16981108D01*
X67830683Y-16985992D01*
X67859149Y-16991541D01*
X67865749Y-16992899D01*
X67993927Y-17026787D01*
X68112771Y-17073096D01*
X68221424Y-17131234D01*
X68319029Y-17200606D01*
X68404730Y-17280620D01*
X68477667Y-17370683D01*
X68526757Y-17450506D01*
X68562486Y-17523133D01*
X68589903Y-17593949D01*
X68609974Y-17666926D01*
X68623662Y-17746035D01*
X68631932Y-17835247D01*
X68634682Y-17894880D01*
X68635136Y-18011277D01*
X68628146Y-18114997D01*
X68613231Y-18208756D01*
X68589912Y-18295270D01*
X68557707Y-18377256D01*
X68544343Y-18405190D01*
X68517630Y-18455875D01*
X68491446Y-18498597D01*
X68462042Y-18538663D01*
X68425670Y-18581377D01*
X68400451Y-18608872D01*
X68310493Y-18693661D01*
X68209817Y-18766482D01*
X68108424Y-18822912D01*
X68012594Y-18869870D01*
X68047732Y-18921783D01*
X68058541Y-18937680D01*
X68077984Y-18966203D01*
X68105161Y-19006029D01*
X68139170Y-19055840D01*
X68179108Y-19114314D01*
X68224074Y-19180132D01*
X68273167Y-19251974D01*
X68325484Y-19328519D01*
X68380124Y-19408447D01*
X68400519Y-19438277D01*
X68454816Y-19517708D01*
X68506373Y-19593164D01*
X68554388Y-19663468D01*
X68598057Y-19727441D01*
X68636575Y-19783905D01*
X68669140Y-19831683D01*
X68694947Y-19869594D01*
X68713193Y-19896463D01*
X68723075Y-19911109D01*
X68724591Y-19913419D01*
X68723020Y-19915981D01*
X68714117Y-19918112D01*
X68696692Y-19919843D01*
X68669553Y-19921206D01*
X68631507Y-19922233D01*
X68581362Y-19922956D01*
X68517928Y-19923407D01*
X68440011Y-19923618D01*
X68346421Y-19923620D01*
X68344068Y-19923618D01*
X67957122Y-19923259D01*
X67640777Y-19450589D01*
X67324433Y-18977918D01*
X66821006Y-18977918D01*
X66821006Y-19923977D01*
X66162143Y-19923977D01*
X66162143Y-17558829D01*
X66821006Y-17558829D01*
X66821006Y-18395998D01*
X67215901Y-18393039D01*
X67310141Y-18392268D01*
X67389073Y-18391449D01*
X67454284Y-18390519D01*
X67507359Y-18389417D01*
X67549884Y-18388079D01*
X67583446Y-18386445D01*
X67609630Y-18384451D01*
X67630023Y-18382036D01*
X67646211Y-18379137D01*
X67659780Y-18375693D01*
X67660025Y-18375621D01*
X67739701Y-18346224D01*
X67806259Y-18308356D01*
X67845180Y-18277120D01*
X67897088Y-18219944D01*
X67934619Y-18156281D01*
X67958398Y-18084604D01*
X67969050Y-18003387D01*
X67969792Y-17972730D01*
X67963244Y-17885658D01*
X67943483Y-17809035D01*
X67910335Y-17742568D01*
X67863627Y-17685966D01*
X67803183Y-17638933D01*
X67756097Y-17613189D01*
X67729666Y-17601110D01*
X67704382Y-17590955D01*
X67678528Y-17582559D01*
X67650388Y-17575756D01*
X67618247Y-17570381D01*
X67580389Y-17566268D01*
X67535097Y-17563253D01*
X67480656Y-17561170D01*
X67415349Y-17559853D01*
X67337461Y-17559137D01*
X67245276Y-17558858D01*
X67191929Y-17558829D01*
X66821006Y-17558829D01*
X66162143Y-17558829D01*
X66162143Y-16959095D01*
X66887686Y-16959095D01*
X67025489Y-16959142D01*
G36*
X65570856Y-17550382D02*
X63982828Y-17550382D01*
X63982828Y-18141669D01*
X65385023Y-18141669D01*
X65385023Y-18724510D01*
X63982828Y-18724510D01*
X63982828Y-19341137D01*
X65596197Y-19341137D01*
X65596197Y-19923977D01*
X63332413Y-19923977D01*
X63332413Y-16959095D01*
X65570856Y-16959095D01*
X65570856Y-17550382D01*
X65570856Y-17550382D01*
G37*
X65570856Y-17550382D02*
X63982828Y-17550382D01*
X63982828Y-18141669D01*
X65385023Y-18141669D01*
X65385023Y-18724510D01*
X63982828Y-18724510D01*
X63982828Y-19341137D01*
X65596197Y-19341137D01*
X65596197Y-19923977D01*
X63332413Y-19923977D01*
X63332413Y-16959095D01*
X65570856Y-16959095D01*
X65570856Y-17550382D01*
G36*
X62842489Y-17567276D02*
X61938665Y-17567276D01*
X61938665Y-19923977D01*
X61279802Y-19923977D01*
X61279802Y-17567276D01*
X60375978Y-17567276D01*
X60375978Y-16959095D01*
X62842489Y-16959095D01*
X62842489Y-17567276D01*
X62842489Y-17567276D01*
G37*
X62842489Y-17567276D02*
X61938665Y-17567276D01*
X61938665Y-19923977D01*
X61279802Y-19923977D01*
X61279802Y-17567276D01*
X60375978Y-17567276D01*
X60375978Y-16959095D01*
X62842489Y-16959095D01*
X62842489Y-17567276D01*
G36*
X59741755Y-18418307D02*
X59805797Y-18568795D01*
X59868082Y-18715213D01*
X59928288Y-18856796D01*
X59986088Y-18992779D01*
X60041160Y-19122397D01*
X60093177Y-19244885D01*
X60141817Y-19359478D01*
X60186754Y-19465411D01*
X60227664Y-19561919D01*
X60264222Y-19648236D01*
X60296105Y-19723598D01*
X60322987Y-19787239D01*
X60344545Y-19838395D01*
X60360453Y-19876300D01*
X60370388Y-19900189D01*
X60374023Y-19909291D01*
X60374229Y-19912972D01*
X60371690Y-19915974D01*
X60364907Y-19918351D01*
X60352379Y-19920161D01*
X60332608Y-19921458D01*
X60304095Y-19922298D01*
X60265340Y-19922737D01*
X60214844Y-19922832D01*
X60151108Y-19922636D01*
X60072632Y-19922208D01*
X60033370Y-19921961D01*
X59688742Y-19919754D01*
X59423628Y-19269338D01*
X58799587Y-19267325D01*
X58175545Y-19265311D01*
X58087504Y-19482722D01*
X58061461Y-19546974D01*
X58034742Y-19612782D01*
X58008820Y-19676532D01*
X57985165Y-19734606D01*
X57965250Y-19783386D01*
X57953506Y-19812055D01*
X57907550Y-19923977D01*
X57234128Y-19923977D01*
X57241553Y-19904972D01*
X57245536Y-19895460D01*
X57255735Y-19871353D01*
X57271745Y-19833598D01*
X57293164Y-19783142D01*
X57319587Y-19720935D01*
X57350613Y-19647922D01*
X57385837Y-19565053D01*
X57424856Y-19473276D01*
X57467267Y-19373537D01*
X57512666Y-19266784D01*
X57560651Y-19153967D01*
X57610817Y-19036031D01*
X57662762Y-18913926D01*
X57716082Y-18788599D01*
X57763373Y-18677453D01*
X58416284Y-18677453D01*
X58424451Y-18678440D01*
X58447838Y-18679359D01*
X58484768Y-18680190D01*
X58533568Y-18680910D01*
X58592561Y-18681499D01*
X58660073Y-18681937D01*
X58734429Y-18682201D01*
X58801324Y-18682275D01*
X58880034Y-18682121D01*
X58953213Y-18681682D01*
X59019204Y-18680988D01*
X59076347Y-18680071D01*
X59122985Y-18678962D01*
X59157457Y-18677693D01*
X59178106Y-18676295D01*
X59183549Y-18675027D01*
X59167500Y-18634307D01*
X59147250Y-18583866D01*
X59123470Y-18525308D01*
X59096833Y-18460236D01*
X59068010Y-18390254D01*
X59037674Y-18316966D01*
X59006496Y-18241974D01*
X58975148Y-18166883D01*
X58944302Y-18093296D01*
X58914629Y-18022816D01*
X58886803Y-17957047D01*
X58861494Y-17897593D01*
X58839374Y-17846056D01*
X58821116Y-17804041D01*
X58807391Y-17773150D01*
X58798871Y-17754988D01*
X58796249Y-17750706D01*
X58792186Y-17759385D01*
X58782461Y-17782015D01*
X58767761Y-17816920D01*
X58748772Y-17862424D01*
X58726182Y-17916850D01*
X58700679Y-17978521D01*
X58672949Y-18045762D01*
X58643681Y-18116895D01*
X58613560Y-18190246D01*
X58583276Y-18264137D01*
X58553514Y-18336892D01*
X58524962Y-18406834D01*
X58498308Y-18472288D01*
X58474239Y-18531577D01*
X58453441Y-18583024D01*
X58436604Y-18624954D01*
X58424413Y-18655690D01*
X58417555Y-18673555D01*
X58416284Y-18677453D01*
X57763373Y-18677453D01*
X57770375Y-18660997D01*
X57825236Y-18532069D01*
X57880262Y-18402762D01*
X57935050Y-18274025D01*
X57989197Y-18146804D01*
X58042299Y-18022049D01*
X58093954Y-17900705D01*
X58143757Y-17783722D01*
X58191306Y-17672048D01*
X58236196Y-17566629D01*
X58278026Y-17468414D01*
X58316391Y-17378351D01*
X58350888Y-17297387D01*
X58381114Y-17226471D01*
X58406665Y-17166549D01*
X58427139Y-17118570D01*
X58442132Y-17083482D01*
X58447469Y-17071018D01*
X58502684Y-16942202D01*
X59113462Y-16942202D01*
X59741755Y-18418307D01*
X59741755Y-18418307D01*
G37*
X59741755Y-18418307D02*
X59805797Y-18568795D01*
X59868082Y-18715213D01*
X59928288Y-18856796D01*
X59986088Y-18992779D01*
X60041160Y-19122397D01*
X60093177Y-19244885D01*
X60141817Y-19359478D01*
X60186754Y-19465411D01*
X60227664Y-19561919D01*
X60264222Y-19648236D01*
X60296105Y-19723598D01*
X60322987Y-19787239D01*
X60344545Y-19838395D01*
X60360453Y-19876300D01*
X60370388Y-19900189D01*
X60374023Y-19909291D01*
X60374229Y-19912972D01*
X60371690Y-19915974D01*
X60364907Y-19918351D01*
X60352379Y-19920161D01*
X60332608Y-19921458D01*
X60304095Y-19922298D01*
X60265340Y-19922737D01*
X60214844Y-19922832D01*
X60151108Y-19922636D01*
X60072632Y-19922208D01*
X60033370Y-19921961D01*
X59688742Y-19919754D01*
X59423628Y-19269338D01*
X58799587Y-19267325D01*
X58175545Y-19265311D01*
X58087504Y-19482722D01*
X58061461Y-19546974D01*
X58034742Y-19612782D01*
X58008820Y-19676532D01*
X57985165Y-19734606D01*
X57965250Y-19783386D01*
X57953506Y-19812055D01*
X57907550Y-19923977D01*
X57234128Y-19923977D01*
X57241553Y-19904972D01*
X57245536Y-19895460D01*
X57255735Y-19871353D01*
X57271745Y-19833598D01*
X57293164Y-19783142D01*
X57319587Y-19720935D01*
X57350613Y-19647922D01*
X57385837Y-19565053D01*
X57424856Y-19473276D01*
X57467267Y-19373537D01*
X57512666Y-19266784D01*
X57560651Y-19153967D01*
X57610817Y-19036031D01*
X57662762Y-18913926D01*
X57716082Y-18788599D01*
X57763373Y-18677453D01*
X58416284Y-18677453D01*
X58424451Y-18678440D01*
X58447838Y-18679359D01*
X58484768Y-18680190D01*
X58533568Y-18680910D01*
X58592561Y-18681499D01*
X58660073Y-18681937D01*
X58734429Y-18682201D01*
X58801324Y-18682275D01*
X58880034Y-18682121D01*
X58953213Y-18681682D01*
X59019204Y-18680988D01*
X59076347Y-18680071D01*
X59122985Y-18678962D01*
X59157457Y-18677693D01*
X59178106Y-18676295D01*
X59183549Y-18675027D01*
X59167500Y-18634307D01*
X59147250Y-18583866D01*
X59123470Y-18525308D01*
X59096833Y-18460236D01*
X59068010Y-18390254D01*
X59037674Y-18316966D01*
X59006496Y-18241974D01*
X58975148Y-18166883D01*
X58944302Y-18093296D01*
X58914629Y-18022816D01*
X58886803Y-17957047D01*
X58861494Y-17897593D01*
X58839374Y-17846056D01*
X58821116Y-17804041D01*
X58807391Y-17773150D01*
X58798871Y-17754988D01*
X58796249Y-17750706D01*
X58792186Y-17759385D01*
X58782461Y-17782015D01*
X58767761Y-17816920D01*
X58748772Y-17862424D01*
X58726182Y-17916850D01*
X58700679Y-17978521D01*
X58672949Y-18045762D01*
X58643681Y-18116895D01*
X58613560Y-18190246D01*
X58583276Y-18264137D01*
X58553514Y-18336892D01*
X58524962Y-18406834D01*
X58498308Y-18472288D01*
X58474239Y-18531577D01*
X58453441Y-18583024D01*
X58436604Y-18624954D01*
X58424413Y-18655690D01*
X58417555Y-18673555D01*
X58416284Y-18677453D01*
X57763373Y-18677453D01*
X57770375Y-18660997D01*
X57825236Y-18532069D01*
X57880262Y-18402762D01*
X57935050Y-18274025D01*
X57989197Y-18146804D01*
X58042299Y-18022049D01*
X58093954Y-17900705D01*
X58143757Y-17783722D01*
X58191306Y-17672048D01*
X58236196Y-17566629D01*
X58278026Y-17468414D01*
X58316391Y-17378351D01*
X58350888Y-17297387D01*
X58381114Y-17226471D01*
X58406665Y-17166549D01*
X58427139Y-17118570D01*
X58442132Y-17083482D01*
X58447469Y-17071018D01*
X58502684Y-16942202D01*
X59113462Y-16942202D01*
X59741755Y-18418307D01*
G36*
X55751293Y-17683310D02*
X55806087Y-17849416D01*
X55855838Y-18000212D01*
X55900794Y-18136435D01*
X55941199Y-18258821D01*
X55977300Y-18368105D01*
X56009342Y-18465024D01*
X56037571Y-18550314D01*
X56062232Y-18624710D01*
X56083572Y-18688949D01*
X56101837Y-18743766D01*
X56117272Y-18789897D01*
X56130122Y-18828078D01*
X56140634Y-18859046D01*
X56149054Y-18883536D01*
X56155628Y-18902283D01*
X56160600Y-18916025D01*
X56164217Y-18925497D01*
X56166725Y-18931434D01*
X56168369Y-18934573D01*
X56169396Y-18935650D01*
X56169574Y-18935683D01*
X56172578Y-18927767D01*
X56180199Y-18904671D01*
X56192131Y-18867378D01*
X56208071Y-18816870D01*
X56227713Y-18754129D01*
X56250752Y-18680138D01*
X56276885Y-18595879D01*
X56305806Y-18502333D01*
X56337210Y-18400483D01*
X56370794Y-18291311D01*
X56406251Y-18175799D01*
X56443278Y-18054929D01*
X56473767Y-17955226D01*
X56511860Y-17830618D01*
X56548628Y-17710469D01*
X56583765Y-17595771D01*
X56616964Y-17487518D01*
X56647920Y-17386700D01*
X56676328Y-17294312D01*
X56701881Y-17211346D01*
X56724275Y-17138794D01*
X56743204Y-17077648D01*
X56758361Y-17028902D01*
X56769442Y-16993548D01*
X56776141Y-16972577D01*
X56778132Y-16966836D01*
X56787635Y-16964917D01*
X56812854Y-16963336D01*
X56852611Y-16962110D01*
X56905731Y-16961261D01*
X56971038Y-16960807D01*
X57047355Y-16960768D01*
X57125684Y-16961111D01*
X57468456Y-16963319D01*
X56992051Y-18369737D01*
X56941155Y-18519970D01*
X56891426Y-18666721D01*
X56843163Y-18809114D01*
X56796660Y-18946274D01*
X56752217Y-19077325D01*
X56710130Y-19201392D01*
X56670697Y-19317599D01*
X56634214Y-19425070D01*
X56600979Y-19522931D01*
X56571289Y-19610305D01*
X56545442Y-19686317D01*
X56523734Y-19750091D01*
X56506463Y-19800752D01*
X56493927Y-19837425D01*
X56486421Y-19859233D01*
X56485198Y-19862737D01*
X56454752Y-19949318D01*
X55883784Y-19949318D01*
X55871336Y-19913419D01*
X55863443Y-19890623D01*
X55850759Y-19853945D01*
X55833718Y-19804643D01*
X55812755Y-19743977D01*
X55788304Y-19673206D01*
X55760801Y-19593589D01*
X55730680Y-19506386D01*
X55698376Y-19412855D01*
X55664324Y-19314256D01*
X55628959Y-19211848D01*
X55592716Y-19106891D01*
X55556028Y-19000643D01*
X55519332Y-18894365D01*
X55483062Y-18789315D01*
X55447653Y-18686752D01*
X55413539Y-18587936D01*
X55381155Y-18494126D01*
X55350937Y-18406581D01*
X55323318Y-18326561D01*
X55298735Y-18255325D01*
X55277620Y-18194131D01*
X55260411Y-18144240D01*
X55247540Y-18106911D01*
X55239443Y-18083402D01*
X55236839Y-18075816D01*
X55218707Y-18022633D01*
X54936730Y-18840265D01*
X54896548Y-18956770D01*
X54857069Y-19071221D01*
X54818750Y-19182294D01*
X54782047Y-19288667D01*
X54747418Y-19389018D01*
X54715317Y-19482023D01*
X54686202Y-19566361D01*
X54660530Y-19640708D01*
X54638756Y-19703742D01*
X54621338Y-19754140D01*
X54608732Y-19790579D01*
X54604218Y-19803608D01*
X54553683Y-19949318D01*
X54267392Y-19949318D01*
X54186279Y-19949180D01*
X54120703Y-19948733D01*
X54069311Y-19947927D01*
X54030746Y-19946713D01*
X54003656Y-19945042D01*
X53986684Y-19942865D01*
X53978478Y-19940132D01*
X53977301Y-19938760D01*
X53974237Y-19929786D01*
X53966023Y-19905609D01*
X53952927Y-19867026D01*
X53935222Y-19814836D01*
X53913177Y-19749835D01*
X53887062Y-19672821D01*
X53857148Y-19584592D01*
X53823705Y-19485944D01*
X53787004Y-19377677D01*
X53747315Y-19260586D01*
X53704908Y-19135469D01*
X53660054Y-19003125D01*
X53613023Y-18864350D01*
X53564085Y-18719943D01*
X53513510Y-18570699D01*
X53475088Y-18457309D01*
X53423454Y-18304940D01*
X53373241Y-18156785D01*
X53324722Y-18013644D01*
X53278167Y-17876315D01*
X53233847Y-17745601D01*
X53192034Y-17622298D01*
X53152999Y-17507209D01*
X53117014Y-17401132D01*
X53084350Y-17304867D01*
X53055278Y-17219214D01*
X53030069Y-17144973D01*
X53008995Y-17082943D01*
X52992327Y-17033924D01*
X52980337Y-16998717D01*
X52973295Y-16978119D01*
X52971431Y-16972757D01*
X52971301Y-16969409D01*
X52974691Y-16966653D01*
X52983055Y-16964432D01*
X52997848Y-16962689D01*
X53020522Y-16961367D01*
X53052532Y-16960411D01*
X53095333Y-16959762D01*
X53150378Y-16959365D01*
X53219120Y-16959162D01*
X53303015Y-16959097D01*
X53321539Y-16959095D01*
X53676889Y-16959095D01*
X53685668Y-16990772D01*
X53694244Y-17020774D01*
X53706936Y-17063854D01*
X53723378Y-17118825D01*
X53743201Y-17184498D01*
X53766036Y-17259688D01*
X53791516Y-17343205D01*
X53819271Y-17433864D01*
X53848933Y-17530476D01*
X53880134Y-17631855D01*
X53912505Y-17736813D01*
X53945678Y-17844163D01*
X53979284Y-17952717D01*
X54012956Y-18061289D01*
X54046324Y-18168691D01*
X54079021Y-18273735D01*
X54110677Y-18375235D01*
X54140925Y-18472003D01*
X54169396Y-18562852D01*
X54195721Y-18646594D01*
X54219532Y-18722043D01*
X54240461Y-18788010D01*
X54258139Y-18843310D01*
X54272198Y-18886753D01*
X54282270Y-18917153D01*
X54287986Y-18933323D01*
X54289179Y-18935683D01*
X54292393Y-18926198D01*
X54300569Y-18901654D01*
X54313379Y-18863038D01*
X54330500Y-18811337D01*
X54351604Y-18747536D01*
X54376366Y-18672622D01*
X54404459Y-18587583D01*
X54435559Y-18493403D01*
X54469338Y-18391071D01*
X54505472Y-18281572D01*
X54543634Y-18165893D01*
X54583498Y-18045020D01*
X54618474Y-17938943D01*
X54942904Y-16954872D01*
X55226225Y-16952649D01*
X55509545Y-16950425D01*
X55751293Y-17683310D01*
X55751293Y-17683310D01*
G37*
X55751293Y-17683310D02*
X55806087Y-17849416D01*
X55855838Y-18000212D01*
X55900794Y-18136435D01*
X55941199Y-18258821D01*
X55977300Y-18368105D01*
X56009342Y-18465024D01*
X56037571Y-18550314D01*
X56062232Y-18624710D01*
X56083572Y-18688949D01*
X56101837Y-18743766D01*
X56117272Y-18789897D01*
X56130122Y-18828078D01*
X56140634Y-18859046D01*
X56149054Y-18883536D01*
X56155628Y-18902283D01*
X56160600Y-18916025D01*
X56164217Y-18925497D01*
X56166725Y-18931434D01*
X56168369Y-18934573D01*
X56169396Y-18935650D01*
X56169574Y-18935683D01*
X56172578Y-18927767D01*
X56180199Y-18904671D01*
X56192131Y-18867378D01*
X56208071Y-18816870D01*
X56227713Y-18754129D01*
X56250752Y-18680138D01*
X56276885Y-18595879D01*
X56305806Y-18502333D01*
X56337210Y-18400483D01*
X56370794Y-18291311D01*
X56406251Y-18175799D01*
X56443278Y-18054929D01*
X56473767Y-17955226D01*
X56511860Y-17830618D01*
X56548628Y-17710469D01*
X56583765Y-17595771D01*
X56616964Y-17487518D01*
X56647920Y-17386700D01*
X56676328Y-17294312D01*
X56701881Y-17211346D01*
X56724275Y-17138794D01*
X56743204Y-17077648D01*
X56758361Y-17028902D01*
X56769442Y-16993548D01*
X56776141Y-16972577D01*
X56778132Y-16966836D01*
X56787635Y-16964917D01*
X56812854Y-16963336D01*
X56852611Y-16962110D01*
X56905731Y-16961261D01*
X56971038Y-16960807D01*
X57047355Y-16960768D01*
X57125684Y-16961111D01*
X57468456Y-16963319D01*
X56992051Y-18369737D01*
X56941155Y-18519970D01*
X56891426Y-18666721D01*
X56843163Y-18809114D01*
X56796660Y-18946274D01*
X56752217Y-19077325D01*
X56710130Y-19201392D01*
X56670697Y-19317599D01*
X56634214Y-19425070D01*
X56600979Y-19522931D01*
X56571289Y-19610305D01*
X56545442Y-19686317D01*
X56523734Y-19750091D01*
X56506463Y-19800752D01*
X56493927Y-19837425D01*
X56486421Y-19859233D01*
X56485198Y-19862737D01*
X56454752Y-19949318D01*
X55883784Y-19949318D01*
X55871336Y-19913419D01*
X55863443Y-19890623D01*
X55850759Y-19853945D01*
X55833718Y-19804643D01*
X55812755Y-19743977D01*
X55788304Y-19673206D01*
X55760801Y-19593589D01*
X55730680Y-19506386D01*
X55698376Y-19412855D01*
X55664324Y-19314256D01*
X55628959Y-19211848D01*
X55592716Y-19106891D01*
X55556028Y-19000643D01*
X55519332Y-18894365D01*
X55483062Y-18789315D01*
X55447653Y-18686752D01*
X55413539Y-18587936D01*
X55381155Y-18494126D01*
X55350937Y-18406581D01*
X55323318Y-18326561D01*
X55298735Y-18255325D01*
X55277620Y-18194131D01*
X55260411Y-18144240D01*
X55247540Y-18106911D01*
X55239443Y-18083402D01*
X55236839Y-18075816D01*
X55218707Y-18022633D01*
X54936730Y-18840265D01*
X54896548Y-18956770D01*
X54857069Y-19071221D01*
X54818750Y-19182294D01*
X54782047Y-19288667D01*
X54747418Y-19389018D01*
X54715317Y-19482023D01*
X54686202Y-19566361D01*
X54660530Y-19640708D01*
X54638756Y-19703742D01*
X54621338Y-19754140D01*
X54608732Y-19790579D01*
X54604218Y-19803608D01*
X54553683Y-19949318D01*
X54267392Y-19949318D01*
X54186279Y-19949180D01*
X54120703Y-19948733D01*
X54069311Y-19947927D01*
X54030746Y-19946713D01*
X54003656Y-19945042D01*
X53986684Y-19942865D01*
X53978478Y-19940132D01*
X53977301Y-19938760D01*
X53974237Y-19929786D01*
X53966023Y-19905609D01*
X53952927Y-19867026D01*
X53935222Y-19814836D01*
X53913177Y-19749835D01*
X53887062Y-19672821D01*
X53857148Y-19584592D01*
X53823705Y-19485944D01*
X53787004Y-19377677D01*
X53747315Y-19260586D01*
X53704908Y-19135469D01*
X53660054Y-19003125D01*
X53613023Y-18864350D01*
X53564085Y-18719943D01*
X53513510Y-18570699D01*
X53475088Y-18457309D01*
X53423454Y-18304940D01*
X53373241Y-18156785D01*
X53324722Y-18013644D01*
X53278167Y-17876315D01*
X53233847Y-17745601D01*
X53192034Y-17622298D01*
X53152999Y-17507209D01*
X53117014Y-17401132D01*
X53084350Y-17304867D01*
X53055278Y-17219214D01*
X53030069Y-17144973D01*
X53008995Y-17082943D01*
X52992327Y-17033924D01*
X52980337Y-16998717D01*
X52973295Y-16978119D01*
X52971431Y-16972757D01*
X52971301Y-16969409D01*
X52974691Y-16966653D01*
X52983055Y-16964432D01*
X52997848Y-16962689D01*
X53020522Y-16961367D01*
X53052532Y-16960411D01*
X53095333Y-16959762D01*
X53150378Y-16959365D01*
X53219120Y-16959162D01*
X53303015Y-16959097D01*
X53321539Y-16959095D01*
X53676889Y-16959095D01*
X53685668Y-16990772D01*
X53694244Y-17020774D01*
X53706936Y-17063854D01*
X53723378Y-17118825D01*
X53743201Y-17184498D01*
X53766036Y-17259688D01*
X53791516Y-17343205D01*
X53819271Y-17433864D01*
X53848933Y-17530476D01*
X53880134Y-17631855D01*
X53912505Y-17736813D01*
X53945678Y-17844163D01*
X53979284Y-17952717D01*
X54012956Y-18061289D01*
X54046324Y-18168691D01*
X54079021Y-18273735D01*
X54110677Y-18375235D01*
X54140925Y-18472003D01*
X54169396Y-18562852D01*
X54195721Y-18646594D01*
X54219532Y-18722043D01*
X54240461Y-18788010D01*
X54258139Y-18843310D01*
X54272198Y-18886753D01*
X54282270Y-18917153D01*
X54287986Y-18933323D01*
X54289179Y-18935683D01*
X54292393Y-18926198D01*
X54300569Y-18901654D01*
X54313379Y-18863038D01*
X54330500Y-18811337D01*
X54351604Y-18747536D01*
X54376366Y-18672622D01*
X54404459Y-18587583D01*
X54435559Y-18493403D01*
X54469338Y-18391071D01*
X54505472Y-18281572D01*
X54543634Y-18165893D01*
X54583498Y-18045020D01*
X54618474Y-17938943D01*
X54942904Y-16954872D01*
X55226225Y-16952649D01*
X55509545Y-16950425D01*
X55751293Y-17683310D01*
G36*
X76998730Y-16913010D02*
X77161626Y-16932035D01*
X77221332Y-16942923D01*
X77342457Y-16973445D01*
X77467452Y-17016572D01*
X77591658Y-17070326D01*
X77710418Y-17132729D01*
X77799757Y-17188485D01*
X77853635Y-17228316D01*
X77912939Y-17277922D01*
X77974449Y-17334123D01*
X78034942Y-17393740D01*
X78091197Y-17453595D01*
X78139992Y-17510507D01*
X78178107Y-17561298D01*
X78179294Y-17563053D01*
X78263271Y-17701266D01*
X78331028Y-17842686D01*
X78383150Y-17988817D01*
X78420226Y-18141164D01*
X78431974Y-18210903D01*
X78438598Y-18272920D01*
X78442424Y-18346250D01*
X78443555Y-18426499D01*
X78442097Y-18509273D01*
X78438151Y-18590178D01*
X78431822Y-18664821D01*
X78423214Y-18728806D01*
X78419276Y-18749850D01*
X78378855Y-18904968D01*
X78323744Y-19052606D01*
X78254744Y-19192028D01*
X78172653Y-19322499D01*
X78078272Y-19443283D01*
X77972400Y-19553644D01*
X77855837Y-19652848D01*
X77729383Y-19740159D01*
X77593836Y-19814841D01*
X77449997Y-19876159D01*
X77298666Y-19923376D01*
X77140641Y-19955759D01*
X77102289Y-19961180D01*
X77044852Y-19966838D01*
X76976315Y-19970788D01*
X76901620Y-19972985D01*
X76825706Y-19973380D01*
X76753514Y-19971927D01*
X76689984Y-19968580D01*
X76656011Y-19965406D01*
X76504886Y-19940099D01*
X76356516Y-19900202D01*
X76212679Y-19846643D01*
X76075152Y-19780355D01*
X75945713Y-19702269D01*
X75826140Y-19613314D01*
X75718212Y-19514423D01*
X75649284Y-19438277D01*
X75552304Y-19309560D01*
X75470640Y-19174625D01*
X75404591Y-19034083D01*
X75354454Y-18888546D01*
X75328057Y-18779415D01*
X75303419Y-18615522D01*
X75295041Y-18453172D01*
X75297763Y-18396109D01*
X75988231Y-18396109D01*
X75989370Y-18519808D01*
X76002582Y-18633752D01*
X76028397Y-18740525D01*
X76067351Y-18842710D01*
X76089824Y-18888880D01*
X76154023Y-18994698D01*
X76230206Y-19088910D01*
X76317519Y-19170886D01*
X76415104Y-19239998D01*
X76522106Y-19295617D01*
X76637668Y-19337114D01*
X76729286Y-19358563D01*
X76765383Y-19362586D01*
X76813702Y-19364310D01*
X76869756Y-19363933D01*
X76929060Y-19361654D01*
X76987127Y-19357672D01*
X77039472Y-19352186D01*
X77081609Y-19345394D01*
X77094551Y-19342369D01*
X77194339Y-19310961D01*
X77282007Y-19272264D01*
X77361565Y-19224007D01*
X77437023Y-19163924D01*
X77477500Y-19125740D01*
X77544010Y-19054744D01*
X77597856Y-18985419D01*
X77642133Y-18913351D01*
X77676806Y-18841457D01*
X77720612Y-18719036D01*
X77747881Y-18593946D01*
X77758566Y-18467190D01*
X77752620Y-18339772D01*
X77729996Y-18212695D01*
X77709672Y-18140961D01*
X77663476Y-18023518D01*
X77604262Y-17916657D01*
X77532574Y-17820892D01*
X77448958Y-17736733D01*
X77353960Y-17664692D01*
X77248123Y-17605282D01*
X77131993Y-17559012D01*
X77070552Y-17541047D01*
X77035547Y-17532781D01*
X77002364Y-17527137D01*
X76966292Y-17523655D01*
X76922618Y-17521874D01*
X76868661Y-17521338D01*
X76776717Y-17523910D01*
X76696100Y-17532656D01*
X76622030Y-17548665D01*
X76549723Y-17573025D01*
X76474397Y-17606824D01*
X76458984Y-17614589D01*
X76360382Y-17674048D01*
X76272264Y-17746298D01*
X76194248Y-17831734D01*
X76125954Y-17930754D01*
X76086743Y-18002295D01*
X76050474Y-18080867D01*
X76023839Y-18154190D01*
X76005485Y-18227674D01*
X75994059Y-18306731D01*
X75988231Y-18396109D01*
X75297763Y-18396109D01*
X75302668Y-18293287D01*
X75326042Y-18136789D01*
X75364907Y-17984599D01*
X75419005Y-17837641D01*
X75488081Y-17696836D01*
X75571877Y-17563107D01*
X75670137Y-17437375D01*
X75715635Y-17387197D01*
X75827202Y-17281487D01*
X75949385Y-17188187D01*
X76080954Y-17107660D01*
X76220682Y-17040268D01*
X76367341Y-16986373D01*
X76519703Y-16946337D01*
X76676541Y-16920523D01*
X76836626Y-16909293D01*
X76998730Y-16913010D01*
X76998730Y-16913010D01*
G37*
X76998730Y-16913010D02*
X77161626Y-16932035D01*
X77221332Y-16942923D01*
X77342457Y-16973445D01*
X77467452Y-17016572D01*
X77591658Y-17070326D01*
X77710418Y-17132729D01*
X77799757Y-17188485D01*
X77853635Y-17228316D01*
X77912939Y-17277922D01*
X77974449Y-17334123D01*
X78034942Y-17393740D01*
X78091197Y-17453595D01*
X78139992Y-17510507D01*
X78178107Y-17561298D01*
X78179294Y-17563053D01*
X78263271Y-17701266D01*
X78331028Y-17842686D01*
X78383150Y-17988817D01*
X78420226Y-18141164D01*
X78431974Y-18210903D01*
X78438598Y-18272920D01*
X78442424Y-18346250D01*
X78443555Y-18426499D01*
X78442097Y-18509273D01*
X78438151Y-18590178D01*
X78431822Y-18664821D01*
X78423214Y-18728806D01*
X78419276Y-18749850D01*
X78378855Y-18904968D01*
X78323744Y-19052606D01*
X78254744Y-19192028D01*
X78172653Y-19322499D01*
X78078272Y-19443283D01*
X77972400Y-19553644D01*
X77855837Y-19652848D01*
X77729383Y-19740159D01*
X77593836Y-19814841D01*
X77449997Y-19876159D01*
X77298666Y-19923376D01*
X77140641Y-19955759D01*
X77102289Y-19961180D01*
X77044852Y-19966838D01*
X76976315Y-19970788D01*
X76901620Y-19972985D01*
X76825706Y-19973380D01*
X76753514Y-19971927D01*
X76689984Y-19968580D01*
X76656011Y-19965406D01*
X76504886Y-19940099D01*
X76356516Y-19900202D01*
X76212679Y-19846643D01*
X76075152Y-19780355D01*
X75945713Y-19702269D01*
X75826140Y-19613314D01*
X75718212Y-19514423D01*
X75649284Y-19438277D01*
X75552304Y-19309560D01*
X75470640Y-19174625D01*
X75404591Y-19034083D01*
X75354454Y-18888546D01*
X75328057Y-18779415D01*
X75303419Y-18615522D01*
X75295041Y-18453172D01*
X75297763Y-18396109D01*
X75988231Y-18396109D01*
X75989370Y-18519808D01*
X76002582Y-18633752D01*
X76028397Y-18740525D01*
X76067351Y-18842710D01*
X76089824Y-18888880D01*
X76154023Y-18994698D01*
X76230206Y-19088910D01*
X76317519Y-19170886D01*
X76415104Y-19239998D01*
X76522106Y-19295617D01*
X76637668Y-19337114D01*
X76729286Y-19358563D01*
X76765383Y-19362586D01*
X76813702Y-19364310D01*
X76869756Y-19363933D01*
X76929060Y-19361654D01*
X76987127Y-19357672D01*
X77039472Y-19352186D01*
X77081609Y-19345394D01*
X77094551Y-19342369D01*
X77194339Y-19310961D01*
X77282007Y-19272264D01*
X77361565Y-19224007D01*
X77437023Y-19163924D01*
X77477500Y-19125740D01*
X77544010Y-19054744D01*
X77597856Y-18985419D01*
X77642133Y-18913351D01*
X77676806Y-18841457D01*
X77720612Y-18719036D01*
X77747881Y-18593946D01*
X77758566Y-18467190D01*
X77752620Y-18339772D01*
X77729996Y-18212695D01*
X77709672Y-18140961D01*
X77663476Y-18023518D01*
X77604262Y-17916657D01*
X77532574Y-17820892D01*
X77448958Y-17736733D01*
X77353960Y-17664692D01*
X77248123Y-17605282D01*
X77131993Y-17559012D01*
X77070552Y-17541047D01*
X77035547Y-17532781D01*
X77002364Y-17527137D01*
X76966292Y-17523655D01*
X76922618Y-17521874D01*
X76868661Y-17521338D01*
X76776717Y-17523910D01*
X76696100Y-17532656D01*
X76622030Y-17548665D01*
X76549723Y-17573025D01*
X76474397Y-17606824D01*
X76458984Y-17614589D01*
X76360382Y-17674048D01*
X76272264Y-17746298D01*
X76194248Y-17831734D01*
X76125954Y-17930754D01*
X76086743Y-18002295D01*
X76050474Y-18080867D01*
X76023839Y-18154190D01*
X76005485Y-18227674D01*
X75994059Y-18306731D01*
X75988231Y-18396109D01*
X75297763Y-18396109D01*
X75302668Y-18293287D01*
X75326042Y-18136789D01*
X75364907Y-17984599D01*
X75419005Y-17837641D01*
X75488081Y-17696836D01*
X75571877Y-17563107D01*
X75670137Y-17437375D01*
X75715635Y-17387197D01*
X75827202Y-17281487D01*
X75949385Y-17188187D01*
X76080954Y-17107660D01*
X76220682Y-17040268D01*
X76367341Y-16986373D01*
X76519703Y-16946337D01*
X76676541Y-16920523D01*
X76836626Y-16909293D01*
X76998730Y-16913010D01*
G36*
X73439553Y-16915713D02*
X73604197Y-16938323D01*
X73629253Y-16943136D01*
X73738895Y-16969428D01*
X73846570Y-17004686D01*
X73957105Y-17050613D01*
X74022037Y-17081617D01*
X74122878Y-17135495D01*
X74212464Y-17191956D01*
X74296379Y-17254922D01*
X74380209Y-17328316D01*
X74400174Y-17347189D01*
X74506598Y-17460093D01*
X74598162Y-17580810D01*
X74674695Y-17709111D01*
X74679622Y-17718638D01*
X74739112Y-17844898D01*
X74785117Y-17966349D01*
X74818595Y-18086945D01*
X74840503Y-18210640D01*
X74851800Y-18341391D01*
X74853907Y-18438397D01*
X74847895Y-18590907D01*
X74829796Y-18733629D01*
X74798986Y-18869182D01*
X74754842Y-19000190D01*
X74696740Y-19129272D01*
X74683276Y-19155304D01*
X74601590Y-19292145D01*
X74506889Y-19418775D01*
X74400161Y-19534430D01*
X74282398Y-19638347D01*
X74154589Y-19729762D01*
X74017724Y-19807910D01*
X73872793Y-19872029D01*
X73720785Y-19921353D01*
X73675712Y-19932736D01*
X73589140Y-19949504D01*
X73490929Y-19962168D01*
X73385887Y-19970478D01*
X73278821Y-19974185D01*
X73174541Y-19973037D01*
X73077855Y-19966786D01*
X73059084Y-19964815D01*
X72912507Y-19940470D01*
X72767286Y-19901267D01*
X72625437Y-19848271D01*
X72488977Y-19782544D01*
X72359922Y-19705151D01*
X72240289Y-19617157D01*
X72132094Y-19519624D01*
X72054642Y-19434861D01*
X71958943Y-19307035D01*
X71878068Y-19171481D01*
X71812253Y-19028984D01*
X71761731Y-18880332D01*
X71726736Y-18726310D01*
X71707502Y-18567705D01*
X71704902Y-18437313D01*
X72401223Y-18437313D01*
X72401352Y-18497152D01*
X72401961Y-18543466D01*
X72403347Y-18579623D01*
X72405807Y-18608992D01*
X72409636Y-18634939D01*
X72415131Y-18660834D01*
X72422590Y-18690044D01*
X72423903Y-18694945D01*
X72448857Y-18771894D01*
X72482365Y-18852199D01*
X72521208Y-18928783D01*
X72556387Y-18986214D01*
X72629017Y-19078431D01*
X72713890Y-19160287D01*
X72809011Y-19230472D01*
X72912389Y-19287677D01*
X73022032Y-19330591D01*
X73116780Y-19354499D01*
X73163535Y-19360508D01*
X73221536Y-19363598D01*
X73285951Y-19363918D01*
X73351951Y-19361617D01*
X73414703Y-19356845D01*
X73469379Y-19349752D01*
X73504031Y-19342513D01*
X73619867Y-19303317D01*
X73726695Y-19250166D01*
X73823829Y-19183805D01*
X73910585Y-19104979D01*
X73986277Y-19014433D01*
X74050222Y-18912913D01*
X74101735Y-18801164D01*
X74140130Y-18679932D01*
X74149369Y-18640040D01*
X74158283Y-18581999D01*
X74163501Y-18513136D01*
X74165020Y-18439114D01*
X74162843Y-18365596D01*
X74156968Y-18298244D01*
X74149369Y-18251480D01*
X74115100Y-18127406D01*
X74067199Y-18012474D01*
X74006312Y-17907412D01*
X73933085Y-17812947D01*
X73848165Y-17729805D01*
X73752199Y-17658715D01*
X73645832Y-17600403D01*
X73530969Y-17555990D01*
X73420310Y-17529712D01*
X73305356Y-17518371D01*
X73189008Y-17521730D01*
X73074168Y-17539551D01*
X72963736Y-17571598D01*
X72875853Y-17609665D01*
X72776645Y-17669389D01*
X72685940Y-17742794D01*
X72605298Y-17828159D01*
X72536279Y-17923766D01*
X72480444Y-18027892D01*
X72466114Y-18061486D01*
X72445152Y-18115337D01*
X72429208Y-18161455D01*
X72417610Y-18203727D01*
X72409689Y-18246036D01*
X72404773Y-18292268D01*
X72402192Y-18346306D01*
X72401275Y-18412037D01*
X72401223Y-18437313D01*
X71704902Y-18437313D01*
X71704263Y-18405304D01*
X71712209Y-18284051D01*
X71736377Y-18128412D01*
X71776770Y-17975424D01*
X71832736Y-17826922D01*
X71903626Y-17684745D01*
X71953297Y-17602864D01*
X72045130Y-17476847D01*
X72148675Y-17362337D01*
X72262913Y-17259735D01*
X72386825Y-17169442D01*
X72519395Y-17091858D01*
X72659601Y-17027385D01*
X72806427Y-16976424D01*
X72958854Y-16939375D01*
X73115863Y-16916639D01*
X73276435Y-16908618D01*
X73439553Y-16915713D01*
X73439553Y-16915713D01*
G37*
X73439553Y-16915713D02*
X73604197Y-16938323D01*
X73629253Y-16943136D01*
X73738895Y-16969428D01*
X73846570Y-17004686D01*
X73957105Y-17050613D01*
X74022037Y-17081617D01*
X74122878Y-17135495D01*
X74212464Y-17191956D01*
X74296379Y-17254922D01*
X74380209Y-17328316D01*
X74400174Y-17347189D01*
X74506598Y-17460093D01*
X74598162Y-17580810D01*
X74674695Y-17709111D01*
X74679622Y-17718638D01*
X74739112Y-17844898D01*
X74785117Y-17966349D01*
X74818595Y-18086945D01*
X74840503Y-18210640D01*
X74851800Y-18341391D01*
X74853907Y-18438397D01*
X74847895Y-18590907D01*
X74829796Y-18733629D01*
X74798986Y-18869182D01*
X74754842Y-19000190D01*
X74696740Y-19129272D01*
X74683276Y-19155304D01*
X74601590Y-19292145D01*
X74506889Y-19418775D01*
X74400161Y-19534430D01*
X74282398Y-19638347D01*
X74154589Y-19729762D01*
X74017724Y-19807910D01*
X73872793Y-19872029D01*
X73720785Y-19921353D01*
X73675712Y-19932736D01*
X73589140Y-19949504D01*
X73490929Y-19962168D01*
X73385887Y-19970478D01*
X73278821Y-19974185D01*
X73174541Y-19973037D01*
X73077855Y-19966786D01*
X73059084Y-19964815D01*
X72912507Y-19940470D01*
X72767286Y-19901267D01*
X72625437Y-19848271D01*
X72488977Y-19782544D01*
X72359922Y-19705151D01*
X72240289Y-19617157D01*
X72132094Y-19519624D01*
X72054642Y-19434861D01*
X71958943Y-19307035D01*
X71878068Y-19171481D01*
X71812253Y-19028984D01*
X71761731Y-18880332D01*
X71726736Y-18726310D01*
X71707502Y-18567705D01*
X71704902Y-18437313D01*
X72401223Y-18437313D01*
X72401352Y-18497152D01*
X72401961Y-18543466D01*
X72403347Y-18579623D01*
X72405807Y-18608992D01*
X72409636Y-18634939D01*
X72415131Y-18660834D01*
X72422590Y-18690044D01*
X72423903Y-18694945D01*
X72448857Y-18771894D01*
X72482365Y-18852199D01*
X72521208Y-18928783D01*
X72556387Y-18986214D01*
X72629017Y-19078431D01*
X72713890Y-19160287D01*
X72809011Y-19230472D01*
X72912389Y-19287677D01*
X73022032Y-19330591D01*
X73116780Y-19354499D01*
X73163535Y-19360508D01*
X73221536Y-19363598D01*
X73285951Y-19363918D01*
X73351951Y-19361617D01*
X73414703Y-19356845D01*
X73469379Y-19349752D01*
X73504031Y-19342513D01*
X73619867Y-19303317D01*
X73726695Y-19250166D01*
X73823829Y-19183805D01*
X73910585Y-19104979D01*
X73986277Y-19014433D01*
X74050222Y-18912913D01*
X74101735Y-18801164D01*
X74140130Y-18679932D01*
X74149369Y-18640040D01*
X74158283Y-18581999D01*
X74163501Y-18513136D01*
X74165020Y-18439114D01*
X74162843Y-18365596D01*
X74156968Y-18298244D01*
X74149369Y-18251480D01*
X74115100Y-18127406D01*
X74067199Y-18012474D01*
X74006312Y-17907412D01*
X73933085Y-17812947D01*
X73848165Y-17729805D01*
X73752199Y-17658715D01*
X73645832Y-17600403D01*
X73530969Y-17555990D01*
X73420310Y-17529712D01*
X73305356Y-17518371D01*
X73189008Y-17521730D01*
X73074168Y-17539551D01*
X72963736Y-17571598D01*
X72875853Y-17609665D01*
X72776645Y-17669389D01*
X72685940Y-17742794D01*
X72605298Y-17828159D01*
X72536279Y-17923766D01*
X72480444Y-18027892D01*
X72466114Y-18061486D01*
X72445152Y-18115337D01*
X72429208Y-18161455D01*
X72417610Y-18203727D01*
X72409689Y-18246036D01*
X72404773Y-18292268D01*
X72402192Y-18346306D01*
X72401275Y-18412037D01*
X72401223Y-18437313D01*
X71704902Y-18437313D01*
X71704263Y-18405304D01*
X71712209Y-18284051D01*
X71736377Y-18128412D01*
X71776770Y-17975424D01*
X71832736Y-17826922D01*
X71903626Y-17684745D01*
X71953297Y-17602864D01*
X72045130Y-17476847D01*
X72148675Y-17362337D01*
X72262913Y-17259735D01*
X72386825Y-17169442D01*
X72519395Y-17091858D01*
X72659601Y-17027385D01*
X72806427Y-16976424D01*
X72958854Y-16939375D01*
X73115863Y-16916639D01*
X73276435Y-16908618D01*
X73439553Y-16915713D01*
G36*
X47451088Y-15786292D02*
X47463753Y-15807710D01*
X47483598Y-15842086D01*
X47510113Y-15888515D01*
X47542788Y-15946091D01*
X47581112Y-16013908D01*
X47624575Y-16091062D01*
X47672667Y-16176646D01*
X47724877Y-16269755D01*
X47780695Y-16369483D01*
X47839610Y-16474924D01*
X47901112Y-16585173D01*
X47947201Y-16667905D01*
X48022141Y-16802445D01*
X48089337Y-16922948D01*
X48149221Y-17030159D01*
X48202224Y-17124824D01*
X48248778Y-17207689D01*
X48289314Y-17279500D01*
X48324264Y-17341004D01*
X48354060Y-17392946D01*
X48379133Y-17436072D01*
X48399914Y-17471129D01*
X48416835Y-17498863D01*
X48430328Y-17520019D01*
X48440823Y-17535344D01*
X48448754Y-17545583D01*
X48454551Y-17551483D01*
X48458645Y-17553791D01*
X48459667Y-17553892D01*
X48470635Y-17550453D01*
X48495646Y-17540798D01*
X48533282Y-17525524D01*
X48582125Y-17505228D01*
X48640759Y-17480509D01*
X48707766Y-17451962D01*
X48781730Y-17420185D01*
X48861232Y-17385775D01*
X48937404Y-17352587D01*
X49020201Y-17316493D01*
X49098329Y-17282615D01*
X49170430Y-17251530D01*
X49235143Y-17223815D01*
X49291110Y-17200047D01*
X49336972Y-17180804D01*
X49371370Y-17166664D01*
X49392944Y-17158203D01*
X49400319Y-17155946D01*
X49399974Y-17164655D01*
X49398085Y-17189265D01*
X49394739Y-17228860D01*
X49390019Y-17282525D01*
X49384011Y-17349345D01*
X49376799Y-17428406D01*
X49368468Y-17518792D01*
X49359103Y-17619587D01*
X49348789Y-17729878D01*
X49337610Y-17848749D01*
X49325652Y-17975285D01*
X49312999Y-18108571D01*
X49299736Y-18247692D01*
X49285948Y-18391733D01*
X49281057Y-18442685D01*
X49267084Y-18588415D01*
X49253589Y-18729662D01*
X49240657Y-18865500D01*
X49228374Y-18995006D01*
X49216828Y-19117255D01*
X49206104Y-19231320D01*
X49196288Y-19336278D01*
X49187466Y-19431204D01*
X49179725Y-19515172D01*
X49173150Y-19587258D01*
X49167829Y-19646537D01*
X49163846Y-19692084D01*
X49161288Y-19722974D01*
X49160242Y-19738283D01*
X49160244Y-19739764D01*
X49165734Y-19737933D01*
X49181428Y-19726712D01*
X49207562Y-19705896D01*
X49244375Y-19675280D01*
X49292107Y-19634658D01*
X49350996Y-19583825D01*
X49421279Y-19522574D01*
X49503197Y-19450702D01*
X49596987Y-19368001D01*
X49702888Y-19274268D01*
X49775046Y-19210244D01*
X49861883Y-19133243D01*
X49945165Y-19059610D01*
X50024023Y-18990099D01*
X50097592Y-18925464D01*
X50165004Y-18866461D01*
X50225392Y-18813843D01*
X50277890Y-18768366D01*
X50321630Y-18730784D01*
X50355745Y-18701851D01*
X50379369Y-18682322D01*
X50391633Y-18672952D01*
X50393208Y-18672242D01*
X50397331Y-18681226D01*
X50406581Y-18704301D01*
X50420282Y-18739692D01*
X50437760Y-18785623D01*
X50458339Y-18840319D01*
X50481345Y-18902004D01*
X50506101Y-18968902D01*
X50509068Y-18976953D01*
X50619171Y-19275856D01*
X50600451Y-19298893D01*
X50589150Y-19312399D01*
X50568863Y-19336247D01*
X50541666Y-19368014D01*
X50509636Y-19405273D01*
X50474850Y-19445599D01*
X50473052Y-19447679D01*
X50345242Y-19598622D01*
X50212877Y-19760735D01*
X50077093Y-19932383D01*
X49939025Y-20111932D01*
X49799811Y-20297747D01*
X49660585Y-20488193D01*
X49522484Y-20681635D01*
X49386645Y-20876438D01*
X49254202Y-21070967D01*
X49126292Y-21263588D01*
X49004052Y-21452666D01*
X48888616Y-21636566D01*
X48781122Y-21813652D01*
X48682704Y-21982291D01*
X48594500Y-22140848D01*
X48570543Y-22185560D01*
X48552803Y-22217486D01*
X48537321Y-22242609D01*
X48526046Y-22257923D01*
X48521519Y-22261160D01*
X48513712Y-22252930D01*
X48498816Y-22232088D01*
X48478095Y-22200704D01*
X48452818Y-22160849D01*
X48424251Y-22114591D01*
X48393660Y-22064002D01*
X48362313Y-22011152D01*
X48331475Y-21958110D01*
X48302415Y-21906948D01*
X48280401Y-21867116D01*
X48175293Y-21662565D01*
X48075404Y-21444726D01*
X47980582Y-21213159D01*
X47890676Y-20967428D01*
X47805534Y-20707091D01*
X47725005Y-20431712D01*
X47648938Y-20140851D01*
X47577181Y-19834069D01*
X47574652Y-19822614D01*
X47562137Y-19764687D01*
X47548012Y-19697434D01*
X47532932Y-19624137D01*
X47517549Y-19548075D01*
X47502518Y-19472529D01*
X47488491Y-19400779D01*
X47476122Y-19336106D01*
X47466064Y-19281789D01*
X47459651Y-19245210D01*
X47454983Y-19218880D01*
X47450876Y-19201653D01*
X47446840Y-19194595D01*
X47442383Y-19198773D01*
X47437015Y-19215254D01*
X47430246Y-19245104D01*
X47421585Y-19289391D01*
X47410540Y-19349180D01*
X47409695Y-19353808D01*
X47384201Y-19488076D01*
X47355101Y-19631895D01*
X47323405Y-19780711D01*
X47290124Y-19929967D01*
X47256268Y-20075111D01*
X47222848Y-20211585D01*
X47197937Y-20308314D01*
X47138616Y-20524884D01*
X47078743Y-20726961D01*
X47017448Y-20916941D01*
X46953858Y-21097223D01*
X46887103Y-21270203D01*
X46816310Y-21438278D01*
X46740608Y-21603847D01*
X46686576Y-21714833D01*
X46655590Y-21775712D01*
X46621960Y-21839520D01*
X46586693Y-21904542D01*
X46550799Y-21969061D01*
X46515287Y-22031361D01*
X46481165Y-22089728D01*
X46449443Y-22142444D01*
X46421129Y-22187793D01*
X46397232Y-22224061D01*
X46378760Y-22249531D01*
X46366723Y-22262487D01*
X46363830Y-22263785D01*
X46357183Y-22256787D01*
X46346017Y-22238520D01*
X46333890Y-22215215D01*
X46321125Y-22190167D01*
X46302232Y-22154563D01*
X46279437Y-22112533D01*
X46254964Y-22068204D01*
X46246246Y-22052611D01*
X46128632Y-21848509D01*
X45999897Y-21635239D01*
X45861519Y-21414890D01*
X45714974Y-21189549D01*
X45561738Y-20961307D01*
X45403288Y-20732252D01*
X45241102Y-20504471D01*
X45076655Y-20280056D01*
X44911424Y-20061093D01*
X44746886Y-19849672D01*
X44584517Y-19647881D01*
X44425794Y-19457810D01*
X44348115Y-19367653D01*
X44320499Y-19335102D01*
X44297706Y-19306590D01*
X44281708Y-19284713D01*
X44274478Y-19272064D01*
X44274296Y-19270513D01*
X44278290Y-19258255D01*
X44287240Y-19232781D01*
X44300356Y-19196231D01*
X44316848Y-19150745D01*
X44335926Y-19098462D01*
X44356800Y-19041522D01*
X44378682Y-18982066D01*
X44400780Y-18922233D01*
X44422306Y-18864162D01*
X44442470Y-18809994D01*
X44460481Y-18761869D01*
X44475551Y-18721926D01*
X44486889Y-18692305D01*
X44493705Y-18675146D01*
X44495291Y-18671729D01*
X44502236Y-18676315D01*
X44520924Y-18691394D01*
X44550491Y-18716212D01*
X44590071Y-18750017D01*
X44638801Y-18792058D01*
X44695814Y-18841582D01*
X44760246Y-18897836D01*
X44831233Y-18960069D01*
X44907908Y-19027528D01*
X44989408Y-19099461D01*
X45074868Y-19175115D01*
X45115402Y-19211075D01*
X45202364Y-19288226D01*
X45285706Y-19362067D01*
X45364567Y-19431841D01*
X45438086Y-19496791D01*
X45505404Y-19556160D01*
X45565659Y-19609191D01*
X45617992Y-19655128D01*
X45661541Y-19693214D01*
X45695447Y-19722691D01*
X45718849Y-19742803D01*
X45730885Y-19752793D01*
X45732370Y-19753780D01*
X45731835Y-19745184D01*
X45729760Y-19720683D01*
X45726230Y-19681184D01*
X45721331Y-19627598D01*
X45715149Y-19560833D01*
X45707770Y-19481799D01*
X45699279Y-19391405D01*
X45689762Y-19290560D01*
X45679304Y-19180174D01*
X45667992Y-19061155D01*
X45655911Y-18934413D01*
X45643146Y-18800858D01*
X45629784Y-18661398D01*
X45629471Y-18658136D01*
X46932033Y-18658136D01*
X46935753Y-18658477D01*
X46949069Y-18648584D01*
X46969741Y-18630279D01*
X46989382Y-18611481D01*
X47072871Y-18540483D01*
X47163948Y-18484477D01*
X47257853Y-18444861D01*
X47294837Y-18432850D01*
X47324969Y-18424973D01*
X47353963Y-18420369D01*
X47387531Y-18418179D01*
X47431387Y-18417543D01*
X47439463Y-18417528D01*
X47505943Y-18419214D01*
X47559092Y-18424609D01*
X47595731Y-18432213D01*
X47684660Y-18464011D01*
X47771290Y-18509907D01*
X47851310Y-18567226D01*
X47920412Y-18633293D01*
X47921353Y-18634348D01*
X47941585Y-18656981D01*
X47956772Y-18673779D01*
X47964067Y-18681599D01*
X47964314Y-18681808D01*
X47962255Y-18674290D01*
X47955851Y-18653019D01*
X47945828Y-18620357D01*
X47932911Y-18578666D01*
X47917827Y-18530307D01*
X47913174Y-18515447D01*
X47902299Y-18480717D01*
X47886899Y-18431490D01*
X47867481Y-18369394D01*
X47844555Y-18296059D01*
X47818630Y-18213112D01*
X47790215Y-18122183D01*
X47759819Y-18024901D01*
X47727951Y-17922894D01*
X47695120Y-17817791D01*
X47661835Y-17711220D01*
X47654556Y-17687913D01*
X47622763Y-17586392D01*
X47592335Y-17489778D01*
X47563652Y-17399248D01*
X47537097Y-17315982D01*
X47513052Y-17241160D01*
X47491897Y-17175960D01*
X47474015Y-17121561D01*
X47459788Y-17079144D01*
X47449596Y-17049887D01*
X47443821Y-17034969D01*
X47442687Y-17033274D01*
X47439729Y-17041675D01*
X47432143Y-17064892D01*
X47420341Y-17101616D01*
X47404735Y-17150539D01*
X47385735Y-17210351D01*
X47363752Y-17279744D01*
X47339199Y-17357409D01*
X47312487Y-17442037D01*
X47284026Y-17532319D01*
X47254228Y-17626947D01*
X47223505Y-17724612D01*
X47192268Y-17824004D01*
X47160928Y-17923815D01*
X47129897Y-18022736D01*
X47099585Y-18119458D01*
X47070405Y-18212673D01*
X47042767Y-18301071D01*
X47017083Y-18383344D01*
X46993765Y-18458183D01*
X46973223Y-18524279D01*
X46955868Y-18580323D01*
X46942113Y-18625007D01*
X46932369Y-18657021D01*
X46932033Y-18658136D01*
X45629471Y-18658136D01*
X45615910Y-18516943D01*
X45609889Y-18454356D01*
X45595831Y-18308049D01*
X45582261Y-18166347D01*
X45569264Y-18030159D01*
X45556926Y-17900396D01*
X45545332Y-17777965D01*
X45534566Y-17663778D01*
X45524713Y-17558744D01*
X45515859Y-17463772D01*
X45508089Y-17379771D01*
X45501486Y-17307652D01*
X45496137Y-17248325D01*
X45492127Y-17202698D01*
X45489539Y-17171681D01*
X45488460Y-17156184D01*
X45488478Y-17154521D01*
X45496346Y-17157379D01*
X45518089Y-17166267D01*
X45552085Y-17180487D01*
X45596712Y-17199342D01*
X45650349Y-17222134D01*
X45711374Y-17248165D01*
X45778165Y-17276737D01*
X45849102Y-17307152D01*
X45922561Y-17338712D01*
X45996923Y-17370719D01*
X46070564Y-17402476D01*
X46141864Y-17433284D01*
X46209200Y-17462447D01*
X46270952Y-17489265D01*
X46325497Y-17513040D01*
X46371214Y-17533076D01*
X46406481Y-17548674D01*
X46429677Y-17559136D01*
X46438567Y-17563402D01*
X46443137Y-17556468D01*
X46455402Y-17535659D01*
X46474859Y-17501870D01*
X46501004Y-17455996D01*
X46533333Y-17398931D01*
X46571344Y-17331572D01*
X46614530Y-17254813D01*
X46662390Y-17169550D01*
X46714419Y-17076677D01*
X46770114Y-16977090D01*
X46828970Y-16871684D01*
X46890484Y-16761355D01*
X46940790Y-16671011D01*
X47004087Y-16557399D01*
X47065172Y-16448005D01*
X47123540Y-16343724D01*
X47178682Y-16245451D01*
X47230091Y-16154082D01*
X47277260Y-16070513D01*
X47319683Y-15995638D01*
X47356851Y-15930354D01*
X47388258Y-15875556D01*
X47413397Y-15832139D01*
X47431761Y-15800999D01*
X47442842Y-15783031D01*
X47446114Y-15778739D01*
X47451088Y-15786292D01*
X47451088Y-15786292D01*
G37*
X47451088Y-15786292D02*
X47463753Y-15807710D01*
X47483598Y-15842086D01*
X47510113Y-15888515D01*
X47542788Y-15946091D01*
X47581112Y-16013908D01*
X47624575Y-16091062D01*
X47672667Y-16176646D01*
X47724877Y-16269755D01*
X47780695Y-16369483D01*
X47839610Y-16474924D01*
X47901112Y-16585173D01*
X47947201Y-16667905D01*
X48022141Y-16802445D01*
X48089337Y-16922948D01*
X48149221Y-17030159D01*
X48202224Y-17124824D01*
X48248778Y-17207689D01*
X48289314Y-17279500D01*
X48324264Y-17341004D01*
X48354060Y-17392946D01*
X48379133Y-17436072D01*
X48399914Y-17471129D01*
X48416835Y-17498863D01*
X48430328Y-17520019D01*
X48440823Y-17535344D01*
X48448754Y-17545583D01*
X48454551Y-17551483D01*
X48458645Y-17553791D01*
X48459667Y-17553892D01*
X48470635Y-17550453D01*
X48495646Y-17540798D01*
X48533282Y-17525524D01*
X48582125Y-17505228D01*
X48640759Y-17480509D01*
X48707766Y-17451962D01*
X48781730Y-17420185D01*
X48861232Y-17385775D01*
X48937404Y-17352587D01*
X49020201Y-17316493D01*
X49098329Y-17282615D01*
X49170430Y-17251530D01*
X49235143Y-17223815D01*
X49291110Y-17200047D01*
X49336972Y-17180804D01*
X49371370Y-17166664D01*
X49392944Y-17158203D01*
X49400319Y-17155946D01*
X49399974Y-17164655D01*
X49398085Y-17189265D01*
X49394739Y-17228860D01*
X49390019Y-17282525D01*
X49384011Y-17349345D01*
X49376799Y-17428406D01*
X49368468Y-17518792D01*
X49359103Y-17619587D01*
X49348789Y-17729878D01*
X49337610Y-17848749D01*
X49325652Y-17975285D01*
X49312999Y-18108571D01*
X49299736Y-18247692D01*
X49285948Y-18391733D01*
X49281057Y-18442685D01*
X49267084Y-18588415D01*
X49253589Y-18729662D01*
X49240657Y-18865500D01*
X49228374Y-18995006D01*
X49216828Y-19117255D01*
X49206104Y-19231320D01*
X49196288Y-19336278D01*
X49187466Y-19431204D01*
X49179725Y-19515172D01*
X49173150Y-19587258D01*
X49167829Y-19646537D01*
X49163846Y-19692084D01*
X49161288Y-19722974D01*
X49160242Y-19738283D01*
X49160244Y-19739764D01*
X49165734Y-19737933D01*
X49181428Y-19726712D01*
X49207562Y-19705896D01*
X49244375Y-19675280D01*
X49292107Y-19634658D01*
X49350996Y-19583825D01*
X49421279Y-19522574D01*
X49503197Y-19450702D01*
X49596987Y-19368001D01*
X49702888Y-19274268D01*
X49775046Y-19210244D01*
X49861883Y-19133243D01*
X49945165Y-19059610D01*
X50024023Y-18990099D01*
X50097592Y-18925464D01*
X50165004Y-18866461D01*
X50225392Y-18813843D01*
X50277890Y-18768366D01*
X50321630Y-18730784D01*
X50355745Y-18701851D01*
X50379369Y-18682322D01*
X50391633Y-18672952D01*
X50393208Y-18672242D01*
X50397331Y-18681226D01*
X50406581Y-18704301D01*
X50420282Y-18739692D01*
X50437760Y-18785623D01*
X50458339Y-18840319D01*
X50481345Y-18902004D01*
X50506101Y-18968902D01*
X50509068Y-18976953D01*
X50619171Y-19275856D01*
X50600451Y-19298893D01*
X50589150Y-19312399D01*
X50568863Y-19336247D01*
X50541666Y-19368014D01*
X50509636Y-19405273D01*
X50474850Y-19445599D01*
X50473052Y-19447679D01*
X50345242Y-19598622D01*
X50212877Y-19760735D01*
X50077093Y-19932383D01*
X49939025Y-20111932D01*
X49799811Y-20297747D01*
X49660585Y-20488193D01*
X49522484Y-20681635D01*
X49386645Y-20876438D01*
X49254202Y-21070967D01*
X49126292Y-21263588D01*
X49004052Y-21452666D01*
X48888616Y-21636566D01*
X48781122Y-21813652D01*
X48682704Y-21982291D01*
X48594500Y-22140848D01*
X48570543Y-22185560D01*
X48552803Y-22217486D01*
X48537321Y-22242609D01*
X48526046Y-22257923D01*
X48521519Y-22261160D01*
X48513712Y-22252930D01*
X48498816Y-22232088D01*
X48478095Y-22200704D01*
X48452818Y-22160849D01*
X48424251Y-22114591D01*
X48393660Y-22064002D01*
X48362313Y-22011152D01*
X48331475Y-21958110D01*
X48302415Y-21906948D01*
X48280401Y-21867116D01*
X48175293Y-21662565D01*
X48075404Y-21444726D01*
X47980582Y-21213159D01*
X47890676Y-20967428D01*
X47805534Y-20707091D01*
X47725005Y-20431712D01*
X47648938Y-20140851D01*
X47577181Y-19834069D01*
X47574652Y-19822614D01*
X47562137Y-19764687D01*
X47548012Y-19697434D01*
X47532932Y-19624137D01*
X47517549Y-19548075D01*
X47502518Y-19472529D01*
X47488491Y-19400779D01*
X47476122Y-19336106D01*
X47466064Y-19281789D01*
X47459651Y-19245210D01*
X47454983Y-19218880D01*
X47450876Y-19201653D01*
X47446840Y-19194595D01*
X47442383Y-19198773D01*
X47437015Y-19215254D01*
X47430246Y-19245104D01*
X47421585Y-19289391D01*
X47410540Y-19349180D01*
X47409695Y-19353808D01*
X47384201Y-19488076D01*
X47355101Y-19631895D01*
X47323405Y-19780711D01*
X47290124Y-19929967D01*
X47256268Y-20075111D01*
X47222848Y-20211585D01*
X47197937Y-20308314D01*
X47138616Y-20524884D01*
X47078743Y-20726961D01*
X47017448Y-20916941D01*
X46953858Y-21097223D01*
X46887103Y-21270203D01*
X46816310Y-21438278D01*
X46740608Y-21603847D01*
X46686576Y-21714833D01*
X46655590Y-21775712D01*
X46621960Y-21839520D01*
X46586693Y-21904542D01*
X46550799Y-21969061D01*
X46515287Y-22031361D01*
X46481165Y-22089728D01*
X46449443Y-22142444D01*
X46421129Y-22187793D01*
X46397232Y-22224061D01*
X46378760Y-22249531D01*
X46366723Y-22262487D01*
X46363830Y-22263785D01*
X46357183Y-22256787D01*
X46346017Y-22238520D01*
X46333890Y-22215215D01*
X46321125Y-22190167D01*
X46302232Y-22154563D01*
X46279437Y-22112533D01*
X46254964Y-22068204D01*
X46246246Y-22052611D01*
X46128632Y-21848509D01*
X45999897Y-21635239D01*
X45861519Y-21414890D01*
X45714974Y-21189549D01*
X45561738Y-20961307D01*
X45403288Y-20732252D01*
X45241102Y-20504471D01*
X45076655Y-20280056D01*
X44911424Y-20061093D01*
X44746886Y-19849672D01*
X44584517Y-19647881D01*
X44425794Y-19457810D01*
X44348115Y-19367653D01*
X44320499Y-19335102D01*
X44297706Y-19306590D01*
X44281708Y-19284713D01*
X44274478Y-19272064D01*
X44274296Y-19270513D01*
X44278290Y-19258255D01*
X44287240Y-19232781D01*
X44300356Y-19196231D01*
X44316848Y-19150745D01*
X44335926Y-19098462D01*
X44356800Y-19041522D01*
X44378682Y-18982066D01*
X44400780Y-18922233D01*
X44422306Y-18864162D01*
X44442470Y-18809994D01*
X44460481Y-18761869D01*
X44475551Y-18721926D01*
X44486889Y-18692305D01*
X44493705Y-18675146D01*
X44495291Y-18671729D01*
X44502236Y-18676315D01*
X44520924Y-18691394D01*
X44550491Y-18716212D01*
X44590071Y-18750017D01*
X44638801Y-18792058D01*
X44695814Y-18841582D01*
X44760246Y-18897836D01*
X44831233Y-18960069D01*
X44907908Y-19027528D01*
X44989408Y-19099461D01*
X45074868Y-19175115D01*
X45115402Y-19211075D01*
X45202364Y-19288226D01*
X45285706Y-19362067D01*
X45364567Y-19431841D01*
X45438086Y-19496791D01*
X45505404Y-19556160D01*
X45565659Y-19609191D01*
X45617992Y-19655128D01*
X45661541Y-19693214D01*
X45695447Y-19722691D01*
X45718849Y-19742803D01*
X45730885Y-19752793D01*
X45732370Y-19753780D01*
X45731835Y-19745184D01*
X45729760Y-19720683D01*
X45726230Y-19681184D01*
X45721331Y-19627598D01*
X45715149Y-19560833D01*
X45707770Y-19481799D01*
X45699279Y-19391405D01*
X45689762Y-19290560D01*
X45679304Y-19180174D01*
X45667992Y-19061155D01*
X45655911Y-18934413D01*
X45643146Y-18800858D01*
X45629784Y-18661398D01*
X45629471Y-18658136D01*
X46932033Y-18658136D01*
X46935753Y-18658477D01*
X46949069Y-18648584D01*
X46969741Y-18630279D01*
X46989382Y-18611481D01*
X47072871Y-18540483D01*
X47163948Y-18484477D01*
X47257853Y-18444861D01*
X47294837Y-18432850D01*
X47324969Y-18424973D01*
X47353963Y-18420369D01*
X47387531Y-18418179D01*
X47431387Y-18417543D01*
X47439463Y-18417528D01*
X47505943Y-18419214D01*
X47559092Y-18424609D01*
X47595731Y-18432213D01*
X47684660Y-18464011D01*
X47771290Y-18509907D01*
X47851310Y-18567226D01*
X47920412Y-18633293D01*
X47921353Y-18634348D01*
X47941585Y-18656981D01*
X47956772Y-18673779D01*
X47964067Y-18681599D01*
X47964314Y-18681808D01*
X47962255Y-18674290D01*
X47955851Y-18653019D01*
X47945828Y-18620357D01*
X47932911Y-18578666D01*
X47917827Y-18530307D01*
X47913174Y-18515447D01*
X47902299Y-18480717D01*
X47886899Y-18431490D01*
X47867481Y-18369394D01*
X47844555Y-18296059D01*
X47818630Y-18213112D01*
X47790215Y-18122183D01*
X47759819Y-18024901D01*
X47727951Y-17922894D01*
X47695120Y-17817791D01*
X47661835Y-17711220D01*
X47654556Y-17687913D01*
X47622763Y-17586392D01*
X47592335Y-17489778D01*
X47563652Y-17399248D01*
X47537097Y-17315982D01*
X47513052Y-17241160D01*
X47491897Y-17175960D01*
X47474015Y-17121561D01*
X47459788Y-17079144D01*
X47449596Y-17049887D01*
X47443821Y-17034969D01*
X47442687Y-17033274D01*
X47439729Y-17041675D01*
X47432143Y-17064892D01*
X47420341Y-17101616D01*
X47404735Y-17150539D01*
X47385735Y-17210351D01*
X47363752Y-17279744D01*
X47339199Y-17357409D01*
X47312487Y-17442037D01*
X47284026Y-17532319D01*
X47254228Y-17626947D01*
X47223505Y-17724612D01*
X47192268Y-17824004D01*
X47160928Y-17923815D01*
X47129897Y-18022736D01*
X47099585Y-18119458D01*
X47070405Y-18212673D01*
X47042767Y-18301071D01*
X47017083Y-18383344D01*
X46993765Y-18458183D01*
X46973223Y-18524279D01*
X46955868Y-18580323D01*
X46942113Y-18625007D01*
X46932369Y-18657021D01*
X46932033Y-18658136D01*
X45629471Y-18658136D01*
X45615910Y-18516943D01*
X45609889Y-18454356D01*
X45595831Y-18308049D01*
X45582261Y-18166347D01*
X45569264Y-18030159D01*
X45556926Y-17900396D01*
X45545332Y-17777965D01*
X45534566Y-17663778D01*
X45524713Y-17558744D01*
X45515859Y-17463772D01*
X45508089Y-17379771D01*
X45501486Y-17307652D01*
X45496137Y-17248325D01*
X45492127Y-17202698D01*
X45489539Y-17171681D01*
X45488460Y-17156184D01*
X45488478Y-17154521D01*
X45496346Y-17157379D01*
X45518089Y-17166267D01*
X45552085Y-17180487D01*
X45596712Y-17199342D01*
X45650349Y-17222134D01*
X45711374Y-17248165D01*
X45778165Y-17276737D01*
X45849102Y-17307152D01*
X45922561Y-17338712D01*
X45996923Y-17370719D01*
X46070564Y-17402476D01*
X46141864Y-17433284D01*
X46209200Y-17462447D01*
X46270952Y-17489265D01*
X46325497Y-17513040D01*
X46371214Y-17533076D01*
X46406481Y-17548674D01*
X46429677Y-17559136D01*
X46438567Y-17563402D01*
X46443137Y-17556468D01*
X46455402Y-17535659D01*
X46474859Y-17501870D01*
X46501004Y-17455996D01*
X46533333Y-17398931D01*
X46571344Y-17331572D01*
X46614530Y-17254813D01*
X46662390Y-17169550D01*
X46714419Y-17076677D01*
X46770114Y-16977090D01*
X46828970Y-16871684D01*
X46890484Y-16761355D01*
X46940790Y-16671011D01*
X47004087Y-16557399D01*
X47065172Y-16448005D01*
X47123540Y-16343724D01*
X47178682Y-16245451D01*
X47230091Y-16154082D01*
X47277260Y-16070513D01*
X47319683Y-15995638D01*
X47356851Y-15930354D01*
X47388258Y-15875556D01*
X47413397Y-15832139D01*
X47431761Y-15800999D01*
X47442842Y-15783031D01*
X47446114Y-15778739D01*
X47451088Y-15786292D01*
G36*
X77296788Y-20794210D02*
X77346482Y-20794761D01*
X77387747Y-20795608D01*
X77418248Y-20796697D01*
X77435647Y-20797969D01*
X77438831Y-20798829D01*
X77434127Y-20806247D01*
X77420393Y-20826739D01*
X77398199Y-20859475D01*
X77368114Y-20903625D01*
X77330705Y-20958361D01*
X77286542Y-21022853D01*
X77236194Y-21096271D01*
X77180229Y-21177788D01*
X77119216Y-21266572D01*
X77053723Y-21361795D01*
X76984321Y-21462628D01*
X76911576Y-21568241D01*
X76836059Y-21677805D01*
X76826427Y-21691775D01*
X76214022Y-22579906D01*
X76214022Y-23758896D01*
X75867697Y-23758896D01*
X75867697Y-22594583D01*
X75251069Y-21698300D01*
X75175041Y-21587760D01*
X75101707Y-21481076D01*
X75031634Y-21379073D01*
X74965386Y-21282579D01*
X74903529Y-21192417D01*
X74846629Y-21109414D01*
X74795250Y-21034395D01*
X74749959Y-20968187D01*
X74711320Y-20911614D01*
X74679899Y-20865502D01*
X74656262Y-20830677D01*
X74640973Y-20807965D01*
X74634598Y-20798191D01*
X74634441Y-20797868D01*
X74642508Y-20796814D01*
X74665188Y-20796038D01*
X74700206Y-20795562D01*
X74745282Y-20795406D01*
X74798140Y-20795591D01*
X74842614Y-20795978D01*
X75050787Y-20798237D01*
X75541961Y-21526444D01*
X75609316Y-21626281D01*
X75674037Y-21722169D01*
X75735498Y-21813181D01*
X75793068Y-21898388D01*
X75846121Y-21976861D01*
X75894027Y-22047674D01*
X75936159Y-22109896D01*
X75971888Y-22162600D01*
X76000586Y-22204858D01*
X76021625Y-22235741D01*
X76034377Y-22254321D01*
X76038222Y-22259739D01*
X76043558Y-22253600D01*
X76057742Y-22234378D01*
X76080148Y-22202977D01*
X76110150Y-22160302D01*
X76147122Y-22107258D01*
X76190439Y-22044750D01*
X76239475Y-21973683D01*
X76293605Y-21894961D01*
X76352203Y-21809488D01*
X76414643Y-21718171D01*
X76480300Y-21621912D01*
X76543244Y-21529421D01*
X77043178Y-20794014D01*
X77241004Y-20794014D01*
X77296788Y-20794210D01*
X77296788Y-20794210D01*
G37*
X77296788Y-20794210D02*
X77346482Y-20794761D01*
X77387747Y-20795608D01*
X77418248Y-20796697D01*
X77435647Y-20797969D01*
X77438831Y-20798829D01*
X77434127Y-20806247D01*
X77420393Y-20826739D01*
X77398199Y-20859475D01*
X77368114Y-20903625D01*
X77330705Y-20958361D01*
X77286542Y-21022853D01*
X77236194Y-21096271D01*
X77180229Y-21177788D01*
X77119216Y-21266572D01*
X77053723Y-21361795D01*
X76984321Y-21462628D01*
X76911576Y-21568241D01*
X76836059Y-21677805D01*
X76826427Y-21691775D01*
X76214022Y-22579906D01*
X76214022Y-23758896D01*
X75867697Y-23758896D01*
X75867697Y-22594583D01*
X75251069Y-21698300D01*
X75175041Y-21587760D01*
X75101707Y-21481076D01*
X75031634Y-21379073D01*
X74965386Y-21282579D01*
X74903529Y-21192417D01*
X74846629Y-21109414D01*
X74795250Y-21034395D01*
X74749959Y-20968187D01*
X74711320Y-20911614D01*
X74679899Y-20865502D01*
X74656262Y-20830677D01*
X74640973Y-20807965D01*
X74634598Y-20798191D01*
X74634441Y-20797868D01*
X74642508Y-20796814D01*
X74665188Y-20796038D01*
X74700206Y-20795562D01*
X74745282Y-20795406D01*
X74798140Y-20795591D01*
X74842614Y-20795978D01*
X75050787Y-20798237D01*
X75541961Y-21526444D01*
X75609316Y-21626281D01*
X75674037Y-21722169D01*
X75735498Y-21813181D01*
X75793068Y-21898388D01*
X75846121Y-21976861D01*
X75894027Y-22047674D01*
X75936159Y-22109896D01*
X75971888Y-22162600D01*
X76000586Y-22204858D01*
X76021625Y-22235741D01*
X76034377Y-22254321D01*
X76038222Y-22259739D01*
X76043558Y-22253600D01*
X76057742Y-22234378D01*
X76080148Y-22202977D01*
X76110150Y-22160302D01*
X76147122Y-22107258D01*
X76190439Y-22044750D01*
X76239475Y-21973683D01*
X76293605Y-21894961D01*
X76352203Y-21809488D01*
X76414643Y-21718171D01*
X76480300Y-21621912D01*
X76543244Y-21529421D01*
X77043178Y-20794014D01*
X77241004Y-20794014D01*
X77296788Y-20794210D01*
G36*
X72808354Y-20794066D02*
X72925986Y-20794249D01*
X73029227Y-20794606D01*
X73119331Y-20795180D01*
X73197549Y-20796012D01*
X73265132Y-20797146D01*
X73323332Y-20798622D01*
X73373402Y-20800484D01*
X73416593Y-20802774D01*
X73454156Y-20805535D01*
X73487345Y-20808808D01*
X73517410Y-20812636D01*
X73545604Y-20817061D01*
X73573178Y-20822125D01*
X73586772Y-20824839D01*
X73700604Y-20854188D01*
X73810019Y-20894377D01*
X73912621Y-20944095D01*
X74006011Y-21002029D01*
X74087792Y-21066867D01*
X74153741Y-21135093D01*
X74191687Y-21187066D01*
X74229450Y-21250101D01*
X74264191Y-21318574D01*
X74293073Y-21386863D01*
X74313257Y-21449344D01*
X74314152Y-21452877D01*
X74325738Y-21514181D01*
X74333511Y-21586292D01*
X74337289Y-21663515D01*
X74336888Y-21740158D01*
X74332126Y-21810527D01*
X74326888Y-21848585D01*
X74311109Y-21918754D01*
X74288483Y-21991357D01*
X74261230Y-22060179D01*
X74231573Y-22119002D01*
X74228285Y-22124552D01*
X74164652Y-22213967D01*
X74086989Y-22295286D01*
X73996507Y-22367695D01*
X73894419Y-22430380D01*
X73781937Y-22482528D01*
X73660275Y-22523324D01*
X73617668Y-22534313D01*
X73586545Y-22541980D01*
X73562578Y-22548301D01*
X73549826Y-22552193D01*
X73548806Y-22552712D01*
X73553404Y-22559677D01*
X73567438Y-22579153D01*
X73590179Y-22610160D01*
X73620895Y-22651717D01*
X73658857Y-22702843D01*
X73703334Y-22762557D01*
X73753596Y-22829878D01*
X73808913Y-22903825D01*
X73868554Y-22983418D01*
X73931789Y-23067676D01*
X73981496Y-23133821D01*
X74047456Y-23221559D01*
X74110759Y-23305788D01*
X74170632Y-23385479D01*
X74226302Y-23459602D01*
X74276999Y-23527128D01*
X74321949Y-23587029D01*
X74360380Y-23638275D01*
X74391519Y-23679838D01*
X74414596Y-23710688D01*
X74428836Y-23729796D01*
X74433157Y-23735667D01*
X74449758Y-23758896D01*
X74027786Y-23758896D01*
X73169856Y-22610110D01*
X72336869Y-22610110D01*
X72336869Y-23758896D01*
X71990544Y-23758896D01*
X71990544Y-21106551D01*
X72336869Y-21106551D01*
X72336869Y-22307370D01*
X72854245Y-22303760D01*
X72961081Y-22302994D01*
X73052483Y-22302264D01*
X73129911Y-22301517D01*
X73194827Y-22300698D01*
X73248689Y-22299753D01*
X73292959Y-22298628D01*
X73329095Y-22297270D01*
X73358559Y-22295623D01*
X73382811Y-22293634D01*
X73403310Y-22291248D01*
X73421517Y-22288412D01*
X73438892Y-22285072D01*
X73455515Y-22281480D01*
X73562577Y-22252428D01*
X73655925Y-22215657D01*
X73737286Y-22170307D01*
X73808385Y-22115515D01*
X73831015Y-22094098D01*
X73890831Y-22025877D01*
X73935619Y-21954360D01*
X73966491Y-21876961D01*
X73984558Y-21791091D01*
X73990235Y-21723179D01*
X73989896Y-21639246D01*
X73981102Y-21565958D01*
X73963039Y-21498896D01*
X73938184Y-21440206D01*
X73891021Y-21363452D01*
X73830285Y-21296410D01*
X73756379Y-21239301D01*
X73669705Y-21192346D01*
X73570664Y-21155763D01*
X73459659Y-21129775D01*
X73344774Y-21115202D01*
X73315395Y-21113518D01*
X73271198Y-21111942D01*
X73214258Y-21110506D01*
X73146651Y-21109243D01*
X73070452Y-21108185D01*
X72987737Y-21107364D01*
X72900582Y-21106813D01*
X72811061Y-21106563D01*
X72787554Y-21106551D01*
X72336869Y-21106551D01*
X71990544Y-21106551D01*
X71990544Y-20794014D01*
X72675080Y-20794014D01*
X72808354Y-20794066D01*
X72808354Y-20794066D01*
G37*
X72808354Y-20794066D02*
X72925986Y-20794249D01*
X73029227Y-20794606D01*
X73119331Y-20795180D01*
X73197549Y-20796012D01*
X73265132Y-20797146D01*
X73323332Y-20798622D01*
X73373402Y-20800484D01*
X73416593Y-20802774D01*
X73454156Y-20805535D01*
X73487345Y-20808808D01*
X73517410Y-20812636D01*
X73545604Y-20817061D01*
X73573178Y-20822125D01*
X73586772Y-20824839D01*
X73700604Y-20854188D01*
X73810019Y-20894377D01*
X73912621Y-20944095D01*
X74006011Y-21002029D01*
X74087792Y-21066867D01*
X74153741Y-21135093D01*
X74191687Y-21187066D01*
X74229450Y-21250101D01*
X74264191Y-21318574D01*
X74293073Y-21386863D01*
X74313257Y-21449344D01*
X74314152Y-21452877D01*
X74325738Y-21514181D01*
X74333511Y-21586292D01*
X74337289Y-21663515D01*
X74336888Y-21740158D01*
X74332126Y-21810527D01*
X74326888Y-21848585D01*
X74311109Y-21918754D01*
X74288483Y-21991357D01*
X74261230Y-22060179D01*
X74231573Y-22119002D01*
X74228285Y-22124552D01*
X74164652Y-22213967D01*
X74086989Y-22295286D01*
X73996507Y-22367695D01*
X73894419Y-22430380D01*
X73781937Y-22482528D01*
X73660275Y-22523324D01*
X73617668Y-22534313D01*
X73586545Y-22541980D01*
X73562578Y-22548301D01*
X73549826Y-22552193D01*
X73548806Y-22552712D01*
X73553404Y-22559677D01*
X73567438Y-22579153D01*
X73590179Y-22610160D01*
X73620895Y-22651717D01*
X73658857Y-22702843D01*
X73703334Y-22762557D01*
X73753596Y-22829878D01*
X73808913Y-22903825D01*
X73868554Y-22983418D01*
X73931789Y-23067676D01*
X73981496Y-23133821D01*
X74047456Y-23221559D01*
X74110759Y-23305788D01*
X74170632Y-23385479D01*
X74226302Y-23459602D01*
X74276999Y-23527128D01*
X74321949Y-23587029D01*
X74360380Y-23638275D01*
X74391519Y-23679838D01*
X74414596Y-23710688D01*
X74428836Y-23729796D01*
X74433157Y-23735667D01*
X74449758Y-23758896D01*
X74027786Y-23758896D01*
X73169856Y-22610110D01*
X72336869Y-22610110D01*
X72336869Y-23758896D01*
X71990544Y-23758896D01*
X71990544Y-21106551D01*
X72336869Y-21106551D01*
X72336869Y-22307370D01*
X72854245Y-22303760D01*
X72961081Y-22302994D01*
X73052483Y-22302264D01*
X73129911Y-22301517D01*
X73194827Y-22300698D01*
X73248689Y-22299753D01*
X73292959Y-22298628D01*
X73329095Y-22297270D01*
X73358559Y-22295623D01*
X73382811Y-22293634D01*
X73403310Y-22291248D01*
X73421517Y-22288412D01*
X73438892Y-22285072D01*
X73455515Y-22281480D01*
X73562577Y-22252428D01*
X73655925Y-22215657D01*
X73737286Y-22170307D01*
X73808385Y-22115515D01*
X73831015Y-22094098D01*
X73890831Y-22025877D01*
X73935619Y-21954360D01*
X73966491Y-21876961D01*
X73984558Y-21791091D01*
X73990235Y-21723179D01*
X73989896Y-21639246D01*
X73981102Y-21565958D01*
X73963039Y-21498896D01*
X73938184Y-21440206D01*
X73891021Y-21363452D01*
X73830285Y-21296410D01*
X73756379Y-21239301D01*
X73669705Y-21192346D01*
X73570664Y-21155763D01*
X73459659Y-21129775D01*
X73344774Y-21115202D01*
X73315395Y-21113518D01*
X73271198Y-21111942D01*
X73214258Y-21110506D01*
X73146651Y-21109243D01*
X73070452Y-21108185D01*
X72987737Y-21107364D01*
X72900582Y-21106813D01*
X72811061Y-21106563D01*
X72787554Y-21106551D01*
X72336869Y-21106551D01*
X71990544Y-21106551D01*
X71990544Y-20794014D01*
X72675080Y-20794014D01*
X72808354Y-20794066D01*
G36*
X71373916Y-21106551D02*
X70377175Y-21106551D01*
X70377175Y-23758896D01*
X70030850Y-23758896D01*
X70030850Y-21106551D01*
X69042556Y-21106551D01*
X69042556Y-20794014D01*
X71373916Y-20794014D01*
X71373916Y-21106551D01*
X71373916Y-21106551D01*
G37*
X71373916Y-21106551D02*
X70377175Y-21106551D01*
X70377175Y-23758896D01*
X70030850Y-23758896D01*
X70030850Y-21106551D01*
X69042556Y-21106551D01*
X69042556Y-20794014D01*
X71373916Y-20794014D01*
X71373916Y-21106551D01*
G36*
X68569526Y-21106551D02*
X66761877Y-21106551D01*
X66761877Y-22111739D01*
X68375246Y-22111739D01*
X68375246Y-22424277D01*
X66761877Y-22424277D01*
X66761877Y-23446359D01*
X68586420Y-23446359D01*
X68586420Y-23758896D01*
X66415552Y-23758896D01*
X66415552Y-20794014D01*
X68569526Y-20794014D01*
X68569526Y-21106551D01*
X68569526Y-21106551D01*
G37*
X68569526Y-21106551D02*
X66761877Y-21106551D01*
X66761877Y-22111739D01*
X68375246Y-22111739D01*
X68375246Y-22424277D01*
X66761877Y-22424277D01*
X66761877Y-23446359D01*
X68586420Y-23446359D01*
X68586420Y-23758896D01*
X66415552Y-23758896D01*
X66415552Y-20794014D01*
X68569526Y-20794014D01*
X68569526Y-21106551D01*
G36*
X63725196Y-22549568D02*
X65413186Y-20794014D01*
X65632100Y-20794014D01*
X65697063Y-20794303D01*
X65752456Y-20795133D01*
X65796700Y-20796447D01*
X65828214Y-20798187D01*
X65845420Y-20800297D01*
X65848198Y-20801804D01*
X65842003Y-20808824D01*
X65824785Y-20827051D01*
X65797364Y-20855643D01*
X65760558Y-20893757D01*
X65715187Y-20940552D01*
X65662070Y-20995185D01*
X65602025Y-21056814D01*
X65535872Y-21124598D01*
X65464430Y-21197693D01*
X65388518Y-21275258D01*
X65308954Y-21356451D01*
X65283376Y-21382532D01*
X65201192Y-21466337D01*
X65121232Y-21547916D01*
X65044440Y-21626304D01*
X64971761Y-21700534D01*
X64904140Y-21769641D01*
X64842522Y-21832659D01*
X64787850Y-21888620D01*
X64741069Y-21936560D01*
X64703125Y-21975512D01*
X64674961Y-22004509D01*
X64657523Y-22022587D01*
X64655644Y-22024555D01*
X64589919Y-22093640D01*
X65244064Y-22916946D01*
X65326188Y-23020324D01*
X65405426Y-23120100D01*
X65481139Y-23215469D01*
X65552689Y-23305626D01*
X65619438Y-23389766D01*
X65680747Y-23467083D01*
X65735979Y-23536772D01*
X65784495Y-23598028D01*
X65825656Y-23650045D01*
X65858825Y-23692018D01*
X65883364Y-23723141D01*
X65898633Y-23742609D01*
X65903970Y-23749574D01*
X65900396Y-23752669D01*
X65884748Y-23755088D01*
X65856030Y-23756875D01*
X65813247Y-23758074D01*
X65755402Y-23758731D01*
X65694934Y-23758896D01*
X65480136Y-23758896D01*
X64915204Y-23045187D01*
X64350271Y-22331478D01*
X64035622Y-22649642D01*
X63720973Y-22967805D01*
X63720973Y-23758896D01*
X63383094Y-23758896D01*
X63383094Y-20794014D01*
X63720894Y-20794014D01*
X63725196Y-22549568D01*
X63725196Y-22549568D01*
G37*
X63725196Y-22549568D02*
X65413186Y-20794014D01*
X65632100Y-20794014D01*
X65697063Y-20794303D01*
X65752456Y-20795133D01*
X65796700Y-20796447D01*
X65828214Y-20798187D01*
X65845420Y-20800297D01*
X65848198Y-20801804D01*
X65842003Y-20808824D01*
X65824785Y-20827051D01*
X65797364Y-20855643D01*
X65760558Y-20893757D01*
X65715187Y-20940552D01*
X65662070Y-20995185D01*
X65602025Y-21056814D01*
X65535872Y-21124598D01*
X65464430Y-21197693D01*
X65388518Y-21275258D01*
X65308954Y-21356451D01*
X65283376Y-21382532D01*
X65201192Y-21466337D01*
X65121232Y-21547916D01*
X65044440Y-21626304D01*
X64971761Y-21700534D01*
X64904140Y-21769641D01*
X64842522Y-21832659D01*
X64787850Y-21888620D01*
X64741069Y-21936560D01*
X64703125Y-21975512D01*
X64674961Y-22004509D01*
X64657523Y-22022587D01*
X64655644Y-22024555D01*
X64589919Y-22093640D01*
X65244064Y-22916946D01*
X65326188Y-23020324D01*
X65405426Y-23120100D01*
X65481139Y-23215469D01*
X65552689Y-23305626D01*
X65619438Y-23389766D01*
X65680747Y-23467083D01*
X65735979Y-23536772D01*
X65784495Y-23598028D01*
X65825656Y-23650045D01*
X65858825Y-23692018D01*
X65883364Y-23723141D01*
X65898633Y-23742609D01*
X65903970Y-23749574D01*
X65900396Y-23752669D01*
X65884748Y-23755088D01*
X65856030Y-23756875D01*
X65813247Y-23758074D01*
X65755402Y-23758731D01*
X65694934Y-23758896D01*
X65480136Y-23758896D01*
X64915204Y-23045187D01*
X64350271Y-22331478D01*
X64035622Y-22649642D01*
X63720973Y-22967805D01*
X63720973Y-23758896D01*
X63383094Y-23758896D01*
X63383094Y-20794014D01*
X63720894Y-20794014D01*
X63725196Y-22549568D01*
G36*
X54665153Y-20794133D02*
X54788764Y-20794483D01*
X54901072Y-20795055D01*
X55001300Y-20795840D01*
X55088670Y-20796829D01*
X55162406Y-20798013D01*
X55221730Y-20799383D01*
X55265865Y-20800930D01*
X55294035Y-20802644D01*
X55297578Y-20802994D01*
X55439713Y-20825036D01*
X55570969Y-20858654D01*
X55690947Y-20903519D01*
X55799244Y-20959298D01*
X55895460Y-21025662D01*
X55979194Y-21102280D01*
X56050046Y-21188820D01*
X56107615Y-21284951D01*
X56151499Y-21390343D01*
X56181299Y-21504665D01*
X56186929Y-21537346D01*
X56191966Y-21587217D01*
X56193929Y-21647331D01*
X56193031Y-21712747D01*
X56189487Y-21778525D01*
X56183509Y-21839726D01*
X56175313Y-21891408D01*
X56170741Y-21911058D01*
X56132892Y-22023413D01*
X56082228Y-22125377D01*
X56018578Y-22217096D01*
X55941770Y-22298715D01*
X55851631Y-22370383D01*
X55747989Y-22432244D01*
X55630672Y-22484446D01*
X55499508Y-22527135D01*
X55423965Y-22546033D01*
X55420161Y-22547251D01*
X55417727Y-22549520D01*
X55417255Y-22553678D01*
X55419337Y-22560563D01*
X55424565Y-22571014D01*
X55433530Y-22585868D01*
X55446824Y-22605965D01*
X55465040Y-22632143D01*
X55488770Y-22665239D01*
X55518604Y-22706093D01*
X55555136Y-22755543D01*
X55598957Y-22814427D01*
X55650659Y-22883584D01*
X55710834Y-22963851D01*
X55780074Y-23056068D01*
X55846313Y-23144227D01*
X55912789Y-23232712D01*
X55976415Y-23317444D01*
X56036452Y-23397436D01*
X56092158Y-23471698D01*
X56142794Y-23539244D01*
X56187619Y-23599085D01*
X56225893Y-23650233D01*
X56256876Y-23691699D01*
X56279828Y-23722495D01*
X56294007Y-23741634D01*
X56298629Y-23748028D01*
X56297821Y-23751475D01*
X56289515Y-23754146D01*
X56272090Y-23756128D01*
X56243923Y-23757507D01*
X56203394Y-23758370D01*
X56148882Y-23758802D01*
X56094583Y-23758896D01*
X55883782Y-23758896D01*
X55455253Y-23184503D01*
X55026725Y-22610110D01*
X54192805Y-22610110D01*
X54192805Y-23758896D01*
X53846480Y-23758896D01*
X53846480Y-21106551D01*
X54192805Y-21106551D01*
X54192805Y-22306019D01*
X54646829Y-22306012D01*
X54736241Y-22305850D01*
X54823256Y-22305386D01*
X54905897Y-22304651D01*
X54982185Y-22303677D01*
X55050141Y-22302494D01*
X55107788Y-22301135D01*
X55153148Y-22299629D01*
X55184241Y-22298008D01*
X55191005Y-22297456D01*
X55311980Y-22279754D01*
X55421983Y-22250903D01*
X55520521Y-22211352D01*
X55607105Y-22161552D01*
X55681245Y-22101955D01*
X55742449Y-22033010D01*
X55790228Y-21955167D01*
X55824091Y-21868879D01*
X55843546Y-21774594D01*
X55848409Y-21693615D01*
X55842583Y-21598940D01*
X55824518Y-21514538D01*
X55793331Y-21438175D01*
X55748139Y-21367618D01*
X55696447Y-21308918D01*
X55625027Y-21248728D01*
X55541420Y-21199481D01*
X55445379Y-21161080D01*
X55336661Y-21133431D01*
X55215019Y-21116436D01*
X55200710Y-21115202D01*
X55171331Y-21113518D01*
X55127134Y-21111942D01*
X55070194Y-21110506D01*
X55002587Y-21109243D01*
X54926388Y-21108185D01*
X54843673Y-21107364D01*
X54756518Y-21106813D01*
X54666997Y-21106563D01*
X54643491Y-21106551D01*
X54192805Y-21106551D01*
X53846480Y-21106551D01*
X53846480Y-20794014D01*
X54531016Y-20794014D01*
X54665153Y-20794133D01*
X54665153Y-20794133D01*
G37*
X54665153Y-20794133D02*
X54788764Y-20794483D01*
X54901072Y-20795055D01*
X55001300Y-20795840D01*
X55088670Y-20796829D01*
X55162406Y-20798013D01*
X55221730Y-20799383D01*
X55265865Y-20800930D01*
X55294035Y-20802644D01*
X55297578Y-20802994D01*
X55439713Y-20825036D01*
X55570969Y-20858654D01*
X55690947Y-20903519D01*
X55799244Y-20959298D01*
X55895460Y-21025662D01*
X55979194Y-21102280D01*
X56050046Y-21188820D01*
X56107615Y-21284951D01*
X56151499Y-21390343D01*
X56181299Y-21504665D01*
X56186929Y-21537346D01*
X56191966Y-21587217D01*
X56193929Y-21647331D01*
X56193031Y-21712747D01*
X56189487Y-21778525D01*
X56183509Y-21839726D01*
X56175313Y-21891408D01*
X56170741Y-21911058D01*
X56132892Y-22023413D01*
X56082228Y-22125377D01*
X56018578Y-22217096D01*
X55941770Y-22298715D01*
X55851631Y-22370383D01*
X55747989Y-22432244D01*
X55630672Y-22484446D01*
X55499508Y-22527135D01*
X55423965Y-22546033D01*
X55420161Y-22547251D01*
X55417727Y-22549520D01*
X55417255Y-22553678D01*
X55419337Y-22560563D01*
X55424565Y-22571014D01*
X55433530Y-22585868D01*
X55446824Y-22605965D01*
X55465040Y-22632143D01*
X55488770Y-22665239D01*
X55518604Y-22706093D01*
X55555136Y-22755543D01*
X55598957Y-22814427D01*
X55650659Y-22883584D01*
X55710834Y-22963851D01*
X55780074Y-23056068D01*
X55846313Y-23144227D01*
X55912789Y-23232712D01*
X55976415Y-23317444D01*
X56036452Y-23397436D01*
X56092158Y-23471698D01*
X56142794Y-23539244D01*
X56187619Y-23599085D01*
X56225893Y-23650233D01*
X56256876Y-23691699D01*
X56279828Y-23722495D01*
X56294007Y-23741634D01*
X56298629Y-23748028D01*
X56297821Y-23751475D01*
X56289515Y-23754146D01*
X56272090Y-23756128D01*
X56243923Y-23757507D01*
X56203394Y-23758370D01*
X56148882Y-23758802D01*
X56094583Y-23758896D01*
X55883782Y-23758896D01*
X55455253Y-23184503D01*
X55026725Y-22610110D01*
X54192805Y-22610110D01*
X54192805Y-23758896D01*
X53846480Y-23758896D01*
X53846480Y-21106551D01*
X54192805Y-21106551D01*
X54192805Y-22306019D01*
X54646829Y-22306012D01*
X54736241Y-22305850D01*
X54823256Y-22305386D01*
X54905897Y-22304651D01*
X54982185Y-22303677D01*
X55050141Y-22302494D01*
X55107788Y-22301135D01*
X55153148Y-22299629D01*
X55184241Y-22298008D01*
X55191005Y-22297456D01*
X55311980Y-22279754D01*
X55421983Y-22250903D01*
X55520521Y-22211352D01*
X55607105Y-22161552D01*
X55681245Y-22101955D01*
X55742449Y-22033010D01*
X55790228Y-21955167D01*
X55824091Y-21868879D01*
X55843546Y-21774594D01*
X55848409Y-21693615D01*
X55842583Y-21598940D01*
X55824518Y-21514538D01*
X55793331Y-21438175D01*
X55748139Y-21367618D01*
X55696447Y-21308918D01*
X55625027Y-21248728D01*
X55541420Y-21199481D01*
X55445379Y-21161080D01*
X55336661Y-21133431D01*
X55215019Y-21116436D01*
X55200710Y-21115202D01*
X55171331Y-21113518D01*
X55127134Y-21111942D01*
X55070194Y-21110506D01*
X55002587Y-21109243D01*
X54926388Y-21108185D01*
X54843673Y-21107364D01*
X54756518Y-21106813D01*
X54666997Y-21106563D01*
X54643491Y-21106551D01*
X54192805Y-21106551D01*
X53846480Y-21106551D01*
X53846480Y-20794014D01*
X54531016Y-20794014D01*
X54665153Y-20794133D01*
G36*
X61748670Y-20746899D02*
X61814971Y-20752042D01*
X61973204Y-20774022D01*
X62122008Y-20809402D01*
X62263072Y-20858866D01*
X62398084Y-20923094D01*
X62528733Y-21002769D01*
X62639762Y-21084859D01*
X62682911Y-21120200D01*
X62720623Y-21152690D01*
X62751052Y-21180612D01*
X62772352Y-21202251D01*
X62782676Y-21215892D01*
X62783360Y-21218297D01*
X62777805Y-21226746D01*
X62762601Y-21244864D01*
X62739943Y-21270330D01*
X62712023Y-21300824D01*
X62681037Y-21334025D01*
X62649178Y-21367612D01*
X62618640Y-21399263D01*
X62591616Y-21426659D01*
X62570301Y-21447478D01*
X62556888Y-21459399D01*
X62553634Y-21461324D01*
X62544326Y-21455976D01*
X62525756Y-21441585D01*
X62501016Y-21420631D01*
X62484089Y-21405570D01*
X62367821Y-21310779D01*
X62244258Y-21230051D01*
X62114723Y-21164049D01*
X61980539Y-21113441D01*
X61843031Y-21078890D01*
X61828968Y-21076312D01*
X61771878Y-21069004D01*
X61703664Y-21064676D01*
X61629831Y-21063324D01*
X61555882Y-21064942D01*
X61487323Y-21069525D01*
X61431847Y-21076681D01*
X61299224Y-21107749D01*
X61174639Y-21153505D01*
X61057521Y-21214249D01*
X60947299Y-21290278D01*
X60843401Y-21381890D01*
X60839954Y-21385301D01*
X60746805Y-21489046D01*
X60667624Y-21601551D01*
X60602120Y-21723374D01*
X60550001Y-21855069D01*
X60510976Y-21997192D01*
X60505436Y-22023353D01*
X60497590Y-22075956D01*
X60492279Y-22140951D01*
X60489470Y-22214031D01*
X60489132Y-22290891D01*
X60491232Y-22367225D01*
X60495738Y-22438727D01*
X60502618Y-22501091D01*
X60509297Y-22539190D01*
X60548350Y-22683549D01*
X60600368Y-22818117D01*
X60664797Y-22942329D01*
X60741086Y-23055623D01*
X60828683Y-23157436D01*
X60927035Y-23247204D01*
X61035591Y-23324364D01*
X61153799Y-23388354D01*
X61281106Y-23438610D01*
X61416960Y-23474570D01*
X61428688Y-23476911D01*
X61486065Y-23485008D01*
X61554900Y-23489852D01*
X61630073Y-23491442D01*
X61706464Y-23489781D01*
X61778953Y-23484867D01*
X61841504Y-23476858D01*
X61952735Y-23452614D01*
X62059468Y-23417876D01*
X62163631Y-23371632D01*
X62267149Y-23312870D01*
X62371949Y-23240577D01*
X62479956Y-23153741D01*
X62515856Y-23122410D01*
X62582006Y-23063636D01*
X62691130Y-23172517D01*
X62725894Y-23207610D01*
X62756082Y-23238860D01*
X62779800Y-23264241D01*
X62795149Y-23281726D01*
X62800254Y-23289161D01*
X62794247Y-23298012D01*
X62777780Y-23315693D01*
X62753190Y-23339998D01*
X62722810Y-23368723D01*
X62688975Y-23399665D01*
X62654019Y-23430619D01*
X62620278Y-23459381D01*
X62617760Y-23461472D01*
X62488748Y-23557979D01*
X62353561Y-23638762D01*
X62212158Y-23703840D01*
X62064497Y-23753230D01*
X61910537Y-23786951D01*
X61837864Y-23797173D01*
X61762633Y-23803812D01*
X61679613Y-23807468D01*
X61594239Y-23808143D01*
X61511944Y-23805842D01*
X61438161Y-23800568D01*
X61406506Y-23796865D01*
X61250921Y-23767353D01*
X61101954Y-23722626D01*
X60960413Y-23663329D01*
X60827104Y-23590111D01*
X60702836Y-23503619D01*
X60588415Y-23404499D01*
X60484649Y-23293399D01*
X60392345Y-23170965D01*
X60312310Y-23037846D01*
X60245352Y-22894687D01*
X60229104Y-22853019D01*
X60184307Y-22710659D01*
X60152930Y-22561069D01*
X60135025Y-22406998D01*
X60130648Y-22251199D01*
X60139851Y-22096421D01*
X60162690Y-21945418D01*
X60199218Y-21800939D01*
X60207907Y-21773861D01*
X60263307Y-21628688D01*
X60329414Y-21495360D01*
X60407650Y-21371605D01*
X60499436Y-21255154D01*
X60597310Y-21152286D01*
X60715197Y-21049523D01*
X60841396Y-20961355D01*
X60975470Y-20887927D01*
X61116982Y-20829381D01*
X61265495Y-20785862D01*
X61420572Y-20757513D01*
X61581776Y-20744477D01*
X61748670Y-20746899D01*
X61748670Y-20746899D01*
G37*
X61748670Y-20746899D02*
X61814971Y-20752042D01*
X61973204Y-20774022D01*
X62122008Y-20809402D01*
X62263072Y-20858866D01*
X62398084Y-20923094D01*
X62528733Y-21002769D01*
X62639762Y-21084859D01*
X62682911Y-21120200D01*
X62720623Y-21152690D01*
X62751052Y-21180612D01*
X62772352Y-21202251D01*
X62782676Y-21215892D01*
X62783360Y-21218297D01*
X62777805Y-21226746D01*
X62762601Y-21244864D01*
X62739943Y-21270330D01*
X62712023Y-21300824D01*
X62681037Y-21334025D01*
X62649178Y-21367612D01*
X62618640Y-21399263D01*
X62591616Y-21426659D01*
X62570301Y-21447478D01*
X62556888Y-21459399D01*
X62553634Y-21461324D01*
X62544326Y-21455976D01*
X62525756Y-21441585D01*
X62501016Y-21420631D01*
X62484089Y-21405570D01*
X62367821Y-21310779D01*
X62244258Y-21230051D01*
X62114723Y-21164049D01*
X61980539Y-21113441D01*
X61843031Y-21078890D01*
X61828968Y-21076312D01*
X61771878Y-21069004D01*
X61703664Y-21064676D01*
X61629831Y-21063324D01*
X61555882Y-21064942D01*
X61487323Y-21069525D01*
X61431847Y-21076681D01*
X61299224Y-21107749D01*
X61174639Y-21153505D01*
X61057521Y-21214249D01*
X60947299Y-21290278D01*
X60843401Y-21381890D01*
X60839954Y-21385301D01*
X60746805Y-21489046D01*
X60667624Y-21601551D01*
X60602120Y-21723374D01*
X60550001Y-21855069D01*
X60510976Y-21997192D01*
X60505436Y-22023353D01*
X60497590Y-22075956D01*
X60492279Y-22140951D01*
X60489470Y-22214031D01*
X60489132Y-22290891D01*
X60491232Y-22367225D01*
X60495738Y-22438727D01*
X60502618Y-22501091D01*
X60509297Y-22539190D01*
X60548350Y-22683549D01*
X60600368Y-22818117D01*
X60664797Y-22942329D01*
X60741086Y-23055623D01*
X60828683Y-23157436D01*
X60927035Y-23247204D01*
X61035591Y-23324364D01*
X61153799Y-23388354D01*
X61281106Y-23438610D01*
X61416960Y-23474570D01*
X61428688Y-23476911D01*
X61486065Y-23485008D01*
X61554900Y-23489852D01*
X61630073Y-23491442D01*
X61706464Y-23489781D01*
X61778953Y-23484867D01*
X61841504Y-23476858D01*
X61952735Y-23452614D01*
X62059468Y-23417876D01*
X62163631Y-23371632D01*
X62267149Y-23312870D01*
X62371949Y-23240577D01*
X62479956Y-23153741D01*
X62515856Y-23122410D01*
X62582006Y-23063636D01*
X62691130Y-23172517D01*
X62725894Y-23207610D01*
X62756082Y-23238860D01*
X62779800Y-23264241D01*
X62795149Y-23281726D01*
X62800254Y-23289161D01*
X62794247Y-23298012D01*
X62777780Y-23315693D01*
X62753190Y-23339998D01*
X62722810Y-23368723D01*
X62688975Y-23399665D01*
X62654019Y-23430619D01*
X62620278Y-23459381D01*
X62617760Y-23461472D01*
X62488748Y-23557979D01*
X62353561Y-23638762D01*
X62212158Y-23703840D01*
X62064497Y-23753230D01*
X61910537Y-23786951D01*
X61837864Y-23797173D01*
X61762633Y-23803812D01*
X61679613Y-23807468D01*
X61594239Y-23808143D01*
X61511944Y-23805842D01*
X61438161Y-23800568D01*
X61406506Y-23796865D01*
X61250921Y-23767353D01*
X61101954Y-23722626D01*
X60960413Y-23663329D01*
X60827104Y-23590111D01*
X60702836Y-23503619D01*
X60588415Y-23404499D01*
X60484649Y-23293399D01*
X60392345Y-23170965D01*
X60312310Y-23037846D01*
X60245352Y-22894687D01*
X60229104Y-22853019D01*
X60184307Y-22710659D01*
X60152930Y-22561069D01*
X60135025Y-22406998D01*
X60130648Y-22251199D01*
X60139851Y-22096421D01*
X60162690Y-21945418D01*
X60199218Y-21800939D01*
X60207907Y-21773861D01*
X60263307Y-21628688D01*
X60329414Y-21495360D01*
X60407650Y-21371605D01*
X60499436Y-21255154D01*
X60597310Y-21152286D01*
X60715197Y-21049523D01*
X60841396Y-20961355D01*
X60975470Y-20887927D01*
X61116982Y-20829381D01*
X61265495Y-20785862D01*
X61420572Y-20757513D01*
X61581776Y-20744477D01*
X61748670Y-20746899D01*
G36*
X58276909Y-20745961D02*
X58439580Y-20759347D01*
X58593672Y-20786992D01*
X58740020Y-20829124D01*
X58879455Y-20885970D01*
X58981096Y-20939029D01*
X59113213Y-21024054D01*
X59233015Y-21120521D01*
X59340735Y-21228683D01*
X59436605Y-21348791D01*
X59520855Y-21481097D01*
X59573531Y-21582123D01*
X59616827Y-21679702D01*
X59651752Y-21775398D01*
X59680653Y-21876167D01*
X59698086Y-21951247D01*
X59705200Y-21985533D01*
X59710654Y-22015537D01*
X59714672Y-22044346D01*
X59717477Y-22075044D01*
X59719291Y-22110718D01*
X59720339Y-22154452D01*
X59720844Y-22209332D01*
X59721015Y-22268008D01*
X59720484Y-22354973D01*
X59718247Y-22428811D01*
X59713773Y-22493249D01*
X59706534Y-22552011D01*
X59695999Y-22608825D01*
X59681638Y-22667417D01*
X59662921Y-22731512D01*
X59648735Y-22776144D01*
X59592092Y-22924185D01*
X59521541Y-23063644D01*
X59437936Y-23193713D01*
X59342132Y-23313587D01*
X59234983Y-23422460D01*
X59117343Y-23519526D01*
X58990068Y-23603978D01*
X58854011Y-23675011D01*
X58710027Y-23731819D01*
X58602117Y-23763413D01*
X58500720Y-23784248D01*
X58388988Y-23798979D01*
X58272468Y-23807256D01*
X58156709Y-23808730D01*
X58047260Y-23803048D01*
X58019277Y-23800216D01*
X57869130Y-23775284D01*
X57722181Y-23734633D01*
X57576773Y-23677770D01*
X57525130Y-23653552D01*
X57390404Y-23578449D01*
X57265968Y-23490367D01*
X57152380Y-23390141D01*
X57050203Y-23278603D01*
X56959997Y-23156587D01*
X56882322Y-23024928D01*
X56817739Y-22884458D01*
X56766810Y-22736012D01*
X56730094Y-22580422D01*
X56710400Y-22442387D01*
X56702169Y-22281964D01*
X56705162Y-22219064D01*
X57059616Y-22219064D01*
X57061386Y-22359876D01*
X57077693Y-22499963D01*
X57108716Y-22637499D01*
X57145352Y-22747322D01*
X57203196Y-22875008D01*
X57273770Y-22992727D01*
X57356033Y-23099784D01*
X57448941Y-23195483D01*
X57551450Y-23279128D01*
X57662519Y-23350024D01*
X57781105Y-23407475D01*
X57906163Y-23450786D01*
X58036652Y-23479261D01*
X58171528Y-23492203D01*
X58261693Y-23491931D01*
X58309168Y-23489044D01*
X58359038Y-23484553D01*
X58403788Y-23479192D01*
X58423993Y-23476052D01*
X58555684Y-23444527D01*
X58681118Y-23397828D01*
X58799291Y-23336840D01*
X58909199Y-23262446D01*
X59009835Y-23175531D01*
X59100196Y-23076979D01*
X59179276Y-22967673D01*
X59246070Y-22848497D01*
X59299575Y-22720335D01*
X59306627Y-22699682D01*
X59326344Y-22636916D01*
X59341348Y-22580235D01*
X59352216Y-22525561D01*
X59359527Y-22468815D01*
X59363860Y-22405918D01*
X59365792Y-22332792D01*
X59366038Y-22280678D01*
X59365739Y-22216188D01*
X59364830Y-22165180D01*
X59363069Y-22124245D01*
X59360217Y-22089976D01*
X59356033Y-22058964D01*
X59350277Y-22027801D01*
X59347150Y-22013008D01*
X59308097Y-21869521D01*
X59255377Y-21735878D01*
X59188824Y-21611769D01*
X59108271Y-21496881D01*
X59016060Y-21393413D01*
X58912013Y-21300367D01*
X58800584Y-21222493D01*
X58682044Y-21159903D01*
X58556662Y-21112709D01*
X58424710Y-21081022D01*
X58286458Y-21064954D01*
X58213557Y-21062808D01*
X58071621Y-21070580D01*
X57935528Y-21094016D01*
X57805944Y-21132761D01*
X57683541Y-21186461D01*
X57568986Y-21254759D01*
X57462948Y-21337300D01*
X57366098Y-21433728D01*
X57279104Y-21543690D01*
X57262461Y-21568001D01*
X57194270Y-21685065D01*
X57139708Y-21810528D01*
X57098958Y-21942565D01*
X57072200Y-22079353D01*
X57059616Y-22219064D01*
X56705162Y-22219064D01*
X56709710Y-22123503D01*
X56732506Y-21968143D01*
X56770039Y-21817021D01*
X56821792Y-21671275D01*
X56887248Y-21532043D01*
X56965890Y-21400464D01*
X57057200Y-21277675D01*
X57160662Y-21164814D01*
X57275759Y-21063019D01*
X57367955Y-20995592D01*
X57501790Y-20915750D01*
X57643046Y-20850888D01*
X57790932Y-20801224D01*
X57944654Y-20766976D01*
X58103422Y-20748361D01*
X58266444Y-20745597D01*
X58276909Y-20745961D01*
X58276909Y-20745961D01*
G37*
X58276909Y-20745961D02*
X58439580Y-20759347D01*
X58593672Y-20786992D01*
X58740020Y-20829124D01*
X58879455Y-20885970D01*
X58981096Y-20939029D01*
X59113213Y-21024054D01*
X59233015Y-21120521D01*
X59340735Y-21228683D01*
X59436605Y-21348791D01*
X59520855Y-21481097D01*
X59573531Y-21582123D01*
X59616827Y-21679702D01*
X59651752Y-21775398D01*
X59680653Y-21876167D01*
X59698086Y-21951247D01*
X59705200Y-21985533D01*
X59710654Y-22015537D01*
X59714672Y-22044346D01*
X59717477Y-22075044D01*
X59719291Y-22110718D01*
X59720339Y-22154452D01*
X59720844Y-22209332D01*
X59721015Y-22268008D01*
X59720484Y-22354973D01*
X59718247Y-22428811D01*
X59713773Y-22493249D01*
X59706534Y-22552011D01*
X59695999Y-22608825D01*
X59681638Y-22667417D01*
X59662921Y-22731512D01*
X59648735Y-22776144D01*
X59592092Y-22924185D01*
X59521541Y-23063644D01*
X59437936Y-23193713D01*
X59342132Y-23313587D01*
X59234983Y-23422460D01*
X59117343Y-23519526D01*
X58990068Y-23603978D01*
X58854011Y-23675011D01*
X58710027Y-23731819D01*
X58602117Y-23763413D01*
X58500720Y-23784248D01*
X58388988Y-23798979D01*
X58272468Y-23807256D01*
X58156709Y-23808730D01*
X58047260Y-23803048D01*
X58019277Y-23800216D01*
X57869130Y-23775284D01*
X57722181Y-23734633D01*
X57576773Y-23677770D01*
X57525130Y-23653552D01*
X57390404Y-23578449D01*
X57265968Y-23490367D01*
X57152380Y-23390141D01*
X57050203Y-23278603D01*
X56959997Y-23156587D01*
X56882322Y-23024928D01*
X56817739Y-22884458D01*
X56766810Y-22736012D01*
X56730094Y-22580422D01*
X56710400Y-22442387D01*
X56702169Y-22281964D01*
X56705162Y-22219064D01*
X57059616Y-22219064D01*
X57061386Y-22359876D01*
X57077693Y-22499963D01*
X57108716Y-22637499D01*
X57145352Y-22747322D01*
X57203196Y-22875008D01*
X57273770Y-22992727D01*
X57356033Y-23099784D01*
X57448941Y-23195483D01*
X57551450Y-23279128D01*
X57662519Y-23350024D01*
X57781105Y-23407475D01*
X57906163Y-23450786D01*
X58036652Y-23479261D01*
X58171528Y-23492203D01*
X58261693Y-23491931D01*
X58309168Y-23489044D01*
X58359038Y-23484553D01*
X58403788Y-23479192D01*
X58423993Y-23476052D01*
X58555684Y-23444527D01*
X58681118Y-23397828D01*
X58799291Y-23336840D01*
X58909199Y-23262446D01*
X59009835Y-23175531D01*
X59100196Y-23076979D01*
X59179276Y-22967673D01*
X59246070Y-22848497D01*
X59299575Y-22720335D01*
X59306627Y-22699682D01*
X59326344Y-22636916D01*
X59341348Y-22580235D01*
X59352216Y-22525561D01*
X59359527Y-22468815D01*
X59363860Y-22405918D01*
X59365792Y-22332792D01*
X59366038Y-22280678D01*
X59365739Y-22216188D01*
X59364830Y-22165180D01*
X59363069Y-22124245D01*
X59360217Y-22089976D01*
X59356033Y-22058964D01*
X59350277Y-22027801D01*
X59347150Y-22013008D01*
X59308097Y-21869521D01*
X59255377Y-21735878D01*
X59188824Y-21611769D01*
X59108271Y-21496881D01*
X59016060Y-21393413D01*
X58912013Y-21300367D01*
X58800584Y-21222493D01*
X58682044Y-21159903D01*
X58556662Y-21112709D01*
X58424710Y-21081022D01*
X58286458Y-21064954D01*
X58213557Y-21062808D01*
X58071621Y-21070580D01*
X57935528Y-21094016D01*
X57805944Y-21132761D01*
X57683541Y-21186461D01*
X57568986Y-21254759D01*
X57462948Y-21337300D01*
X57366098Y-21433728D01*
X57279104Y-21543690D01*
X57262461Y-21568001D01*
X57194270Y-21685065D01*
X57139708Y-21810528D01*
X57098958Y-21942565D01*
X57072200Y-22079353D01*
X57059616Y-22219064D01*
X56705162Y-22219064D01*
X56709710Y-22123503D01*
X56732506Y-21968143D01*
X56770039Y-21817021D01*
X56821792Y-21671275D01*
X56887248Y-21532043D01*
X56965890Y-21400464D01*
X57057200Y-21277675D01*
X57160662Y-21164814D01*
X57275759Y-21063019D01*
X57367955Y-20995592D01*
X57501790Y-20915750D01*
X57643046Y-20850888D01*
X57790932Y-20801224D01*
X57944654Y-20766976D01*
X58103422Y-20748361D01*
X58266444Y-20745597D01*
X58276909Y-20745961D01*
G36*
X52261093Y-19190803D02*
X52255405Y-19214435D01*
X52246056Y-19252297D01*
X52233315Y-19303324D01*
X52217452Y-19366448D01*
X52198737Y-19440605D01*
X52177439Y-19524726D01*
X52153827Y-19617746D01*
X52128172Y-19718598D01*
X52100743Y-19826216D01*
X52071810Y-19939534D01*
X52042406Y-20054497D01*
X52012265Y-20172326D01*
X51983359Y-20285480D01*
X51955958Y-20392896D01*
X51930332Y-20493507D01*
X51906752Y-20586249D01*
X51885486Y-20670056D01*
X51866806Y-20743864D01*
X51850980Y-20806608D01*
X51838279Y-20857222D01*
X51828973Y-20894642D01*
X51823331Y-20917803D01*
X51821617Y-20925639D01*
X51829115Y-20929984D01*
X51849774Y-20941764D01*
X51882045Y-20960102D01*
X51924382Y-20984120D01*
X51975237Y-21012940D01*
X52033063Y-21045684D01*
X52096313Y-21081476D01*
X52125956Y-21098243D01*
X52190825Y-21135174D01*
X52250602Y-21169680D01*
X52303792Y-21200861D01*
X52348899Y-21227820D01*
X52384428Y-21249657D01*
X52408882Y-21265474D01*
X52420766Y-21274371D01*
X52421600Y-21275892D01*
X52413945Y-21281095D01*
X52392817Y-21295087D01*
X52358893Y-21317424D01*
X52312848Y-21347666D01*
X52255358Y-21385370D01*
X52187101Y-21430093D01*
X52108751Y-21481393D01*
X52020985Y-21538828D01*
X51924479Y-21601956D01*
X51819910Y-21670333D01*
X51707953Y-21743518D01*
X51589284Y-21821069D01*
X51464580Y-21902543D01*
X51334517Y-21987497D01*
X51199770Y-22075490D01*
X51061017Y-22166079D01*
X51008302Y-22200490D01*
X50868308Y-22291875D01*
X50732110Y-22380787D01*
X50600382Y-22466788D01*
X50473796Y-22549438D01*
X50353025Y-22628297D01*
X50238743Y-22702926D01*
X50131622Y-22772885D01*
X50032335Y-22837735D01*
X49941556Y-22897035D01*
X49859957Y-22950346D01*
X49788212Y-22997229D01*
X49726993Y-23037244D01*
X49676973Y-23069952D01*
X49638826Y-23094912D01*
X49613224Y-23111686D01*
X49600841Y-23119833D01*
X49599741Y-23120575D01*
X49601872Y-23128756D01*
X49608729Y-23151717D01*
X49619901Y-23188145D01*
X49634977Y-23236727D01*
X49653546Y-23296149D01*
X49675198Y-23365099D01*
X49699520Y-23442262D01*
X49726102Y-23526325D01*
X49754532Y-23615975D01*
X49771539Y-23669487D01*
X49800813Y-23761834D01*
X49828390Y-23849431D01*
X49853864Y-23930955D01*
X49876832Y-24005083D01*
X49896890Y-24070492D01*
X49913634Y-24125860D01*
X49926659Y-24169864D01*
X49935562Y-24201182D01*
X49939937Y-24218491D01*
X49940250Y-24221583D01*
X49931409Y-24221193D01*
X49906724Y-24218877D01*
X49867122Y-24214740D01*
X49813529Y-24208890D01*
X49746872Y-24201434D01*
X49668079Y-24192480D01*
X49578076Y-24182133D01*
X49477790Y-24170503D01*
X49368148Y-24157694D01*
X49250076Y-24143815D01*
X49124502Y-24128973D01*
X48992353Y-24113275D01*
X48854554Y-24096828D01*
X48712034Y-24079739D01*
X48690896Y-24077198D01*
X47446772Y-23927583D01*
X46216545Y-24075531D01*
X46073894Y-24092668D01*
X45935633Y-24109243D01*
X45802711Y-24125144D01*
X45676078Y-24140259D01*
X45556681Y-24154475D01*
X45445471Y-24167680D01*
X45343397Y-24179762D01*
X45251408Y-24190609D01*
X45170453Y-24200109D01*
X45101482Y-24208150D01*
X45045443Y-24214619D01*
X45003286Y-24219405D01*
X44975961Y-24222395D01*
X44964415Y-24223477D01*
X44964283Y-24223479D01*
X44948791Y-24221420D01*
X44946178Y-24212236D01*
X44948221Y-24204473D01*
X44951769Y-24193271D01*
X44959984Y-24167383D01*
X44972417Y-24128222D01*
X44988620Y-24077204D01*
X45008142Y-24015742D01*
X45030535Y-23945251D01*
X45055349Y-23867144D01*
X45082135Y-23782836D01*
X45110445Y-23693741D01*
X45117924Y-23670203D01*
X45146519Y-23580169D01*
X45173665Y-23494603D01*
X45198919Y-23414913D01*
X45221835Y-23342507D01*
X45241968Y-23278792D01*
X45258875Y-23225177D01*
X45272109Y-23183069D01*
X45281227Y-23153875D01*
X45285784Y-23139005D01*
X45286168Y-23137654D01*
X45285380Y-23134730D01*
X45281527Y-23130002D01*
X45274055Y-23123101D01*
X45262412Y-23113657D01*
X45246043Y-23101302D01*
X45224396Y-23085666D01*
X45196916Y-23066381D01*
X45163051Y-23043078D01*
X45122247Y-23015387D01*
X45073951Y-22982939D01*
X45017608Y-22945366D01*
X44952666Y-22902299D01*
X44878572Y-22853368D01*
X44794771Y-22798205D01*
X44700710Y-22736440D01*
X44595836Y-22667705D01*
X44479596Y-22591631D01*
X44351435Y-22507847D01*
X44210801Y-22415987D01*
X44057141Y-22315680D01*
X43889899Y-22206557D01*
X43879912Y-22200042D01*
X43739711Y-22108531D01*
X43603348Y-22019429D01*
X43471494Y-21933178D01*
X43344819Y-21850220D01*
X43223992Y-21770996D01*
X43109684Y-21695948D01*
X43002565Y-21625518D01*
X42903304Y-21560148D01*
X42812571Y-21500280D01*
X42731037Y-21446355D01*
X42659372Y-21398816D01*
X42598245Y-21358103D01*
X42548326Y-21324660D01*
X42510286Y-21298927D01*
X42484795Y-21281346D01*
X42472522Y-21272360D01*
X42471465Y-21271267D01*
X42479088Y-21265358D01*
X42499838Y-21252109D01*
X42532117Y-21232469D01*
X42574329Y-21207382D01*
X42624878Y-21177797D01*
X42682167Y-21144659D01*
X42744600Y-21108915D01*
X42760415Y-21099916D01*
X42824224Y-21063641D01*
X42883662Y-21029834D01*
X42937072Y-20999438D01*
X42982797Y-20973397D01*
X43019180Y-20952655D01*
X43044564Y-20938156D01*
X43057291Y-20930843D01*
X43058246Y-20930282D01*
X43059298Y-20926031D01*
X43058412Y-20915119D01*
X43055404Y-20896772D01*
X43050086Y-20870216D01*
X43042272Y-20834679D01*
X43031777Y-20789389D01*
X43018413Y-20733572D01*
X43001995Y-20666456D01*
X42982336Y-20587267D01*
X42959251Y-20495233D01*
X42932552Y-20389581D01*
X42902054Y-20269539D01*
X42867570Y-20134332D01*
X42847659Y-20056439D01*
X42817600Y-19938727D01*
X42788818Y-19825646D01*
X42761582Y-19718267D01*
X42736157Y-19617662D01*
X42712813Y-19524899D01*
X42691816Y-19441051D01*
X42673433Y-19367188D01*
X42657933Y-19304380D01*
X42645581Y-19253698D01*
X42636647Y-19216214D01*
X42631397Y-19192998D01*
X42630068Y-19185129D01*
X42638818Y-19186052D01*
X42662878Y-19190009D01*
X42700985Y-19196763D01*
X42751875Y-19206076D01*
X42814284Y-19217710D01*
X42886949Y-19231428D01*
X42968606Y-19246993D01*
X43057991Y-19264166D01*
X43153840Y-19282710D01*
X43254891Y-19302388D01*
X43284120Y-19308103D01*
X43933976Y-19435274D01*
X43962353Y-19466340D01*
X43976696Y-19483091D01*
X43999024Y-19510446D01*
X44027078Y-19545578D01*
X44058596Y-19585659D01*
X44087375Y-19622742D01*
X44230913Y-19814284D01*
X44377451Y-20020161D01*
X44525802Y-20238340D01*
X44674783Y-20466789D01*
X44823209Y-20703475D01*
X44969893Y-20946366D01*
X45113653Y-21193429D01*
X45253301Y-21442631D01*
X45387655Y-21691941D01*
X45515528Y-21939324D01*
X45635736Y-22182750D01*
X45747094Y-22420185D01*
X45838739Y-22627004D01*
X45888260Y-22744953D01*
X45936981Y-22866255D01*
X45983980Y-22988343D01*
X46028337Y-23108647D01*
X46069130Y-23224597D01*
X46105438Y-23333625D01*
X46136339Y-23433162D01*
X46160912Y-23520638D01*
X46165163Y-23537163D01*
X46175003Y-23574472D01*
X46183822Y-23604898D01*
X46190628Y-23625209D01*
X46194331Y-23632192D01*
X46203599Y-23626029D01*
X46222548Y-23608510D01*
X46249849Y-23581092D01*
X46284172Y-23545229D01*
X46324185Y-23502377D01*
X46368558Y-23453991D01*
X46415961Y-23401527D01*
X46465063Y-23346441D01*
X46514533Y-23290187D01*
X46563041Y-23234221D01*
X46609256Y-23179999D01*
X46626770Y-23159162D01*
X46754146Y-23002387D01*
X46872795Y-22846494D01*
X46984912Y-22688224D01*
X47092692Y-22524316D01*
X47198329Y-22351509D01*
X47304020Y-22166545D01*
X47343264Y-22094953D01*
X47370384Y-22045344D01*
X47394977Y-22001082D01*
X47415875Y-21964208D01*
X47431912Y-21936767D01*
X47441917Y-21920803D01*
X47444666Y-21917545D01*
X47449996Y-21924619D01*
X47462116Y-21944510D01*
X47479835Y-21975141D01*
X47501965Y-22014438D01*
X47527315Y-22060325D01*
X47542970Y-22089040D01*
X47646416Y-22274508D01*
X47749235Y-22447850D01*
X47853519Y-22611999D01*
X47961357Y-22769890D01*
X48074842Y-22924458D01*
X48196064Y-23078637D01*
X48327114Y-23235362D01*
X48470084Y-23397567D01*
X48495129Y-23425241D01*
X48550550Y-23486051D01*
X48595722Y-23535073D01*
X48631552Y-23573206D01*
X48658943Y-23601349D01*
X48678802Y-23620404D01*
X48692034Y-23631268D01*
X48699544Y-23634842D01*
X48702238Y-23632026D01*
X48702283Y-23631089D01*
X48705051Y-23610551D01*
X48712924Y-23576177D01*
X48725250Y-23530012D01*
X48741383Y-23474105D01*
X48760671Y-23410502D01*
X48782466Y-23341251D01*
X48806118Y-23268397D01*
X48830978Y-23193990D01*
X48856397Y-23120074D01*
X48881726Y-23048699D01*
X48906314Y-22981910D01*
X48917614Y-22952212D01*
X49002469Y-22741015D01*
X49097836Y-22520221D01*
X49202693Y-22291613D01*
X49316017Y-22056971D01*
X49436786Y-21818078D01*
X49563975Y-21576714D01*
X49696564Y-21334661D01*
X49833528Y-21093701D01*
X49973845Y-20855615D01*
X50116493Y-20622185D01*
X50260449Y-20395191D01*
X50404689Y-20176417D01*
X50548192Y-19967642D01*
X50689934Y-19770649D01*
X50828892Y-19587220D01*
X50903422Y-19493183D01*
X50947700Y-19438277D01*
X51604195Y-19309172D01*
X51706952Y-19288999D01*
X51804826Y-19269853D01*
X51896564Y-19251973D01*
X51980916Y-19235601D01*
X52056630Y-19220978D01*
X52122452Y-19208345D01*
X52177132Y-19197942D01*
X52219417Y-19190010D01*
X52248056Y-19184791D01*
X52261796Y-19182524D01*
X52262851Y-19182468D01*
X52261093Y-19190803D01*
X52261093Y-19190803D01*
G37*
X52261093Y-19190803D02*
X52255405Y-19214435D01*
X52246056Y-19252297D01*
X52233315Y-19303324D01*
X52217452Y-19366448D01*
X52198737Y-19440605D01*
X52177439Y-19524726D01*
X52153827Y-19617746D01*
X52128172Y-19718598D01*
X52100743Y-19826216D01*
X52071810Y-19939534D01*
X52042406Y-20054497D01*
X52012265Y-20172326D01*
X51983359Y-20285480D01*
X51955958Y-20392896D01*
X51930332Y-20493507D01*
X51906752Y-20586249D01*
X51885486Y-20670056D01*
X51866806Y-20743864D01*
X51850980Y-20806608D01*
X51838279Y-20857222D01*
X51828973Y-20894642D01*
X51823331Y-20917803D01*
X51821617Y-20925639D01*
X51829115Y-20929984D01*
X51849774Y-20941764D01*
X51882045Y-20960102D01*
X51924382Y-20984120D01*
X51975237Y-21012940D01*
X52033063Y-21045684D01*
X52096313Y-21081476D01*
X52125956Y-21098243D01*
X52190825Y-21135174D01*
X52250602Y-21169680D01*
X52303792Y-21200861D01*
X52348899Y-21227820D01*
X52384428Y-21249657D01*
X52408882Y-21265474D01*
X52420766Y-21274371D01*
X52421600Y-21275892D01*
X52413945Y-21281095D01*
X52392817Y-21295087D01*
X52358893Y-21317424D01*
X52312848Y-21347666D01*
X52255358Y-21385370D01*
X52187101Y-21430093D01*
X52108751Y-21481393D01*
X52020985Y-21538828D01*
X51924479Y-21601956D01*
X51819910Y-21670333D01*
X51707953Y-21743518D01*
X51589284Y-21821069D01*
X51464580Y-21902543D01*
X51334517Y-21987497D01*
X51199770Y-22075490D01*
X51061017Y-22166079D01*
X51008302Y-22200490D01*
X50868308Y-22291875D01*
X50732110Y-22380787D01*
X50600382Y-22466788D01*
X50473796Y-22549438D01*
X50353025Y-22628297D01*
X50238743Y-22702926D01*
X50131622Y-22772885D01*
X50032335Y-22837735D01*
X49941556Y-22897035D01*
X49859957Y-22950346D01*
X49788212Y-22997229D01*
X49726993Y-23037244D01*
X49676973Y-23069952D01*
X49638826Y-23094912D01*
X49613224Y-23111686D01*
X49600841Y-23119833D01*
X49599741Y-23120575D01*
X49601872Y-23128756D01*
X49608729Y-23151717D01*
X49619901Y-23188145D01*
X49634977Y-23236727D01*
X49653546Y-23296149D01*
X49675198Y-23365099D01*
X49699520Y-23442262D01*
X49726102Y-23526325D01*
X49754532Y-23615975D01*
X49771539Y-23669487D01*
X49800813Y-23761834D01*
X49828390Y-23849431D01*
X49853864Y-23930955D01*
X49876832Y-24005083D01*
X49896890Y-24070492D01*
X49913634Y-24125860D01*
X49926659Y-24169864D01*
X49935562Y-24201182D01*
X49939937Y-24218491D01*
X49940250Y-24221583D01*
X49931409Y-24221193D01*
X49906724Y-24218877D01*
X49867122Y-24214740D01*
X49813529Y-24208890D01*
X49746872Y-24201434D01*
X49668079Y-24192480D01*
X49578076Y-24182133D01*
X49477790Y-24170503D01*
X49368148Y-24157694D01*
X49250076Y-24143815D01*
X49124502Y-24128973D01*
X48992353Y-24113275D01*
X48854554Y-24096828D01*
X48712034Y-24079739D01*
X48690896Y-24077198D01*
X47446772Y-23927583D01*
X46216545Y-24075531D01*
X46073894Y-24092668D01*
X45935633Y-24109243D01*
X45802711Y-24125144D01*
X45676078Y-24140259D01*
X45556681Y-24154475D01*
X45445471Y-24167680D01*
X45343397Y-24179762D01*
X45251408Y-24190609D01*
X45170453Y-24200109D01*
X45101482Y-24208150D01*
X45045443Y-24214619D01*
X45003286Y-24219405D01*
X44975961Y-24222395D01*
X44964415Y-24223477D01*
X44964283Y-24223479D01*
X44948791Y-24221420D01*
X44946178Y-24212236D01*
X44948221Y-24204473D01*
X44951769Y-24193271D01*
X44959984Y-24167383D01*
X44972417Y-24128222D01*
X44988620Y-24077204D01*
X45008142Y-24015742D01*
X45030535Y-23945251D01*
X45055349Y-23867144D01*
X45082135Y-23782836D01*
X45110445Y-23693741D01*
X45117924Y-23670203D01*
X45146519Y-23580169D01*
X45173665Y-23494603D01*
X45198919Y-23414913D01*
X45221835Y-23342507D01*
X45241968Y-23278792D01*
X45258875Y-23225177D01*
X45272109Y-23183069D01*
X45281227Y-23153875D01*
X45285784Y-23139005D01*
X45286168Y-23137654D01*
X45285380Y-23134730D01*
X45281527Y-23130002D01*
X45274055Y-23123101D01*
X45262412Y-23113657D01*
X45246043Y-23101302D01*
X45224396Y-23085666D01*
X45196916Y-23066381D01*
X45163051Y-23043078D01*
X45122247Y-23015387D01*
X45073951Y-22982939D01*
X45017608Y-22945366D01*
X44952666Y-22902299D01*
X44878572Y-22853368D01*
X44794771Y-22798205D01*
X44700710Y-22736440D01*
X44595836Y-22667705D01*
X44479596Y-22591631D01*
X44351435Y-22507847D01*
X44210801Y-22415987D01*
X44057141Y-22315680D01*
X43889899Y-22206557D01*
X43879912Y-22200042D01*
X43739711Y-22108531D01*
X43603348Y-22019429D01*
X43471494Y-21933178D01*
X43344819Y-21850220D01*
X43223992Y-21770996D01*
X43109684Y-21695948D01*
X43002565Y-21625518D01*
X42903304Y-21560148D01*
X42812571Y-21500280D01*
X42731037Y-21446355D01*
X42659372Y-21398816D01*
X42598245Y-21358103D01*
X42548326Y-21324660D01*
X42510286Y-21298927D01*
X42484795Y-21281346D01*
X42472522Y-21272360D01*
X42471465Y-21271267D01*
X42479088Y-21265358D01*
X42499838Y-21252109D01*
X42532117Y-21232469D01*
X42574329Y-21207382D01*
X42624878Y-21177797D01*
X42682167Y-21144659D01*
X42744600Y-21108915D01*
X42760415Y-21099916D01*
X42824224Y-21063641D01*
X42883662Y-21029834D01*
X42937072Y-20999438D01*
X42982797Y-20973397D01*
X43019180Y-20952655D01*
X43044564Y-20938156D01*
X43057291Y-20930843D01*
X43058246Y-20930282D01*
X43059298Y-20926031D01*
X43058412Y-20915119D01*
X43055404Y-20896772D01*
X43050086Y-20870216D01*
X43042272Y-20834679D01*
X43031777Y-20789389D01*
X43018413Y-20733572D01*
X43001995Y-20666456D01*
X42982336Y-20587267D01*
X42959251Y-20495233D01*
X42932552Y-20389581D01*
X42902054Y-20269539D01*
X42867570Y-20134332D01*
X42847659Y-20056439D01*
X42817600Y-19938727D01*
X42788818Y-19825646D01*
X42761582Y-19718267D01*
X42736157Y-19617662D01*
X42712813Y-19524899D01*
X42691816Y-19441051D01*
X42673433Y-19367188D01*
X42657933Y-19304380D01*
X42645581Y-19253698D01*
X42636647Y-19216214D01*
X42631397Y-19192998D01*
X42630068Y-19185129D01*
X42638818Y-19186052D01*
X42662878Y-19190009D01*
X42700985Y-19196763D01*
X42751875Y-19206076D01*
X42814284Y-19217710D01*
X42886949Y-19231428D01*
X42968606Y-19246993D01*
X43057991Y-19264166D01*
X43153840Y-19282710D01*
X43254891Y-19302388D01*
X43284120Y-19308103D01*
X43933976Y-19435274D01*
X43962353Y-19466340D01*
X43976696Y-19483091D01*
X43999024Y-19510446D01*
X44027078Y-19545578D01*
X44058596Y-19585659D01*
X44087375Y-19622742D01*
X44230913Y-19814284D01*
X44377451Y-20020161D01*
X44525802Y-20238340D01*
X44674783Y-20466789D01*
X44823209Y-20703475D01*
X44969893Y-20946366D01*
X45113653Y-21193429D01*
X45253301Y-21442631D01*
X45387655Y-21691941D01*
X45515528Y-21939324D01*
X45635736Y-22182750D01*
X45747094Y-22420185D01*
X45838739Y-22627004D01*
X45888260Y-22744953D01*
X45936981Y-22866255D01*
X45983980Y-22988343D01*
X46028337Y-23108647D01*
X46069130Y-23224597D01*
X46105438Y-23333625D01*
X46136339Y-23433162D01*
X46160912Y-23520638D01*
X46165163Y-23537163D01*
X46175003Y-23574472D01*
X46183822Y-23604898D01*
X46190628Y-23625209D01*
X46194331Y-23632192D01*
X46203599Y-23626029D01*
X46222548Y-23608510D01*
X46249849Y-23581092D01*
X46284172Y-23545229D01*
X46324185Y-23502377D01*
X46368558Y-23453991D01*
X46415961Y-23401527D01*
X46465063Y-23346441D01*
X46514533Y-23290187D01*
X46563041Y-23234221D01*
X46609256Y-23179999D01*
X46626770Y-23159162D01*
X46754146Y-23002387D01*
X46872795Y-22846494D01*
X46984912Y-22688224D01*
X47092692Y-22524316D01*
X47198329Y-22351509D01*
X47304020Y-22166545D01*
X47343264Y-22094953D01*
X47370384Y-22045344D01*
X47394977Y-22001082D01*
X47415875Y-21964208D01*
X47431912Y-21936767D01*
X47441917Y-21920803D01*
X47444666Y-21917545D01*
X47449996Y-21924619D01*
X47462116Y-21944510D01*
X47479835Y-21975141D01*
X47501965Y-22014438D01*
X47527315Y-22060325D01*
X47542970Y-22089040D01*
X47646416Y-22274508D01*
X47749235Y-22447850D01*
X47853519Y-22611999D01*
X47961357Y-22769890D01*
X48074842Y-22924458D01*
X48196064Y-23078637D01*
X48327114Y-23235362D01*
X48470084Y-23397567D01*
X48495129Y-23425241D01*
X48550550Y-23486051D01*
X48595722Y-23535073D01*
X48631552Y-23573206D01*
X48658943Y-23601349D01*
X48678802Y-23620404D01*
X48692034Y-23631268D01*
X48699544Y-23634842D01*
X48702238Y-23632026D01*
X48702283Y-23631089D01*
X48705051Y-23610551D01*
X48712924Y-23576177D01*
X48725250Y-23530012D01*
X48741383Y-23474105D01*
X48760671Y-23410502D01*
X48782466Y-23341251D01*
X48806118Y-23268397D01*
X48830978Y-23193990D01*
X48856397Y-23120074D01*
X48881726Y-23048699D01*
X48906314Y-22981910D01*
X48917614Y-22952212D01*
X49002469Y-22741015D01*
X49097836Y-22520221D01*
X49202693Y-22291613D01*
X49316017Y-22056971D01*
X49436786Y-21818078D01*
X49563975Y-21576714D01*
X49696564Y-21334661D01*
X49833528Y-21093701D01*
X49973845Y-20855615D01*
X50116493Y-20622185D01*
X50260449Y-20395191D01*
X50404689Y-20176417D01*
X50548192Y-19967642D01*
X50689934Y-19770649D01*
X50828892Y-19587220D01*
X50903422Y-19493183D01*
X50947700Y-19438277D01*
X51604195Y-19309172D01*
X51706952Y-19288999D01*
X51804826Y-19269853D01*
X51896564Y-19251973D01*
X51980916Y-19235601D01*
X52056630Y-19220978D01*
X52122452Y-19208345D01*
X52177132Y-19197942D01*
X52219417Y-19190010D01*
X52248056Y-19184791D01*
X52261796Y-19182524D01*
X52262851Y-19182468D01*
X52261093Y-19190803D01*
D14*
G04 #@! TO.C,D1*
X54378000Y-47032000D02*
X54378000Y-45932000D01*
X54378000Y-45932000D02*
X51778000Y-45932000D01*
X54378000Y-47032000D02*
X51778000Y-47032000D01*
G04 #@! TO.C,D2*
X54294000Y-51096000D02*
X54294000Y-49996000D01*
X54294000Y-49996000D02*
X51694000Y-49996000D01*
X54294000Y-51096000D02*
X51694000Y-51096000D01*
G04 #@! TO.C,D3*
X54294000Y-42968000D02*
X51694000Y-42968000D01*
X54294000Y-41868000D02*
X51694000Y-41868000D01*
X54294000Y-42968000D02*
X54294000Y-41868000D01*
G04 #@! TO.C,D4*
X54378000Y-55160000D02*
X51778000Y-55160000D01*
X54378000Y-54060000D02*
X51778000Y-54060000D01*
X54378000Y-55160000D02*
X54378000Y-54060000D01*
G04 #@! TO.C,R5*
X45601000Y-45802000D02*
X46601000Y-45802000D01*
X46601000Y-47162000D02*
X45601000Y-47162000D01*
G04 #@! TO.C,R6*
X46601000Y-51226000D02*
X45601000Y-51226000D01*
X45601000Y-49866000D02*
X46601000Y-49866000D01*
G04 #@! TO.C,R7*
X46601000Y-43098000D02*
X45601000Y-43098000D01*
X45601000Y-41738000D02*
X46601000Y-41738000D01*
G04 #@! TO.C,R8*
X45601000Y-53930000D02*
X46601000Y-53930000D01*
X46601000Y-55290000D02*
X45601000Y-55290000D01*
D13*
G04 #@! TO.C,U1*
X31742000Y-41648000D02*
X31572000Y-41648000D01*
X31742000Y-39528000D02*
X31742000Y-41648000D01*
X15502000Y-25408000D02*
X15672000Y-25408000D01*
X15502000Y-25408000D02*
X15502000Y-27528000D01*
X15502000Y-41648000D02*
X15672000Y-41648000D01*
X15502000Y-39528000D02*
X15502000Y-41648000D01*
X31742000Y-25408000D02*
X31742000Y-33528000D01*
D14*
G04 #@! TO.C,J1*
X28240000Y-6870000D02*
X28240000Y-5540000D01*
X29570000Y-6870000D02*
X28240000Y-6870000D01*
X28240000Y-4270000D02*
X28240000Y-1670000D01*
X30840000Y-4270000D02*
X28240000Y-4270000D01*
X30840000Y-6870000D02*
X30840000Y-4270000D01*
X28240000Y-1670000D02*
X53760000Y-1670000D01*
X30840000Y-6870000D02*
X53760000Y-6870000D01*
X53760000Y-6870000D02*
X53760000Y-1670000D01*
G04 #@! TO.C,U2*
D12*
X20052095Y-53056380D02*
X20052095Y-53865904D01*
X20099714Y-53961142D01*
X20147333Y-54008761D01*
X20242571Y-54056380D01*
X20433047Y-54056380D01*
X20528285Y-54008761D01*
X20575904Y-53961142D01*
X20623523Y-53865904D01*
X20623523Y-53056380D01*
X21052095Y-53151619D02*
X21099714Y-53104000D01*
X21194952Y-53056380D01*
X21433047Y-53056380D01*
X21528285Y-53104000D01*
X21575904Y-53151619D01*
X21623523Y-53246857D01*
X21623523Y-53342095D01*
X21575904Y-53484952D01*
X21004476Y-54056380D01*
X21623523Y-54056380D01*
G04 #@! TO.C,C1*
X25487333Y-46839142D02*
X25439714Y-46886761D01*
X25296857Y-46934380D01*
X25201619Y-46934380D01*
X25058761Y-46886761D01*
X24963523Y-46791523D01*
X24915904Y-46696285D01*
X24868285Y-46505809D01*
X24868285Y-46362952D01*
X24915904Y-46172476D01*
X24963523Y-46077238D01*
X25058761Y-45982000D01*
X25201619Y-45934380D01*
X25296857Y-45934380D01*
X25439714Y-45982000D01*
X25487333Y-46029619D01*
X26439714Y-46934380D02*
X25868285Y-46934380D01*
X26154000Y-46934380D02*
X26154000Y-45934380D01*
X26058761Y-46077238D01*
X25963523Y-46172476D01*
X25868285Y-46220095D01*
G04 #@! TO.C,C2*
X43463289Y-63603142D02*
X43415670Y-63650761D01*
X43272813Y-63698380D01*
X43177575Y-63698380D01*
X43034717Y-63650761D01*
X42939479Y-63555523D01*
X42891860Y-63460285D01*
X42844241Y-63269809D01*
X42844241Y-63126952D01*
X42891860Y-62936476D01*
X42939479Y-62841238D01*
X43034717Y-62746000D01*
X43177575Y-62698380D01*
X43272813Y-62698380D01*
X43415670Y-62746000D01*
X43463289Y-62793619D01*
X43844241Y-62793619D02*
X43891860Y-62746000D01*
X43987098Y-62698380D01*
X44225194Y-62698380D01*
X44320432Y-62746000D01*
X44368051Y-62793619D01*
X44415670Y-62888857D01*
X44415670Y-62984095D01*
X44368051Y-63126952D01*
X43796622Y-63698380D01*
X44415670Y-63698380D01*
G04 #@! TO.C,J2*
X11129666Y-44181380D02*
X11129666Y-44895666D01*
X11082047Y-45038523D01*
X10986809Y-45133761D01*
X10843952Y-45181380D01*
X10748714Y-45181380D01*
X11558238Y-44276619D02*
X11605857Y-44229000D01*
X11701095Y-44181380D01*
X11939190Y-44181380D01*
X12034428Y-44229000D01*
X12082047Y-44276619D01*
X12129666Y-44371857D01*
X12129666Y-44467095D01*
X12082047Y-44609952D01*
X11510619Y-45181380D01*
X12129666Y-45181380D01*
G04 #@! TO.C,J3*
X41141666Y-66356380D02*
X41141666Y-67070666D01*
X41094047Y-67213523D01*
X40998809Y-67308761D01*
X40855952Y-67356380D01*
X40760714Y-67356380D01*
X41522619Y-66356380D02*
X42141666Y-66356380D01*
X41808333Y-66737333D01*
X41951190Y-66737333D01*
X42046428Y-66784952D01*
X42094047Y-66832571D01*
X42141666Y-66927809D01*
X42141666Y-67165904D01*
X42094047Y-67261142D01*
X42046428Y-67308761D01*
X41951190Y-67356380D01*
X41665476Y-67356380D01*
X41570238Y-67308761D01*
X41522619Y-67261142D01*
G04 #@! TO.C,R1*
X16851333Y-21026380D02*
X16518000Y-20550190D01*
X16279904Y-21026380D02*
X16279904Y-20026380D01*
X16660857Y-20026380D01*
X16756095Y-20074000D01*
X16803714Y-20121619D01*
X16851333Y-20216857D01*
X16851333Y-20359714D01*
X16803714Y-20454952D01*
X16756095Y-20502571D01*
X16660857Y-20550190D01*
X16279904Y-20550190D01*
X17803714Y-21026380D02*
X17232285Y-21026380D01*
X17518000Y-21026380D02*
X17518000Y-20026380D01*
X17422761Y-20169238D01*
X17327523Y-20264476D01*
X17232285Y-20312095D01*
G04 #@! TO.C,R2*
X9924377Y-66089865D02*
X9591044Y-65613675D01*
X9352948Y-66089865D02*
X9352948Y-65089865D01*
X9733901Y-65089865D01*
X9829139Y-65137485D01*
X9876758Y-65185104D01*
X9924377Y-65280342D01*
X9924377Y-65423199D01*
X9876758Y-65518437D01*
X9829139Y-65566056D01*
X9733901Y-65613675D01*
X9352948Y-65613675D01*
X10305329Y-65185104D02*
X10352948Y-65137485D01*
X10448186Y-65089865D01*
X10686282Y-65089865D01*
X10781520Y-65137485D01*
X10829139Y-65185104D01*
X10876758Y-65280342D01*
X10876758Y-65375580D01*
X10829139Y-65518437D01*
X10257710Y-66089865D01*
X10876758Y-66089865D01*
G04 #@! TO.C,R3*
X23179659Y-21109635D02*
X22846326Y-20633445D01*
X22608230Y-21109635D02*
X22608230Y-20109635D01*
X22989183Y-20109635D01*
X23084421Y-20157255D01*
X23132040Y-20204874D01*
X23179659Y-20300112D01*
X23179659Y-20442969D01*
X23132040Y-20538207D01*
X23084421Y-20585826D01*
X22989183Y-20633445D01*
X22608230Y-20633445D01*
X23512992Y-20109635D02*
X24132040Y-20109635D01*
X23798706Y-20490588D01*
X23941564Y-20490588D01*
X24036802Y-20538207D01*
X24084421Y-20585826D01*
X24132040Y-20681064D01*
X24132040Y-20919159D01*
X24084421Y-21014397D01*
X24036802Y-21062016D01*
X23941564Y-21109635D01*
X23655849Y-21109635D01*
X23560611Y-21062016D01*
X23512992Y-21014397D01*
G04 #@! TO.C,R4*
X9924377Y-61771865D02*
X9591044Y-61295675D01*
X9352948Y-61771865D02*
X9352948Y-60771865D01*
X9733901Y-60771865D01*
X9829139Y-60819485D01*
X9876758Y-60867104D01*
X9924377Y-60962342D01*
X9924377Y-61105199D01*
X9876758Y-61200437D01*
X9829139Y-61248056D01*
X9733901Y-61295675D01*
X9352948Y-61295675D01*
X10781520Y-61105199D02*
X10781520Y-61771865D01*
X10543424Y-60724246D02*
X10305329Y-61438532D01*
X10924377Y-61438532D01*
G04 #@! TO.C,D1*
X55141904Y-46934380D02*
X55141904Y-45934380D01*
X55380000Y-45934380D01*
X55522857Y-45982000D01*
X55618095Y-46077238D01*
X55665714Y-46172476D01*
X55713333Y-46362952D01*
X55713333Y-46505809D01*
X55665714Y-46696285D01*
X55618095Y-46791523D01*
X55522857Y-46886761D01*
X55380000Y-46934380D01*
X55141904Y-46934380D01*
X56665714Y-46934380D02*
X56094285Y-46934380D01*
X56380000Y-46934380D02*
X56380000Y-45934380D01*
X56284761Y-46077238D01*
X56189523Y-46172476D01*
X56094285Y-46220095D01*
G04 #@! TO.C,D2*
X55057904Y-50998380D02*
X55057904Y-49998380D01*
X55296000Y-49998380D01*
X55438857Y-50046000D01*
X55534095Y-50141238D01*
X55581714Y-50236476D01*
X55629333Y-50426952D01*
X55629333Y-50569809D01*
X55581714Y-50760285D01*
X55534095Y-50855523D01*
X55438857Y-50950761D01*
X55296000Y-50998380D01*
X55057904Y-50998380D01*
X56010285Y-50093619D02*
X56057904Y-50046000D01*
X56153142Y-49998380D01*
X56391238Y-49998380D01*
X56486476Y-50046000D01*
X56534095Y-50093619D01*
X56581714Y-50188857D01*
X56581714Y-50284095D01*
X56534095Y-50426952D01*
X55962666Y-50998380D01*
X56581714Y-50998380D01*
G04 #@! TO.C,D3*
X55141904Y-42870380D02*
X55141904Y-41870380D01*
X55380000Y-41870380D01*
X55522857Y-41918000D01*
X55618095Y-42013238D01*
X55665714Y-42108476D01*
X55713333Y-42298952D01*
X55713333Y-42441809D01*
X55665714Y-42632285D01*
X55618095Y-42727523D01*
X55522857Y-42822761D01*
X55380000Y-42870380D01*
X55141904Y-42870380D01*
X56046666Y-41870380D02*
X56665714Y-41870380D01*
X56332380Y-42251333D01*
X56475238Y-42251333D01*
X56570476Y-42298952D01*
X56618095Y-42346571D01*
X56665714Y-42441809D01*
X56665714Y-42679904D01*
X56618095Y-42775142D01*
X56570476Y-42822761D01*
X56475238Y-42870380D01*
X56189523Y-42870380D01*
X56094285Y-42822761D01*
X56046666Y-42775142D01*
G04 #@! TO.C,D4*
X55141904Y-55062380D02*
X55141904Y-54062380D01*
X55380000Y-54062380D01*
X55522857Y-54110000D01*
X55618095Y-54205238D01*
X55665714Y-54300476D01*
X55713333Y-54490952D01*
X55713333Y-54633809D01*
X55665714Y-54824285D01*
X55618095Y-54919523D01*
X55522857Y-55014761D01*
X55380000Y-55062380D01*
X55141904Y-55062380D01*
X56570476Y-54395714D02*
X56570476Y-55062380D01*
X56332380Y-54014761D02*
X56094285Y-54729047D01*
X56713333Y-54729047D01*
G04 #@! TO.C,R5*
X42632333Y-46934380D02*
X42299000Y-46458190D01*
X42060904Y-46934380D02*
X42060904Y-45934380D01*
X42441857Y-45934380D01*
X42537095Y-45982000D01*
X42584714Y-46029619D01*
X42632333Y-46124857D01*
X42632333Y-46267714D01*
X42584714Y-46362952D01*
X42537095Y-46410571D01*
X42441857Y-46458190D01*
X42060904Y-46458190D01*
X43537095Y-45934380D02*
X43060904Y-45934380D01*
X43013285Y-46410571D01*
X43060904Y-46362952D01*
X43156142Y-46315333D01*
X43394238Y-46315333D01*
X43489476Y-46362952D01*
X43537095Y-46410571D01*
X43584714Y-46505809D01*
X43584714Y-46743904D01*
X43537095Y-46839142D01*
X43489476Y-46886761D01*
X43394238Y-46934380D01*
X43156142Y-46934380D01*
X43060904Y-46886761D01*
X43013285Y-46839142D01*
G04 #@! TO.C,R6*
X42632333Y-50998380D02*
X42299000Y-50522190D01*
X42060904Y-50998380D02*
X42060904Y-49998380D01*
X42441857Y-49998380D01*
X42537095Y-50046000D01*
X42584714Y-50093619D01*
X42632333Y-50188857D01*
X42632333Y-50331714D01*
X42584714Y-50426952D01*
X42537095Y-50474571D01*
X42441857Y-50522190D01*
X42060904Y-50522190D01*
X43489476Y-49998380D02*
X43299000Y-49998380D01*
X43203761Y-50046000D01*
X43156142Y-50093619D01*
X43060904Y-50236476D01*
X43013285Y-50426952D01*
X43013285Y-50807904D01*
X43060904Y-50903142D01*
X43108523Y-50950761D01*
X43203761Y-50998380D01*
X43394238Y-50998380D01*
X43489476Y-50950761D01*
X43537095Y-50903142D01*
X43584714Y-50807904D01*
X43584714Y-50569809D01*
X43537095Y-50474571D01*
X43489476Y-50426952D01*
X43394238Y-50379333D01*
X43203761Y-50379333D01*
X43108523Y-50426952D01*
X43060904Y-50474571D01*
X43013285Y-50569809D01*
G04 #@! TO.C,R7*
X42632333Y-42870380D02*
X42299000Y-42394190D01*
X42060904Y-42870380D02*
X42060904Y-41870380D01*
X42441857Y-41870380D01*
X42537095Y-41918000D01*
X42584714Y-41965619D01*
X42632333Y-42060857D01*
X42632333Y-42203714D01*
X42584714Y-42298952D01*
X42537095Y-42346571D01*
X42441857Y-42394190D01*
X42060904Y-42394190D01*
X42965666Y-41870380D02*
X43632333Y-41870380D01*
X43203761Y-42870380D01*
G04 #@! TO.C,R8*
X42632333Y-55062380D02*
X42299000Y-54586190D01*
X42060904Y-55062380D02*
X42060904Y-54062380D01*
X42441857Y-54062380D01*
X42537095Y-54110000D01*
X42584714Y-54157619D01*
X42632333Y-54252857D01*
X42632333Y-54395714D01*
X42584714Y-54490952D01*
X42537095Y-54538571D01*
X42441857Y-54586190D01*
X42060904Y-54586190D01*
X43203761Y-54490952D02*
X43108523Y-54443333D01*
X43060904Y-54395714D01*
X43013285Y-54300476D01*
X43013285Y-54252857D01*
X43060904Y-54157619D01*
X43108523Y-54110000D01*
X43203761Y-54062380D01*
X43394238Y-54062380D01*
X43489476Y-54110000D01*
X43537095Y-54157619D01*
X43584714Y-54252857D01*
X43584714Y-54300476D01*
X43537095Y-54395714D01*
X43489476Y-54443333D01*
X43394238Y-54490952D01*
X43203761Y-54490952D01*
X43108523Y-54538571D01*
X43060904Y-54586190D01*
X43013285Y-54681428D01*
X43013285Y-54871904D01*
X43060904Y-54967142D01*
X43108523Y-55014761D01*
X43203761Y-55062380D01*
X43394238Y-55062380D01*
X43489476Y-55014761D01*
X43537095Y-54967142D01*
X43584714Y-54871904D01*
X43584714Y-54681428D01*
X43537095Y-54586190D01*
X43489476Y-54538571D01*
X43394238Y-54490952D01*
G04 #@! TO.C,U1*
X32574380Y-27289904D02*
X33383904Y-27289904D01*
X33479142Y-27242285D01*
X33526761Y-27194666D01*
X33574380Y-27099428D01*
X33574380Y-26908952D01*
X33526761Y-26813714D01*
X33479142Y-26766095D01*
X33383904Y-26718476D01*
X32574380Y-26718476D01*
X33574380Y-25718476D02*
X33574380Y-26289904D01*
X33574380Y-26004190D02*
X32574380Y-26004190D01*
X32717238Y-26099428D01*
X32812476Y-26194666D01*
X32860095Y-26289904D01*
G04 #@! TO.C,J1*
X26906666Y-3722380D02*
X26906666Y-4436666D01*
X26859047Y-4579523D01*
X26763809Y-4674761D01*
X26620952Y-4722380D01*
X26525714Y-4722380D01*
X27906666Y-4722380D02*
X27335238Y-4722380D01*
X27620952Y-4722380D02*
X27620952Y-3722380D01*
X27525714Y-3865238D01*
X27430476Y-3960476D01*
X27335238Y-4008095D01*
G04 #@! TD*
M02*
