M48
INCH,TZ
T1C0.0157
T2C0.0394
T3C0.1260
%
G90
G05
T1
X1000Y-4000
X1000Y-5000
X1000Y-6000
X1000Y-7000
X1000Y-8000
X1000Y-9000
X1000Y-10000
X1000Y-11000
X1000Y-12000
X1000Y-13000
X1000Y-14000
X1000Y-15000
X1000Y-16000
X1000Y-17000
X1000Y-18000
X1000Y-19000
X1000Y-20000
X1000Y-21000
X1000Y-22000
X1000Y-23000
X1000Y-24000
X1000Y-25000
X1000Y-26000
X1000Y-27000
X1000Y-28000
X1000Y-29000
X4000Y-1000
X4000Y-31500
X5000Y-1000
X5000Y-31500
X5500Y-15800
X5500Y-16900
X5800Y-3600
X6000Y-1000
X6000Y-3200
X6000Y-4000
X6000Y-15800
X6000Y-16900
X6000Y-31500
X6200Y-3600
X6400Y-3200
X6400Y-4000
X6400Y-19900
X6452Y-19485
X6600Y-3600
X7000Y-1000
X7000Y-31500
X7078Y-22850
X7078Y-23637
X7078Y-24425
X8000Y-1000
X8000Y-31500
X8600Y-13400
X8800Y-13000
X8800Y-13800
X9000Y-1000
X9000Y-13400
X9000Y-31500
X9200Y-13000
X9200Y-13800
X9400Y-13400
X10000Y-31500
X10300Y-24800
X10500Y-24400
X10500Y-25200
X10700Y-24800
X10900Y-7400
X10900Y-24400
X10900Y-25200
X11000Y-31500
X11100Y-7000
X11100Y-7800
X11100Y-24800
X11200Y-18200
X11300Y-7400
X11500Y-7000
X11500Y-7800
X11700Y-7400
X12000Y-31500
X12400Y-18465
X13000Y-31500
X13505Y-17691
X13900Y-3800
X13900Y-12700
X14000Y-31500
X14115Y-3152
X14200Y-12400
X14500Y-12000
X14885Y-5600
X14900Y-27100
X14900Y-28100
X15000Y-31500
X15300Y-4200
X15400Y-27100
X15400Y-28100
X15600Y-25300
X16000Y-31500
X17000Y-31500
X18000Y-10650
X18000Y-15200
X18000Y-31500
X18100Y-5300
X18200Y-10250
X18200Y-11050
X18200Y-14800
X18200Y-15600
X18300Y-4900
X18300Y-5700
X18400Y-10650
X18400Y-15200
X18450Y-24350
X18500Y-5300
X18600Y-10250
X18600Y-11050
X18600Y-14800
X18600Y-15600
X18650Y-23950
X18650Y-24750
X18700Y-4900
X18700Y-5700
X18800Y-10650
X18800Y-15200
X18850Y-24350
X18900Y-5300
X19000Y-31500
X19050Y-23950
X19050Y-24750
X19250Y-24350
X20000Y-31500
X21000Y-31500
X22000Y-1000
X22000Y-31500
X23000Y-1000
X23000Y-2000
X23000Y-3000
X23000Y-4000
X23000Y-5000
X23000Y-6000
X23000Y-7000
X23000Y-8000
X23000Y-9000
X23000Y-10000
X23000Y-11000
X23000Y-12000
X23000Y-13000
X23000Y-14000
X23000Y-15000
X23000Y-16000
X23000Y-17000
X23000Y-18000
X23000Y-19000
X23000Y-20000
X23000Y-21000
X23000Y-22000
X23000Y-23000
X23000Y-24000
X23000Y-25000
X23000Y-26000
X23000Y-27000
X23000Y-28000
X23000Y-29000
X23000Y-30000
X23000Y-31500
X23000Y-31500
T2
X11642Y-1181
X11642Y-2181
X12642Y-1181
X12642Y-2181
X13642Y-1181
X13642Y-2181
X14642Y-1181
X14642Y-2181
X15642Y-1181
X15642Y-2181
X16642Y-1181
X16642Y-2181
X17642Y-1181
X17642Y-2181
X18642Y-1181
X18642Y-2181
X19642Y-1181
X19642Y-2181
X20642Y-1181
X20642Y-2181
T3
X1969Y-1969
X30315Y-30315
X30315Y-1969
X1969Y-30315
T0
M30
