G04 #@! TF.GenerationSoftware,KiCad,Pcbnew,(5.0.0)*
G04 #@! TF.CreationDate,2019-04-05T11:11:38-04:00*
G04 #@! TF.ProjectId,Radio Board,526164696F20426F6172642E6B696361,rev?*
G04 #@! TF.SameCoordinates,Original*
G04 #@! TF.FileFunction,Soldermask,Top*
G04 #@! TF.FilePolarity,Negative*
%FSLAX46Y46*%
G04 Gerber Fmt 4.6, Leading zero omitted, Abs format (unit mm)*
G04 Created by KiCad (PCBNEW (5.0.0)) date 04/05/19 11:11:38*
%MOMM*%
%LPD*%
G01*
G04 APERTURE LIST*
%ADD10R,2.400000X1.400000*%
%ADD11C,6.800000*%
%ADD12R,1.600000X1.150000*%
%ADD13R,1.150000X1.600000*%
%ADD14R,2.600000X1.450000*%
%ADD15R,1.450000X1.400000*%
%ADD16R,1.300000X1.600000*%
%ADD17R,1.600000X1.300000*%
%ADD18R,1.400000X2.400000*%
%ADD19O,2.100000X2.100000*%
%ADD20R,2.100000X2.100000*%
G04 APERTURE END LIST*
D10*
G04 #@! TO.C,U2*
X19814000Y-56104000D03*
X19814000Y-58104000D03*
X19814000Y-60104000D03*
X19814000Y-62104000D03*
X19814000Y-64104000D03*
X19814000Y-66104000D03*
X19814000Y-68104000D03*
X19814000Y-70104000D03*
X35814000Y-70104000D03*
X35814000Y-68104000D03*
X35814000Y-66104000D03*
X35814000Y-64104000D03*
X35814000Y-62104000D03*
X35814000Y-60104000D03*
X35814000Y-58104000D03*
X35814000Y-56104000D03*
G04 #@! TD*
D11*
G04 #@! TO.C,REF\002A\002A*
X5000000Y-77000000D03*
G04 #@! TD*
G04 #@! TO.C,REF\002A\002A*
X5000000Y-5000000D03*
G04 #@! TD*
G04 #@! TO.C,REF\002A\002A*
X77000000Y-77000000D03*
G04 #@! TD*
G04 #@! TO.C,REF\002A\002A*
X77000000Y-5000000D03*
G04 #@! TD*
D12*
G04 #@! TO.C,C1*
X26604000Y-44958000D03*
X24704000Y-44958000D03*
G04 #@! TD*
D13*
G04 #@! TO.C,C2*
X41656000Y-62296000D03*
X41656000Y-64196000D03*
G04 #@! TD*
D14*
G04 #@! TO.C,J2*
X11463000Y-40054000D03*
D15*
X12988000Y-41529000D03*
D14*
X11463000Y-43004000D03*
G04 #@! TD*
G04 #@! TO.C,J3*
X41475000Y-68629000D03*
D15*
X39950000Y-70104000D03*
D14*
X41475000Y-71579000D03*
G04 #@! TD*
D16*
G04 #@! TO.C,R1*
X18796000Y-21674000D03*
X18796000Y-19474000D03*
G04 #@! TD*
D17*
G04 #@! TO.C,R2*
X11191044Y-67087485D03*
X8991044Y-67087485D03*
G04 #@! TD*
D16*
G04 #@! TO.C,R3*
X21336000Y-19474000D03*
X21336000Y-21674000D03*
G04 #@! TD*
D17*
G04 #@! TO.C,R4*
X8991044Y-62769485D03*
X11191044Y-62769485D03*
G04 #@! TD*
G04 #@! TO.C,D1*
X53678000Y-46482000D03*
X51478000Y-46482000D03*
G04 #@! TD*
G04 #@! TO.C,D2*
X53594000Y-50546000D03*
X51394000Y-50546000D03*
G04 #@! TD*
G04 #@! TO.C,D3*
X51394000Y-42418000D03*
X53594000Y-42418000D03*
G04 #@! TD*
G04 #@! TO.C,D4*
X51478000Y-54610000D03*
X53678000Y-54610000D03*
G04 #@! TD*
G04 #@! TO.C,R5*
X47201000Y-46482000D03*
X45001000Y-46482000D03*
G04 #@! TD*
G04 #@! TO.C,R6*
X45001000Y-50546000D03*
X47201000Y-50546000D03*
G04 #@! TD*
G04 #@! TO.C,R7*
X45001000Y-42418000D03*
X47201000Y-42418000D03*
G04 #@! TD*
G04 #@! TO.C,R8*
X47201000Y-54610000D03*
X45001000Y-54610000D03*
G04 #@! TD*
D18*
G04 #@! TO.C,U1*
X30622000Y-41528000D03*
X28622000Y-41528000D03*
X26622000Y-41528000D03*
X24622000Y-41528000D03*
X22622000Y-41528000D03*
X20622000Y-41528000D03*
X18622000Y-41528000D03*
X16622000Y-41528000D03*
X16622000Y-25528000D03*
X18622000Y-25528000D03*
X20622000Y-25528000D03*
X22622000Y-25528000D03*
X24622000Y-25528000D03*
X26622000Y-25528000D03*
X28622000Y-25528000D03*
X30622000Y-25528000D03*
G04 #@! TD*
D19*
G04 #@! TO.C,J1*
X52430000Y-3000000D03*
X52430000Y-5540000D03*
X49890000Y-3000000D03*
X49890000Y-5540000D03*
X47350000Y-3000000D03*
X47350000Y-5540000D03*
X44810000Y-3000000D03*
X44810000Y-5540000D03*
X42270000Y-3000000D03*
X42270000Y-5540000D03*
X39730000Y-3000000D03*
X39730000Y-5540000D03*
X37190000Y-3000000D03*
X37190000Y-5540000D03*
X34650000Y-3000000D03*
X34650000Y-5540000D03*
X32110000Y-3000000D03*
X32110000Y-5540000D03*
X29570000Y-3000000D03*
D20*
X29570000Y-5540000D03*
G04 #@! TD*
M02*
